<svg width="163" height="173" viewBox="0 0 163 173" fill="none" xmlns="http://www.w3.org/2000/svg">
    <path d="M73.282 72.9879C70.4795 74.5156 68.2198 76.7936
     66.7885 79.5339C65.3573 82.2743 64.8188 85.3538 
     65.2412 88.383C65.6636 91.4123 67.0279 94.2553
      69.1616 96.5524C71.2953 98.8496 74.1026 100.498
      77.2284 101.288C80.3542 102.079 83.6581 101.977 
      86.7223 100.995C89.7866 100.013 92.4736 98.1944 
      94.4434 95.7703C96.4133 93.3462 97.5776 90.425 
      97.7891 87.3762C98.0006 84.3273 97.2498 81.2877 
      95.6317 78.6417C93.4618 75.0938 89.8882 72.5051 
      85.6969 71.4448C81.5056 70.3845 77.0399 70.9396 
      73.282 72.9879ZM146.616 89.7488C145.541 88.5897 144.408 87.4275 
      143.215 86.2621C144.048 85.4354 144.855 84.6093 
      145.634 83.784C160.345 68.1771 166.554 52.5255 
      160.801 43.1158C155.284 34.0939 138.874 31.4053 
      118.33 35.1769C116.306 35.5507 114.294 35.9724 
      112.293 36.4419C111.91 35.1949 111.502 33.9551
       111.07 32.7224C104.101 12.8921 92.8423 -0.00683077 
       81.3354 2.71381e-06C70.3014 0.0047602 59.6371 12.0848
        52.834 30.7723C52.1646 32.6158 51.5455 34.4747 
        50.9764 36.349C49.6384 36.0391 48.2947 35.7527 46.9454 35.4901C25.2698 31.2881 7.81136 34.0556 2.06932 43.4705C-3.43662 52.499 2.32154 67.2564 16.0725 82.1542C17.4362 83.6282 18.8386 85.0692 20.2795 86.4771C18.5808 88.1292 16.9723 89.7804 15.4731 91.4224C2.0554 106.11 -3.3735 120.626 2.12356 129.616C7.80073 138.901 25.0135 141.936 45.9641 138.044C47.662 137.726 49.3505 137.368 51.0296 136.971C51.6446 138.998 52.3194 141.008 53.0538 143C59.8269 161.313 70.4314 173.004 81.4263 173C92.7812 172.994 104.164 160.433 111.061 141.352C111.605 139.844 112.121 138.278 112.61 136.666C114.779 137.175 116.962 137.627 119.159 138.022C139.344 141.628 155.369 138.792 160.856 129.796C166.522 120.504 160.68 104.918 146.616 89.7488ZM8.85227 47.1583C12.3872 41.3628 26.6549 39.1018 45.37 42.7295C46.5661 42.9617 47.7826 43.2212 49.0197 43.508C47.1925 51.1396 45.9032 58.8771 45.1604 66.6698C38.4076 71.1552 31.9693 76.0487 25.886 81.3194C24.5457 80.0106 23.2412 78.6702 21.9725 77.298C10.1904 64.5332 5.53413 52.5989 8.85227 47.1583ZM44.4592 96.7061C39.7818 93.362 35.4348 89.9362 31.4894 86.4905C35.4321 83.0662 39.7818 79.6519 44.4496 76.3168C44.2819 79.7142 44.1988 83.1143 44.2003 86.5169C44.2028 89.9145 44.2891 93.3109 44.4592 96.7061ZM44.4536 130.792C36.5131 132.459 28.3155 132.732 20.2704 131.598C18.0649 131.436 15.9181 130.848 13.9627 129.872C12.0072 128.895 10.2845 127.551 8.90119 125.921C5.56583 120.466 9.92505 108.811 21.4001 96.2495C22.8428 94.6752 24.3328 93.142 25.87 91.6499C31.9543 96.9483 38.403 101.861 45.174 106.356C45.9271 114.248 47.2315 122.084 49.0787 129.814C47.5458 130.176 46.0041 130.502 44.4536 130.792ZM109.509 61.252C106.437 59.424 103.326 57.6547 100.177 55.944C97.0791 54.2601 93.9434 52.6395 90.7706 51.0821C96.2032 48.9254 101.543 47.0834 106.699 45.5823C107.914 50.7576 108.852 55.9875 109.509 61.252ZM60.2363 33.1745C66.065 17.1622 74.6895 7.39296 81.3396 7.39028C88.422 7.38708 97.6241 17.9282 103.641 35.0497C104.032 36.1658 104.402 37.2883 104.75 38.417C96.8446 40.732 89.1103 43.5384 81.5976 46.8178C74.1162 43.4998 66.4063 40.6621 58.5203 38.3241C59.0474 36.5945 59.6194 34.878 60.2363 33.1745ZM56.5684 45.4902C61.9459 47.0887 67.2346 48.9421 72.4144 51.0435C65.9964 54.1708 59.7442 57.5771 53.6579 61.2626C54.3932 55.7439 55.3717 50.4564 56.5684 45.4902ZM53.6713 111.755C56.7065 113.589 59.786 115.356 62.9099 117.055C66.0964 118.787 69.3254 120.447 72.5967 122.034C67.3773 124.208 62.0432 126.127 56.6153 127.785C55.4047 122.75 54.4156 117.37 53.6713 111.755ZM103.653 138.963C101.215 146.291 97.3704 153.133 92.3101 159.146C91.0595 160.869 89.4476 162.331 87.575 163.443C85.7024 164.554 83.6083 165.291 81.4221 165.608C74.7508 165.612 66.2358 156.223 60.4434 140.563C59.7613 138.711 59.1337 136.843 58.5607 134.957C66.4844 132.544 74.2257 129.626 81.7313 126.223C89.3057 129.524 97.1016 132.352 105.068 134.688C104.633 136.123 104.161 137.549 103.653 138.963ZM106.971 127.509C101.756 125.987 96.3387 124.114 90.8277 121.925C93.9344 120.382 97.0636 118.751 100.215 117.034C103.45 115.271 106.601 113.464 109.671 111.612C109.059 116.951 108.158 122.257 106.971 127.509ZM111.06 86.485C111.067 91.7381 110.893 96.987 110.539 102.232C106.025 105.116 101.26 107.932 96.302 110.635C91.3646 113.326 86.4726 115.8 81.6738 118.038C76.6239 115.753 71.6715 113.291 66.8163 110.651C61.9885 108.027 57.2714 105.233 52.665 102.269C52.244 97.0261 52.0319 91.7735 52.0287 86.5113C52.0248 81.2529 52.2334 76.0016 52.6522 70.7541C57.1646 67.8445 61.8951 65.0306 66.7861 62.3644C71.6995 59.6856 76.6528 57.2227 81.5788 54.9905C86.5664 57.2792 91.4641 59.7319 96.2719 62.3486C101.096 64.9666 105.827 67.7308 110.463 70.6411C110.861 75.9143 111.059 81.1956 111.06 86.485ZM119.825 42.4321C137.427 39.1994 150.698 41.374 154.023 46.8109C157.565 52.6031 152.489 65.3954 139.788 78.8708C139.086 79.6142 138.358 80.3612 137.603 81.1109C131.415 75.829 124.852 70.9511 117.962 66.511C117.266 58.8035 116.025 51.1487 114.247 43.5978C116.142 43.1575 118.002 42.7689 119.825 42.4321ZM118.635 76.0347C123.283 79.2387 127.751 82.6682 132.023 86.3094C127.77 90.0105 123.316 93.4992 118.677 96.7613C118.819 93.3364 118.889 89.9098 118.887 86.4815C118.885 82.9984 118.801 79.5162 118.635 76.0347ZM154.072 126.107C150.742 131.567 137.876 133.843 120.613 130.76C118.634 130.407 116.604 129.987 114.523 129.5C116.258 121.852 117.444 114.102 118.072 106.303C124.951 101.786 131.493 96.8265 137.651 91.4609C138.728 92.5179 139.753 93.5699 140.726 94.6171C146.232 100.27 150.589 106.832 153.58 113.974C154.536 115.858 155.073 117.906 155.157 119.993C155.242 122.08 154.873 124.161 154.072 126.107Z" fill="url(#paint0_linear_8_87)" fill-opacity="0.5"/>
    <defs>
    <linearGradient id="paint0_linear_8_87" x1="81.5" y1="0" x2="81.5" y2="173" gradientUnits="userSpaceOnUse">
    <stop stop-color="#99EDFF"/>
    <stop offset="1" stop-color="#99EDFF" stop-opacity="0"/>
    </linearGradient>
    </defs>
    </svg>