<svg width="230" height="250" viewBox="0 0 230 250" fill="none" xmlns="http://www.w3.org/2000/svg">
    <path d="M147.099 0.39496C145.069 0.936126 143.478 1.90249 143.173 2.8302C142.835 3.83523 143.816 5.69065 145.576 7.31415C147.877 9.44015 149.062 11.025 149.502 12.5325C149.84 13.6535 149.773 14.0401 148.96 15.7795C148.385 16.9392 147.031 18.6786 145.644 20.1088C139.451 26.2163 135.525 31.0868 133.021 35.8413C131.871 38.0833 130.043 42.3739 129.366 44.5386C129.197 45.1184 128.96 44.5773 128.486 42.4512C127.065 36.1119 123.985 30.6616 119.755 26.9894C118.266 25.7138 116.337 23.6651 115.424 22.5054C111.058 16.7072 103.985 12.7258 95.4573 11.141C93.2577 10.7158 90.0089 10.0973 88.2492 9.74939C86.4894 9.4015 83.4437 8.86033 81.4809 8.5511C79.5181 8.20321 77.0815 7.54608 76.0663 7.04356C73.1221 5.652 65.5755 4.14446 61.4807 4.14446C59.5179 4.14446 56.1338 3.87388 53.968 3.56464C49.4333 2.86886 49.2302 2.90751 43.6464 5.49738C41.6159 6.42509 38.6717 7.46877 37.115 7.778C32.1065 8.78302 28.7901 10.6771 26.9627 13.5376C25.1691 16.3593 25.5075 16.9392 29.1962 17.4803C30.1437 17.6349 31.7343 17.9828 32.7495 18.2534C33.7648 18.524 35.6599 18.8719 36.9797 19.0265C39.9239 19.3744 42.3943 20.3794 44.3571 22.1189C47.8766 25.1726 54.814 39.5908 57.7582 49.9116C59.6871 56.7148 61.0408 60.0391 63.8158 64.7936C65.5078 67.7701 70.3471 73.7229 71.024 73.7229C71.1932 73.7229 71.3285 73.8775 71.3285 74.1094C71.3285 74.3414 70.4487 74.496 69.3319 74.496C68.2151 74.496 66.117 74.6892 64.6618 74.9212C60.1609 75.617 45.0339 79.5211 40.7361 81.0673C38.4687 81.879 35.1184 83 33.291 83.5412C29.4331 84.7008 24.4246 86.9041 22.4279 88.3344C21.6834 88.8369 20.499 89.9192 19.7545 90.6923C16.2012 94.5191 4.79666 111.604 2.5293 116.552C0.87108 120.186 -0.177999 124.283 0.0250489 126.448C0.32962 129.386 2.59698 131.821 6.28568 133.135C8.58688 133.947 14.5091 133.831 19.213 132.865C23.8831 131.937 24.5938 131.937 27.1657 132.671C29.5008 133.367 39.6531 137.542 48.8579 141.562C59.7887 146.355 65.6432 148.404 73.1898 150.143C77.8599 151.187 88.5537 151.071 93.2238 149.95C95.0851 149.486 96.7433 149.099 96.8448 149.099C96.9802 149.099 96.8448 149.563 96.5741 150.143C95.7619 151.999 94.7467 156.405 93.6637 162.822C93.0884 166.224 92.4116 170.166 92.1409 171.597C91.5656 174.612 91.4641 182.111 91.9717 187.638C92.1409 189.726 92.6147 195.06 92.9869 199.544C93.3592 203.989 93.7314 208.396 93.833 209.285C93.9006 210.174 93.833 213.305 93.6299 216.243C93.3253 221.152 93.19 221.848 91.8025 225.636C89.7382 231.473 89.2644 233.483 89.2644 236.846C89.2644 241.793 91.261 245.118 95.6265 247.476C100.5 250.104 106.523 250.259 112.784 247.862C115.39 246.896 120.906 243.726 124.29 241.252C125.982 240.054 130.145 237.309 133.596 235.222C146.388 227.298 150.754 223.742 153.901 218.485C155.187 216.359 163.986 196.915 166.49 190.653C170.856 179.83 172.175 174.998 172.412 168.775C172.615 163.827 172.345 161.933 170.788 157.294C169.84 154.434 169.908 153.893 171.025 155.323C171.905 156.444 174.95 158.802 177.252 160.116C180.534 162.01 183.648 162.977 190.754 164.368C216.643 169.355 217.658 169.664 220.771 172.795C222.193 174.186 225.103 179.057 225.442 180.603C225.746 181.956 226.288 181.685 227.574 179.482C229.063 176.97 229.706 174.38 229.942 169.78C230.179 164.987 229.706 161.392 228.149 156.096C226.998 152.076 226.964 152.037 227.574 150.684C228.115 149.447 228.183 148.094 228.149 137.89C228.149 125.288 227.844 122.428 225.949 116.436C224.9 113.112 221.685 107.121 220.061 105.42C219.249 104.569 219.282 104.685 220.331 106.386C225.949 115.47 227.946 128.226 225.611 140.595C225.238 142.606 224.832 144.925 224.731 145.698C224.629 146.51 224.426 147.167 224.257 147.167C223.614 147.167 219.959 143.263 219.418 141.948C219.079 141.175 218.741 140.634 218.639 140.75C218.301 141.137 219.249 143.495 220.602 145.698C223.58 150.568 225.746 157.604 226.288 164.098C226.558 167.654 226.288 172.949 225.78 173.877C225.678 174.109 225.171 173.375 224.663 172.254C223.242 169.007 222.024 168.35 213.969 166.533C210.247 165.682 204.392 164.175 200.974 163.208C197.523 162.242 192.582 161.082 189.976 160.657C179.011 158.84 172.785 154.627 168.114 145.814C167.336 144.306 166.219 142.567 165.678 141.871L164.663 140.673L165.949 140.248C167.776 139.668 168.182 139.706 172.142 140.827C176.033 141.91 178.267 143.069 182.835 146.394C184.527 147.592 187.032 149.254 188.419 150.027C191.16 151.535 191.059 151.38 187.945 149.254C185.238 147.437 179.181 142.49 179.384 142.258C179.688 141.948 182.091 143.301 184.832 145.311C192.04 150.568 202.328 154.202 209.672 154.086L212.277 154.009L209.604 153.699C203.512 152.965 197.15 151.148 193.022 148.945C191.127 147.94 186.456 144.732 184.189 142.837C183.986 142.683 184.155 142.296 184.629 141.948C185.035 141.6 185.374 140.943 185.374 140.479C185.34 139.32 184.324 136.846 182.835 134.372L181.617 132.323L181.719 127.492C181.786 124.786 181.685 122.041 181.549 121.345L181.245 120.07L183.411 120.302C188.758 120.92 191.973 122.428 197.049 126.834C198.91 128.458 202.802 131.821 205.678 134.295C208.555 136.769 211.668 139.59 212.616 140.557L214.274 142.335L213.191 140.711C211.702 138.547 209.333 136.15 204.663 132.091C202.531 130.197 199.248 127.298 197.387 125.559C192.649 121.152 189.333 119.335 184.121 118.214C180.365 117.403 179.891 117.209 179.113 116.166C178.639 115.547 178.267 114.851 178.267 114.658C178.267 113.73 187.235 116.05 192.582 118.33C194.206 119.026 195.526 119.529 195.526 119.451C195.526 119.219 192.514 117.789 189.096 116.398C187.336 115.702 184.358 114.504 182.497 113.769C180.636 112.996 178.605 112.378 177.996 112.378C177.15 112.378 176.338 111.914 174.849 110.599C173.766 109.594 172.852 108.667 172.852 108.551C172.852 108.435 174.95 108.28 177.522 108.203C181.854 108.087 182.328 108.126 184.697 109.131C188.555 110.715 191.736 112.455 194.274 114.426C195.526 115.393 196.541 116.127 196.541 116.05C196.541 115.625 192.209 112.184 189.502 110.445C187.776 109.324 186.389 108.357 186.389 108.319C186.389 108.126 189.671 108.937 192.142 109.71C195.187 110.638 200.771 113.615 203.512 115.779C208.69 119.799 213.868 125.868 217.455 132.091C219.621 135.88 220.23 136.73 219.384 134.797C218.267 132.246 215.729 128.033 213.834 125.52C206.457 115.818 198.233 109.44 189.13 106.309C186.389 105.381 185.847 105.304 179.35 105.381C172.175 105.458 169.807 105.11 169.807 103.989C169.807 103.332 170.111 103.023 172.852 100.82L174.714 99.3509L181.651 99.6602C186.253 99.8534 189.367 100.163 190.788 100.588C194.375 101.632 199.248 104.84 203.817 109.208C204.392 109.749 203.377 108.551 201.617 106.541C197.962 102.443 194.511 100.047 190.754 99.0803C189.028 98.6165 181.11 97.6888 179.011 97.6888C177.996 97.6888 179.045 96.993 181.042 96.3359C186.389 94.635 194.375 96.3359 203.242 101.013C208.352 103.719 211.33 106.193 214.782 110.638C216.068 112.3 216.169 112.378 215.628 111.257C212.413 104.608 199.418 95.3695 190.382 93.2821C187.066 92.509 182.362 92.509 179.79 93.2435C178.199 93.7073 174.781 95.3695 173.191 96.4132C173.089 96.4905 172.818 96.0266 172.615 95.4081C172.243 94.2485 172.243 94.2485 174.003 93.6687C175.796 93.0502 178.774 90.9242 181.076 88.5663L182.328 87.252H186.423C188.927 87.252 191.397 87.4839 192.92 87.8705C195.492 88.5276 205.171 92.625 209.333 94.8283C212.108 96.2586 215.763 99.0803 216.643 100.472L217.218 101.361L216.812 100.433C215.628 97.5728 211.6 93.9006 206.423 90.9629C198.842 86.5949 192.142 84.0437 188.182 84.005C186.829 83.9664 185.712 83.8891 185.712 83.8118C185.712 83.7344 186.829 82.3042 188.216 80.6421C194.037 73.5683 197.827 63.4794 198.504 53.1199C199.147 43.7655 197.59 37.9286 191.634 27.7238C187.979 21.4231 183.005 16.282 176.913 12.4552C174.95 11.2183 171.871 9.05361 170.077 7.62338C167.878 5.88392 166.016 4.76294 164.493 4.22177C152.006 -0.146205 150.517 -0.494097 147.099 0.39496ZM152.717 1.20671C156.642 2.48231 165.982 6.5024 167.404 7.54608C168.25 8.16455 171.092 10.2132 173.698 12.1073C183.411 19.1425 186.423 22.1962 190.45 29.154C194.781 36.653 196.304 41.0983 196.744 47.631C197.252 55.0913 194.172 66.1852 189.604 73.5296C186.49 78.5547 178.131 86.7109 173.36 89.3394C168.757 91.9292 168.927 91.9292 168.453 89.378C167.979 86.7109 168.182 86.363 171.668 84.0437C174.477 82.1883 176.879 79.5211 178.944 76.0422L180.433 73.5296L177.218 77.2405C175.187 79.5984 173.055 81.6084 171.329 82.8067C169.84 83.8504 168.284 85.0487 167.844 85.4739C167.336 85.9764 166.964 86.0924 166.761 85.8605C166.422 85.4739 170.28 80.99 176.236 74.8825C179.587 71.4423 181.549 68.5045 183.343 64.2525C185.577 58.9568 186.186 55.5552 186.186 48.4041C186.186 45.0025 185.983 41.0983 185.746 39.7068C185.069 35.648 183.614 28.8061 183.478 28.9994C183.411 29.0767 183.648 30.7002 184.02 32.5943C186.524 45.8142 185.035 58.145 179.824 67.0743C177.895 70.3986 175.153 73.6456 171.329 77.1245C169.671 78.632 167.607 80.8353 166.795 82.0336C165.475 83.8891 165.272 84.0823 164.9 83.5025C164.561 83 164.73 82.3042 165.813 79.5597C167.336 75.8102 168.656 73.6069 173.36 66.9583C178.639 59.4593 180.162 56.0577 180.534 50.8007C180.805 47.4764 180.162 47.4764 179.79 50.8007C179.282 55.6325 176.879 61.0055 173.055 65.9919C167.099 73.8002 165.982 75.385 165.069 77.2791L164.054 79.3278V77.3564C164.054 75.2304 163.241 73.5683 161.008 71.2103C159.248 69.3162 159.18 68.9297 160.365 67.0356C161.752 64.755 162.057 62.1651 161.042 61.0055C159.993 59.8072 158.368 59.9618 156.879 61.3534C155.424 62.7063 153.732 66.5331 153.36 69.0843C153.258 70.0507 152.784 71.5969 152.378 72.5632C151.972 73.5296 151.058 75.8489 150.382 77.7043C147.742 85.01 143.884 92.5477 140.263 97.4955C138.334 100.163 133.935 105.574 133.935 105.304C133.935 105.226 134.645 103.951 135.492 102.482C137.488 99.0417 141.718 89.1461 143.004 84.8554C144.696 79.4438 145.069 76.5447 145.035 69.5095C145.035 63.8659 144.967 63.1315 144.392 62.4744C143.58 61.5467 142.835 61.5467 141.448 62.513C139.485 63.9046 139.146 66.2239 140.703 68.002C141.651 69.0457 141.888 69.1616 143.14 68.9297L144.527 68.6591L144.324 71.6742C144.087 74.8825 143.41 77.5883 141.854 81.1832C140.94 83.3092 140.872 83.3479 140.466 82.5361C140.229 82.0336 139.891 80.99 139.688 80.1782C139.349 78.8253 139.417 78.5547 140.534 76.4287C141.211 75.1531 142.091 73.9162 142.463 73.6842C143.478 73.0658 142.937 72.8338 141.583 73.3363C140.906 73.5683 140.026 74.3027 139.586 74.9598L138.774 76.1195L137.59 73.2204C136.913 71.6355 135.221 68.3112 133.799 65.8373C130.077 59.3047 130.111 59.4207 130.111 55.1686C130.111 52.0376 130.28 50.9166 131.194 47.631C132.547 42.9151 134.679 37.9286 136.845 34.4111C137.725 32.9809 141.075 28.8061 144.256 25.2113C151.025 17.519 151.871 16.0114 151.871 11.7981C151.871 10.3292 151.668 8.58975 151.397 7.89397C150.551 5.53603 148.114 3.48733 145.339 2.79155C143.986 2.48231 144.358 1.70922 146.152 1.16805C148.216 0.549579 150.72 0.588234 152.717 1.20671ZM54.0695 4.72428C55.2201 5.07218 57.5213 5.3041 60.1609 5.3041C64.7295 5.3041 70.1103 6.34778 75.0511 8.16455C76.4386 8.70572 78.266 9.20823 79.112 9.36285C79.958 9.47881 82.9361 10.02 85.7111 10.5611C98.2662 12.9191 101.041 13.7308 106.016 16.5913C109.163 18.3694 110.72 19.761 114.679 24.2449C116.27 26.0617 118.706 28.7675 120.094 30.275C123.004 33.4061 124.798 36.6917 126.016 41.021C127.099 44.9251 127.64 50.9553 127.268 54.9367L126.997 57.9904L124.73 55.8644C123.478 54.7048 121.989 53.5065 121.447 53.2359C120.601 52.8494 120.364 52.4242 120.094 50.878C118.909 44.5386 115.864 33.5607 115.424 34.0245C115.356 34.1018 115.627 35.0296 115.999 36.0346C116.777 38.0833 118.097 43.9974 118.672 47.8242C118.875 49.2158 119.18 50.8393 119.315 51.4964C119.552 52.5015 119.485 52.7334 118.571 53.4292C116.879 54.7434 116.642 55.6325 116.743 60.5416C116.811 63.2475 116.71 64.9869 116.507 65.1029C116.337 65.1415 115.897 64.1752 115.525 62.8609C114.882 60.4643 111.295 53.2359 108.723 49.1772C107.911 47.9016 106.083 45.5436 104.628 43.9588L101.989 41.0597L104.594 44.268C108.689 49.2158 111.735 54.9754 114.205 62.2424L115.356 65.6827L114.138 67.2289C113.461 68.0793 112.716 69.2776 112.479 69.9347L112.04 71.0557L110.652 67.8087C107.268 59.6526 101.177 51.1485 93.3253 43.4176C91.5656 41.7168 87.8092 38.006 84.9666 35.1842C78.1645 28.4196 74.0358 24.9407 70.9563 23.3172C68.4859 22.0029 58.4689 18.3307 58.1981 18.64C58.1304 18.7173 59.8563 19.4131 62.056 20.2248C69.5688 22.892 72.716 24.7474 77.5892 29.4246C82.0224 33.638 96.1342 48.5587 97.2171 50.1435C97.5893 50.6847 96.9464 50.1435 95.8296 48.9839C93.5622 46.626 78.1983 32.4783 75.5587 30.3523C73.9005 28.9994 69.9072 26.5642 69.3996 26.5642C69.2642 26.5642 70.2795 27.2986 71.6669 28.149C74.7803 30.0817 75.1188 30.4296 85.8803 41.253C100.804 56.2896 102.869 58.8408 108.182 68.7364L111.329 74.6506L110.923 76.1581C110.72 77.0085 110.144 78.4001 109.671 79.2505C109.197 80.1009 108.486 81.5698 108.046 82.4975L107.302 84.1983L106.151 82.1496C104.087 78.4774 101.752 75.9649 97.8939 73.3363C96.7771 72.5246 96.9125 72.7952 98.9768 75.0758C101.616 78.0909 104.155 82.2656 105.373 85.7445C106.422 88.6822 106.422 89.0688 105.204 89.0688C104.425 89.0688 104.188 88.8369 103.85 87.8318C102.801 84.5075 99.0107 80.5648 93.0885 76.5833C89.1629 73.9935 88.7568 73.7615 90.1104 74.9598C94.0022 78.4001 98.9768 83.8117 100.432 86.2083C101.38 87.6772 102.124 89.0301 102.124 89.1847C102.124 89.3394 101.413 89.6486 100.534 89.8805C98.9768 90.2671 98.8753 90.2671 98.2323 89.2621C96.8448 87.0587 93.833 83.6958 92.0394 82.3815C90.0427 80.8353 85.508 78.4774 81.3455 76.8153C79.5181 76.0422 78.266 75.2691 77.2846 74.1867C76.5401 73.375 74.6788 71.5969 73.1898 70.2053C65.3725 63.0928 63.3082 59.8459 59.2811 48.1721C57.0814 41.7168 52.8174 32.0531 50.0762 27.3759C47.6735 23.2399 44.4586 19.4517 42.4281 18.4467C41.5821 17.9828 39.8562 17.5576 38.6041 17.4417C34.983 17.1324 28.0118 15.5862 28.0118 15.1224C28.0118 13.3056 31.8697 10.7931 36.8105 9.36285C38.7733 8.82168 41.9543 7.50742 43.9171 6.5024C45.8799 5.45872 47.775 4.49236 48.1473 4.41505C49.5686 4.0285 52.2759 4.18312 54.0695 4.72428ZM123.343 57.5652C124.73 58.4929 126.422 59.6526 127.133 60.1937C128.656 61.3534 132.209 66.4558 134.578 70.9011C136.135 73.8388 136.338 74.496 136.981 78.7866C137.353 81.3379 137.657 85.2033 137.657 87.3293V91.2334L136.067 94.3645C135.221 96.1039 133.732 98.8098 132.784 100.395C131.126 103.178 131.058 103.255 130.957 102.134C130.788 100.124 129.84 94.9443 129.366 93.5141C128.892 92.1225 128.892 92.1225 129.129 94.4031C129.468 97.8434 129.366 105.768 128.96 106.231C128.689 106.541 128.385 105.613 127.911 103.216C127.099 99.235 125.238 88.7209 125.035 87.0587C124.967 86.4016 124.865 86.9814 124.832 88.2957C124.798 90.7696 126.49 103.294 127.336 106.386C128.013 108.976 127.2 108.048 125.711 104.531C124.696 102.134 123.918 99.5828 122.496 93.8233C122.192 92.5864 122.158 92.625 122.327 94.4031C122.429 95.4468 122.7 97.4182 122.903 98.7324C123.139 100.085 123.275 101.168 123.207 101.168C122.97 101.168 120.398 94.8283 120.398 94.2485C120.398 93.9393 120.297 93.7847 120.195 93.9393C119.925 94.2485 120.94 97.6888 122.496 101.554L123.816 104.84L120.838 101.516C119.214 99.6988 117.183 97.6888 116.337 97.0316C114.172 95.3308 111.735 92.3158 111.092 90.6536C110.111 87.8705 110.618 85.1647 112.886 81.3765C114.645 78.4388 115.085 77.0858 115.356 73.8002C115.728 69.7801 116.168 68.7364 117.86 67.6927L119.214 66.881L119.112 62.3584C119.011 58.7249 119.112 57.6425 119.552 56.8694C119.823 56.3669 120.229 55.9417 120.466 55.9417C120.669 55.9417 121.955 56.6762 123.343 57.5652ZM160.771 73.0271C162.361 75.3464 162.361 75.385 162.361 78.2455C162.361 82.2269 162.869 84.121 164.493 86.4016C165.272 87.4839 166.253 89.4167 166.693 90.6923C167.302 92.4704 167.878 93.3981 169.333 94.7897C170.314 95.7947 171.16 96.877 171.16 97.2249C171.16 97.6115 170.551 98.7324 169.807 99.7375C168.385 101.709 167.878 103.564 168.284 105.304C168.385 105.922 169.502 107.507 170.72 108.86C171.939 110.213 172.649 111.179 172.277 111.025C169.4 109.71 164.02 107.739 163.207 107.739C162.463 107.739 162.869 108.01 164.697 108.744C166.084 109.285 169.028 110.754 171.228 112.068C178.571 116.32 180.94 120.418 180.331 127.839C180.027 131.512 180.399 133.251 182.159 136.15C183.005 137.542 183.681 139.165 183.681 139.706V140.673L182.768 139.977C182.023 139.436 181.042 139.243 178.436 139.165C175.12 139.088 174.984 139.049 171.905 137.232C169.062 135.57 168.521 135.377 166.49 135.377C164.933 135.377 163.715 135.609 162.734 136.112C161.583 136.73 161.177 136.769 160.737 136.421C158.943 134.952 158.097 134.449 156.811 134.256C155.119 133.947 153.935 132.71 152.04 129.192C151.329 127.917 150.28 126.293 149.705 125.597C148.588 124.206 144.764 120.688 144.764 121.036C144.764 121.152 145.779 122.544 147.065 124.129C148.622 126.061 149.908 128.265 151.16 131.048C152.852 134.797 152.987 135.222 152.784 137.039C152.48 139.977 151.431 141.948 147.81 146.2C146.016 148.326 143.918 151.032 143.173 152.192C142.429 153.352 141.448 154.704 141.008 155.168C139.891 156.328 134.984 158.84 134.307 158.57C134.003 158.454 133.393 157.449 132.953 156.328C132.48 155.207 131.261 153.39 130.145 152.153C128.317 150.105 128.148 149.757 127.674 147.205C127.065 143.765 126.794 143.147 125.001 141.059L123.613 139.397V135.802C123.613 132.478 123.546 132.13 122.666 130.816C121.549 129.115 119.62 127.801 116.743 126.718C113.664 125.597 112.75 124.824 110.957 122.041C110.077 120.65 108.96 119.335 108.52 119.065C108.08 118.833 106.625 118.06 105.305 117.403C103.004 116.243 102.869 116.088 101.921 113.808C100.804 111.102 99.6536 110.02 96.811 109.092C95.7957 108.744 94.5775 108.01 94.1037 107.507C93.3253 106.618 93.2577 106.309 93.4607 104.415C93.6637 102.482 93.5961 102.134 92.6824 100.627C92.1409 99.7375 91.0918 98.3846 90.3473 97.6115L89.0275 96.2586L91.058 95.988C92.2086 95.872 94.1375 95.2149 95.6604 94.4418C99.2137 92.625 102.97 91.3881 104.155 91.62C104.662 91.7746 106.591 92.5864 108.452 93.4754C112.209 95.3308 116.777 99.003 119.722 102.559C121.617 104.84 123.444 107.43 123.444 107.816C123.444 107.932 122.293 107.352 120.906 106.541C117.894 104.801 117.894 105.072 120.906 107.584C122.124 108.589 123.072 109.478 123.004 109.517C122.97 109.556 122.023 109.362 120.906 109.053C118.639 108.473 109.908 107.236 109.671 107.468C109.603 107.584 110.584 107.855 111.836 108.087C114.713 108.667 121.65 110.754 122.7 111.373C123.444 111.836 123.376 111.875 121.718 112.3C119.18 112.996 115.864 114.89 114.848 116.282C113.562 117.982 113.765 118.562 115.119 117.055C116.574 115.431 120.229 113.924 123.275 113.653L125.644 113.46L128.385 115.972C129.908 117.364 131.532 119.065 132.04 119.761C133.36 121.539 134.916 125.211 135.661 128.381L136.338 131.125L136.135 128.844C135.965 126.912 135.424 124.67 134.138 120.688C134.003 120.263 134.51 120.688 135.288 121.655C137.15 123.897 139.485 129.502 140.534 134.063C141.448 138.083 141.651 137.542 140.872 133.251C140.094 129.076 138.808 124.94 137.15 121.345C136.338 119.606 135.83 118.292 136.067 118.446C137.522 119.413 138.639 120.65 140.398 123.124C143.072 126.912 144.967 130.661 146.185 134.527C146.964 137.039 147.133 137.348 146.93 135.996C146.253 130.7 142.327 122.66 138.199 118.021L136.507 116.166L138.706 116.436C144.087 117.132 149.265 119.413 151.871 122.157C152.717 123.046 152.446 122.621 151.262 121.229L149.13 118.678L151.092 118.872C152.175 118.987 154.51 119.451 156.27 119.954C158.03 120.418 159.519 120.766 159.586 120.688C159.959 120.263 151.871 117.751 149.569 117.557C147.167 117.364 141.38 115.315 141.38 114.658C141.38 114.542 143.309 114.04 145.712 113.537C152.751 112.03 157.827 112.339 161.854 114.581C163.309 115.393 163.444 115.393 162.7 114.735C161.312 113.421 157.285 111.72 154.476 111.218C151.938 110.754 144.696 110.87 142.734 111.411C142.057 111.604 141.989 111.566 142.463 111.257C142.767 111.025 145.102 110.368 147.708 109.788C150.28 109.247 152.548 108.589 152.717 108.396C153.326 107.739 146.761 108.473 143.241 109.44C141.38 109.942 139.823 110.329 139.789 110.29C139.756 110.252 141.786 108.628 144.358 106.695C149.13 103.1 151.329 101.941 153.461 101.941C154.409 101.941 154.612 101.825 154.307 101.477C153.766 100.858 150.923 101.013 149.333 101.786C148.588 102.134 146.93 103.216 145.61 104.183C144.324 105.149 141.955 106.579 140.432 107.391L137.59 108.899L139.959 105.922C141.278 104.26 144.223 101.284 146.49 99.235C148.926 97.0703 151.431 94.4804 152.514 92.9342C153.563 91.4654 155.086 89.8805 155.932 89.3394C158.91 87.4453 159.823 85.6672 158.808 83.9277C158.131 82.7294 156.202 82.6521 155.322 83.7731C154.781 84.5075 153.597 87.8318 152.852 90.615C152.412 92.2385 150.009 94.635 145.779 97.6501C143.884 99.003 141.752 100.665 141.075 101.322L139.857 102.521L141.075 100.781C143.241 97.7274 146.659 91.62 148.013 88.4117C149.13 85.7831 149.434 85.3579 150.043 85.5126C150.923 85.7445 152.243 84.6235 153.224 82.8067C154.172 81.0286 154.037 78.748 152.954 78.1295C151.769 77.4724 151.769 77.4337 152.581 74.5733L153.326 71.8675L154.544 72.0607C155.559 72.2153 155.965 72.0221 157.116 70.8624C158.267 69.7028 158.504 69.5868 158.808 70.128C159.011 70.4372 159.857 71.7515 160.771 73.0271ZM76.0663 77.7816C79.5858 79.0572 88.0799 83.3866 90.618 85.126C91.6333 85.8604 92.9531 87.0201 93.5284 87.7159C94.6451 89.1074 96.371 91.7359 96.371 92.0065C96.371 92.1225 95.3897 92.8569 94.1714 93.63C91.8363 95.0989 91.1257 95.2535 88.3507 94.7897C86.7263 94.5191 86.5571 94.5577 86.5571 95.2149C86.5571 95.6014 86.9632 96.4132 87.5046 97.0316C88.1138 97.8434 88.2153 98.114 87.8431 97.9594C86.5909 97.4568 73.9681 95.9107 66.4215 95.3695C63.4435 95.1376 60.6009 94.867 60.0932 94.751C59.5856 94.635 58.2658 94.6737 57.2167 94.867L55.2539 95.1762L57.9612 95.4081C71.7346 96.6837 83.2406 99.119 88.5537 101.941C91.1595 103.332 91.6333 103.758 91.6333 104.492C91.6333 105.536 91.5656 105.574 90.0089 105.072C88.7906 104.647 72.8852 104.067 63.2066 104.067C58.1981 104.067 56.4045 104.221 54.3064 104.801C52.8512 105.226 51.5653 105.729 51.4637 105.922C51.3284 106.154 51.4637 106.231 51.8021 106.077C54.6448 104.84 59.2811 104.801 80.8041 105.922C90.618 106.463 90.8211 106.502 92.8854 108.551C93.4945 109.169 94.6451 109.826 95.4235 110.097C98.503 111.025 99.4844 111.682 100.466 113.46C101.007 114.426 101.38 115.277 101.346 115.354C101.278 115.431 100.026 115.083 98.5369 114.62C95.965 113.846 95.322 113.808 80.2965 113.885C71.7346 113.924 63.985 114.117 63.0374 114.31C61.5146 114.62 61.6161 114.658 64.0527 114.504C65.5417 114.426 69.3657 114.581 72.513 114.89C75.6941 115.199 81.684 115.547 85.8803 115.663C94.2052 115.934 97.1494 116.398 100.5 118.137C101.684 118.717 103.241 119.451 103.985 119.722C105.373 120.224 107.539 122.234 107.539 123.046C107.539 123.897 102.632 126.255 98.4015 127.453C88.5199 130.159 78.0291 131.55 69.4673 131.241C65.4402 131.086 64.7295 131.125 66.0831 131.434C67.0307 131.666 72.2084 131.821 77.5892 131.859C86.6248 131.859 87.8431 131.782 92.8177 130.816C99.146 129.656 103.478 128.303 106.456 126.602L108.588 125.404L109.332 126.216L110.043 127.066L109.062 128.265C105.88 132.091 98.7399 135.802 90.1104 138.122C87.1324 138.895 85.1696 139.165 80.4657 139.32C74.6788 139.513 73.562 139.397 67.9444 138.083L67.0984 137.851L67.9444 138.276C71.5993 140.132 83.2407 140.673 90.1104 139.32C96.5403 138.044 105.542 134.179 109.332 131.086C110.855 129.811 110.957 129.811 110.754 130.623C109.941 133.522 107.539 135.532 97.2171 141.832C91.5318 145.311 84.9666 147.167 78.469 147.167C71.4301 147.167 64.8987 145.389 52.3774 140.132C43.2065 136.305 42.665 136.073 33.934 132.98C26.3535 130.313 24.3569 130.12 18.367 131.318C9.60212 133.096 3.57838 131.782 1.71711 127.685L1.20949 126.564L3.88295 123.703C7.60549 119.683 10.6512 116.861 15.3213 113.112C19.3822 109.865 25.2368 106.193 26.3535 106.193C26.6919 106.193 27.0304 106.038 27.1657 105.806C27.4703 105.265 24.0185 106.541 21.7511 107.816C19.4499 109.131 12.9186 114.078 8.92529 117.48C7.47012 118.717 6.218 119.683 6.11647 119.606C6.04879 119.49 7.40244 117.905 9.12834 116.088C14.2384 110.561 19.9914 106.579 26.9965 103.68C28.7563 102.946 30.0084 102.366 29.7377 102.327C28.9255 102.327 23.2063 104.685 19.9914 106.386C18.2655 107.314 15.592 109.015 14.0692 110.136C11.2603 112.223 5.2366 117.789 4.76282 118.717C4.28904 119.645 2.25857 122.119 2.12321 121.964C1.85248 121.693 3.88295 117.171 5.50733 114.349C6.3872 112.841 9.22987 108.86 11.8356 105.497C14.4753 102.173 17.7917 97.6888 19.2469 95.5241C20.702 93.3981 22.4956 91.0015 23.2063 90.2671C26.0828 87.2907 31.4974 84.5075 35.6937 83.8118C37.2166 83.5412 39.89 82.8454 41.6159 82.2269C43.3418 81.5698 46.7598 80.6421 49.2302 80.1009C51.7006 79.5984 55.66 78.632 58.0289 78.0135C63.7819 76.4674 63.7481 76.506 68.7904 76.5833C72.513 76.6993 73.6297 76.8539 76.0663 77.7816ZM115.999 130.854C117.014 131.434 118.097 132.323 118.436 132.865C119.045 133.792 119.045 134.024 118.537 136.421C118.165 138.276 118.131 139.243 118.368 140.093C118.672 141.098 118.469 141.794 116.54 146.432C113.799 152.888 112.615 156.908 112.446 160.232C112.31 162.629 112.31 162.667 112.581 161.005C113.156 157.604 114.375 153.97 116.71 148.713C119.789 141.832 119.383 142.412 120.838 143.108C122.53 143.92 123.647 145.775 124.087 148.481C124.29 149.757 124.459 150.839 124.459 150.878C124.459 150.955 124.933 151.612 125.508 152.385C126.388 153.506 126.591 154.163 126.727 156.212C127.099 161.198 125.678 168.195 123.241 173.452C121.887 176.351 122.835 175.191 124.662 171.712C126.219 168.775 127.979 163.904 128.723 160.503L129.332 157.797L129.637 159.343C130.043 161.353 129.671 171.867 129.028 176.544C128.757 178.593 127.877 182.381 126.997 185.164C126.151 187.87 125.475 190.305 125.475 190.576C125.508 191.426 129.231 181.028 129.908 178.284C130.754 174.844 131.634 164.987 131.498 160.812C131.431 159.034 131.431 157.604 131.498 157.604C131.532 157.604 131.938 158.57 132.412 159.73C133.258 162.01 133.63 162.242 134.341 161.16C134.713 160.619 136.473 159.807 139.282 158.918C139.959 158.686 139.789 164.793 138.977 169.045C137.86 175.037 134.51 185.319 131.532 192.083C129.637 196.374 130.855 194.287 133.563 188.605C137.556 180.216 139.857 173.336 141.718 164.059C142.091 162.203 142.395 160.116 142.395 159.42C142.395 158.222 142.903 157.217 143.478 157.217C144.02 157.217 143.715 163.363 142.903 169.007C141.041 181.917 139.756 185.59 131.295 202.056C127.031 210.328 126.964 210.444 127.234 210.174C128.216 209.13 138.334 191.117 139.925 187.561C144.053 178.245 146.828 164.793 146.355 156.251C146.118 151.999 146.355 151.457 150.111 147.863C152.141 145.891 152.886 144.925 153.36 143.533C153.698 142.567 154.104 141.755 154.24 141.755C154.713 141.755 156.169 144.847 156.778 147.167C157.522 150.066 157.793 158.029 157.319 163.131C157.082 165.45 156.473 169.78 155.898 172.795C155.018 177.743 154.206 185.937 154.68 185.435C154.781 185.319 155.018 183.618 155.221 181.608C155.458 179.637 156.304 174.341 157.15 169.857C157.996 165.412 158.842 159.923 159.079 157.681C159.62 152.153 159.993 153.815 160.229 162.822C160.5 173.181 159.756 178.941 157.048 186.981C155.018 193.127 151.262 201.322 148.419 205.922L147.099 208.048L148.317 206.502C150.957 203.177 154.916 195.485 157.454 188.682C160.399 180.835 161.38 175.037 161.346 165.412C161.346 157.951 160.771 152.385 159.485 147.785C159.011 146.123 158.639 144.538 158.639 144.306C158.639 144.074 158.267 142.953 157.793 141.832C157.082 140.093 157.048 139.822 157.522 139.822C157.861 139.822 158.808 140.673 159.688 141.755C160.737 143.031 161.549 143.688 162.091 143.688C162.768 143.688 163.106 144.19 164.324 147.051C166.287 151.805 169.062 160.928 169.502 164.213C170.145 169.045 169.13 175.346 166.355 183.348C164.629 188.334 153.8 213.807 152.141 216.784C149.197 222.041 145.272 225.404 135.153 231.395C132.581 232.941 128.283 235.725 125.576 237.657C115.221 245.002 111.194 246.857 105.001 247.205L101.312 247.398L103.918 244.151C107.369 239.822 114.138 229.849 115.119 227.607C116.134 225.365 117.014 222.93 116.845 222.93C116.777 222.93 116.168 224.128 115.491 225.558C114.104 228.612 106.219 240.015 102.699 244.113C100.398 246.78 100.195 246.934 99.0783 246.703C95.7958 246.045 92.75 243.456 91.5656 240.402C90.3135 237.155 90.9565 230.042 92.8177 226.95C94.3406 224.36 94.4083 223.51 94.1037 206.347C93.9683 197.495 93.833 186.865 93.833 182.729V175.191L95.2543 170.36C96.0326 167.692 97.0817 163.363 97.5893 160.696C99.0445 152.617 101.447 146.858 104.493 144.229C106.828 142.219 112.243 135.338 112.987 133.444C113.326 132.594 113.63 131.434 113.63 130.816C113.63 129.54 113.698 129.54 115.999 130.854Z" fill="url(#paint0_linear_8_91)"/>
    <path d="M154.916 4.68564C154.916 4.76295 155.187 5.07219 155.526 5.34277C156.033 5.84529 156.067 5.80663 155.627 5.18816C155.187 4.56968 154.916 4.37641 154.916 4.68564Z" fill="url(#paint1_linear_8_91)"/>
    <path d="M159.823 23.5878C160.466 27.3373 160.669 31.0095 160.365 34.1018C159.688 40.6731 158.165 45.273 153.461 54.898C147.437 67.1902 146.558 69.5482 146.761 73.0271C146.794 73.6069 146.964 73.6069 148.723 73.0657C151.194 72.3313 152.548 71.5196 152.548 70.8238C152.548 70.1666 151.837 70.0507 151.329 70.5918C150.991 71.017 148.148 71.8288 148.148 71.5196C148.148 71.4422 149.773 67.9247 151.769 63.75C159.18 48.1335 161.312 42.0647 161.617 35.648C161.786 31.6279 161.245 27.1826 160.162 24.013C159.79 22.9693 159.688 22.8533 159.823 23.5878Z" fill="url(#paint2_linear_8_91)"/>
    <path d="M174.274 32.9422C174.274 33.5607 174.341 33.7926 174.443 33.4061C174.51 33.0582 174.51 32.517 174.443 32.2464C174.341 32.0145 174.274 32.2851 174.274 32.9422Z" fill="url(#paint3_linear_8_91)"/>
    <path d="M174.544 36.9623C174.544 41.9487 172.751 48.7906 169.773 55.0527C168.419 57.9131 168.047 59.1114 168.96 57.6039C170.111 55.7098 172.852 48.9839 173.698 45.8915C174.578 42.7605 175.323 34.6817 174.747 34.6817C174.646 34.6817 174.544 35.7253 174.544 36.9623Z" fill="url(#paint4_linear_8_91)"/>
    <path d="M137.014 49.0226C136.777 49.873 136.676 50.6847 136.777 50.8007C136.845 50.9166 137.116 50.2595 137.319 49.3705C137.827 47.2444 137.556 46.9352 137.014 49.0226Z" fill="url(#paint5_linear_8_91)"/>
    <path d="M136.71 52.0763C136.71 52.6175 136.777 52.8107 136.879 52.5401C136.947 52.3082 136.947 51.8444 136.879 51.5738C136.777 51.3419 136.71 51.5351 136.71 52.0763Z" fill="url(#paint6_linear_8_91)"/>
    <path d="M136.405 57.1014C136.405 58.9182 136.473 59.6526 136.541 58.7249C136.608 57.8358 136.608 56.367 136.541 55.4392C136.473 54.5502 136.405 55.2846 136.405 57.1014Z" fill="url(#paint7_linear_8_91)"/>
    <path d="M136.676 61.5466C136.642 63.5953 138.774 72.1767 139.214 71.7128C139.248 71.6355 138.943 70.3599 138.47 68.9297C138.03 67.4608 137.42 64.9483 137.184 63.3248C136.913 61.7013 136.676 60.8895 136.676 61.5466Z" fill="url(#paint8_linear_8_91)"/>
    <path d="M66.2862 12.03C69.1627 13.4602 73.2575 15.9341 75.9986 17.9055C76.9462 18.64 77.7584 19.0652 77.7584 18.9105C77.6907 17.9442 70.8548 13.4216 66.7938 11.7208C63.5112 10.2906 63.2405 10.4838 66.2862 12.03Z" fill="url(#paint9_linear_8_91)"/>
    <path d="M36.7428 11.9527C36.0321 12.1846 35.4568 12.4939 35.4568 12.6871C35.4568 13.151 35.9644 13.1123 37.6565 12.6098C38.401 12.3779 39.9915 12.0687 41.2098 11.9141L43.4095 11.6048L40.7022 11.5662C39.2132 11.5662 37.4196 11.7594 36.7428 11.9527Z" fill="url(#paint10_linear_8_91)"/>
    <path d="M67.2676 25.7911C67.5383 25.9843 67.9444 26.1776 68.1136 26.1776C68.3167 26.1776 68.2151 25.9843 67.9444 25.7911C67.6737 25.5978 67.3014 25.4045 67.0984 25.4045C66.9292 25.4045 66.9969 25.5978 67.2676 25.7911Z" fill="url(#paint11_linear_8_91)"/>
    <path d="M66.4215 33.0195C66.6246 33.2128 71.3624 36.6917 77.0139 40.7118C86.0156 47.0898 87.7754 48.52 91.058 51.999C96.4049 57.6812 96.9802 57.6812 91.9717 51.999C87.3693 46.7806 85.2373 45.1184 72.8176 37.0009C65.7447 32.3624 65.9816 32.517 66.4215 33.0195Z" fill="url(#paint12_linear_8_91)"/>
    <path d="M123.782 63.5567C124.493 65.4508 125.305 67.6541 125.61 68.4659C126.354 70.4759 126.625 70.0507 125.982 67.886C125.204 65.3735 123.038 60.1938 122.767 60.1938C122.632 60.1938 123.072 61.7013 123.782 63.5567Z" fill="url(#paint13_linear_8_91)"/>
    <path d="M163.715 115.625C163.715 115.702 163.986 116.011 164.324 116.282C164.832 116.784 164.866 116.746 164.426 116.127C163.986 115.509 163.715 115.315 163.715 115.625Z" fill="url(#paint14_linear_8_91)"/>
    <path d="M168.791 126.448C169.637 126.95 171.668 128.728 173.326 130.391C177.387 134.565 179.248 136.189 176.575 133.29C172.378 128.767 168.554 125.481 167.539 125.52C167.404 125.559 167.945 125.984 168.791 126.448Z" fill="url(#paint15_linear_8_91)"/>
    <path d="M141.481 139.243C141.481 140.093 141.549 140.402 141.617 139.9C141.684 139.436 141.684 138.74 141.617 138.354C141.515 138.006 141.448 138.392 141.481 139.243Z" fill="url(#paint16_linear_8_91)"/>
    <path d="M22.1234 115.509C19.9575 116.552 9.6698 123.24 8.89145 124.09C8.34999 124.67 10.5835 123.317 15.6597 119.993C18.2655 118.292 21.4804 116.32 22.7664 115.625C25.7444 114.001 25.2706 113.924 22.1234 115.509Z" fill="url(#paint17_linear_8_91)"/>
    <path d="M7.5378 124.747C7.43628 124.979 7.57164 125.018 7.84237 124.902C8.45152 124.631 8.55304 124.361 8.07926 124.361C7.87622 124.361 7.63933 124.515 7.5378 124.747Z" fill="url(#paint18_linear_8_91)"/>
    <path d="M64.8987 137.117C65.1694 137.31 65.5755 137.503 65.7447 137.503C65.9478 137.503 65.8462 137.31 65.5755 137.117C65.3048 136.923 64.9325 136.73 64.7295 136.73C64.5603 136.73 64.628 136.923 64.8987 137.117Z" fill="url(#paint19_linear_8_91)"/>
    <path d="M153.055 149.293C153.698 151.187 153.901 152.578 153.901 154.859C153.901 158.067 152.954 165.103 151.837 170.128C150.788 174.766 151.295 174.032 152.48 169.123C154.781 159.768 155.627 153.313 154.95 150.414C154.51 148.597 153.394 146.78 152.717 146.78C152.344 146.78 152.412 147.36 153.055 149.293Z" fill="url(#paint20_linear_8_91)"/>
    <path d="M119.248 147.747C119.146 148.094 119.045 149.293 119.045 150.375C119.045 154.588 118.029 161.701 116.439 168.813C116.337 169.355 116.337 169.702 116.439 169.587C116.743 169.277 118.943 160.309 119.586 156.83C120.161 153.738 120.263 148.017 119.789 147.476C119.586 147.244 119.383 147.399 119.248 147.747Z" fill="url(#paint21_linear_8_91)"/>
    <path d="M120.534 192.315C118.977 198.925 117.319 203.757 114.138 211.14C110.618 219.296 102.056 235.725 99.4506 239.358C95.965 244.19 95.6266 245.272 98.3339 243.069C100.229 241.484 101.887 238.624 107.877 226.795C113.833 215.083 116.371 209.169 118.334 202.752C119.755 197.998 121.887 188.798 121.684 188.179C121.65 187.947 121.109 189.842 120.534 192.315Z" fill="url(#paint22_linear_8_91)"/>
    <path d="M140.94 197.147C139.992 198.809 137.353 205.071 134.781 211.759C131.938 219.142 129.84 223.819 127.742 227.375C126.084 230.158 122.869 234.062 121.041 235.531C119.518 236.73 119.485 237.194 120.974 236.304C125.373 233.715 129.603 226.216 135.965 209.787C137.488 205.845 139.383 201.206 140.229 199.428C141.651 196.374 141.989 195.292 140.94 197.147Z" fill="url(#paint23_linear_8_91)"/>
    <path d="M146.422 208.898C145.982 209.517 146.016 209.555 146.558 209.053C146.862 208.782 147.133 208.473 147.133 208.396C147.133 208.087 146.862 208.28 146.422 208.898Z" fill="url(#paint24_linear_8_91)"/>
    <path d="M216.304 105.613C219.181 108.937 220.704 111.489 221.854 115.122C222.87 118.253 223.885 119.297 223.479 116.784C223.343 115.972 222.937 114.658 222.599 113.885C221.651 111.836 217.523 106.27 215.628 104.492C214.274 103.255 214.409 103.448 216.304 105.613Z" fill="url(#paint25_linear_8_91)"/>
    <path d="M220.704 153.931C221.381 154.975 222.531 157.062 223.276 158.57C224.02 160.039 224.629 161.044 224.629 160.735C224.629 159.768 222.565 155.864 221.008 153.931L219.485 151.999L220.704 153.931Z" fill="url(#paint26_linear_8_91)"/>
    <defs>
    <linearGradient id="paint0_linear_8_91" x1="115" y1="0" x2="115" y2="249.559" gradientUnits="userSpaceOnUse">
    <stop stop-color="#9D9D9D"/>
    <stop offset="1" stop-color="#FFF48D" stop-opacity="0"/>
    </linearGradient>
    <linearGradient id="paint1_linear_8_91" x1="115" y1="0" x2="115" y2="249.559" gradientUnits="userSpaceOnUse">
    <stop stop-color="#9D9D9D"/>
    <stop offset="1" stop-color="#FFF48D" stop-opacity="0"/>
    </linearGradient>
    <linearGradient id="paint2_linear_8_91" x1="115" y1="0" x2="115" y2="249.559" gradientUnits="userSpaceOnUse">
    <stop stop-color="#9D9D9D"/>
    <stop offset="1" stop-color="#FFF48D" stop-opacity="0"/>
    </linearGradient>
    <linearGradient id="paint3_linear_8_91" x1="115" y1="0" x2="115" y2="249.559" gradientUnits="userSpaceOnUse">
    <stop stop-color="#9D9D9D"/>
    <stop offset="1" stop-color="#FFF48D" stop-opacity="0"/>
    </linearGradient>
    <linearGradient id="paint4_linear_8_91" x1="115" y1="0" x2="115" y2="249.559" gradientUnits="userSpaceOnUse">
    <stop stop-color="#9D9D9D"/>
    <stop offset="1" stop-color="#FFF48D" stop-opacity="0"/>
    </linearGradient>
    <linearGradient id="paint5_linear_8_91" x1="115" y1="0" x2="115" y2="249.559" gradientUnits="userSpaceOnUse">
    <stop stop-color="#9D9D9D"/>
    <stop offset="1" stop-color="#FFF48D" stop-opacity="0"/>
    </linearGradient>
    <linearGradient id="paint6_linear_8_91" x1="115" y1="0" x2="115" y2="249.559" gradientUnits="userSpaceOnUse">
    <stop stop-color="#9D9D9D"/>
    <stop offset="1" stop-color="#FFF48D" stop-opacity="0"/>
    </linearGradient>
    <linearGradient id="paint7_linear_8_91" x1="115" y1="0" x2="115" y2="249.559" gradientUnits="userSpaceOnUse">
    <stop stop-color="#9D9D9D"/>
    <stop offset="1" stop-color="#FFF48D" stop-opacity="0"/>
    </linearGradient>
    <linearGradient id="paint8_linear_8_91" x1="115" y1="0" x2="115" y2="249.559" gradientUnits="userSpaceOnUse">
    <stop stop-color="#9D9D9D"/>
    <stop offset="1" stop-color="#FFF48D" stop-opacity="0"/>
    </linearGradient>
    <linearGradient id="paint9_linear_8_91" x1="115" y1="0" x2="115" y2="249.559" gradientUnits="userSpaceOnUse">
    <stop stop-color="#9D9D9D"/>
    <stop offset="1" stop-color="#FFF48D" stop-opacity="0"/>
    </linearGradient>
    <linearGradient id="paint10_linear_8_91" x1="115" y1="0" x2="115" y2="249.559" gradientUnits="userSpaceOnUse">
    <stop stop-color="#9D9D9D"/>
    <stop offset="1" stop-color="#FFF48D" stop-opacity="0"/>
    </linearGradient>
    <linearGradient id="paint11_linear_8_91" x1="115" y1="0" x2="115" y2="249.559" gradientUnits="userSpaceOnUse">
    <stop stop-color="#9D9D9D"/>
    <stop offset="1" stop-color="#FFF48D" stop-opacity="0"/>
    </linearGradient>
    <linearGradient id="paint12_linear_8_91" x1="115" y1="0" x2="115" y2="249.559" gradientUnits="userSpaceOnUse">
    <stop stop-color="#9D9D9D"/>
    <stop offset="1" stop-color="#FFF48D" stop-opacity="0"/>
    </linearGradient>
    <linearGradient id="paint13_linear_8_91" x1="115" y1="0" x2="115" y2="249.559" gradientUnits="userSpaceOnUse">
    <stop stop-color="#9D9D9D"/>
    <stop offset="1" stop-color="#FFF48D" stop-opacity="0"/>
    </linearGradient>
    <linearGradient id="paint14_linear_8_91" x1="115" y1="0" x2="115" y2="249.559" gradientUnits="userSpaceOnUse">
    <stop stop-color="#9D9D9D"/>
    <stop offset="1" stop-color="#FFF48D" stop-opacity="0"/>
    </linearGradient>
    <linearGradient id="paint15_linear_8_91" x1="115" y1="0" x2="115" y2="249.559" gradientUnits="userSpaceOnUse">
    <stop stop-color="#9D9D9D"/>
    <stop offset="1" stop-color="#FFF48D" stop-opacity="0"/>
    </linearGradient>
    <linearGradient id="paint16_linear_8_91" x1="115" y1="0" x2="115" y2="249.559" gradientUnits="userSpaceOnUse">
    <stop stop-color="#9D9D9D"/>
    <stop offset="1" stop-color="#FFF48D" stop-opacity="0"/>
    </linearGradient>
    <linearGradient id="paint17_linear_8_91" x1="115" y1="0" x2="115" y2="249.559" gradientUnits="userSpaceOnUse">
    <stop stop-color="#9D9D9D"/>
    <stop offset="1" stop-color="#FFF48D" stop-opacity="0"/>
    </linearGradient>
    <linearGradient id="paint18_linear_8_91" x1="115" y1="0" x2="115" y2="249.559" gradientUnits="userSpaceOnUse">
    <stop stop-color="#9D9D9D"/>
    <stop offset="1" stop-color="#FFF48D" stop-opacity="0"/>
    </linearGradient>
    <linearGradient id="paint19_linear_8_91" x1="115" y1="0" x2="115" y2="249.559" gradientUnits="userSpaceOnUse">
    <stop stop-color="#9D9D9D"/>
    <stop offset="1" stop-color="#FFF48D" stop-opacity="0"/>
    </linearGradient>
    <linearGradient id="paint20_linear_8_91" x1="115" y1="0" x2="115" y2="249.559" gradientUnits="userSpaceOnUse">
    <stop stop-color="#9D9D9D"/>
    <stop offset="1" stop-color="#FFF48D" stop-opacity="0"/>
    </linearGradient>
    <linearGradient id="paint21_linear_8_91" x1="115" y1="0" x2="115" y2="249.559" gradientUnits="userSpaceOnUse">
    <stop stop-color="#9D9D9D"/>
    <stop offset="1" stop-color="#FFF48D" stop-opacity="0"/>
    </linearGradient>
    <linearGradient id="paint22_linear_8_91" x1="115" y1="0" x2="115" y2="249.559" gradientUnits="userSpaceOnUse">
    <stop stop-color="#9D9D9D"/>
    <stop offset="1" stop-color="#FFF48D" stop-opacity="0"/>
    </linearGradient>
    <linearGradient id="paint23_linear_8_91" x1="115" y1="0" x2="115" y2="249.559" gradientUnits="userSpaceOnUse">
    <stop stop-color="#9D9D9D"/>
    <stop offset="1" stop-color="#FFF48D" stop-opacity="0"/>
    </linearGradient>
    <linearGradient id="paint24_linear_8_91" x1="115" y1="0" x2="115" y2="249.559" gradientUnits="userSpaceOnUse">
    <stop stop-color="#9D9D9D"/>
    <stop offset="1" stop-color="#FFF48D" stop-opacity="0"/>
    </linearGradient>
    <linearGradient id="paint25_linear_8_91" x1="115" y1="0" x2="115" y2="249.559" gradientUnits="userSpaceOnUse">
    <stop stop-color="#9D9D9D"/>
    <stop offset="1" stop-color="#FFF48D" stop-opacity="0"/>
    </linearGradient>
    <linearGradient id="paint26_linear_8_91" x1="115" y1="0" x2="115" y2="249.559" gradientUnits="userSpaceOnUse">
    <stop stop-color="#9D9D9D"/>
    <stop offset="1" stop-color="#FFF48D" stop-opacity="0"/>
    </linearGradient>
    </defs>
    </svg>
    