<?xml version="1.0" standalone="no"?>
<!DOCTYPE svg PUBLIC "-//W3C//DTD SVG 20010904//EN"
 "http://www.w3.org/TR/2001/REC-SVG-20010904/DTD/svg10.dtd">
<svg version="1.0" xmlns="http://www.w3.org/2000/svg"
 width="256.000000pt" height="256.000000pt" viewBox="0 0 256.000000 256.000000"
 preserveAspectRatio="xMidYMid meet">
<metadata>

</metadata>
<g transform="translate(0.000000,256.000000) scale(0.100000,-0.100000)"
fill="#000000" stroke="none">
<path d="M1080 2535 c-258 -43 -504 -170 -687 -354 -191 -192 -299 -392 -354
-654 -25 -118 -30 -338 -11 -448 47 -267 172 -508 363 -699 243 -243 552 -370
900 -370 333 0 646 129 884 365 190 188 311 414 361 671 19 104 19 371 -1 472
-94 464 -426 835 -873 976 -172 54 -408 71 -582 41z m480 -264 c219 -65 418
-202 551 -382 60 -82 140 -247 171 -354 20 -71 23 -101 22 -260 0 -165 -3
-187 -26 -265 -59 -192 -148 -339 -280 -465 -136 -131 -279 -211 -459 -260
-82 -22 -115 -25 -254 -25 -139 0 -172 3 -254 25 -310 83 -564 301 -687 586
-65 153 -79 224 -79 409 0 196 17 274 96 439 140 294 390 492 714 567 97 22
389 13 485 -15z"/>
<path d="M815 1894 c-5 -11 -9 -66 -9 -124 -1 -95 -4 -109 -29 -151 -50 -84
-60 -129 -55 -247 3 -59 7 -114 9 -122 3 -13 -8 -15 -71 -12 -41 1 -100 -2
-130 -7 -47 -7 -37 -9 77 -10 72 0 134 -5 138 -10 6 -11 -25 -17 -134 -26 -40
-4 -83 -11 -95 -16 -16 -7 -12 -8 19 -4 22 3 83 8 135 11 l95 6 20 -32 c33
-53 128 -117 216 -145 44 -14 91 -25 105 -25 30 0 30 -4 0 -43 -14 -18 -28
-44 -31 -59 -7 -26 -11 -28 -59 -28 -78 0 -115 15 -187 75 -63 52 -104 75
-133 75 -7 0 1 -16 19 -35 19 -19 47 -58 64 -87 67 -114 101 -138 211 -145
l80 -6 0 -104 c0 -57 -5 -113 -10 -124 -10 -17 -7 -19 19 -19 17 0 42 10 58
24 28 24 28 25 31 163 2 76 8 142 13 148 13 14 12 -301 -2 -327 -11 -20 -9
-20 27 -14 22 4 49 14 62 22 21 14 22 20 22 162 0 158 13 216 24 111 3 -34 6
-100 6 -146 0 -97 9 -119 55 -139 44 -18 74 -19 57 -2 -15 15 -17 342 -2 333
6 -4 10 -60 10 -136 0 -73 5 -139 11 -150 11 -21 32 -32 87 -44 l34 -7 -17 26
c-14 21 -19 61 -24 214 -5 158 -9 192 -24 216 -10 15 -17 29 -15 30 2 2 42 15
90 29 55 17 104 41 136 65 55 41 102 93 102 112 0 13 111 10 240 -5 40 -4 41
-4 15 5 -16 5 -61 12 -100 16 -104 8 -136 14 -130 25 4 5 68 10 143 10 126 1
132 2 72 11 -36 5 -98 6 -139 2 -69 -6 -73 -5 -66 13 4 10 10 59 12 109 6 106
-9 174 -63 272 -27 49 -34 74 -34 116 0 29 -5 78 -11 109 -11 52 -14 57 -39
57 -30 0 -115 -27 -175 -57 -36 -17 -62 -19 -265 -17 l-225 1 -69 32 c-87 41
-159 51 -171 25z m20 -994 c3 -5 -1 -10 -10 -10 -9 0 -13 5 -10 10 3 6 8 10
10 10 2 0 7 -4 10 -10z m30 -30 c3 -5 -1 -10 -10 -10 -9 0 -13 5 -10 10 3 6 8
10 10 10 2 0 7 -4 10 -10z m35 -30 c0 -5 -2 -10 -4 -10 -3 0 -8 5 -11 10 -3 6
-1 10 4 10 6 0 11 -4 11 -10z m55 -10 c3 -5 -1 -10 -9 -10 -9 0 -16 5 -16 10
0 6 4 10 9 10 6 0 13 -4 16 -10z m50 0 c3 -5 -1 -10 -9 -10 -9 0 -16 5 -16 10
0 6 4 10 9 10 6 0 13 -4 16 -10z m52 -16 c-9 -9 -28 6 -21 18 4 6 10 6 17 -1
6 -6 8 -13 4 -17z"/>
</g>
</svg>
