<svg width="100" height="21" viewBox="0 0 100 21" fill="none" xmlns="http://www.w3.org/2000/svg">
    <rect width="11.7061" height="19.9773" transform="matrix(-0.999996 -0.00269239 0.00293836 -0.999996 82.8873 20.2004)" fill="#DFE4A2" fill-opacity="0.23"/>
    <path d="M68.6357 20.1621L56.9297 20.1306L56.9884 0.153347L68.6944 0.184864L68.6357 20.1621Z" fill="#C9F4E4"/>
    <rect width="11.7061" height="19.9773" transform="matrix(-0.999996 -0.00269239 0.00293836 -0.999996 53.9389 20.1224)" fill="#99EDFF"/>
    <rect width="11.7061" height="19.9773" transform="matrix(-0.999996 -0.00269239 0.00293836 -0.999996 39.6873 20.0841)" fill="#5FE2FF" fill-opacity="0.5"/>
    <rect width="11.7061" height="19.9773" transform="matrix(-0.999996 -0.00269239 0.00293836 -0.999996 25.4358 20.0458)" fill="#009CBE" fill-opacity="0.5"/>
    <path d="M11.7092 20.0088L0.00312744 19.9773L0.061828 2.68682e-05L11.7679 0.0315442L11.7092 20.0088Z" fill="#006F87" fill-opacity="0.5"/>
    <path d="M99.3677 20.2448L86.4523 20.2117L86.5127 0.634751L99.4282 0.667841L99.3677 20.2448Z" fill="#C5CA90" fill-opacity="0.38"/>
    </svg>
    