<svg width="171" height="167" viewBox="0 0 171 167" fill="none" xmlns="http://www.w3.org/2000/svg">
    <path d="M79.9003 0.0449403C79.5326 0.0775846 78.3625 0.19184 77.3094 0.27345C53.0217 2.41165 30.2718 15.2082 15.8631 34.8764C7.83959 45.8122 2.70792 58.217 0.768915 71.3564C0.0835777 75.9429 0 77.2976 0 83.5163C0 89.7351 0.0835777 91.0898 0.768915 95.6763C5.41584 127.031 28.266 153.375 59.2566 163.136C64.8062 164.882 70.6566 166.074 77.3094 166.792C79.9003 167.069 91.0997 167.069 93.6906 166.792C105.174 165.551 114.903 162.777 124.497 157.994C125.968 157.26 126.252 157.064 126.052 156.901C125.918 156.803 119.65 148.593 112.128 138.669L98.4545 120.633L81.3211 95.8722C71.8935 82.2595 64.1375 71.1278 64.0707 71.1278C64.0038 71.1115 63.937 82.1126 63.9035 95.5458C63.8534 119.066 63.8367 120.013 63.5358 120.568C63.1012 121.367 62.7669 121.694 62.0648 122.053C61.5299 122.314 61.0619 122.363 58.5378 122.363H55.646L54.8771 121.89C54.3757 121.58 54.0079 121.172 53.7572 120.698L53.4062 119.964L53.4396 87.2378L53.4897 54.4956L54.0079 53.859C54.2754 53.5163 54.8437 53.0756 55.2449 52.8634C55.9302 52.5369 56.1977 52.5043 59.0894 52.5043C62.4994 52.5043 63.0677 52.6349 63.9537 53.5816C64.2044 53.8427 73.4815 67.488 84.5806 83.9244C95.6798 100.361 110.857 122.804 118.313 133.821L131.852 153.848L132.538 153.408C138.605 149.556 145.024 144.071 150.106 138.359C160.921 126.231 167.891 111.444 170.231 95.6763C170.916 91.0898 171 89.7351 171 83.5163C171 77.2976 170.916 75.9429 170.231 71.3564C165.584 40.0015 142.734 13.6576 111.743 3.89696C106.277 2.16682 100.46 0.975302 93.9414 0.257128C92.3367 0.0939067 81.2877 -0.0856368 79.9003 0.0449403ZM114.903 50.5456C115.705 50.9374 116.357 51.6882 116.591 52.4716C116.725 52.896 116.758 61.9711 116.725 82.4228L116.674 111.77L111.376 103.837L106.06 95.9049V74.5718C106.06 60.7796 106.127 53.0266 106.227 52.6512C106.495 51.7371 107.08 51.019 107.882 50.5946C108.567 50.2518 108.818 50.2192 111.443 50.2192C113.916 50.2192 114.351 50.2518 114.903 50.5456Z" fill="url(#paint0_linear_8_93)"/>
    <defs>
    <linearGradient id="paint0_linear_8_93" x1="85.5" y1="0" x2="85.5" y2="167" gradientUnits="userSpaceOnUse">
    <stop stop-color="#323232"/>
    <stop offset="1" stop-color="white" stop-opacity="0"/>
    </linearGradient>
    </defs>
    </svg>
    