<svg
   width="680pt"
   height="653.88pt"
   viewBox="0 0 680 653.87857"
   preserveAspectRatio="xMidYMid"
   id="svg39"
   sodipodi:docname="vf.svg"
   xmlns:inkscape="http://www.inkscape.org/namespaces/inkscape"
   xmlns:sodipodi="http://sodipodi.sourceforge.net/DTD/sodipodi-0.dtd"
   xmlns="http://www.w3.org/2000/svg"
   xmlns:svg="http://www.w3.org/2000/svg">
  <defs
     id="defs39" />
  <sodipodi:namedview
     id="namedview39"
     pagecolor="#ffffff"
     bordercolor="#000000"
     borderopacity="0.25"
     inkscape:showpageshadow="2"
     inkscape:pageopacity="0.0"
     inkscape:pagecheckerboard="0"
     inkscape:deskcolor="#d1d1d1"
     inkscape:document-units="pt"
     inkscape:zoom="0.42395833"
     inkscape:cx="518.91892"
     inkscape:cy="192.23587"
     inkscape:window-width="1350"
     inkscape:window-height="1237"
     inkscape:window-x="1738"
     inkscape:window-y="42"
     inkscape:window-maximized="0"
     inkscape:current-layer="g39" />
  <g
     transform="matrix(0.1,0,0,-0.1,1.2509014,1080)"
     fill="#dfdf75"
     stroke="none"
     id="g39">
    <path
       d="m 4337.1725,10751.004 c -60,-14 -107,-39 -116,-63 -10,-26 19,-74 71,-116 68,-55 103,-96 116,-135 10,-29 8,-39 -16,-84 -17,-30 -57,-75 -98,-112 -183,-158 -299,-283.9999 -373,-406.9999 -34,-58 -88,-169 -108,-225 -5,-15 -12,-1 -26,54 -42,164 -133,305 -258,399.9999 -44,33 -101,86 -128,116 -129,150 -338,253 -590,294 -65,11 -161,27 -213,36 -52,9 -142,23 -200,31 -58,9 -130,26 -160,39 -87,36 -310,75 -431,75 -58,0 -158,7 -222,15 -134,18 -140,17 -305,-50 -60,-24 -147,-51 -193,-59 -147.99999,-26 -245.99999,-75 -299.99999,-149 -53,-73 -43,-88 66,-102 28,-4 75,-13 105,-20 29.99997,-7 85.99999,-16 124.99999,-20 87,-9 160,-35 218,-80 104,-79 309,-451.9999 396,-718.9999 57,-176 97,-262 179,-385 50,-77 193,-231 213,-231 5,0 9,-4 9,-10 0,-6 -26,-10 -59,-10 -33,0 -95,-5 -138,-11 -133,-18 -580,-119 -707,-159 -67,-21 -166,-50 -219.99999,-64 -114,-30 -262,-87 -321,-124 -22,-13 -57,-41 -79,-61 -104.99999,-99 -441.99999,-541 -508.999997,-669 -49,-94 -80,-200 -73.9999998,-256 9.00000036,-76 75.9999998,-139 185.0000068,-173 68,-21 243,-18 381.99999,7 138,24 159,24 235,5 69,-18 368.99999,-126 640.99999,-230 323,-124 496,-177 719,-222 138,-27 454,-24 592,5 55,12 104,22 107,22 4,0 0,-12 -8,-27 -24,-48 -54,-162 -86,-328 -17,-88 -37,-190 -45,-227 -17,-78 -20,-272 -5,-415 5,-54 19,-192 30,-308 11,-115 22,-229 25,-252 2,-23 0,-104 -6,-180 -9,-127 -13,-145 -54,-243 -61,-151 -75,-203 -75,-290 0,-128 59,-214 188,-275 144,-68 322,-72 507,-10 77,25 240,107 340,171 50,31 173,102 275,156 378,205 507,297 600,433 38,55 298,558 372,720 129,280 168,405 175,566 6,128 -2,177 -48,297 -28,74 -26,88 7,51 26,-29 116,-90 184,-124 97,-49 189,-74 399,-110 765,-129 795,-137 887,-218 42,-36 128,-162 138,-202 9,-35 25,-28 63,29 44,65 63,132 70,251 7,124 -7,217 -53,354 -34,104 -35,105 -17,140 16,32 18,67 17,331 0,326 -9,400 -65,555 -31,86 -126,241 -174,285 -24,22 -23,19 8,-25 166,-235 225,-565 156,-885 -11,-52 -23,-112 -26,-132 -3,-21 -9,-38 -14,-38 -19,0 -127,101 -143,135 -10,20 -20,34 -23,31 -10,-10 18,-71 58,-128 88,-126 152,-308 168,-476 8,-92 0,-229 -15,-253 -3,-6 -18,13 -33,42 -42,84 -78,101 -316,148 -110,22 -283,61 -384,86 -102,25 -248,55 -325,66 -324,47 -508,156 -646,384 -23,39 -56,84 -72,102 l -30,31 38,11 c 54,15 66,14 183,-15 115,-28 181,-58 316,-144 50,-31 124,-74 165,-94 81,-39 78,-35 -14,20 -80,47 -259,175 -253,181 9,8 80,-27 161,-79 213,-136 517,-230 734,-227 l 77,2 -79,8 c -180,19 -368,66 -490,123 -56,26 -194,109 -261,158 -6,4 -1,14 13,23 12,9 22,26 22,38 -1,30 -31,94 -75,158 l -36,53 3,125 c 2,70 -1,141 -5,159 l -9,33 64,-6 c 158,-16 253,-55 403,-169 55,-42 170,-129 255,-193 85,-64 177,-137 205,-162 l 49,-46 -32,42 c -44,56 -114,118 -252,223 -63,49 -160,124 -215,169 -140,114 -238,161 -392,190 -111,21 -125,26 -148,53 -14,16 -25,34 -25,39 0,24 265,-36 423,-95 48,-18 87,-31 87,-29 0,6 -89,43 -190,79 -52,18 -140,49 -195,68 -55,20 -115,36 -133,36 -25,0 -49,12 -93,46 -32,26 -59,50 -59,53 0,3 62,7 138,9 128,3 142,2 212,-24 114,-41 208,-86 283,-137 37,-25 67,-44 67,-42 0,11 -128,100 -208,145 -51,29 -92,54 -92,55 0,5 97,-16 170,-36 90,-24 255,-101 336,-157 153,-104 306,-261 412,-422 64,-98 82,-120 57,-70 -33,66 -108,175 -164,240 -218,251 -461,416 -730,497 -81,24 -97,26 -289,24 -212,-2 -282,7 -282,36 0,17 9,25 90,82 l 55,38 205,-8 c 136,-5 228,-13 270,-24 106,-27 250,-110 385,-223 17,-14 -13,17 -65,69 -108,106 -210,168 -321,193 -51,12 -285,36 -347,36 -30,0 1,18 60,35 158,44 394,0 656,-121 151,-70 239,-134 341,-249 38,-43 41,-45 25,-16 -95,172 -479,411 -746,465 -98,20 -237,20 -313,1 -47,-12 -148,-55 -195,-82 -3,-2 -11,10 -17,26 -11,30 -11,30 41,45 53,16 141,71 209,132 l 37,34 h 121 c 74,0 147,-6 192,-16 76,-17 362,-123 485,-180 82,-37 190,-110 216,-146 l 17,-23 -12,24 c -35,74 -154,169 -307,245 -224,113 -422,179 -539,180 -40,1 -73,3 -73,5 0,2 33,39 74,82 172,183 284,444 304,712 19,242 -27,393 -203,656.9999 -108,163 -255,296 -435,395 -58,32 -149,88 -202,125 -65,45 -120,74 -165,88 -369,113 -413,122 -514,99 z m 166,-21 c 116,-33 392,-137 434,-164 25,-16 109,-69 186,-118 287,-182 376,-261 495,-441 128,-193.9999 173,-308.9999 186,-477.9999 15,-193 -76,-480 -211,-670 -92,-130 -339,-341 -480,-409 -136,-67 -131,-67 -145,-1 -14,69 -8,78 95,138 83,48 154,117 215,207 l 44,65 -95,-96 c -60,-61 -123,-113 -174,-144 -44,-27 -90,-58 -103,-69 -15,-13 -26,-16 -32,-10 -10,10 104,126 280,284 99,89 157,165 210,275 66,137 84,225 84,410 0,88 -6,189 -13,225 -20,105 -63,281.9999 -67,276.9999 -2,-2 5,-43.9999 16,-92.9999 74,-342 30,-661 -124,-892 -57,-86 -138,-170 -251,-260 -49,-39 -110,-96 -134,-127 -39,-48 -45,-53 -56,-38 -10,13 -5,31 27,102 45,97 84,154 223,326 156,194 201,282 212,418 8,86 -11,86 -22,0 -15,-125 -86,-264 -199,-393 -176,-202 -209,-243 -236,-292 l -30,-53 v 51 c 0,55 -24,98 -90,159 -52,49 -54,59 -19,108 41,59 50,126 20,156 -31,31 -79,27 -123,-9 -43,-35 -93,-134 -104,-200 -3,-25 -17,-65 -29,-90 -12,-25 -39,-85 -59,-133 -78,-189 -192,-384 -299,-512 -57,-69 -187,-209 -187,-202 0,2 21,35 46,73 59,89 184,345 222,456 50,140 61,215 60,397 0,146 -2,165 -19,182 -24,24 -46,24 -87,-1 -58,-36 -68,-96 -22,-142 28,-27 35,-30 72,-24 l 41,7 -6,-78 c -7,-83 -27,-153 -73,-246 -27,-55 -29,-56 -41,-35 -7,13 -17,40 -23,61 -10,35 -8,42 25,97 20,33 46,65 57,71 30,16 14,22 -26,9 -20,-6 -46,-25 -59,-42 l -24,-30 -35,75 c -20,41 -70,127 -112,191 -110,169 -109,166 -109,276 0,81 5,110 32,195 40,122 103,251 167,342 26,37 125,144.9999 219,237.9999 200,199 225,238 225,347 0,38 -6,83 -14,101 -25,61 -97,114 -179,132 -40,8 -29,28 24,42 61,16 135,15 194,-1 z m -2915,-91 c 34,-9 102,-15 180,-15 135,0 294,-27 440,-74 41,-14 95,-27 120,-31 25,-3 113,-17 195,-31 371,-61 453,-82 600,-156 93,-46 139,-82 256,-198 47,-47 119,-117 160,-155.9999 86,-81 139,-166 175,-278 32,-101 48,-257 37,-360 l -8,-79 -67,55 c -37,30 -81,61 -97,68 -25,10 -32,21 -40,61 -35,164 -125,448 -138,436 -2,-2 6,-26 17,-52 23,-53 62,-206 79,-305 6,-36 15,-78 19,-95 7,-26 5,-32 -22,-50 -50,-34 -57,-57 -54,-184 2,-70 -1,-115 -7,-118 -5,-1 -18,24 -29,58 -19,62 -125,249 -201,354 -24,33 -78,94 -121,135 l -78,75 77,-83 c 121,-128 211,-277 284,-465 l 34,-89 -36,-40 c -20,-22 -42,-53 -49,-70 l -13,-29 -41,84 c -100,211 -280,431 -512,631 -52,44 -163,140 -247,213 -201,174.9999 -323,264.9999 -414,306.9999 -73,34 -369,129 -377,121 -2,-2 49,-20 114,-41 222,-69 315,-117 459,-238 131,-108.9999 548,-494.9999 580,-535.9999 11,-14 -8,0 -41,30 -67,61 -521,427 -599,482 -49,34.9999 -167,97.9999 -182,97.9999 -4,0 26,-19 67,-41 92,-49.9999 102,-58.9999 420,-338.9999 441,-389 502,-455 659,-711 l 93,-153 -12,-39 c -6,-22 -23,-58 -37,-80 -14,-22 -35,-60 -48,-84 l -22,-44 -34,53 c -61,95 -130,160 -244,228 -33,21 -29,14 32,-45 78,-78 153,-186 189,-276 31,-76 31,-86 -5,-86 -23,0 -30,6 -40,32 -31,86 -143,188 -318,291 -116,67 -128,73 -88,42 115,-89 262,-229 305,-291 28,-38 50,-73 50,-77 0,-4 -21,-12 -47,-18 -46,-10 -49,-10 -68,16 -41,57 -130,144 -183,178 -59,40 -193,101 -316,144 -54,20 -91,40 -120,68 -22,21 -77,67 -121,103 -231,184 -292,268 -411,570 -65,167 -191,417 -272,537.9999 -71,107 -166,205 -226,231 -25,12 -76,23 -113,26 -107,8 -312.99999,48 -312.99999,60 0,47 114,112 259.99999,149 58,14 152,48 210,74 58,27 114,52 125,54 42,10 122,6 175,-8 z m 2047,-1366.9999 c 41,-24 91,-54 112,-68 45,-30 150,-162 220,-277 46,-76 52,-93 71,-204 11,-66 20,-166 20,-221 v -101 l -47,-81 c -25,-45 -69,-115 -97,-156 -49,-72 -51,-74 -54,-45 -5,52 -33,186 -47,223 -14,36 -14,36 -7,-23 10,-89 7,-294 -5,-306 -8,-8 -17,16 -31,78 -24,103 -79,375 -85,418 -2,17 -5,2 -6,-32 -1,-64 49,-388 74,-468 20,-67 -4,-43 -48,48 -30,62 -53,128 -95,277 -9,32 -10,31 -5,-15 3,-27 11,-78 17,-112 7,-35 11,-63 9,-63 -7,0 -83,164 -83,179 0,8 -3,12 -6,8 -8,-8 22,-97 68,-197 l 39,-85 -88,86 c -48,47 -108,99 -133,116 -64,44 -136,122 -155,165 -29,72 -14,142 53,240 52,76 65,111 73,196 11,104 24,131 74,158 l 40,21 -3,117 c -3,94 0,122 13,142 8,13 20,24 27,24 6,0 44,-19 85,-42 z m 1106,-400 c 47,-60 47,-61 47,-135 0,-103 15,-152 63,-211 23,-28 52,-78 65,-111 18,-46 35,-70 78,-106 29,-26 54,-54 54,-63 0,-10 -18,-39 -40,-65 -42,-51 -57,-99 -45,-144 3,-16 36,-57 72,-92 36,-35 57,-60 46,-56 -85,34 -244,85 -268,85 -22,0 -10,-7 44,-26 41,-14 128,-52 193,-86 217,-110 287,-216 269,-408 -9,-95 2,-140 54,-215 25,-36 45,-78 45,-92 v -25 l -27,18 c -22,14 -51,19 -128,21 -98,2 -102,3 -193,50 -84,43 -100,48 -160,48 -46,0 -82,-6 -111,-19 -34,-16 -46,-17 -59,-8 -53,38 -78,51 -116,56 -50,8 -85,40 -141,131 -21,33 -52,75 -69,93 -33,36 -146,127 -146,118 0,-3 30,-39 68,-80 46,-50 84,-107 121,-179 50,-97 54,-108 48,-155 -9,-76 -40,-127 -147,-237 -53,-55 -115,-125 -137,-155 -22,-30 -51,-65 -64,-77 -33,-30 -178,-95 -198,-88 -9,3 -27,29 -40,58 -14,29 -50,76 -83,108 -54,53 -59,62 -73,128 -18,89 -26,105 -79,159 l -41,43 v 93 c 0,86 -2,95 -28,129 -33,44 -90,78 -175,106 -91,29 -118,49 -171,121 -26,36 -59,70 -72,77 -13,6 -56,26 -95,43 -68,30 -72,34 -100,93 -33,70 -67,98 -151,122 -30,9 -66,28 -80,41 -23,23 -25,31 -19,80 6,50 4,59 -23,98 -16,23 -47,58 -69,78 l -39,35 60,7 c 34,3 91,20 136,40 105,47 216,79 251,73 15,-4 72,-25 127,-48 111,-48 246,-143 333,-235 56,-59 110,-126 110,-136 0,-3 -34,12 -75,33 -89,45 -89,38 0,-27 36,-26 64,-49 62,-50 -1,-1 -29,4 -62,12 -67,15 -325,47 -332,41 -2,-3 27,-10 64,-16 85,-15 290,-69 321,-85 22,-12 20,-13 -29,-24 -75,-18 -173,-67 -203,-103 -38,-44 -32,-59 8,-20 43,42 151,81 241,88 l 70,5 81,-65 c 45,-36 93,-80 108,-98 39,-46 85,-141 107,-223 l 20,-71 -6,59 c -5,50 -21,108 -59,211 -4,11 11,0 34,-25 55,-58 124,-203 155,-321 27,-104 33,-90 10,21 -23,108 -61,215 -110,308 -24,45 -39,79 -32,75 43,-25 76,-57 128,-121 79,-98 135,-195 171,-295 23,-65 28,-73 22,-38 -20,137 -136,345 -258,465 l -50,48 65,-7 c 159,-18 312,-77 389,-148 25,-23 17,-12 -18,24 l -63,66 58,-5 c 32,-3 101,-15 153,-28 52,-12 96,-21 98,-19 11,11 -228,76 -296,81 -71,5 -242,58 -242,75 0,3 57,16 128,29 208,39 358,31 477,-27 43,-21 47,-21 25,-4 -41,34 -160,78 -243,91 -75,12 -289,9 -347,-5 -20,-5 -22,-4 -8,4 9,6 78,23 155,38 76,14 143,31 148,36 18,17 -176,-2 -280,-27 -55,-13 -101,-23 -102,-22 -1,1 59,43 135,93 141,93 206,123 269,123 28,0 34,3 25,12 -16,16 -100,12 -147,-8 -22,-9 -71,-37 -110,-62 -38,-25 -108,-62 -153,-83 l -84,-39 70,77 c 39,43 126,120 193,173 72,56 146,123 178,163 31,38 76,79 101,93 88,49 115,95 85,140 -20,31 -77,33 -103,4 -16,-19 -51,-105 -73,-177 -13,-42 -84,-104 -209,-182 -56,-35 -119,-78 -139,-95 l -36,-31 36,45 c 64,79 165,237 205,320 33,68 42,79 60,75 26,-6 65,23 94,70 28,46 24,105 -8,121 -35,17 -35,18 -11,92 l 22,70 36,-5 c 30,-4 42,1 76,31 34,30 41,33 50,19 6,-8 31,-42 58,-75 z m -2503,-123 c 104,-33 355,-145 430,-190 30,-19 69,-49 86,-67 33,-36 84,-104 84,-111 0,-3 -29,-22 -65,-42 -69,-38 -90,-42 -172,-30 -48,7 -53,6 -53,-11 0,-10 12,-31 28,-47 18,-21 21,-28 10,-24 -37,13 -410,53 -633,67 -88,6 -172,13 -187,16 -15,3 -54,2 -85,-3 l -58,-8 80,-6 c 407,-33 747,-96 904,-169 77,-36 91,-47 91,-66 0,-27 -2,-28 -48,-15 -36,11 -506,26 -792,26 -148,0 -201,-4 -263,-19 -43,-11 -81,-24 -84,-29 -4,-6 0,-8 10,-4 84,32 221,33 857,4 290,-14 296,-15 357,-68 18,-16 52,-33 75,-40 91,-24 120,-41 149,-87 16,-25 27,-47 26,-49 -2,-2 -39,7 -83,19 -76,20 -95,21 -539,19 -253,-1 -482,-6 -510,-11 -45,-8 -42,-9 30,-5 44,2 157,-2 250,-10 94,-8 271,-17 395,-20 246,-7 333,-19 432,-64 35,-15 81,-34 103,-41 41,-13 105,-65 105,-86 0,-22 -145,-83 -270,-114 -292,-70 -602,-106 -855,-98 -119,4 -140,3 -100,-5 28,-6 181,-10 340,-11 267,0 303,2 450,27 187,30 315,65 403,109 l 63,31 22,-21 21,-22 -29,-31 c -94,-99 -305,-195 -560,-255 -88,-20 -146,-27 -285,-31 -171,-5 -204,-2 -370,32 l -25,6 25,-11 c 108,-48 452,-62 655,-27 190,33 456,133 568,213 45,33 48,33 42,12 -24,-75 -95,-127 -400,-290 -168,-90 -362,-138 -554,-138 -208,0 -401,46 -771,182 -271,99 -287,105 -545.00002,185 -223.99997,69 -282.99997,74 -459.99997,43 -258.99999,-46 -436.999994,-12 -491.999997,94 l -15,29 79.000007,74 c 110,104 200,177 338,274 119.99999,84 292.99999,179 325.99999,179 10,0 20,4 24,10 9,14 -93,-19 -160,-52 -68,-34 -260.99999,-162 -378.99999,-250 -43,-32 -80,-57 -83,-55 -2,3 38,44 89,91 151,143 320.99999,246 527.99999,321 52,19 89,34 81,35 -24,0 -193,-61 -288,-105 -51,-24 -129.99999,-68 -174.99999,-97 -83,-54 -261,-198 -275,-222 -14,-24 -74.000007,-88 -78.000007,-84 -8,7 52.000007,124 100.000007,197 26,39 110,142 187,229 78,86 175.99999,202 218.99999,258 43,55 96,117 117,136 85,77 245,149 368.99999,167 45,7 124,25 175,41 51,17 152,41 225,55 73,13 190,38 260,54 170,40 169,39 318,37 110,-3 143,-7 215,-31 z m 1180,-1373 c 30,-15 62,-38 72,-52 18,-24 18,-30 3,-92 -11,-48 -12,-73 -5,-95 9,-26 3,-44 -54,-164 -81,-167 -116,-271 -121,-357 -4,-62 -4,-63 4,-20 17,88 53,182 122,318 91,178 79,163 122,145 50,-21 83,-69 96,-139 6,-33 11,-61 11,-62 0,-2 14,-19 31,-39 26,-29 32,-46 36,-99 11,-129 -31,-310 -103,-446 -40,-75 -12,-45 42,45 46,76 98,202 120,290 l 18,70 9,-40 c 12,-52 1,-324 -18,-445 -8,-53 -34,-151 -60,-223 -25,-70 -45,-133 -45,-140 1,-22 111,247 131,318 25,89 51,344 47,452 -2,46 -2,83 0,83 1,0 13,-25 27,-55 25,-59 36,-65 57,-37 11,14 63,35 146,58 20,6 15,-152 -9,-262 -33,-155 -132,-421 -220,-596 -56,-111 -20,-57 60,90 118,217 186,395 241,635 11,48 20,102 20,120 0,31 15,57 32,57 16,0 7,-159 -17,-305 -55,-334 -93,-429 -343,-855 -126,-214 -128,-217 -120,-210 29,27 328,493 375,585 122,241 204,589 190,810 -7,110 0,124 111,217 60,51 82,76 96,112 10,25 22,46 26,46 14,0 57,-80 75,-140 22,-75 30,-281 16,-413 -7,-60 -25,-172 -42,-250 -26,-128 -50,-340 -36,-327 3,3 10,47 16,99 7,51 32,188 57,304 25,115 50,257 57,315 16,143 27,100 34,-133 8,-268 -14,-417 -94,-625 -60,-159 -171,-371 -255,-490 l -39,-55 36,40 c 78,86 195,285 270,461 87,203 116,353 115,602 0,193 -17,337 -55,456 -14,43 -25,84 -25,90 0,6 -11,35 -25,64 -21,45 -22,52 -8,52 10,0 38,-22 64,-50 31,-33 55,-50 71,-50 20,0 30,-13 66,-87 58,-123 140,-359 153,-444 19,-125 -11,-288 -93,-495 -51,-129 -371,-788 -420,-865 -87,-136 -203,-223 -502,-378 -76,-40 -203,-112 -283,-162 -306,-190 -425,-238 -608,-247 l -109,-5 77,84 c 102,112 302,370 331,428 30,58 56,121 51,121 -2,0 -20,-31 -40,-68 -41,-79 -274,-374 -378,-480 -68,-69 -74,-73 -107,-67 -97,17 -187,84 -222,163 -37,84 -18,268 37,348 45,67 47,89 38,533 -4,229 -8,504 -8,611 v 195 l 42,125 c 23,69 54,181 69,250 43,209 114,358 204,426 69,52 229,230 251,279 10,22 19,52 19,68 0,33 2,33 70,-1 z"
       id="path1" />
    <path
       d="m 4568.1725,10640.004 c 0,-2 8,-10 18,-17 15,-13 16,-12 3,4 -13,16 -21,21 -21,13 z"
       id="path2" />
    <path
       d="m 4713.1725,10151.004 c 19,-97 25,-191.9999 16,-271.9999 -20,-170 -65,-289 -204,-538 -178,-318 -204,-379 -198,-469 1,-15 6,-15 58,-1 73,19 113,40 113,58 0,17 -21,20 -36,6 -10,-11 -94,-32 -94,-24 0,2 48,93 107,201 219,404 282,561 291,727 5,104 -11,218.9999 -43,300.9999 -11,27 -14,30 -10,11 z"
       id="path3" />
    <path
       d="m 5140.1725,9909.0041 c 0,-16 2,-22 5,-12 2,9 2,23 0,30 -3,6 -5,-1 -5,-18 z"
       id="path4" />
    <path
       d="m 5148.1725,9805.0041 c 0,-129 -53,-306 -141,-468 -40,-74 -51,-105 -24,-66 34,49 115,223 140,303 26,81 48,290 31,290 -3,0 -6,-27 -6,-59 z"
       id="path5" />
    <path
       d="m 4039.1725,9493.0041 c -7,-22 -10,-43 -7,-46 2,-3 10,14 16,37 15,55 7,63 -9,9 z"
       id="path6" />
    <path
       d="m 4030.1725,9414.0041 c 0,-14 2,-19 5,-12 2,6 2,18 0,25 -3,6 -5,1 -5,-13 z"
       id="path7" />
    <path
       d="m 4021.1725,9284.0041 c 0,-47 2,-66 4,-42 2,23 2,61 0,85 -2,23 -4,4 -4,-43 z"
       id="path8" />
    <path
       d="m 4029.1725,9169.0041 c -1,-53 62,-275 75,-263 1,2 -8,35 -22,72 -13,38 -31,103 -38,145 -8,42 -15,63 -15,46 z"
       id="path9" />
    <path
       d="m 1949.1725,10450.004 c 85,-37 206,-101 287,-152 28,-19 52,-30 52,-26 -2,25 -204,142 -324,186 -97,37 -105,32 -15,-8 z"
       id="path10" />
    <path
       d="m 1076.1725,10452.004 c -21,-6 -38,-14 -38,-19 0,-12 15,-11 65,2 22,6 69,14 105,18 l 65,8 -80,1 c -44,0 -97,-5 -117,-10 z"
       id="path11" />
    <path
       d="m 1978.1725,10094.004 c 8,-5 20,-10 25,-10 6,0 3,5 -5,10 -8,5 -19,10 -25,10 -5,0 -3,-5 5,-10 z"
       id="path12" />
    <path
       d="m 1953.1725,9907.0041 c 6,-5 146,-95 313,-199 266,-165 318,-202 415,-292 158,-147 175,-147 27,0 -136,135 -199,178 -566,388 -209,120 -202,116 -189,103 z"
       id="path13" />
    <path
       d="m 3648.1725,9117.0041 c 21,-49 45,-106 54,-127 22,-52 30,-41 11,15 -23,65 -87,199 -95,199 -4,0 9,-39 30,-87 z"
       id="path14" />
    <path
       d="m 4828.1725,7770.0041 c 0,-2 8,-10 18,-17 15,-13 16,-12 3,4 -13,16 -21,21 -21,13 z"
       id="path15" />
    <path
       d="m 4978.1725,7490.0041 c 25,-13 85,-59 134,-102 120,-108 175,-150 96,-75 -124,117 -237,202 -267,201 -4,-1 12,-12 37,-24 z"
       id="path16" />
    <path
       d="m 4171.1725,7159.0041 c 0,-22 2,-30 4,-17 2,12 2,30 0,40 -3,9 -5,-1 -4,-23 z"
       id="path17" />
    <path
       d="m 644.17251,7773.0041 c -64,-27 -367.99999,-200 -390.99999,-222 -16,-15 50,20 200,106 76.99999,44 171.99999,95 209.99999,113 88,42 74,44 -19,3 z"
       id="path18" />
    <path
       d="m 213.17252,7534.0041 c -3,-6 1,-7 9,-4 18,7 21,14 7,14 -6,0 -13,-4 -16,-10 z"
       id="path19" />
    <path
       d="m 1908.1725,7214.0041 c 8,-5 20,-10 25,-10 6,0 3,5 -5,10 -8,5 -19,10 -25,10 -5,0 -3,-5 5,-10 z"
       id="path20" />
    <path
       d="m 4513.1725,6899.0041 c 19,-49 25,-85 25,-144 0,-83 -28,-265 -61,-395 -31,-120 -16,-101 19,26 68,242 93,409 73,484 -13,47 -46,94 -66,94 -11,0 -9,-15 10,-65 z"
       id="path21" />
    <path
       d="m 3514.1725,6939.0041 c -3,-9 -6,-40 -6,-68 0,-109 -30,-293 -77,-477 -3,-14 -3,-23 0,-20 9,8 74,240 93,330 17,80 20,228 6,242 -6,6 -12,2 -16,-7 z"
       id="path22" />
    <path
       d="m 3552.1725,5786.0041 c -46,-171 -95,-296 -189,-487 -104,-211 -357,-636 -434,-730 -103,-125 -113,-153 -33,-96 56,41 105,115 282,421 176,303 251,456 309,622 42,123 105,361 99,377 -1,6 -17,-43 -34,-107 z"
       id="path23" />
    <path
       d="m 4155.1725,5661.0041 c -28,-43 -106,-205 -182,-378 -84,-191 -146,-312 -208,-404 -49,-72 -144,-173 -198,-211 -45,-31 -46,-43 -2,-20 130,67 255,261 443,686 45,102 101,222 126,268 42,79 52,107 21,59 z"
       id="path24" />
    <path
       d="m 4317.1725,5357.0041 c -13,-16 -12,-17 4,-4 9,7 17,15 17,17 0,8 -8,3 -21,-13 z"
       id="path25" />
    <path
       d="m 6382.1725,8029.0041 c 85,-86 130,-152 164,-246 30,-81 60,-108 48,-43 -4,21 -16,55 -26,75 -28,53 -150,197 -206,243 -40,32 -36,27 20,-29 z"
       id="path26" />
    <path
       d="m 6512.1725,6779.0041 c 20,-27 54,-81 76,-120 22,-38 40,-64 40,-56 0,25 -61,126 -107,176 l -45,50 z"
       id="path27" />
  </g>
</svg>
