<?xml version="1.0" encoding="utf-8"?>
<!-- Generator: Adobe Illustrator 27.4.1, SVG Export Plug-In . SVG Version: 6.00 Build 0)  -->
<svg version="1.1" id="Layer_2_00000017507308669276947390000010830006233087044507_"
	 xmlns="http://www.w3.org/2000/svg" xmlns:xlink="http://www.w3.org/1999/xlink" x="0px" y="0px" viewBox="0 0 422.2 215.5"
	 style="enable-background:new 0 0 422.2 215.5;" xml:space="preserve">
<style type="text/css">
	.st0{fill:#CCD5F8;}
	.st1{fill:#6680EB;}
	.st2{fill:#3356E4;}
	.st3{fill:#DCE6D1;}
	.st4{font-family:'NotoSerifNFP-Reg';}
	.st5{font-size:64px;}
	.st6{fill:none;stroke:#000000;stroke-width:0.75;stroke-miterlimit:10;}
</style>
<g id="Layer_1-2">
	<g>
		<path class="st0" d="M116.8,60.9C144.5,12.4,271-12.7,350.6,6.4c3.3,0.8,57.3,14.3,65.9,40.7c16.8,51.8-151.9,118.1-241.3,97.9
			C123.3,133.4,98.7,92.6,116.8,60.9L116.8,60.9z"/>
		<path class="st1" d="M358.6,85.3c59.7,40.9,20.8,105.3-59.2,124.1c-3.3,0.8-58.4,13.2-105.6,0.1c-92.6-25.7-92.9-132.1-5.1-154.1
			C239.5,42.7,319.6,58.6,358.6,85.3L358.6,85.3z"/>
		<path class="st2" d="M226.2,36.8c59.7,40.9,20.8,105.3-59.2,124.1c-3.3,0.8-59.3,16.2-105.7,0.1c-78.6-27.5-86-110.7,3.4-124.5
			C93.2,32.1,187.2,10.1,226.2,36.8L226.2,36.8z"/>
	</g>
	<text transform="matrix(1 0 0 1 133.19 136.65)" class="st3 st4 st5">de-cloud.</text>
	<text transform="matrix(1 0 0 1 133.19 136.65)" class="st6 st4 st5">de-cloud.</text>
</g>
</svg>
