<?xml version="1.0" encoding="UTF-8" standalone="no"?>
<svg
   version="1.1"
   id="svg6"
   width="300"
   height="150"
   sodipodi:docname="eyes.svg"
   inkscape:version="1.3.2 (091e20e, 2023-11-25, custom)"
   xmlns:inkscape="http://www.inkscape.org/namespaces/inkscape"
   xmlns:sodipodi="http://sodipodi.sourceforge.net/DTD/sodipodi-0.dtd"
   xmlns="http://www.w3.org/2000/svg"
   xmlns:svg="http://www.w3.org/2000/svg">
  <sodipodi:namedview
     id="namedview1"
     pagecolor="#ffffff"
     bordercolor="#000000"
     borderopacity="0.25"
     inkscape:showpageshadow="2"
     inkscape:pageopacity="0.0"
     inkscape:pagecheckerboard="0"
     inkscape:deskcolor="#d1d1d1"
     inkscape:zoom="6.52"
     inkscape:cx="150"
     inkscape:cy="74.923313"
     inkscape:window-width="2560"
     inkscape:window-height="1417"
     inkscape:window-x="1072"
     inkscape:window-y="-8"
     inkscape:window-maximized="1"
     inkscape:current-layer="svg6" />
  <defs
     id="defs6" />
  <title
     xml:lang="en"
     id="title1">eyeball</title>
  <circle
     cx="-125"
     cy="33.742332"
     r="26"
     fill="#ff8989"
     id="circle1"
     transform="scale(-1,1)" />
  <circle
     cx="-125"
     cy="30.440908"
     r="25"
     fill="#ffffff"
     id="circle2"
     transform="scale(-1,1)" />
  <circle
     cx="-125"
     cy="33.742332"
     r="15"
     fill="#0000ff"
     id="circle3"
     transform="scale(-1,1)" />
  <circle
     cx="-125"
     cy="33.742332"
     r="5"
     fill="#000000"
     id="circle4"
     transform="scale(-1,1)" />
  <circle
     cx="-120"
     cy="33.742332"
     r="2"
     fill="#ffffff"
     id="circle5"
     transform="scale(-1,1)" />
  <circle
     cx="-122"
     cy="37.742332"
     r="1"
     fill="#ffffff"
     id="circle6"
     transform="scale(-1,1)" />
  <circle
     cx="-125"
     cy="33.742332"
     r="26"
     fill="#ff8989"
     id="circle7"
     transform="scale(-1,1)" />
  <circle
     cx="-125"
     cy="30.440908"
     r="25"
     fill="#ffffff"
     id="circle8"
     transform="scale(-1,1)" />
  <circle
     cx="-125"
     cy="33.742332"
     r="15"
     fill="#0000ff"
     id="circle9"
     transform="scale(-1,1)" />
  <circle
     cx="-125"
     cy="33.742332"
     r="5"
     fill="#000000"
     id="circle10"
     transform="scale(-1,1)" />
  <circle
     cx="-120"
     cy="33.742332"
     r="2"
     fill="#ffffff"
     id="circle11"
     transform="scale(-1,1)" />
  <circle
     cx="-122"
     cy="37.742332"
     r="1"
     fill="#ffffff"
     id="circle12"
     transform="scale(-1,1)" />
  <circle
     cx="184.86548"
     cy="35.44091"
     r="26"
     fill="#ff8989"
     id="circle13" />
  <circle
     cx="184.86548"
     cy="35.44091"
     r="15"
     fill="#0000ff"
     id="circle14" />
  <circle
     cx="184.86548"
     cy="35.44091"
     r="5"
     fill="#000000"
     id="circle15" />
  <circle
     cx="189.86548"
     cy="35.44091"
     r="2"
     fill="#ffffff"
     id="circle16" />
  <circle
     cx="187.86548"
     cy="39.44091"
     r="1"
     fill="#ffffff"
     id="circle17" />
  <circle
     cx="184.86548"
     cy="35.44091"
     r="26"
     fill="#ff8989"
     id="circle18" />
  <circle
     cx="184.86548"
     cy="32.139488"
     r="25"
     fill="#ffffff"
     id="circle19" />
  <circle
     cx="184.86548"
     cy="35.44091"
     r="15"
     fill="#0000ff"
     id="circle20" />
  <circle
     cx="184.86548"
     cy="35.44091"
     r="5"
     fill="#000000"
     id="circle21" />
  <circle
     cx="189.86548"
     cy="35.44091"
     r="2"
     fill="#ffffff"
     id="circle22" />
  <circle
     cx="187.86548"
     cy="39.44091"
     r="1"
     fill="#ffffff"
     id="circle23" />
  <rect
     style="fill:#550000;fill-opacity:0.249275;stroke-width:3.87484;stroke-linecap:square;stroke-miterlimit:2.9;stroke-dashoffset:0.105;paint-order:fill markers stroke"
     id="rect23"
     width="59.149235"
     height="56.863434"
     x="142.79961"
     y="23.958027"
     inkscape:transform-center-x="2.3912916"
     inkscape:transform-center-y="15.472392"
     transform="matrix(0.9534087,0.30168171,-0.27377655,0.96179333,0,0)" />
  <path
     style="fill:#ff0000;fill-opacity:0.249275;stroke-width:3.87402;stroke-linecap:square;stroke-miterlimit:2.9;stroke-dashoffset:0.105;paint-order:fill markers stroke"
     id="path23"
     sodipodi:type="arc"
     sodipodi:cx="146.86983"
     sodipodi:cy="111.44086"
     sodipodi:rx="16.180981"
     sodipodi:ry="17.331289"
     sodipodi:start="0"
     sodipodi:end="3.6910357"
     sodipodi:arc-type="slice"
     d="m 163.05081,111.44086 a 16.180981,17.331289 0 0 1 -10.77795,16.33654 16.180981,17.331289 0 0 1 -17.97574,-5.4266 16.180981,17.331289 0 0 1 -1.22668,-19.96056 l 13.79939,9.05062 z" />
  <rect
     style="fill:#ffffff;fill-opacity:1;stroke-width:2.51021;stroke-linecap:square;stroke-miterlimit:2.9;stroke-dashoffset:0.105;paint-order:fill markers stroke"
     id="rect25"
     width="34.784401"
     height="16.241043"
     x="153.218"
     y="40.070518"
     transform="matrix(0.98368414,0.17990417,-0.24558685,0.96937459,0,0)" />
</svg>
