<?xml version="1.0" standalone="no"?>
<!DOCTYPE svg PUBLIC "-//W3C//DTD SVG 20010904//EN"
 "http://www.w3.org/TR/2001/REC-SVG-20010904/DTD/svg10.dtd">
<svg version="1.0" xmlns="http://www.w3.org/2000/svg"
 width="472.000000pt" height="404.000000pt" viewBox="0 0 472.000000 404.000000"
 preserveAspectRatio="xMidYMid meet">
<metadata>
Created by potrace 1.16, written by Peter Selinger 2001-2019
</metadata>
<g transform="translate(0.000000,404.000000) scale(0.100000,-0.100000)"
fill="#000000" stroke="none">
<path d="M2454 3923 c-13 -9 -62 -74 -108 -141 -19 -28 -36 -42 -51 -42 -12 0
-41 -6 -63 -14 l-41 -15 -21 35 c-12 19 -30 40 -39 47 -10 6 -23 21 -29 33
-12 22 -54 42 -144 68 -53 16 -61 16 -115 0 -32 -9 -87 -24 -123 -34 -79 -21
-148 -48 -257 -101 -85 -40 -105 -65 -56 -71 l27 -3 -32 -35 c-29 -32 -31 -33
-32 -12 0 43 -15 27 -123 -132 l-47 -70 3 -86 c3 -74 9 -95 40 -160 46 -95 74
-125 134 -149 71 -28 143 -34 275 -22 128 11 155 21 216 78 80 76 158 140 189
156 29 16 33 16 48 0 11 -10 15 -26 12 -42 -24 -127 -27 -156 -18 -159 17 -6
13 -27 -9 -47 -11 -10 -20 -29 -20 -42 0 -13 -5 -33 -11 -44 -7 -15 -7 -24 2
-35 8 -10 8 -14 0 -14 -9 0 -8 -6 1 -22 12 -22 13 -22 19 12 l6 35 3 -37 c1
-21 3 -41 5 -45 1 -5 5 -21 10 -38 4 -16 12 -36 18 -43 9 -11 4 -148 -6 -158
-2 -3 -33 3 -68 12 -50 13 -86 15 -164 10 -169 -12 -318 -14 -357 -4 -47 11
-71 -1 -187 -91 -123 -96 -158 -116 -177 -101 -11 10 -20 10 -40 2 -20 -10
-30 -9 -49 4 -14 9 -25 12 -25 6 0 -6 5 -14 10 -17 16 -10 11 -25 -8 -25 -10
0 -24 -6 -30 -12 -10 -10 -20 -5 -47 24 -41 43 -43 51 -13 66 21 10 19 11 -18
11 -23 1 -47 7 -53 15 -20 24 -61 5 -134 -65 -39 -38 -75 -69 -79 -69 -11 0
-34 -50 -42 -92 -4 -21 -3 -38 1 -38 19 1 33 18 27 33 -8 21 21 67 42 67 9 0
18 -9 21 -20 3 -11 11 -20 19 -20 7 0 25 -12 40 -27 22 -22 25 -30 15 -45 -15
-25 -14 -33 4 -18 18 15 19 4 4 -38 l-11 -32 -45 33 c-25 17 -48 38 -50 45 -6
14 -23 16 -23 2 0 -17 112 -134 140 -146 14 -6 34 -21 44 -33 11 -11 27 -21
37 -21 9 0 31 -16 48 -35 17 -19 33 -35 37 -35 9 0 76 -59 90 -79 6 -9 15 -30
18 -48 l7 -31 -88 -7 c-55 -5 -94 -13 -105 -22 -17 -15 -37 -65 -43 -106 -2
-12 -12 -51 -23 -87 -11 -36 -22 -76 -25 -90 -19 -105 -61 -237 -80 -253 -17
-15 -19 -22 -9 -37 10 -16 5 -45 -23 -156 -19 -75 -35 -138 -35 -140 0 -2 -6
-1 -14 2 -10 4 -16 -8 -21 -48 -4 -29 -11 -60 -15 -68 -13 -26 -22 -152 -10
-145 6 4 10 -6 10 -24 0 -26 -3 -30 -26 -28 -40 3 -38 -13 5 -62 22 -25 38
-48 35 -53 -3 -4 -23 -8 -45 -8 -21 0 -39 -5 -39 -11 0 -6 16 -10 38 -8 20 1
43 1 50 0 18 -2 15 -21 -4 -21 -8 0 -23 -8 -32 -17 -15 -15 -17 -15 -20 -1 -3
13 -14 16 -55 13 -29 -2 -60 -4 -69 -4 -35 -2 -17 -19 26 -25 24 -4 50 -14 56
-21 7 -8 18 -15 24 -15 6 0 34 -12 61 -25 28 -14 68 -25 89 -25 23 0 47 -7 59
-18 17 -15 37 -17 161 -14 77 2 159 7 181 12 22 6 99 13 170 16 l130 7 2 -31
c4 -53 19 -72 60 -72 50 0 166 20 177 31 18 17 58 9 88 -16 16 -14 38 -25 49
-25 12 0 19 -7 19 -18 0 -16 8 -17 63 -14 59 4 63 2 76 -21 8 -14 27 -31 42
-37 l29 -12 -21 -29 -20 -29 783 2 c431 1 748 4 706 5 -43 2 -78 8 -78 13 0 6
9 10 19 10 11 0 23 5 26 10 3 6 21 10 39 10 19 0 39 7 46 15 19 23 43 19 35
-6 -7 -22 -6 -22 85 -17 50 3 97 11 103 17 6 6 26 11 44 11 36 0 38 2 23 30
-12 23 4 37 25 20 10 -8 24 -8 52 -1 48 14 120 14 128 1 10 -17 39 -11 53 10
11 18 8 21 -24 35 -20 8 -43 15 -51 15 -8 0 -21 7 -29 15 -14 13 -10 14 30 9
31 -5 46 -3 46 5 0 6 8 11 18 11 15 0 18 6 14 29 -5 35 1 37 113 46 44 3 105
11 135 17 60 11 130 43 130 58 0 5 -30 10 -67 12 -88 4 -93 21 -14 55 34 14
61 29 61 33 0 14 -79 34 -128 31 -76 -3 -107 6 -121 35 -9 21 -5 35 29 105
l41 80 -16 62 c-14 53 -67 200 -95 262 -23 49 -77 193 -84 220 -4 17 -26 76
-48 133 -22 56 -37 110 -34 118 3 9 1 12 -4 9 -6 -3 -10 3 -10 14 0 11 -5 23
-11 26 -6 4 -8 14 -5 22 3 8 -2 26 -12 41 -19 30 -42 89 -42 113 0 9 -9 24
-20 34 -11 10 -20 24 -20 32 0 8 -12 13 -31 13 -26 0 -29 -3 -24 -21 7 -21 5
-22 -35 -16 -24 3 -46 10 -49 15 -3 5 -27 12 -53 16 -27 4 -48 12 -48 17 0 6
-9 7 -20 4 -11 -3 -20 -3 -20 0 0 10 109 177 127 195 8 8 24 32 36 52 12 20
43 71 69 112 50 81 52 103 12 136 -16 14 -16 13 -5 -8 11 -21 9 -29 -13 -63
-15 -21 -27 -39 -29 -39 -1 0 -3 29 -5 65 -2 51 0 65 11 65 10 0 13 8 9 25 -6
35 -79 76 -142 81 -27 2 -52 -1 -55 -6 -3 -6 -12 -10 -18 -10 -7 0 -6 4 3 10
8 5 12 12 9 15 -13 12 -39 -9 -80 -62 l-43 -55 -18 24 c-10 13 -21 35 -24 51
-4 15 -10 27 -15 27 -13 0 -119 82 -153 119 -30 31 -31 31 -133 31 -57 0 -103
-4 -103 -9 0 -11 59 -23 71 -15 17 10 107 -7 123 -24 9 -9 36 -37 60 -62 23
-25 66 -67 94 -93 57 -53 64 -79 35 -127 -20 -35 -37 -40 -133 -40 -41 0 -93
-4 -115 -9 -22 -5 -71 -6 -109 -2 -67 6 -70 7 -77 35 -5 17 -7 32 -5 34 2 1
61 4 131 4 100 2 129 -1 136 -13 8 -11 12 -11 16 -1 2 6 20 12 38 12 40 0 51
12 29 31 -9 7 -30 33 -47 58 -53 78 -126 144 -161 147 -17 1 -136 5 -265 9
-128 3 -244 10 -257 15 -43 17 -27 31 34 29 82 -3 244 13 235 22 -14 14 -303
-2 -318 -18 -12 -12 -35 -18 -35 -10 0 2 9 30 21 63 46 133 45 125 26 139 -18
13 -24 65 -7 65 6 0 8 16 4 42 -6 36 -5 40 9 35 18 -7 24 8 7 18 -6 4 -17 23
-25 43 -9 20 -23 43 -33 50 -12 9 -14 15 -5 20 13 8 14 6 -56 154 -41 87 -48
108 -33 108 18 0 72 -42 127 -99 37 -39 87 -76 130 -99 l70 -37 127 1 c149 1
212 19 299 88 112 88 167 208 154 340 -10 95 -23 121 -103 203 -59 60 -77 72
-113 78 -24 4 -90 25 -147 46 -76 29 -145 46 -261 64 -86 14 -170 27 -187 30
-16 3 -34 2 -40 -2z m61 -53 c3 -5 -1 -10 -9 -10 -9 0 -16 5 -16 10 0 6 4 10
9 10 6 0 13 -4 16 -10z m80 -94 c55 -13 57 -14 22 -15 -21 -1 -47 -5 -57 -11
-17 -9 -17 -12 12 -40 25 -26 29 -36 24 -63 -10 -53 -60 -80 -111 -61 -9 4
-25 25 -34 47 l-17 41 -22 -45 c-40 -83 -22 -167 50 -239 18 -18 46 -41 63
-52 32 -19 85 -25 85 -8 0 5 19 14 42 21 48 12 104 50 132 87 14 18 19 43 20
96 1 85 -25 140 -89 188 l-40 30 45 -6 c24 -4 49 -11 56 -17 6 -5 37 -14 69
-20 69 -13 161 -51 193 -82 14 -12 34 -44 47 -72 29 -64 84 -123 96 -103 14
21 10 100 -6 128 -17 29 -19 50 -5 50 16 0 33 -81 36 -173 1 -49 5 -91 8 -94
3 -4 13 10 21 30 20 47 19 126 -1 177 -15 37 -14 63 2 47 12 -12 23 -92 23
-167 0 -53 -5 -87 -19 -118 -38 -84 -201 -229 -247 -220 -12 2 -7 10 19 27 19
14 41 33 48 44 9 16 1 14 -42 -11 -99 -57 -113 -62 -171 -62 -54 0 -61 3 -105
43 -66 60 -99 79 -124 71 -17 -5 -34 8 -89 65 -38 39 -75 71 -83 71 -7 0 -21
16 -30 35 -9 19 -25 39 -35 44 -18 10 -41 71 -41 109 0 31 75 173 111 210 35
36 53 38 144 18z m-514 -74 c13 -39 11 -49 -6 -45 -6 2 -9 -14 -7 -40 3 -33
-1 -47 -17 -61 -16 -15 -18 -21 -8 -37 9 -14 9 -21 0 -30 -15 -15 -36 -1 -30
21 3 12 -5 20 -30 29 -45 16 -67 51 -58 91 4 17 15 36 26 43 29 18 23 27 -21
27 -85 0 -160 -64 -181 -156 -14 -63 -1 -115 46 -176 19 -25 32 -48 29 -51 -3
-2 18 -10 46 -17 64 -15 133 -6 179 26 99 67 26 -13 -105 -115 -95 -75 -117
-86 -214 -110 -168 -40 -238 -30 -320 50 -66 65 -105 172 -79 221 l12 21 12
-22 c11 -22 13 -21 58 40 33 44 47 72 47 95 0 67 108 144 223 159 30 4 61 16
74 27 12 11 26 17 31 14 5 -3 31 4 58 15 35 16 66 21 115 20 39 -1 70 3 74 9
10 17 32 -6 46 -48z m213 -10 c3 -5 2 -50 -2 -100 -4 -51 -4 -92 0 -92 4 0 8
-17 8 -38 0 -37 -1 -38 -34 -34 l-35 4 0 121 c0 71 5 127 11 134 12 15 44 17
52 5z m248 -164 c-15 -15 -26 -4 -18 18 5 13 9 15 18 6 9 -9 9 -15 0 -24z
m-1231 -47 c-29 -48 -30 -54 -25 -133 4 -66 3 -79 -6 -65 -8 12 -11 49 -9 96
3 66 8 84 33 120 40 57 45 44 7 -18z m858 50 c21 -14 8 -90 -24 -141 -16 -25
-30 -39 -33 -32 -2 7 4 24 13 38 9 15 17 48 18 84 1 62 3 65 26 51z m451 -16
c17 -21 3 -57 -22 -53 -30 4 -45 32 -29 52 17 20 35 20 51 1z m-650 -45 c20
-38 -19 -77 -48 -48 -23 23 -7 68 25 68 7 0 17 -9 23 -20z m334 -206 c3 -9 6
-24 6 -34 0 -10 7 -26 16 -34 8 -9 13 -20 9 -26 -3 -5 3 -15 14 -22 19 -12 19
-13 -11 -25 -16 -7 -50 -13 -74 -13 -42 0 -43 0 -41 33 1 19 10 45 19 59 10
14 20 38 24 52 7 29 29 35 38 10z m-151 -167 c-9 -16 -24 9 -17 28 7 18 8 18
14 -1 4 -10 5 -23 3 -27z m264 -4 c-3 -10 -5 -4 -5 12 0 17 2 24 5 18 2 -7 2
-21 0 -30z m-993 -12 c-2 -3 -12 3 -22 13 -16 17 -16 18 5 5 12 -7 20 -15 17
-18z m924 11 c2 -7 -2 -10 -12 -6 -9 3 -16 11 -16 16 0 13 23 5 28 -10z m-68
-36 c19 -1 50 2 69 6 l33 8 -6 -38 c-4 -20 -9 -54 -11 -76 -4 -49 -16 -61 -46
-46 -19 11 -24 10 -35 -5 -22 -30 -47 -14 -61 40 -7 28 -13 67 -13 89 0 33 2
37 18 30 9 -4 33 -8 52 -8z m189 -55 c40 -40 35 -163 -6 -178 -10 -4 -21 -11
-25 -17 -3 -5 -14 17 -23 49 -16 55 -16 62 -1 112 19 58 26 63 55 34z m-302
-37 c28 -48 29 -76 3 -99 -11 -10 -20 -24 -20 -32 0 -7 -4 -13 -9 -13 -12 0
-21 26 -21 60 0 16 -4 40 -10 54 -11 31 4 80 23 74 6 -3 22 -22 34 -44z m360
-226 c-3 -8 -6 -5 -6 6 -1 11 2 17 5 13 3 -3 4 -12 1 -19z m-218 -158 c33 0
115 32 125 49 11 17 34 13 32 -6 0 -10 -3 -20 -6 -23 -10 -9 -60 -135 -60
-150 0 -31 -23 -40 -102 -40 -43 0 -77 3 -76 8 1 4 -10 43 -24 87 -15 44 -30
97 -34 119 l-7 39 61 -42 c38 -25 72 -41 91 -41z m-359 -26 l45 -11 -35 -6
c-77 -13 -180 -21 -263 -20 -114 2 -127 -9 -121 -93 2 -32 10 -62 17 -67 10
-7 128 -5 552 10 50 1 97 3 105 3 241 -3 804 0 807 4 3 3 7 30 9 61 3 64 8 75
34 75 19 0 60 -48 60 -72 0 -7 11 -26 25 -42 29 -33 29 -35 11 -59 -13 -17
-40 -18 -497 -13 -266 3 -676 6 -911 7 -236 0 -428 4 -428 7 0 4 25 32 56 63
31 31 55 62 53 68 -5 14 -127 -89 -148 -123 -17 -28 -7 -66 11 -48 8 8 64 12
177 12 90 0 161 -3 158 -7 -16 -15 18 -33 63 -33 97 0 111 27 18 33 -48 2 -41
3 27 4 50 0 82 -1 72 -4 -10 -3 -16 -10 -14 -16 6 -18 84 -20 117 -3 17 8 32
10 36 5 7 -12 131 -12 139 0 3 5 -7 11 -22 13 -16 2 78 3 207 1 251 -3 301 -7
328 -24 13 -8 39 -7 97 3 44 8 102 13 128 10 40 -3 50 -8 58 -29 5 -13 9 -31
9 -39 0 -23 -64 -44 -118 -38 -26 3 -312 7 -637 8 -692 3 -679 3 -716 11 -19
4 -26 11 -22 21 3 8 1 14 -3 15 -34 4 -146 8 -143 5 2 -2 24 -11 49 -19 l45
-16 -35 0 c-19 0 -46 6 -60 14 -14 8 -36 14 -50 15 -37 0 -50 18 -50 66 0 45
0 45 92 112 20 15 59 43 87 62 28 19 68 48 88 63 l38 28 205 -2 c113 -2 225
-9 250 -15z m200 -58 c0 -28 -5 -57 -12 -64 -8 -8 -8 -15 2 -27 11 -13 10 -14
-4 -9 -9 3 -17 9 -17 13 -1 3 -3 19 -5 35 -2 16 -5 35 -8 42 -3 7 2 18 10 24
8 7 14 21 14 32 0 10 5 16 10 13 6 -3 10 -30 10 -59z m-47 47 c-7 -2 -19 -2
-25 0 -7 3 -2 5 12 5 14 0 19 -2 13 -5z m427 -52 c12 -24 13 -81 1 -81 -29 0
-41 14 -41 49 0 53 20 69 40 32z m-1650 -44 c0 -7 18 -30 40 -52 21 -21 37
-42 34 -47 -3 -4 -9 -6 -14 -3 -4 3 -15 -6 -24 -20 -15 -23 -15 -25 -1 -25 14
0 16 -12 15 -72 -1 -40 -1 -86 0 -103 l2 -30 9 34 c6 18 12 32 13 30 2 -2 6
-39 10 -81 6 -71 5 -78 -11 -78 -30 0 -64 30 -84 74 -10 22 -19 37 -19 32 0
-5 -7 -3 -15 4 -17 14 -20 50 -4 50 6 0 9 7 6 15 -4 8 -2 17 3 20 6 4 10 -2
10 -12 0 -12 5 -9 16 12 8 17 19 33 23 38 24 24 -15 95 -78 141 -32 24 -31 30
13 64 32 25 56 29 56 9z m2730 -25 c0 -4 -5 -13 -11 -19 -6 -6 -14 -31 -16
-55 -3 -24 -11 -49 -18 -56 -10 -11 -16 -9 -33 13 -18 22 -20 31 -11 49 25 48
89 97 89 68z m100 -43 c0 -13 -24 -11 -38 3 -7 7 -12 18 -12 25 0 10 6 10 25
-3 14 -9 25 -20 25 -25z m-2930 -33 c6 -19 18 -40 26 -46 21 -19 17 -28 -11
-22 -14 2 -25 8 -25 12 0 4 -9 10 -20 13 -29 7 -35 34 -15 57 25 27 32 25 45
-14z m352 -1 c-6 -32 -47 -45 -70 -22 -14 15 -13 18 19 31 48 21 57 20 51 -9z
m2508 -20 c-6 -8 -9 -19 -5 -25 3 -5 2 -10 -3 -10 -19 0 -21 14 -5 32 19 21
31 25 13 3z m-2646 -23 c4 -10 -3 -43 -14 -73 l-20 -54 5 49 c3 27 5 59 5 72
0 28 16 32 24 6z m2733 -24 c-3 -8 -6 -5 -6 6 -1 11 2 17 5 13 3 -3 4 -12 1
-19z m-2876 -41 c-8 -8 -14 -8 -22 0 -7 7 -5 16 8 28 17 18 18 18 21 1 2 -10
-1 -23 -7 -29z m2752 16 c15 -18 45 -110 54 -171 4 -25 -1 -40 -22 -68 l-27
-36 -13 29 c-19 44 -48 210 -41 238 7 29 26 32 49 8z m-157 -109 c14 -34 36
-178 36 -236 -1 -31 -26 -84 -44 -90 -7 -3 -22 -2 -34 2 -24 9 -41 78 -54 215
l-8 80 32 31 c41 41 54 41 72 -2z m234 -31 c-4 -42 -5 -44 -8 -15 -3 30 2 62
10 62 2 0 1 -21 -2 -47z m-2492 25 c16 -16 15 -88 -3 -173 -15 -75 -43 -159
-44 -136 -1 22 -32 51 -54 51 -19 0 -36 15 -57 51 -9 15 -4 16 41 10 3 -1 11
-11 17 -23 l11 -23 0 22 c1 12 5 32 10 45 5 13 15 55 21 93 7 39 15 76 18 83
5 15 24 16 40 0z m960 -3 c2 -1 5 -54 7 -116 3 -63 9 -175 13 -249 5 -74 6
-139 2 -143 -4 -5 -57 -7 -117 -5 -103 3 -112 5 -147 32 -21 15 -40 36 -43 45
-14 44 -50 100 -87 133 -23 21 -44 38 -48 38 -14 0 -9 -37 6 -50 39 -32 75
-106 81 -170 4 -36 16 -114 27 -175 10 -60 22 -125 25 -142 5 -28 3 -33 -14
-33 -15 0 -19 8 -21 48 -3 69 -34 242 -44 242 -5 0 -24 -6 -42 -14 -18 -8 -45
-11 -60 -9 -19 4 -34 -1 -51 -17 -28 -26 -30 -25 -53 21 -21 40 -49 54 -38 18
4 -13 14 -46 22 -74 8 -27 21 -64 29 -82 21 -44 19 -48 -10 -16 -24 27 -24 27
-25 6 0 -28 -16 -30 -30 -3 -9 16 -8 22 5 26 26 10 16 24 -18 24 -18 0 -52 -9
-75 -20 -22 -11 -50 -20 -61 -20 -11 0 -21 -8 -23 -17 -3 -14 -19 -2 -71 49
-37 37 -69 79 -73 93 -8 32 21 95 43 95 10 0 32 15 50 32 29 28 36 31 53 20
11 -6 25 -12 31 -12 6 0 29 -16 52 -35 l41 -35 12 22 c10 19 8 29 -12 64 -35
60 -19 120 24 93 15 -10 29 -7 73 13 30 14 66 38 82 53 19 19 33 24 48 20 35
-11 19 28 -18 44 -34 15 -43 40 -43 123 0 34 -4 50 -15 54 -25 10 -17 32 13
36 30 4 495 -2 500 -7z m707 3 c4 -4 -2 -67 -14 -140 -13 -73 -26 -181 -31
-241 -4 -59 -13 -114 -20 -122 -9 -11 -59 -14 -280 -14 -147 -1 -274 -3 -283
-7 -20 -7 -31 57 -23 140 3 33 2 117 -2 186 -4 69 -6 142 -4 162 l3 37 57 3
c116 6 591 3 597 -4z m175 -156 c0 -21 45 -46 63 -36 8 5 9 4 2 -3 -6 -6 -41
-8 -82 -5 -59 3 -72 7 -76 23 -6 24 17 38 61 39 24 0 32 -4 32 -18z m-1632
-19 c17 -11 26 -25 24 -35 -5 -25 19 -23 25 2 4 16 9 18 24 9 27 -14 24 -22
-19 -42 -20 -10 -53 -26 -72 -37 -43 -23 -50 -24 -50 -5 0 15 32 125 37 125 1
0 15 -8 31 -17z m1766 -58 c3 -8 1 -15 -4 -15 -6 0 -10 7 -10 15 0 8 2 15 4
15 2 0 6 -7 10 -15z m-33 -82 c75 -30 82 -42 54 -96 -13 -25 -13 -32 -1 -55
13 -23 15 -25 21 -10 4 10 5 24 2 32 -3 8 -2 16 2 18 4 2 14 21 23 43 19 49
47 56 91 23 18 -14 71 -37 120 -53 48 -16 86 -34 84 -40 -2 -5 -11 -9 -21 -7
-11 2 -16 -4 -16 -20 0 -28 -57 -120 -91 -147 -21 -17 -32 -18 -74 -10 -28 6
-69 9 -93 7 -34 -2 -45 2 -58 20 -8 12 -25 22 -37 22 -35 0 -155 37 -190 59
-44 27 -65 66 -49 89 7 9 17 28 23 42 5 14 21 48 34 76 l25 52 41 -9 c22 -5
72 -22 110 -36z m694 -84 c4 -11 4 -23 0 -27 -9 -9 -40 13 -43 32 -5 24 35 20
43 -5z m-87 -81 c4 -21 -37 -25 -56 -6 -20 20 -13 29 20 26 22 -2 34 -9 36
-20z m117 1 c-8 -12 -35 -12 -35 0 0 11 22 20 33 14 4 -2 5 -9 2 -14z m-253
-21 c-6 -6 -15 -7 -22 -3 -8 5 -6 11 7 20 20 15 32 0 15 -17z m-2657 -7 c3 -5
-4 -13 -16 -16 -23 -8 -34 -1 -24 14 8 13 32 14 40 2z m1354 -58 c6 -16 18
-81 26 -147 8 -65 18 -129 21 -142 7 -27 42 -51 53 -37 23 26 36 108 36 220
l0 123 181 0 c165 0 182 -2 198 -19 15 -16 16 -27 7 -77 -16 -100 -21 -159
-13 -169 21 -31 118 -88 167 -100 31 -7 63 -19 73 -27 9 -8 33 -21 52 -28 19
-8 49 -22 65 -32 41 -24 63 -23 70 5 4 13 22 36 42 52 l36 28 -7 -41 c-6 -39
-32 -104 -77 -193 -11 -20 -19 -43 -19 -52 0 -8 -22 -38 -50 -67 -44 -46 -50
-50 -50 -29 0 21 -4 19 -47 -22 -37 -35 -60 -48 -101 -57 -60 -13 -75 -7 -125
54 -35 43 -38 58 -16 93 23 39 69 59 147 67 58 6 59 6 101 -33 44 -43 67 -39
34 5 -39 53 -68 66 -143 66 -54 0 -76 -4 -97 -20 -16 -11 -36 -23 -46 -27 -10
-4 -24 -21 -30 -37 -8 -21 -18 -30 -33 -30 -12 0 -24 -6 -27 -14 -7 -17 17
-40 35 -34 8 3 19 -11 29 -36 18 -45 71 -88 102 -84 11 2 22 -3 24 -9 3 -8 -6
-13 -24 -14 -15 -1 -46 -3 -67 -5 -25 -2 -56 5 -85 18 -33 15 -49 18 -62 10
-25 -16 -69 34 -62 71 5 25 3 27 -31 27 -35 0 -36 1 -36 40 0 28 -5 43 -16 47
-25 9 -35 -17 -28 -74 5 -45 4 -52 -15 -62 -12 -7 -21 -20 -21 -31 0 -18 -6
-19 -105 -15 -64 3 -105 1 -105 -5 0 -13 -33 -13 -64 1 -20 9 -29 9 -40 0 -20
-17 -32 -8 -46 34 -6 19 -18 35 -25 35 -7 0 -19 14 -27 30 -15 35 -32 34 -36
-2 -4 -35 -33 -59 -79 -65 -28 -4 -42 -1 -52 11 -7 9 -20 16 -29 16 -8 0 -24
7 -34 16 -14 14 -21 14 -32 5 -20 -17 -55 7 -76 52 -12 24 -22 32 -40 31 -30
-2 -35 5 -56 76 -9 30 -25 65 -37 78 -21 22 -21 23 -1 28 11 3 26 19 33 35 8
18 19 28 26 25 15 -5 39 17 29 27 -3 3 11 9 32 12 22 4 52 11 68 16 16 5 48 9
71 9 46 0 108 18 101 29 -7 11 -36 272 -36 321 0 21 31 27 220 39 63 5 125 9
136 10 15 1 25 -8 33 -26z m633 -223 c2 -29 -1 -36 -18 -38 -11 -2 -28 6 -38
16 -14 17 -15 22 -3 33 14 15 36 108 39 168 1 31 5 0 20 -179z m111 160 c-3
-11 -9 -23 -14 -26 -5 -3 -9 -15 -9 -26 0 -12 -2 -19 -5 -16 -11 10 8 88 20
88 8 0 11 -8 8 -20z m712 -20 c-3 -5 -15 -10 -25 -10 -10 0 -22 5 -25 10 -4 6
7 10 25 10 18 0 29 -4 25 -10z m-397 -25 c2 -10 -5 -30 -17 -46 -12 -15 -21
-30 -21 -33 0 -2 -23 -39 -50 -81 -28 -41 -56 -87 -62 -100 -13 -30 -16 -30
-46 -7 l-23 18 41 70 c22 39 43 88 46 110 l6 39 -27 -40 c-29 -44 -29 -40 -1
22 15 31 25 42 40 40 11 -1 21 4 22 11 1 6 2 13 3 15 0 2 20 2 44 1 31 -1 43
-6 45 -19z m-2358 -15 c0 -13 -40 -13 -60 0 -11 7 -5 10 23 10 20 0 37 -4 37
-10z m492 -52 c8 -13 19 -34 23 -48 6 -20 1 -16 -23 15 -17 22 -28 43 -26 47
7 12 10 10 26 -14z m-557 2 c4 -6 -5 -10 -19 -10 -14 0 -26 5 -26 10 0 6 9 10
19 10 11 0 23 -4 26 -10z m2709 -1 c-7 -12 -74 -12 -74 0 0 6 18 9 40 9 22 0
37 -4 34 -9z m169 -25 c17 3 27 3 24 -1 -14 -13 -131 -22 -145 -10 -21 17 15
26 57 15 19 -6 48 -7 64 -4z m107 1 c12 -15 5 -39 -9 -30 -12 7 -21 45 -11 45
4 0 13 -7 20 -15z m27 -17 c-3 -8 -6 -5 -6 6 -1 11 2 17 5 13 3 -3 4 -12 1
-19z m-2367 -23 c0 -5 -5 -3 -10 5 -5 8 -10 20 -10 25 0 6 5 3 10 -5 5 -8 10
-19 10 -25z m1573 -50 c-18 -48 -37 -65 -53 -49 -5 5 6 30 26 57 20 27 37 47
40 44 2 -2 -4 -25 -13 -52z m-2140 28 c-7 -2 -21 -2 -30 0 -10 3 -4 5 12 5 17
0 24 -2 18 -5z m1995 -13 c-13 -21 -28 -27 -28 -10 0 5 8 14 18 19 23 14 24
14 10 -9z m977 -32 c8 -28 13 -53 12 -55 -11 -11 -37 29 -43 65 -9 60 12 54
31 -10z m-3085 27 c0 -8 -7 -15 -15 -15 -8 0 -15 7 -15 15 0 8 7 15 15 15 8 0
15 -7 15 -15z m3009 -10 c6 -3 11 -14 11 -23 0 -12 -3 -13 -12 -4 -7 7 -24 12
-39 12 -44 0 -89 12 -83 22 6 10 106 4 123 -7z m-232 -1 c-3 -3 -12 -4 -19 -1
-8 3 -5 6 6 6 11 1 17 -2 13 -5z m-2010 -36 c-3 -8 -6 -5 -6 6 -1 11 2 17 5
13 3 -3 4 -12 1 -19z m-517 -17 c0 -14 -5 -18 -20 -14 -11 3 -20 12 -20 19 0
8 9 14 20 14 13 0 20 -7 20 -19z m-245 -28 c6 -21 3 -23 -27 -22 -18 0 -27 3
-20 6 6 2 12 13 12 22 0 39 22 35 35 -6z m135 29 c0 -17 -44 -30 -67 -19 -36
16 -27 27 22 27 25 0 45 -4 45 -8z m2720 -6 c0 -25 -17 -36 -54 -36 l-41 0 35
19 c34 18 60 25 60 17z m-2680 -36 c0 -5 -7 -10 -16 -10 -8 0 -12 5 -9 10 3 6
10 10 16 10 5 0 9 -4 9 -10z m2870 -50 c0 -13 -7 -20 -20 -20 -18 0 -19 2 -8
20 7 11 16 20 20 20 5 0 8 -9 8 -20z m-2756 -9 c9 -15 -44 -33 -60 -20 -8 6
-11 15 -8 20 7 11 61 12 68 0z m-264 -8 c0 -12 -43 -53 -57 -53 -7 0 -18 9
-25 20 -15 24 -31 25 -48 5 -17 -21 -24 -12 -10 14 9 18 20 21 75 21 36 0 65
-3 65 -7z m140 -1 c0 -17 -49 -32 -74 -22 -47 17 -39 30 18 30 31 0 56 -4 56
-8z m2710 -2 c20 -12 10 -20 -36 -26 l-39 -6 25 21 c29 24 30 24 50 11z m-215
-25 c0 -10 -6 -20 -12 -22 -8 -3 -13 5 -13 22 0 17 5 25 13 23 6 -3 12 -13 12
-23z m45 -15 c0 -5 -4 -10 -10 -10 -5 0 -10 5 -10 10 0 6 5 10 10 10 6 0 10
-4 10 -10z m450 -6 c0 -8 -4 -12 -10 -9 -5 3 -10 10 -10 16 0 5 5 9 10 9 6 0
10 -7 10 -16z m-3090 -3 c0 -5 -9 -11 -20 -14 -20 -5 -26 3 -13 16 9 10 33 8
33 -2z m130 -1 c0 -5 -7 -10 -15 -10 -8 0 -15 5 -15 10 0 6 7 10 15 10 8 0 15
-4 15 -10z m153 3 c-7 -2 -21 -2 -30 0 -10 3 -4 5 12 5 17 0 24 -2 18 -5z
m2672 -22 c-8 -13 -35 -15 -35 -2 0 5 8 11 18 13 21 5 26 2 17 -11z m-3090 -1
c4 -6 -7 -10 -27 -10 -25 0 -29 3 -18 10 19 13 37 13 45 0z m3194 -39 c13 -11
28 -22 33 -23 6 -2 9 -10 7 -17 -3 -8 -16 -3 -41 17 -21 16 -35 32 -31 36 8 8
7 9 32 -13z m-449 -11 c0 -13 -7 -20 -20 -20 -23 0 -26 10 -8 28 18 18 28 15
28 -8z m-2520 -15 c-48 -18 -312 -21 -304 -2 3 9 48 12 172 14 149 1 163 0
132 -12z m2774 9 c23 -9 20 -24 -4 -24 -11 0 -20 7 -20 15 0 17 2 18 24 9z
m-44 -14 c0 -5 -12 -10 -27 -10 -22 0 -25 2 -13 10 20 13 40 13 40 0z m170 0
c0 -5 -12 -10 -27 -10 -22 0 -25 2 -13 10 20 13 40 13 40 0z m-3040 -67 c-41
-19 -35 -19 -80 1 l-35 15 75 0 75 0 -35 -16z m2740 -13 c0 -5 -2 -10 -4 -10
-3 0 -8 5 -11 10 -3 6 -1 10 4 10 6 0 11 -4 11 -10z m-2680 -10 c0 -5 -7 -10
-16 -10 -8 0 -12 5 -9 10 3 6 10 10 16 10 5 0 9 -4 9 -10z m-163 -6 c-3 -3
-12 -4 -19 -1 -8 3 -5 6 6 6 11 1 17 -2 13 -5z m420 0 c-3 -3 -12 -4 -19 -1
-8 3 -5 6 6 6 11 1 17 -2 13 -5z m2553 -20 c0 -8 -5 -12 -10 -9 -6 4 -8 11 -5
16 9 14 15 11 15 -7z m44 10 c23 -9 20 -24 -4 -24 -11 0 -20 7 -20 15 0 17 2
18 24 9z m290 -16 c20 -28 20 -52 1 -68 -13 -10 -15 -9 -15 9 0 13 -7 29 -15
37 -8 9 -15 22 -15 30 0 22 27 17 44 -8z m-534 -19 c0 -5 -7 -9 -15 -9 -9 0
-15 9 -15 21 0 18 2 19 15 9 8 -7 15 -16 15 -21z m160 22 c0 -12 -20 -25 -27
-18 -7 7 6 27 18 27 5 0 9 -4 9 -9z m-2795 -51 c-3 -5 -22 -10 -41 -10 -19 0
-34 5 -34 10 0 6 18 10 41 10 24 0 38 -4 34 -10z m-125 -52 c-17 -10 -42 -18
-57 -18 -26 0 -26 0 13 34 36 31 40 33 57 18 16 -14 15 -16 -13 -34z m3327 27
c-4 -8 -11 -15 -17 -15 -7 0 -7 6 0 21 13 23 26 19 17 -6z m-74 -25 c4 -17 3
-19 -9 -9 -8 6 -14 18 -14 26 0 20 16 8 23 -17z m-3353 16 c0 -2 -7 -7 -16
-10 -8 -3 -12 -2 -9 4 6 10 25 14 25 6z m2937 -2 c-3 -3 -12 -4 -19 -1 -8 3
-5 6 6 6 11 1 17 -2 13 -5z m513 -19 c0 -8 -4 -15 -10 -15 -5 0 -10 7 -10 15
0 8 5 15 10 15 6 0 10 -7 10 -15z m-827 -187 c17 -43 29 -79 26 -81 -75 -58
-155 -67 -611 -70 -226 -1 -330 -5 -315 -12 37 -16 -42 -17 -333 -7 -269 9
-515 8 -550 -3 -15 -5 -23 0 -31 19 -14 30 -7 62 26 110 14 20 25 49 25 65 0
40 44 60 74 34 18 -16 37 -18 139 -15 70 2 115 7 112 13 -9 13 89 11 103 -3 9
-9 17 -9 37 2 20 11 56 11 207 0 195 -13 741 -17 898 -5 52 4 101 11 108 17 6
6 12 29 12 52 0 23 6 48 13 55 10 10 14 2 20 -41 5 -29 23 -88 40 -130z m407
157 c0 -18 -5 -25 -20 -25 -15 0 -20 7 -20 25 0 18 5 25 20 25 15 0 20 -7 20
-25z m93 -12 c-7 -2 -19 -2 -25 0 -7 3 -2 5 12 5 14 0 19 -2 13 -5z m-3029
-142 c7 -11 -28 -21 -69 -21 l-30 1 25 14 c28 16 66 19 74 6z m3206 -1 c13 -9
12 -12 -4 -25 -25 -19 -60 -20 -50 -2 22 38 30 43 54 27z m-375 -30 c3 -5 1
-10 -4 -10 -6 0 -11 5 -11 10 0 6 2 10 4 10 3 0 8 -4 11 -10z m248 -67 c-7 -2
-21 -2 -30 0 -10 3 -4 5 12 5 17 0 24 -2 18 -5z m-2096 -89 c-3 -3 -12 -4 -19
-1 -8 3 -5 6 6 6 11 1 17 -2 13 -5z m1191 -361 c-10 -2 -28 -2 -40 0 -13 2 -5
4 17 4 22 1 32 -1 23 -4z"/>
<path d="M2858 3214 c-11 -10 3 -34 19 -34 8 0 13 7 11 17 -3 18 -20 27 -30
17z"/>
<path d="M1540 3175 c-9 -10 -10 -19 -4 -25 13 -13 49 13 40 28 -10 16 -21 15
-36 -3z"/>
<path d="M1617 2293 c-9 -8 -9 -43 -1 -43 8 0 33 32 34 43 0 9 -24 9 -33 0z"/>
<path d="M882 2150 c0 -19 2 -27 5 -17 2 9 2 25 0 35 -3 9 -5 1 -5 -18z"/>
<path d="M2233 2074 c-8 -22 5 -396 15 -405 7 -7 413 9 441 17 11 4 12 18 7
66 -3 33 -6 123 -6 199 l0 139 -225 0 c-199 0 -226 -2 -232 -16z m153 -83 c16
-31 7 -56 -22 -70 -50 -22 -92 36 -60 83 13 20 20 23 43 17 15 -4 33 -18 39
-30z m192 -168 c-32 -2 -84 -2 -115 0 -32 2 -6 3 57 3 63 0 89 -1 58 -3z"/>
<path d="M2327 1984 c-16 -16 -6 -35 16 -32 12 2 22 10 22 18 0 16 -26 25 -38
14z"/>
<path d="M2346 925 c-9 -25 -7 -98 4 -115 9 -13 12 -13 24 3 16 21 64 23 72 2
10 -25 21 -17 28 21 4 19 9 41 12 47 9 25 -21 46 -77 52 -47 6 -57 4 -63 -10z
m89 -45 c3 -5 3 -10 -2 -10 -4 0 -18 -3 -30 -6 -17 -5 -23 -2 -23 10 0 18 45
23 55 6z"/>
<path d="M2646 918 c-3 -13 -7 -45 -10 -71 -5 -45 -4 -48 22 -58 28 -11 108
-4 117 10 7 13 -16 26 -50 30 -42 4 -58 20 -50 49 7 27 -2 62 -15 62 -6 0 -12
-10 -14 -22z"/>
<path d="M2109 928 c-15 -77 -4 -129 31 -148 26 -14 152 6 167 26 7 10 13 42
13 71 0 46 -3 53 -19 53 -17 0 -20 -8 -23 -47 -2 -35 -8 -49 -19 -51 -13 -2
-17 8 -21 43 -3 25 -8 48 -11 51 -13 13 -27 -9 -27 -40 0 -25 -7 -38 -25 -50
l-25 -16 0 39 c0 49 -8 71 -26 71 -8 0 -14 -1 -15 -2z"/>
<path d="M3234 1329 c-21 -27 -57 -109 -51 -115 4 -4 10 2 14 12 3 10 17 36
30 57 24 37 29 74 7 46z"/>
<path d="M3302 660 c0 -14 2 -19 5 -12 2 6 2 18 0 25 -3 6 -5 1 -5 -13z"/>
<path d="M2268 413 c29 -2 74 -2 100 0 26 2 2 3 -53 3 -55 0 -76 -1 -47 -3z"/>
<path d="M3 2400 c3 -360 11 -770 16 -910 21 -494 34 -897 37 -1110 2 -118 6
-252 10 -298 5 -77 7 -82 29 -82 21 0 22 2 14 38 -5 20 -9 86 -9 146 0 101 -9
128 -23 71 -3 -11 -4 18 -4 65 l2 85 75 6 c41 3 80 6 85 8 22 7 86 0 81 -8 -4
-5 4 -6 16 -3 19 5 20 7 6 10 -10 2 -18 7 -18 12 0 15 -65 18 -92 4 -33 -17
-81 -18 -125 -2 -37 14 -47 48 -13 48 25 0 26 16 2 22 -17 5 -20 27 -31 234
-6 126 -16 409 -22 629 -5 220 -14 508 -19 640 -5 132 -9 420 -9 639 -1 220
-4 402 -7 405 -4 3 -4 -289 -1 -649z m94 -2377 c-3 -10 -5 -5 -5 12 0 17 2 24
5 18 2 -7 2 -21 0 -30z"/>
<path d="M93 1775 c0 -27 2 -38 4 -22 2 15 2 37 0 50 -2 12 -4 0 -4 -28z"/>
<path d="M102 1685 c0 -16 2 -22 5 -12 2 9 2 23 0 30 -3 6 -5 -1 -5 -18z"/>
<path d="M123 1495 c0 -27 2 -38 4 -22 2 15 2 37 0 50 -2 12 -4 0 -4 -28z"/>
<path d="M122 1390 c0 -19 2 -27 5 -17 2 9 2 25 0 35 -3 9 -5 1 -5 -18z"/>
<path d="M93 985 c0 -27 2 -38 4 -22 2 15 2 37 0 50 -2 12 -4 0 -4 -28z"/>
<path d="M4325 579 c-6 -9 -2 -11 13 -7 12 4 25 2 28 -3 3 -5 -6 -9 -20 -9
-14 0 -26 -4 -26 -10 0 -5 -9 -10 -21 -10 -11 0 -18 -4 -14 -9 6 -10 62 4 80
20 5 5 20 9 35 9 14 0 32 4 40 10 10 6 5 9 -20 8 -19 0 -47 3 -61 7 -17 4 -29
2 -34 -6z"/>
<path d="M178 473 c7 -3 16 -2 19 1 4 3 -2 6 -13 5 -11 0 -14 -3 -6 -6z"/>
<path d="M3985 90 c-16 -7 -17 -9 -3 -9 9 -1 20 4 23 9 7 11 7 11 -20 0z"/>
<path d="M4093 3 c32 -2 81 -2 110 0 29 2 3 3 -58 3 -60 0 -84 -1 -52 -3z"/>
<path d="M4298 3 c7 -3 16 -2 19 1 4 3 -2 6 -13 5 -11 0 -14 -3 -6 -6z"/>
<path d="M4463 3 c15 -2 37 -2 50 0 12 2 0 4 -28 4 -27 0 -38 -2 -22 -4z"/>
</g>
</svg>
