<svg fill="none" version="1.1" viewBox="0 0 405 621" xmlns="http://www.w3.org/2000/svg">
    <g stroke="#000">
        <path
            d="m221.5 60.432c0 6.3757-4.858 11.492-10.787 11.492s-10.786-5.1161-10.786-11.492 4.857-11.492 10.786-11.492 10.787 5.1161 10.787 11.492z"
            fill="#B74809" />
        <path
            d="m176.58 27.273 72.391 13.771-23.961 13.604-2.048 1.163 0.644 2.2659 6.701 23.582 0.019 0.0677 0.022 0.0667 23.973 71.433-9.823 20.611-0.687 1.442 0.812 1.375 68.006 115.1-216.43-19.767 76.152-94.491 41.309-21.416 1.062-0.551 0.392-1.13 7.68-22.147 0.26-0.752-0.146-0.783-7.68-41.017-0.104-0.555-0.298-0.4791-38.247-61.399z"
            fill="#3C2315" stroke-width="6" />
        <path
            d="m187.14 599.41c-89.794-6.279-158.29-90.259-151.38-189.02s86.422-172.4 176.21-166.12c89.794 6.279 158.29 90.259 151.38 189.02-6.906 98.764-86.421 172.4-176.22 166.12z"
            fill="#3E2415" stroke-width="19" />
    </g>
    <g filter="url(#a)">
        <path
            d="m283.72 339.06c-107.84-7.541-286.82 112.06-279.43 6.349 7.3918-105.71 182.35-187.28 217.97-150.96 75.83-33.859 160.56 82.598 161.31 188.56 0.39174 54.848 7.995-36.413-99.85-43.955z"
            fill="#afab48" />
        <path
            d="m216.91 199.71 3.651 3.723 4.762-2.126c16.518-7.375 34.712-5.999 53.241 2.506 18.628 8.551 37.202 24.177 53.545 44.42 32.778 40.601 55.152 97.952 51.617 148.5-0.332 4.756-0.632 8.952-0.912 12.635-0.285-0.628-0.577-1.263-0.874-1.903-12.695-27.314-39.401-71.811-97.688-75.886-28.268-1.977-60.683 4.373-92.656 12.911-16.061 4.289-32.2 9.186-47.818 13.966-1.256 0.384-2.509 0.768-3.758 1.15-14.324 4.387-28.15 8.622-41.208 12.209-14.204 3.903-27.28 6.977-38.844 8.626-11.638 1.658-21.248 1.795-28.708 0.181-7.2715-1.574-12.119-4.704-15.188-9.492-3.2006-4.994-5.1565-12.863-4.294-25.198 3.4324-49.084 46.28-94.134 94.736-122.81 23.988-14.196 48.625-23.918 69.138-27.911 10.264-1.998 19.207-2.505 26.38-1.596 7.216 0.914 12.013 3.169 14.878 6.09z"
            stroke="#000" stroke-width="15" />
    </g>
    <g stroke="#000">
        <path
            d="m240.38 198.48c-7.495-5.761-15.528 2.762-17.439 5.566m10.02-20.226c-4.37 8.82-18.379 0.683-10.02 20.227-1.595-4.817-7.255-28.785 10.02-20.227z"
            stroke-width="9" />
        <path
            d="m206.07 194.14c3.376-6.114 15.721 6.371 19.12 10.347m-21.097-28.001c9.2 12.211 17.074 4.193 21.097 28.001-1.413-5.951-10.511-35.976-21.097-28.001z"
            stroke-width="9" />
        <path d="m256.82 261.23c18.706-14.192-18.186-57.249-79.004-65.955 106.41-8.288 153.53 74.703 134.83 88.896"
            stroke-width="10" />
    </g>
    <path d="m215.65 11.636c-48.937-15.991-148.2-17.474-153.78 104.52 46.443-69.413 153.78-90.318 153.78-104.52z"
        fill="#1FC02F" stroke="#18912B" stroke-width="8" />
    <path d="m178.27 11.636c48.937-15.991 148.2-17.474 153.78 104.52-46.443-69.413-153.78-90.318-153.78-104.52z"
        fill="#17912B" />
    <g fill="#B74809" stroke="#000">
        <path
            d="m252.09 55.141c0 7.722-6.104 13.961-13.608 13.961s-13.608-6.2387-13.608-13.961 6.104-13.961 13.608-13.961 13.608 6.2387 13.608 13.961z" />
        <path
            d="m224.58 60.079c0 7.722-6.105 13.961-13.608 13.961-7.504 0-13.608-6.2387-13.608-13.961s6.104-13.961 13.608-13.961c7.503 0 13.608 6.2387 13.608 13.961z" />
        <path
            d="m230.23 38.917c0 8.5465-6.147 15.372-13.608 15.372-7.462 0-13.608-6.825-13.608-15.372 0-8.5464 6.146-15.371 13.608-15.371 7.461 0 13.608 6.825 13.608 15.371z" />
    </g>
    <path d="m220.59 19.118c-49.204-15.991-57.177-6.6168-62.78 115.38 46.696-69.414 62.78-101.18 62.78-115.38z"
        fill="#3AE44B" stroke="#18912B" stroke-width="4" />
    <ellipse cx="100.67" cy="460.04" rx="10.581" ry="29.979" fill="#000" />
    <ellipse cx="289.72" cy="461.45" rx="10.581" ry="29.979" fill="#000" />
    <defs>
        <filter id="a" x=".070923" y="185.68" width="395.52" height="256.14" color-interpolation-filters="sRGB"
            filterUnits="userSpaceOnUse">
            <feFlood flood-opacity="0" result="BackgroundImageFix" />
            <feColorMatrix in="SourceAlpha" result="hardAlpha" values="0 0 0 0 0 0 0 0 0 0 0 0 0 0 0 0 0 0 127 0" />
            <feOffset dy="4" />
            <feGaussianBlur stdDeviation="2" />
            <feComposite in2="hardAlpha" operator="out" />
            <feColorMatrix values="0 0 0 0 0 0 0 0 0 0 0 0 0 0 0 0 0 0 0.25 0" />
            <feBlend in2="BackgroundImageFix" result="effect1_dropShadow_1_137" />
            <feBlend in="SourceGraphic" in2="effect1_dropShadow_1_137" result="shape" />
        </filter>
    </defs>
</svg>