<svg width="761" height="393" viewBox="0 0 761 393" fill="none" xmlns="http://www.w3.org/2000/svg">
    <mask id="path-1-inside-1_23_2" fill="white">
        <path fill-rule="evenodd" clip-rule="evenodd"
            d="M367.364 0C431.466 0 485.711 39.3985 503.833 93.673C512.217 92.2432 520.856 91.4963 529.682 91.4963C608.615 91.4963 672.604 151.236 672.604 224.928C672.604 228.398 672.462 231.836 672.183 235.239C684.522 248.399 692 265.632 692 284.496C692 325.817 656.121 359.314 611.862 359.314C598.857 359.314 586.575 356.421 575.715 351.288C561.271 355.873 545.788 358.361 529.682 358.361C508.158 358.361 487.746 353.918 469.439 345.963C443.499 370.67 407.349 386 367.364 386C320.386 386 278.702 364.839 252.651 332.17C251.88 332.033 251.111 331.89 250.344 331.741C235.65 348.568 213.27 359.314 188.202 359.314C157.776 359.314 131.309 343.482 117.738 320.162C82.3477 312.399 56 282.735 56 247.326C56 206.005 91.879 172.509 136.138 172.509C137.405 172.509 138.666 172.536 139.918 172.59C151.099 124.632 189.902 86.3017 239.988 72.8525C263.63 29.6099 311.793 0 367.364 0Z" />
    </mask>
    <path fill-rule="evenodd" clip-rule="evenodd"
        d="M367.364 0C431.466 0 485.711 39.3985 503.833 93.673C512.217 92.2432 520.856 91.4963 529.682 91.4963C608.615 91.4963 672.604 151.236 672.604 224.928C672.604 228.398 672.462 231.836 672.183 235.239C684.522 248.399 692 265.632 692 284.496C692 325.817 656.121 359.314 611.862 359.314C598.857 359.314 586.575 356.421 575.715 351.288C561.271 355.873 545.788 358.361 529.682 358.361C508.158 358.361 487.746 353.918 469.439 345.963C443.499 370.67 407.349 386 367.364 386C320.386 386 278.702 364.839 252.651 332.17C251.88 332.033 251.111 331.89 250.344 331.741C235.65 348.568 213.27 359.314 188.202 359.314C157.776 359.314 131.309 343.482 117.738 320.162C82.3477 312.399 56 282.735 56 247.326C56 206.005 91.879 172.509 136.138 172.509C137.405 172.509 138.666 172.536 139.918 172.59C151.099 124.632 189.902 86.3017 239.988 72.8525C263.63 29.6099 311.793 0 367.364 0Z"
        fill="#1564BF" />
    <path
        d="M503.833 93.673L471.584 104.441L480.815 132.09L509.549 127.189L503.833 93.673ZM672.183 235.239L638.297 232.465L637.066 247.494L647.38 258.495L672.183 235.239ZM575.715 351.288L590.244 320.549L578.163 314.839L565.428 318.882L575.715 351.288ZM469.439 345.963L482.99 314.78L462.313 305.794L445.989 321.344L469.439 345.963ZM252.651 332.17L279.234 310.972L271.236 300.943L258.607 298.696L252.651 332.17ZM250.344 331.741L256.82 298.364L237.608 294.636L224.735 309.377L250.344 331.741ZM117.738 320.162L147.125 303.061L139.612 290.151L125.023 286.951L117.738 320.162ZM139.918 172.59L138.446 206.558L166.626 207.78L173.03 180.31L139.918 172.59ZM239.988 72.8525L248.805 105.689L262.846 101.919L269.82 89.1629L239.988 72.8525ZM536.083 82.9048C513.064 13.9658 445.245 -34 367.364 -34V34C417.687 34 458.358 64.8312 471.584 104.441L536.083 82.9048ZM529.682 57.4963C518.936 57.4963 508.384 58.4059 498.117 60.1569L509.549 127.189C516.05 126.08 522.777 125.496 529.682 125.496V57.4963ZM706.604 224.928C706.604 130.296 625.155 57.4963 529.682 57.4963V125.496C592.076 125.496 638.604 172.176 638.604 224.928H706.604ZM706.07 238.013C706.424 233.689 706.604 229.325 706.604 224.928H638.604C638.604 227.471 638.5 229.984 638.297 232.465L706.07 238.013ZM726 284.496C726 256.374 714.796 230.979 696.986 211.984L647.38 258.495C654.249 265.82 658 274.891 658 284.496H726ZM611.862 393.314C672.661 393.314 726 346.757 726 284.496H658C658 304.877 639.581 325.314 611.862 325.314V393.314ZM561.186 382.028C576.548 389.289 593.788 393.314 611.862 393.314V325.314C603.926 325.314 596.602 323.554 590.244 320.549L561.186 382.028ZM529.682 392.361C549.3 392.361 568.251 389.329 586.002 383.695L565.428 318.882C554.29 322.418 542.275 324.361 529.682 324.361V392.361ZM455.887 377.145C478.434 386.944 503.456 392.361 529.682 392.361V324.361C512.86 324.361 497.057 320.893 482.99 314.78L455.887 377.145ZM367.364 420C416.102 420 460.643 401.296 492.889 370.582L445.989 321.344C426.355 340.044 398.596 352 367.364 352V420ZM226.068 353.368C258.624 394.194 310.125 420 367.364 420V352C330.647 352 298.78 335.484 279.234 310.972L226.068 353.368ZM243.869 365.119C244.808 365.301 245.75 365.476 246.695 365.644L258.607 298.696C258.009 298.59 257.414 298.479 256.82 298.364L243.869 365.119ZM188.202 393.314C223.045 393.314 254.775 378.357 275.954 354.106L224.735 309.377C216.524 318.779 203.496 325.314 188.202 325.314V393.314ZM88.3518 337.263C108.166 371.311 145.98 393.314 188.202 393.314V325.314C169.571 325.314 154.453 315.654 147.125 303.061L88.3518 337.263ZM125.023 286.951C103.35 282.197 90 264.913 90 247.326H22C22 300.557 61.346 342.601 110.454 353.372L125.023 286.951ZM90 247.326C90 226.945 108.419 206.509 136.138 206.509V138.509C75.3392 138.509 22 185.065 22 247.326H90ZM136.138 206.509C136.914 206.509 137.683 206.525 138.446 206.558L141.391 138.622C139.648 138.547 137.896 138.509 136.138 138.509V206.509ZM231.17 40.0158C169.988 56.4447 121.065 103.712 106.806 164.871L173.03 180.31C181.134 145.553 209.816 116.159 248.805 105.689L231.17 40.0158ZM367.364 -34C299.728 -34 239.934 2.07656 210.155 56.5421L269.82 89.1629C287.327 57.1433 323.859 34 367.364 34V-34Z"
        fill="black" mask="url(#path-1-inside-1_23_2)" />
    <path
        d="M755 292.5C755 316.704 733.895 337 707 337C680.105 337 659 316.704 659 292.5C659 268.296 680.105 248 707 248C733.895 248 755 268.296 755 292.5Z"
        fill="#1564BF" stroke="black" stroke-width="12" />
    <path
        d="M728.5 335.5C728.5 351.16 714.766 364.5 697 364.5C679.234 364.5 665.5 351.16 665.5 335.5C665.5 319.84 679.234 306.5 697 306.5C714.766 306.5 728.5 319.84 728.5 335.5Z"
        fill="#134C8D" stroke="black" stroke-width="11" />
    <path
        d="M540.5 358.5C540.5 372.926 527.795 385.5 511 385.5C494.205 385.5 481.5 372.926 481.5 358.5C481.5 344.074 494.205 331.5 511 331.5C527.795 331.5 540.5 344.074 540.5 358.5Z"
        fill="#1456A3" stroke="black" stroke-width="15" />
    <path
        d="M587.5 354C587.5 363.755 578.802 372.5 567 372.5C555.198 372.5 546.5 363.755 546.5 354C546.5 344.245 555.198 335.5 567 335.5C578.802 335.5 587.5 344.245 587.5 354Z"
        fill="#2366B2" stroke="black" stroke-width="13" />
    <path
        d="M161.5 327C161.5 349.46 142.05 368.5 117 368.5C91.9499 368.5 72.5 349.46 72.5 327C72.5 304.54 91.9499 285.5 117 285.5C142.05 285.5 161.5 304.54 161.5 327Z"
        fill="#1564BF" stroke="black" stroke-width="17" />
    <path
        d="M86.5 296C86.5 308.544 75.5319 319.5 61 319.5C46.4681 319.5 35.5 308.544 35.5 296C35.5 283.456 46.4681 272.5 61 272.5C75.5319 272.5 86.5 283.456 86.5 296Z"
        fill="#1564BF" stroke="black" stroke-width="15" />
    <path
        d="M34.5 343C34.5 350.193 28.2774 356.5 20 356.5C11.7226 356.5 5.5 350.193 5.5 343C5.5 335.807 11.7226 329.5 20 329.5C28.2774 329.5 34.5 335.807 34.5 343Z"
        fill="#1564BF" stroke="black" stroke-width="11" />
    <ellipse cx="381.5" cy="84.5" rx="55.5" ry="32.5" fill="#D9D9D9" />
    <ellipse cx="720.5" cy="279" rx="13.5" ry="12" fill="#D9D9D9" />
    <ellipse cx="691.5" cy="327.5" rx="8.5" ry="7.5" fill="#D9D9D9" />
    <path
        d="M139 310C139 315.523 135.418 320 131 320C126.582 320 123 315.523 123 310C123 304.477 126.582 300 131 300C135.418 300 139 304.477 139 310Z"
        fill="#D9D9D9" />
    <path
        d="M147 329.5C147 332.538 145.209 335 143 335C140.791 335 139 332.538 139 329.5C139 326.462 140.791 324 143 324C145.209 324 147 326.462 147 329.5Z"
        fill="#D9D9D9" />
    <path
        d="M28 339C28 341.209 26.2091 343 24 343C21.7909 343 20 341.209 20 339C20 336.791 21.7909 335 24 335C26.2091 335 28 336.791 28 339Z"
        fill="#D9D9D9" />
    <path
        d="M454 117.5C454 121.642 450.194 125 445.5 125C440.806 125 437 121.642 437 117.5C437 113.358 440.806 110 445.5 110C450.194 110 454 113.358 454 117.5Z"
        fill="#D9D9D9" />
    <path
        d="M73 291.5C73 294.538 70.9853 297 68.5 297C66.0147 297 64 294.538 64 291.5C64 288.462 66.0147 286 68.5 286C70.9853 286 73 288.462 73 291.5Z"
        fill="#D9D9D9" />
</svg>