<?xml version="1.0" encoding="UTF-8" standalone="no"?>
<svg width="841" height="473" viewBox="0 0 841 473" fill="none" version="1.1" id="svg17"
   xmlns:inkscape="http://www.inkscape.org/namespaces/inkscape"
   xmlns:sodipodi="http://sodipodi.sourceforge.net/DTD/sodipodi-0.dtd" xmlns="http://www.w3.org/2000/svg"
   xmlns:svg="http://www.w3.org/2000/svg">
   <defs id="defs17" />
   <mask id="path-1-inside-1_0_1" fill="white">
      <path fill-rule="evenodd" clip-rule="evenodd"
         d="M407.364 40C471.466 40 525.711 79.3985 543.833 133.673C552.217 132.243 560.856 131.496 569.682 131.496C648.615 131.496 712.604 191.236 712.604 264.928C712.604 268.398 712.462 271.836 712.183 275.239C724.522 288.399 732 305.632 732 324.496C732 365.817 696.121 399.314 651.862 399.314C638.857 399.314 626.575 396.421 615.715 391.288C601.271 395.873 585.788 398.361 569.682 398.361C548.158 398.361 527.746 393.918 509.439 385.963C483.499 410.67 447.349 426 407.364 426C360.386 426 318.702 404.839 292.651 372.17C291.88 372.033 291.111 371.89 290.344 371.741C275.65 388.568 253.27 399.314 228.202 399.314C197.776 399.314 171.309 383.482 157.738 360.162C122.348 352.399 96 322.735 96 287.326C96 246.005 131.879 212.509 176.138 212.509C177.405 212.509 178.666 212.536 179.918 212.59C191.099 164.632 229.902 126.302 279.988 112.853C303.63 69.6099 351.793 40 407.364 40Z"
         id="path1" />
   </mask>
   <path fill-rule="evenodd" clip-rule="evenodd"
      d="m 412.68527,4.6291904 c 75.48821,0 139.36857,46.4613756 160.70951,110.4655396 9.87323,-1.68635 20.04674,-2.56727 30.44048,-2.56727 92.95359,0 168.30874,70.44946 168.30874,157.35206 0,4.09206 -0.16722,8.14638 -0.49579,12.15943 14.53074,15.51916 23.33703,35.84149 23.33703,58.08719 0,48.72853 -42.25206,88.23046 -94.37264,88.23046 -15.31503,0 -29.77864,-3.41163 -42.56766,-9.4648 -17.00964,5.40694 -35.24283,8.34096 -54.20968,8.34096 -25.34724,0 -49.38495,-5.23949 -70.94376,-14.62056 -30.54763,29.13616 -73.11883,47.21434 -120.20623,47.21434 -55.32254,0 -104.41073,-24.95449 -135.08908,-63.47999 -0.90794,-0.16155 -1.81353,-0.33019 -2.71678,-0.5059 -17.30404,19.84354 -43.65932,32.51595 -73.18006,32.51595 -35.83047,0 -66.99872,-18.67017 -82.98028,-46.17069 -41.676206,-9.15465 -72.70431,-44.13646 -72.70431,-85.89315 0,-48.72852 42.252062,-88.22928 94.37264,-88.22928 1.49205,0 2.97704,0.0319 4.45143,0.0955 C 158.00586,151.60368 203.70131,106.40235 262.68391,90.542374 290.52536,39.547191 347.24338,4.6291904 412.68527,4.6291904 Z"
      fill="#1564bf" id="path2" style="stroke-width:1.17845" />
   <path
      d="m 543.833,133.673 -32.249,10.768 9.231,27.649 28.734,-4.901 z m 168.35,141.566 -33.886,-2.774 -1.231,15.029 10.314,11.001 z m -96.468,116.049 14.529,-30.739 -12.081,-5.71 -12.735,4.043 z m -106.276,-5.325 13.551,-31.183 -20.677,-8.986 -16.324,15.55 z m -216.788,-13.793 26.583,-21.198 -7.998,-10.029 -12.629,-2.247 z m -2.307,-0.429 6.476,-33.377 -19.212,-3.728 -12.873,14.741 z m -132.606,-11.579 29.387,-17.101 -7.513,-12.91 -14.589,-3.2 z m 22.18,-147.572 -1.472,33.968 28.18,1.222 6.404,-27.47 z m 100.07,-99.737 8.817,32.836 14.041,-3.77 6.974,-12.756 z m 296.095,10.052 C 553.064,53.9658 485.245,6 407.364,6 v 68 c 50.323,0 90.994,30.831 104.22,70.441 z m -6.401,-25.4087 c -10.746,0 -21.298,0.9096 -31.565,2.6607 l 11.432,67.032 c 6.501,-1.109 13.228,-1.693 20.133,-1.693 z M 746.604,264.928 c 0,-94.632 -81.449,-167.4317 -176.922,-167.4317 v 67.9997 c 62.394,0 108.922,46.68 108.922,99.432 z m -0.534,13.085 c 0.354,-4.324 0.534,-8.688 0.534,-13.085 h -68 c 0,2.543 -0.104,5.056 -0.307,7.537 z M 766,324.496 c 0,-28.122 -11.204,-53.517 -29.014,-72.512 l -49.606,46.511 c 6.869,7.325 10.62,16.396 10.62,26.001 z M 651.862,433.314 C 712.661,433.314 766,386.757 766,324.496 h -68 c 0,20.381 -18.419,40.818 -46.138,40.818 z m -50.676,-11.286 c 15.362,7.261 32.602,11.286 50.676,11.286 v -68 c -7.936,0 -15.26,-1.76 -21.618,-4.765 z m -31.504,10.333 c 19.618,0 38.569,-3.032 56.32,-8.666 l -20.574,-64.813 c -11.138,3.536 -23.153,5.479 -35.746,5.479 z m -73.795,-15.216 c 22.547,9.799 47.569,15.216 73.795,15.216 v -68 c -16.822,0 -32.625,-3.468 -46.692,-9.581 z M 407.364,460 c 48.738,0 93.279,-18.704 125.525,-49.418 l -46.9,-49.238 C 466.355,380.044 438.596,392 407.364,392 Z M 266.068,393.368 C 298.624,434.194 350.125,460 407.364,460 v -68 c -36.717,0 -68.584,-16.516 -88.13,-41.028 z m 17.801,11.751 c 0.939,0.182 1.881,0.357 2.826,0.525 l 11.912,-66.948 c -0.598,-0.106 -1.193,-0.217 -1.787,-0.332 z m -55.667,28.195 c 34.843,0 66.573,-14.957 87.752,-39.208 l -51.219,-44.729 c -8.211,9.402 -21.239,15.937 -36.533,15.937 z m -99.85,-56.051 c 19.814,34.048 57.628,56.051 99.85,56.051 v -68 c -18.631,0 -33.749,-9.66 -41.077,-22.253 z m 36.671,-50.312 C 143.35,322.197 130,304.913 130,287.326 H 62 c 0,53.231 39.346,95.275 88.454,106.046 z M 130,287.326 c 0,-20.381 18.419,-40.817 46.138,-40.817 v -68 C 115.339,178.509 62,225.065 62,287.326 Z m 46.138,-40.817 c 0.776,0 1.545,0.016 2.308,0.049 l 2.945,-67.936 c -1.743,-0.075 -3.495,-0.113 -5.253,-0.113 z M 271.17,80.0158 C 209.988,96.4447 161.065,143.712 146.806,204.871 l 66.224,15.439 c 8.104,-34.757 36.786,-64.151 75.775,-74.621 z M 407.364,6 C 339.728,6 279.934,42.0766 250.155,96.5421 L 309.82,129.163 C 327.327,97.1433 363.859,74 407.364,74 Z"
      fill="#000000" mask="url(#path-1-inside-1_0_1)" id="path3" transform="translate(6.5,-23.714106)" />
   <path
      d="m 801.5,308.78589 c 0,24.204 -21.105,44.5 -48,44.5 -26.895,0 -48,-20.296 -48,-44.5 0,-24.204 21.105,-44.5 48,-44.5 26.895,0 48,20.296 48,44.5 z"
      fill="#1564bf" stroke="#000000" stroke-width="12" id="path4" />
   <path
      d="m 764.05503,359.28589 c 0,15.66 -13.734,29 -31.5,29 -17.766,0 -31.5,-13.34 -31.5,-29 0,-15.66 13.734,-29 31.5,-29 17.766,0 31.5,13.34 31.5,29 z"
      fill="#134c8d" stroke="#000000" stroke-width="11" id="path5" />
   <path
      d="m 587,374.78589 c 0,14.426 -12.705,27 -29.5,27 -16.795,0 -29.5,-12.574 -29.5,-27 0,-14.426 12.705,-27 29.5,-27 16.795,0 29.5,12.574 29.5,27 z"
      fill="#1456a3" stroke="#000000" stroke-width="15" id="path6" />
   <path
      d="m 634,370.28589 c 0,9.755 -8.698,18.5 -20.5,18.5 -11.802,0 -20.5,-8.745 -20.5,-18.5 0,-9.755 8.698,-18.5 20.5,-18.5 11.802,0 20.5,8.745 20.5,18.5 z"
      fill="#2366b2" stroke="#000000" stroke-width="13" id="path7" />
   <path
      d="m 208,343.28589 c 0,22.46 -19.45,41.5 -44.5,41.5 -25.05,0 -44.5,-19.04 -44.5,-41.5 0,-22.46 19.45,-41.5 44.5,-41.5 25.05,0 44.5,19.04 44.5,41.5 z"
      fill="#1564bf" stroke="#000000" stroke-width="17" id="path8" />
   <path
      d="m 133,312.28589 c 0,12.544 -10.968,23.5 -25.5,23.5 -14.5319,0 -25.5,-10.956 -25.5,-23.5 0,-12.544 10.9681,-23.5 25.5,-23.5 14.532,0 25.5,10.956 25.5,23.5 z"
      fill="#1564bf" stroke="#000000" stroke-width="15" id="path9" />
   <path
      d="m 81,359.28589 c 0,7.193 -6.2226,13.5 -14.5,13.5 -8.2774,0 -14.5,-6.307 -14.5,-13.5 0,-7.193 6.2226,-13.5 14.5,-13.5 8.2774,0 14.5,6.307 14.5,13.5 z"
      fill="#1564bf" stroke="#000000" stroke-width="11" id="path10" />
   <ellipse cx="428" cy="100.7859" rx="55.5" ry="32.5" fill="#d9d9d9" id="ellipse10" />
   <ellipse cx="767" cy="295.28589" rx="13.5" ry="12" fill="#d9d9d9" id="ellipse11" />
   <ellipse cx="738" cy="343.78589" rx="8.5" ry="7.5" fill="#d9d9d9" id="ellipse12" />
   <path
      d="m 185.5,326.28589 c 0,5.523 -3.582,10 -8,10 -4.418,0 -8,-4.477 -8,-10 0,-5.523 3.582,-10 8,-10 4.418,0 8,4.477 8,10 z"
      fill="#d9d9d9" id="path12" />
   <path
      d="m 193.5,345.78589 c 0,3.038 -1.791,5.5 -4,5.5 -2.209,0 -4,-2.462 -4,-5.5 0,-3.038 1.791,-5.5 4,-5.5 2.209,0 4,2.462 4,5.5 z"
      fill="#d9d9d9" id="path13" />
   <path
      d="m 74.5,355.28589 c 0,2.209 -1.7909,4 -4,4 -2.2091,0 -4,-1.791 -4,-4 0,-2.209 1.7909,-4 4,-4 2.2091,0 4,1.791 4,4 z"
      fill="#d9d9d9" id="path14" />
   <path
      d="m 500.5,133.78589 c 0,4.142 -3.806,7.5 -8.5,7.5 -4.694,0 -8.5,-3.358 -8.5,-7.5 0,-4.142 3.806,-7.5 8.5,-7.5 4.694,0 8.5,3.358 8.5,7.5 z"
      fill="#d9d9d9" id="path15" />
   <path
      d="m 119.5,307.78589 c 0,3.038 -2.015,5.5 -4.5,5.5 -2.485,0 -4.5,-2.462 -4.5,-5.5 0,-3.038 2.015,-5.5 4.5,-5.5 2.485,0 4.5,2.462 4.5,5.5 z"
      fill="#d9d9d9" id="path16" />
</svg>