<?xml version="1.0" encoding="UTF-8" standalone="no"?>
<svg
   width="2215"
   height="2512"
   viewBox="0 0 2215 2512"
   fill="none"
   version="1.1"
   id="svg68"
   sodipodi:docname="shitbirdNtree.svg"
   inkscape:version="1.3.2 (091e20e, 2023-11-25, custom)"
   xmlns:inkscape="http://www.inkscape.org/namespaces/inkscape"
   xmlns:sodipodi="http://sodipodi.sourceforge.net/DTD/sodipodi-0.dtd"
   xmlns="http://www.w3.org/2000/svg"
   xmlns:svg="http://www.w3.org/2000/svg">
  <sodipodi:namedview
     id="namedview1"
     pagecolor="#ffffff"
     bordercolor="#000000"
     borderopacity="0.25"
     inkscape:showpageshadow="2"
     inkscape:pageopacity="0.0"
     inkscape:pagecheckerboard="0"
     inkscape:deskcolor="#d1d1d1"
     inkscape:zoom="1.3748047"
     inkscape:cx="1153.9821"
     inkscape:cy="1815.1669"
     inkscape:window-width="2560"
     inkscape:window-height="1417"
     inkscape:window-x="1072"
     inkscape:window-y="-8"
     inkscape:window-maximized="1"
     inkscape:current-layer="svg68" />
  <defs
     id="defs68" />
  <path
     d="M1522.2 1784.84L1508.96 1846.44L1468.33 1817.27L1522.2 1784.84Z"
     fill="#AEAEAE"
     id="path1" />
  <path
     d="M1355.53 2117.78C1311.71 2167.07 1216.32 2195.92 1243.35 2098.28C1158.9 2133.5 1175.38 2045.86 1219.19 1996.58C1289.11 1971.16 1358.49 1899.14 1393.06 1929.87C1427.64 1960.61 1367.08 2043.15 1355.53 2117.78Z"
     fill="#CECDCD"
     id="path2" />
  <path
     d="M1332.7 1955.08C1305.73 1985.42 1275.56 2002.63 1265.31 1993.51C1255.06 1984.4 1268.62 1952.42 1295.58 1922.09C1322.55 1891.75 1329.8 1900.33 1340.05 1909.44C1350.3 1918.55 1359.67 1924.75 1332.7 1955.08Z"
     fill="#AEAEAE"
     id="path3" />
  <path
     d="M1411.68 2025.29C1384.71 2055.63 1354.54 2072.84 1344.29 2063.73C1334.04 2054.62 1347.6 2022.64 1374.57 1992.3C1401.53 1961.97 1408.79 1970.54 1419.03 1979.65C1429.28 1988.76 1438.65 1994.96 1411.68 2025.29Z"
     fill="#AEAEAE"
     id="path4" />
  <path
     d="M1413.34 1807.09C1470.69 1786.49 1534.52 1816.44 1555.91 1873.97C1577.31 1931.51 1548.16 1994.85 1490.81 2015.45C1443.34 2092.09 1369.63 2006.11 1348.24 1948.57C1326.84 1891.04 1325.47 1782.29 1413.34 1807.09Z"
     fill="#D9D9D9"
     id="path5" />
  <path
     d="M1413.34 1807.09C1470.69 1786.49 1534.52 1816.44 1555.91 1873.97C1577.31 1931.51 1548.16 1994.85 1490.81 2015.45C1443.34 2092.09 1369.63 2006.11 1348.24 1948.57C1326.84 1891.04 1325.47 1782.29 1413.34 1807.09Z"
     fill="black"
     fill-opacity="0.2"
     id="path6" />
  <path
     d="M1577 1975.3L1514.04 1980.73L1528.95 1933.56L1577 1975.3Z"
     fill="#AEAEAE"
     id="path7" />
  <path
     d="M1412.35 1953.92C1406.09 1956.17 1396.21 1945.06 1390.28 1929.11C1384.35 1913.15 1384.61 1898.4 1390.87 1896.15C1397.12 1893.9 1395.68 1909.08 1401.61 1925.04C1407.54 1940.99 1418.61 1951.68 1412.35 1953.92Z"
     fill="#F94949"
     id="path8" />
  <path
     d="M1433.27 2168.89C1498.28 2184.38 1572.42 2182.82 1571.33 2187.38C1570.24 2191.95 1510.29 2209.85 1445.28 2194.37C1380.27 2178.88 1334.83 2135.88 1335.91 2131.31C1337 2126.74 1368.26 2153.41 1433.27 2168.89Z"
     fill="#AEAEAE"
     id="path9" />
  <path
     d="M1397.37 2070.25C1435.94 2123.74 1453.13 2212.85 1364.19 2164.88C1380.63 2254.66 1299.17 2219.16 1260.6 2165.67C1250.62 2092.17 1195.38 2008.81 1232.4 1982.11C1269.43 1955.41 1327.48 2042.42 1397.37 2070.25Z"
     fill="#CECDCD"
     id="path10" />
  <ellipse
     cx="725.18243"
     cy="2371.5925"
     transform="matrix(0.93004375,-0.3674488,0.33186967,0.94332525,0,0)"
     fill="#ffffff"
     id="circle11"
     rx="23.491663"
     ry="14.571888"
     style="stroke-width:1.04236" />
  <path
     d="m 1473.54,1962.9429 c -0.6162,-1.4243 -2.2328,-2.4046 -4.6096,-2.7875 -2.3688,-0.3829 -5.3538,-0.1455 -8.5069,0.6739 -3.1451,0.8118 -6.2742,2.1672 -8.8991,3.8443 -2.6249,1.6771 -4.5936,3.5916 -5.6179,5.4372 -1.0164,1.8532 -1.0244,3.5303 -0.024,4.7862 1.0083,1.2559 2.969,2.014 5.5779,2.1595 2.6169,0.1455 5.746,-0.3293 8.8911,-1.3554 3.145,-1.0185 6.1461,-2.5348 8.5229,-4.3115 l -9.3952,-2.8564 z"
     fill="#000000"
     id="path12"
     style="stroke-width:0.782845" />
  <rect
     x="875.689"
     y="1114"
     width="410.149"
     height="1081.05"
     fill="#925634"
     id="rect12" />
  <path
     d="M1096.16 1686.67L1514 2366.18L1203.45 2511.04L643 2366.18L1096.16 1686.67Z"
     fill="#925634"
     id="path13" />
  <path
     d="M1238 1843.08C1238 1934.92 1169.28 1917.72 1084.5 1917.72C999.724 1917.72 931 1934.92 931 1843.08C931 1751.24 999.724 1559 1084.5 1559C1169.28 1559 1238 1751.24 1238 1843.08Z"
     fill="#303030"
     id="path14" />
  <path
     d="M1004.75 1764.96C970.646 1764.96 943 1737.32 943 1703.21C943 1669.11 970.646 1641.46 1004.75 1641.46C1038.85 1641.46 1066.5 1669.11 1066.5 1703.21C1066.5 1737.32 1038.85 1764.96 1004.75 1764.96Z"
     fill="#FF8989"
     id="path15" />
  <path
     d="M1004.75 1754.75C971.958 1754.75 945.375 1728.17 945.375 1695.38C945.375 1662.58 971.958 1636 1004.75 1636C1037.54 1636 1064.12 1662.58 1064.12 1695.38C1064.12 1728.17 1037.54 1754.75 1004.75 1754.75Z"
     fill="white"
     id="path16" />
  <path
     d="M1004.75 1738.84C985.075 1738.84 969.125 1722.89 969.125 1703.21C969.125 1683.54 985.075 1667.59 1004.75 1667.59C1024.43 1667.59 1040.38 1683.54 1040.38 1703.21C1040.38 1722.89 1024.43 1738.84 1004.75 1738.84Z"
     fill="#0000FF"
     id="path17" />
  <path
     d="M1004.75 1715.09C998.192 1715.09 992.875 1709.77 992.875 1703.21C992.875 1696.66 998.192 1691.34 1004.75 1691.34C1011.31 1691.34 1016.62 1696.66 1016.62 1703.21C1016.62 1709.77 1011.31 1715.09 1004.75 1715.09Z"
     fill="black"
     id="path18" />
  <path
     d="M992.875 1707.96C990.252 1707.96 988.125 1705.84 988.125 1703.21C988.125 1700.59 990.252 1698.46 992.875 1698.46C995.498 1698.46 997.625 1700.59 997.625 1703.21C997.625 1705.84 995.498 1707.96 992.875 1707.96Z"
     fill="white"
     id="path19" />
  <path
     d="M997.625 1715.09C996.313 1715.09 995.25 1714.03 995.25 1712.71C995.25 1711.4 996.313 1710.34 997.625 1710.34C998.937 1710.34 1000 1711.4 1000 1712.71C1000 1714.03 998.937 1715.09 997.625 1715.09Z"
     fill="white"
     id="path20" />
  <path
     d="M1004.75 1764.96C970.646 1764.96 943 1737.32 943 1703.21C943 1669.11 970.646 1641.46 1004.75 1641.46C1038.85 1641.46 1066.5 1669.11 1066.5 1703.21C1066.5 1737.32 1038.85 1764.96 1004.75 1764.96Z"
     fill="#FF8989"
     id="path21" />
  <path
     d="m 1004.75,1756.8645 c -32.792,0 -59.375,-26.58 -59.375,-59.37 0,-32.8 26.583,-59.38 59.375,-59.38 32.79,0 59.37,26.58 59.37,59.38 0,32.79 -26.58,59.37 -59.37,59.37 z"
     fill="#ffffff"
     id="path22" />
  <path
     d="m 981.21929,1731 c -19.675,0 -35.625,-15.95 -35.625,-35.63 0,-19.67 15.95,-35.62 35.625,-35.62 19.68001,0 35.63001,15.95 35.63001,35.62 0,19.68 -15.95,35.63 -35.63001,35.63 z"
     fill="#0000ff"
     id="path23" />
  <path
     d="m 981.21929,1707.25 c -6.558,0 -11.875,-5.32 -11.875,-11.88 0,-6.55 5.317,-11.87 11.875,-11.87 6.56,0 11.87,5.32 11.87,11.87 0,6.56 -5.31,11.88 -11.87,11.88 z"
     fill="#000000"
     id="path24" />
  <path
     d="m 969.34429,1700.12 c -2.623,0 -4.75,-2.12 -4.75,-4.75 0,-2.62 2.127,-4.75 4.75,-4.75 2.623,0 4.75,2.13 4.75,4.75 0,2.63 -2.127,4.75 -4.75,4.75 z"
     fill="#ffffff"
     id="path25" />
  <path
     d="m 974.09429,1707.25 c -1.312,0 -2.375,-1.06 -2.375,-2.38 0,-1.31 1.063,-2.37 2.375,-2.37 1.312,0 2.375,1.06 2.375,2.37 0,1.32 -1.063,2.38 -2.375,2.38 z"
     fill="#ffffff"
     id="path26" />
  <path
     d="M1146.94 1769C1181.04 1769 1208.69 1741.35 1208.69 1707.25C1208.69 1673.15 1181.04 1645.5 1146.94 1645.5C1112.84 1645.5 1085.19 1673.15 1085.19 1707.25C1085.19 1741.35 1112.84 1769 1146.94 1769Z"
     fill="#FF8989"
     id="path27" />
  <path
     d="M1146.94 1742.88C1166.62 1742.88 1182.57 1726.93 1182.57 1707.25C1182.57 1687.57 1166.62 1671.62 1146.94 1671.62C1127.27 1671.62 1111.32 1687.57 1111.32 1707.25C1111.32 1726.93 1127.27 1742.88 1146.94 1742.88Z"
     fill="#0000FF"
     id="path28" />
  <path
     d="M1146.94 1719.13C1153.5 1719.13 1158.82 1713.81 1158.82 1707.25C1158.82 1700.69 1153.5 1695.38 1146.94 1695.38C1140.38 1695.38 1135.07 1700.69 1135.07 1707.25C1135.07 1713.81 1140.38 1719.13 1146.94 1719.13Z"
     fill="black"
     id="path29" />
  <path
     d="M1158.82 1712C1161.44 1712 1163.57 1709.87 1163.57 1707.25C1163.57 1704.63 1161.44 1702.5 1158.82 1702.5C1156.19 1702.5 1154.07 1704.63 1154.07 1707.25C1154.07 1709.87 1156.19 1712 1158.82 1712Z"
     fill="white"
     id="path30" />
  <path
     d="M1154.07 1719.12C1155.38 1719.12 1156.44 1718.06 1156.44 1716.75C1156.44 1715.44 1155.38 1714.38 1154.07 1714.38C1152.75 1714.38 1151.69 1715.44 1151.69 1716.75C1151.69 1718.06 1152.75 1719.12 1154.07 1719.12Z"
     fill="white"
     id="path31" />
  <path
     d="M1146.94 1769C1181.04 1769 1208.69 1741.35 1208.69 1707.25C1208.69 1673.15 1181.04 1645.5 1146.94 1645.5C1112.84 1645.5 1085.19 1673.15 1085.19 1707.25C1085.19 1741.35 1112.84 1769 1146.94 1769Z"
     fill="#FF8989"
     id="path32" />
  <path
     d="M1146.94 1758.78C1179.73 1758.78 1206.32 1732.2 1206.32 1699.41C1206.32 1666.62 1179.73 1640.03 1146.94 1640.03C1114.15 1640.03 1087.57 1666.62 1087.57 1699.41C1087.57 1732.2 1114.15 1758.78 1146.94 1758.78Z"
     fill="white"
     id="path33" />
  <path
     d="m 1171.3768,1731 c 19.68,0 35.63,-15.95 35.63,-35.63 0,-19.68 -15.95,-35.63 -35.63,-35.63 -19.67,0 -35.62,15.95 -35.62,35.63 0,19.68 15.95,35.63 35.62,35.63 z"
     fill="#0000ff"
     id="path34" />
  <path
     d="m 1171.3768,1707.25 c 6.56,0 11.88,-5.32 11.88,-11.88 0,-6.56 -5.32,-11.87 -11.88,-11.87 -6.56,0 -11.87,5.31 -11.87,11.87 0,6.56 5.31,11.88 11.87,11.88 z"
     fill="#000000"
     id="path35" />
  <path
     d="m 1183.2568,1700.12 c 2.62,0 4.75,-2.13 4.75,-4.75 0,-2.62 -2.13,-4.75 -4.75,-4.75 -2.63,0 -4.75,2.13 -4.75,4.75 0,2.62 2.12,4.75 4.75,4.75 z"
     fill="#ffffff"
     id="path36" />
  <path
     d="M1154.07 1719.12C1155.38 1719.12 1156.44 1718.06 1156.44 1716.75C1156.44 1715.44 1155.38 1714.38 1154.07 1714.38C1152.75 1714.38 1151.69 1715.44 1151.69 1716.75C1151.69 1718.06 1152.75 1719.12 1154.07 1719.12Z"
     fill="white"
     id="path37" />
  <path
     d="M1041.93 1755.66L1075.39 1739L1105.43 1755.66L1131 1783H1017L1041.93 1755.66Z"
     fill="#DAD202"
     id="path38" />
  <path
     d="M1053.46 1767.67C1054.47 1768.3 1048.13 1780.55 1053.78 1771.56C1059.42 1762.57 1063.19 1754.77 1062.18 1754.14C1061.18 1753.51 1055.79 1760.29 1050.14 1769.28C1044.49 1778.27 1052.46 1767.04 1053.46 1767.67Z"
     fill="black"
     id="path39" />
  <path
     d="M1091.54 1768.67C1090.53 1769.3 1096.87 1781.55 1091.22 1772.56C1085.58 1763.57 1081.81 1755.77 1082.82 1755.14C1083.82 1754.51 1089.21 1761.29 1094.86 1770.28C1100.51 1779.27 1092.54 1768.04 1091.54 1768.67Z"
     fill="black"
     id="path40" />
  <path
     fill-rule="evenodd"
     clip-rule="evenodd"
     d="M1164.5 1894.87C1164.79 1894.34 1165.09 1893.8 1165.41 1893.26C1169.21 1886.79 1173.91 1882.5 1175.89 1883.66C1177.87 1884.83 1176.39 1891.02 1172.59 1897.48C1172.47 1897.68 1172.36 1897.87 1172.24 1898.06C1173.91 1897.31 1175.66 1896.32 1177.27 1895.43C1182.57 1892.46 1186.23 1890.41 1179.94 1900.43C1168.92 1917.97 1155.63 1929.45 1150.26 1926.07C1144.88 1922.69 1149.45 1905.74 1160.46 1888.2C1166.45 1878.65 1166 1881.68 1165.21 1886.96C1164.83 1889.46 1164.39 1892.45 1164.5 1894.87Z"
     fill="#FFC700"
     id="path41" />
  <path
     fill-rule="evenodd"
     clip-rule="evenodd"
     d="M1002.31 1894.7C1002.06 1894.15 1001.83 1893.58 1001.6 1892.99C998.856 1886.01 998.37 1879.67 1000.51 1878.83C1002.65 1877.98 1006.61 1882.96 1009.35 1889.95C1009.44 1890.16 1009.52 1890.37 1009.6 1890.58C1010.03 1888.8 1010.34 1886.81 1010.62 1885C1011.56 1878.99 1012.2 1874.84 1016.21 1885.98C1023.22 1905.47 1024.05 1923.01 1018.08 1925.16C1012.1 1927.31 1001.57 1913.25 994.565 1893.77C990.751 1883.16 992.852 1885.38 996.522 1889.27C998.254 1891.1 1000.33 1893.3 1002.31 1894.7Z"
     fill="#FFC700"
     id="path42" />
  <path
     d="M1294.5 1805.5C1291.08 1810.85 1272.44 1811.16 1255 1800C1237.56 1788.84 1220.49 1783.13 1223.91 1777.79C1227.34 1772.44 1250.06 1774.34 1267.5 1785.5C1284.94 1796.66 1297.92 1800.15 1294.5 1805.5Z"
     fill="#222E21"
     id="path43" />
  <path
     d="M1086.69 1578.13C1080.34 1578.34 1069.52 1563.16 1068.84 1542.46C1068.16 1521.76 1063.2 1504.47 1069.54 1504.26C1075.89 1504.05 1087.19 1523.85 1087.87 1544.55C1088.55 1565.25 1093.03 1577.92 1086.69 1578.13Z"
     fill="#222E21"
     id="path44" />
  <path
     d="M877.924 1802.11C881.348 1807.46 899.98 1807.77 917.424 1796.61C934.869 1785.44 951.933 1779.74 948.51 1774.39C945.086 1769.04 922.369 1770.94 904.924 1782.11C887.48 1793.27 874.501 1796.76 877.924 1802.11Z"
     fill="#222E21"
     id="path45" />
  <path
     d="M1087.02 1578.33C1081.22 1580.93 1065.46 1570.99 1056.98 1552.1C1048.5 1533.2 1037.34 1519.09 1043.14 1516.48C1048.93 1513.88 1066.9 1527.91 1075.38 1546.81C1083.86 1565.7 1092.81 1575.73 1087.02 1578.33Z"
     fill="#222E21"
     id="path46" />
  <path
     d="M1082.7 1578.56C1076.85 1576.08 1073.44 1557.76 1081.54 1538.7C1089.64 1519.64 1092.42 1501.86 1098.27 1504.34C1104.11 1506.83 1106.02 1529.55 1097.92 1548.61C1089.82 1567.67 1088.54 1581.05 1082.7 1578.56Z"
     fill="#222E21"
     id="path47" />
  <path
     d="M1108.55 1829.77L1062.08 1849.6L1022.82 1824.82L990.425 1786L1144.33 1794.89L1108.55 1829.77Z"
     fill="#85822E"
     id="path48" />
  <rect
     x="1397.41"
     y="950"
     width="132.61"
     height="349.529"
     transform="rotate(40.1584 1397.41 950)"
     fill="#79472A"
     id="rect48" />
  <rect
     x="1837.34"
     y="1297"
     width="67.2083"
     height="177.145"
     transform="rotate(79.784 1837.34 1297)"
     fill="#79472A"
     id="rect49" />
  <path
     d="M628 1301.22L733.598 1221L945.026 1499.33L891 1540L628 1301.22Z"
     fill="#925634"
     id="path49" />
  <rect
     x="1494.34"
     y="1437"
     width="67.2083"
     height="177.145"
     transform="rotate(79.784 1494.34 1437)"
     fill="#925634"
     id="rect50" />
  <rect
     width="205.383"
     height="411.461"
     transform="matrix(0.0544222 0.998518 0.998518 -0.0544222 842 1144)"
     fill="#885031"
     id="rect51" />
  <rect
     width="67.2083"
     height="177.145"
     transform="matrix(0.684455 0.729056 0.729056 -0.684455 1238 1535.25)"
     fill="#885031"
     id="rect52" />
  <rect
     width="59.0346"
     height="307.417"
     transform="matrix(-0.622565 0.782568 0.782568 0.622565 668.806 1277.9)"
     fill="#885031"
     id="rect53" />
  <path
     d="M1376.14 2052.38C1351.95 2084.98 1319.97 2084.7 1308.98 2076.5C1297.99 2068.31 1319.95 2069.56 1344.14 2036.96C1368.33 2004.36 1368.49 1998.02 1379.48 2006.21C1390.47 2014.41 1400.33 2019.78 1376.14 2052.38Z"
     fill="#AEAEAE"
     id="path53" />
  <path
     d="M1295.14 1986.07C1270.94 2018.67 1258.89 2047.4 1247.9 2039.2C1236.91 2031 1247.61 1997.93 1271.81 1965.33C1296 1932.73 1303.96 1940.65 1314.95 1948.85C1325.94 1957.04 1319.33 1953.47 1295.14 1986.07Z"
     fill="#AEAEAE"
     id="path54" />
  <ellipse
     cx="1718.5"
     cy="1247.5"
     rx="490.5"
     ry="336.5"
     fill="#154917"
     id="ellipse54" />
  <ellipse
     cx="490.5"
     cy="1143.5"
     rx="490.5"
     ry="336.5"
     fill="#154917"
     id="ellipse55" />
  <ellipse
     cx="1724.5"
     cy="1191.5"
     rx="490.5"
     ry="336.5"
     fill="#1A591D"
     id="ellipse56" />
  <ellipse
     cx="496.5"
     cy="1087.5"
     rx="490.5"
     ry="336.5"
     fill="#1A591D"
     id="ellipse57" />
  <path
     d="M1182.12 2082.67L1157.75 2068L1060 2230.33L1077.87 2238.5L1182.12 2082.67Z"
     fill="#885031"
     id="path57" />
  <path
     d="M1177.53 2112.46L1210.33 2132.21L1112.58 2294.54L1091.21 2279.08L1177.53 2112.46Z"
     fill="#885031"
     id="path58" />
  <path
     d="M787.112 2204L816.917 2221.95L731.805 2363.29L712.344 2349.32L787.112 2204Z"
     fill="#885031"
     id="path59" />
  <path
     d="M903.112 2025L932.917 2042.95L847.805 2184.29L828.344 2170.32L903.112 2025Z"
     fill="#885031"
     id="path60" />
  <path
     d="M872.112 2167L895.683 2181.19L810.571 2322.53L795.388 2311.14L872.112 2167Z"
     fill="#885031"
     id="path61" />
  <path
     d="M915.112 2257L944.917 2274.95L859.805 2416.29L840.344 2402.32L915.112 2257Z"
     fill="#885031"
     id="path62" />
  <path
     d="M1332.8 2145L1300 2164.75L1397.75 2327.08L1419.12 2311.63L1332.8 2145Z"
     fill="#885031"
     id="path63" />
  <path
     d="M1231.8 2088L1199 2107.75L1296.75 2270.08L1318.12 2254.63L1231.8 2088Z"
     fill="#885031"
     id="path64" />
  <path
     d="M1185.8 2211L1153 2230.75L1250.75 2393.08L1272.12 2377.63L1185.8 2211Z"
     fill="#885031"
     id="path65" />
  <path
     d="M1002.18 2060.35L964.413 2054L933 2240.86L959.285 2243.04L1002.18 2060.35Z"
     fill="#885031"
     id="path66" />
  <path
     d="M1072.67 2269.65L1045.01 2265L1022 2401.87L1041.25 2403.46L1072.67 2269.65Z"
     fill="#885031"
     id="path67" />
  <ellipse
     cx="1180.69"
     cy="670.319"
     rx="837.685"
     ry="574.681"
     fill="#154917"
     id="ellipse67" />
  <ellipse
     cx="1190.93"
     cy="574.681"
     rx="837.685"
     ry="574.681"
     fill="#1A591D"
     id="ellipse68" />
  <ellipse
     cx="717.24817"
     cy="2249.1287"
     transform="matrix(0.93004375,-0.3674488,0.33186967,0.94332525,0,0)"
     fill="#ffffff"
     id="ellipse1"
     rx="23.491663"
     ry="14.571888"
     style="stroke-width:1.04236" />
  <path
     d="m 1425.5187,1850.3351 c -0.6162,-1.4243 -2.2328,-2.4046 -4.6096,-2.7875 -2.3688,-0.3829 -5.3538,-0.1455 -8.5069,0.6739 -3.1451,0.8118 -6.2742,2.1672 -8.8991,3.8443 -2.6249,1.6771 -4.5936,3.5916 -5.6179,5.4372 -1.0164,1.8532 -1.0244,3.5303 -0.024,4.7862 1.0083,1.2559 2.969,2.014 5.5779,2.1595 2.6169,0.1455 5.746,-0.3293 8.8911,-1.3554 3.145,-1.0185 6.1461,-2.5348 8.5229,-4.3115 l -9.3952,-2.8564 z"
     fill="#000000"
     id="path11"
     style="stroke-width:0.782845" />
</svg>
