<svg fill="none" version="1.1" viewBox="0 0 405 751" xmlns="http://www.w3.org/2000/svg">
    <g fill="#fff">
        <path
            d="m225.77 27.188c-6.007 17.635-6.691 17.635-14.945 17.635s-8.205 0-14.945-17.635c-11.781-30.827 12.308-26.931 14.945-26.931 2.638-1.2e-5 25.749-4.7847 14.945 26.931z" />
        <path
            d="m245.15 49.102c-17.995 6.079-18.388 5.6437-23.13 0.3883-4.741-5.2554-4.713-5.2243 5.96-19.42 18.657-24.814 29.282-7.288 30.797-5.6088s18.737 13.707-13.627 24.64z" />
        <path
            d="m193.13 29.348c7.607 16.31 7.063 16.707 0.495 21.495-6.568 4.7879-6.529 4.7596-24.28-4.156-31.029-15.585-9.123-26.725-7.024-28.255 2.098-1.5299 17.128-18.416 30.809 10.917z" />
        <path
            d="m198.94 98.537c5.741-18.679 5.14-18.993-2.105-22.774-7.245-3.7812-7.202-3.7588-24.132 9.0809-29.594 22.445-6.015 29.962-3.7 31.17s19.614 16.117 29.937-17.477z" />
        <path
            d="m170.52 77.936c22.111-5.7454 22.099-6.3631 21.957-13.82-0.141-7.4567-0.14-7.4126-22.469-13.183-39.032-10.088-33.712 11.605-33.666 13.988 0.045 2.3826-5.586 23.348 34.178 13.015z" />
        <path
            d="m241.04 73.188c-21.67-4.5055-21.661-4.9829-21.551-10.745 0.109-5.7623 0.108-5.7282 21.947-10.122 38.176-7.6806 33.051 9.0683 33.016 10.91s5.56 18.06-33.412 9.9576z" />
        <path
            d="m218.13 98.507c-11.7-17.51-11.221-17.925-5.441-22.929 5.781-5.0045 5.747-4.9749 26.374 4.8063 36.058 17.098 15.673 28.641 13.826 30.24s-13.717 19.374-34.759-12.117z" />
    </g>
    <path d="m207.18 248.79 0.465-171.89" stroke="#1CD767" stroke-width="15" />
    <path
        d="m305.16 209.31c0 36.111-43.656 122.95-97.508 122.95-53.851 0-97.507-86.843-97.507-122.95 0-36.11 43.656-65.383 97.507-65.383 53.852 0 97.508 29.273 97.508 65.383z"
        fill="#864D2D" />
    <path d="m104.94 213.01h205.43l-45.677 123.36h-115.97l-43.784-123.36z" fill="#B05959" />
    <g filter="url(#b)">
        <rect x="95" y="187.1" width="226.73" height="41.533" fill="#B05959" />
    </g>
    <ellipse cx="207.8" cy="60.86" rx="23.194" ry="20.15" fill="#FFD702" />
    <path
        d="m187.14 729.41c-89.794-6.279-158.29-90.259-151.38-189.02 6.9063-98.765 86.422-172.4 176.21-166.12 89.794 6.279 158.29 90.259 151.38 189.02-6.906 98.764-86.421 172.39-176.22 166.12z"
        fill="#3E2415" stroke="#000" stroke-width="19" />
    <g filter="url(#a)">
        <path
            d="m283.72 469.06c-107.84-7.541-292.92 111.45-279.43 6.349 17.848-139.04 182.35-187.28 217.97-150.96 75.83-33.859 190.02 98.953 168.94 202.8-10.467 51.582 0.366-50.654-107.48-58.196z"
            fill="#afab48" />
        <path
            d="m216.91 329.71 3.651 3.723 4.762-2.126c16.518-7.375 34.712-5.999 53.241 2.506 18.628 8.551 37.202 24.177 53.545 44.42 32.778 40.601 55.152 97.952 51.617 148.5-0.332 4.756-0.632 8.952-0.912 12.635-0.285-0.628-0.577-1.263-0.874-1.903-12.695-27.314-39.401-71.811-97.688-75.886-28.268-1.977-60.683 4.373-92.656 12.911-16.061 4.289-32.2 9.186-47.818 13.966-1.256 0.384-2.508 0.767-3.756 1.15-14.325 4.387-28.152 8.621-41.21 12.209-14.204 3.903-27.28 6.977-38.844 8.626-11.638 1.658-21.248 1.795-28.708 0.181-7.2715-1.574-12.119-4.704-15.188-9.492-3.2006-4.994-5.1565-12.863-4.294-25.198 3.4324-49.084 46.28-94.134 94.736-122.81 23.988-14.196 48.625-23.917 69.138-27.911 10.264-1.998 19.207-2.505 26.38-1.596 7.216 0.914 12.013 3.169 14.878 6.09z"
            stroke="#000" stroke-width="15" />
    </g>
    <g stroke="#000">
        <path
            d="m240.38 328.48c-7.494-5.761-15.527 2.762-17.438 5.566m10.019-20.227c-4.369 8.821-18.378 0.684-10.02 20.227-1.595-4.816-7.254-28.784 10.02-20.227z"
            stroke-width="9" />
        <path
            d="m206.07 324.14c3.376-6.113 15.722 6.371 19.12 10.347m-21.096-28.001c9.2 12.211 17.073 4.193 21.097 28.001-1.413-5.951-10.512-35.976-21.097-28.001z"
            stroke-width="9" />
        <path d="m256.82 391.23c18.705-14.193-18.186-57.249-79.005-65.955 106.41-8.288 153.53 74.703 134.83 88.896"
            stroke-width="10" />
    </g>
    <path
        d="m320.16 558.94c0 16.557-6.365 0-12.209 0s-8.953 16.557-8.953 0 9.109-14.89 14.953-14.89 6.209-1.667 6.209 14.89z"
        fill="#000" />
    <path
        d="m144.16 547.94c0 16.557-6.365 0-12.209 0s-8.953 16.557-8.953 0 9.109-14.89 14.953-14.89 6.209-1.667 6.209 14.89z"
        fill="#000" />
    <defs>
        <filter id="b" x="91" y="187.1" width="234.73" height="49.533" color-interpolation-filters="sRGB"
            filterUnits="userSpaceOnUse">
            <feFlood flood-opacity="0" result="BackgroundImageFix" />
            <feColorMatrix in="SourceAlpha" result="hardAlpha" values="0 0 0 0 0 0 0 0 0 0 0 0 0 0 0 0 0 0 127 0" />
            <feOffset dy="4" />
            <feGaussianBlur stdDeviation="2" />
            <feComposite in2="hardAlpha" operator="out" />
            <feColorMatrix values="0 0 0 0 0 0 0 0 0 0 0 0 0 0 0 0 0 0 0.25 0" />
            <feBlend in2="BackgroundImageFix" result="effect1_dropShadow_46_86" />
            <feBlend in="SourceGraphic" in2="effect1_dropShadow_46_86" result="shape" />
        </filter>
        <filter id="a" x=".070862" y="315.68" width="395.52" height="256.14" color-interpolation-filters="sRGB"
            filterUnits="userSpaceOnUse">
            <feFlood flood-opacity="0" result="BackgroundImageFix" />
            <feColorMatrix in="SourceAlpha" result="hardAlpha" values="0 0 0 0 0 0 0 0 0 0 0 0 0 0 0 0 0 0 127 0" />
            <feOffset dy="4" />
            <feGaussianBlur stdDeviation="2" />
            <feComposite in2="hardAlpha" operator="out" />
            <feColorMatrix values="0 0 0 0 0 0 0 0 0 0 0 0 0 0 0 0 0 0 0.25 0" />
            <feBlend in2="BackgroundImageFix" result="effect1_dropShadow_46_86" />
            <feBlend in="SourceGraphic" in2="effect1_dropShadow_46_86" result="shape" />
        </filter>
    </defs>
</svg>