<?xml version="1.0" encoding="UTF-8"?>
<svg id="Layer_2" data-name="Layer 2" xmlns="http://www.w3.org/2000/svg" viewBox="0 0 97.21 71.44">
  <defs>
    <style>
      .cls-1 {
        fill: #f6eb16;
      }

      .cls-1, .cls-2 {
        stroke: #231f20;
        stroke-miterlimit: 10;
      }

      .cls-2 {
        fill: #f7941d;
      }
    </style>
  </defs>
  <g id="Layer_1-2" data-name="Layer 1">
    <g id="layer2">
      <g id="g3385">
        <g id="a1488">
          <g id="g3433">
            <path id="path3429" class="cls-2" d="m80.19,19.97c0-1.87-.41-3.44-1.23-4.71-.82-1.31-2.07-2.42-3.76-3.33-1.95-1.09-4.33-1.85-7.14-2.28-2.82-.42-6.27-.63-10.37-.63h-14.93c-1.36,0-2.57.87-3,2.16l-8.09,24.04c-.69,2.05.84,4.18,3,4.18h11.73c5.02,0,9.37-.32,13.06-.95,3.69-.64,7.04-1.75,10.06-3.33,3.38-1.76,5.99-3.97,7.84-6.61,1.89-2.68,2.84-5.52,2.84-8.52h0Zm-1.59,48.9l-20.83-11.53c-.33-.18-.62-.42-.87-.71l-6.72-7.83c-.6-.7-1.48-1.1-2.4-1.1h-18.16c-1.29,0-2.45.78-2.93,1.97l-3.15,7.71c-.16.4-.41.76-.72,1.07l-11.84,11.58c-2.38,2.32-6.27-.12-5.22-3.27L27.15,2.81c.47-1.41,1.87-2.3,3.35-2.14l13.75,1.5c6.87.75,27.53-1.46,31.88-.82,4.35.6,8.14,1.71,11.37,3.33,2.87,1.45,5.12,3.19,6.76,5.24,1.64,2.05,2.46,4.6,2.46,7.67,0,6.56-3,12.33-8.99,17.3-4.81,4-10.85,7.02-18.12,9.05-2.32.65-3.12,3.52-1.44,5.25l14.25,14.69c2.53,2.61-.62,6.74-3.81,4.98Z"/>
            <path id="path3431" class="cls-1" d="m72.44,19.5c0-1.83-.39-3.37-1.17-4.62-.78-1.28-1.98-2.37-3.6-3.27-1.86-1.07-4.13-1.82-6.83-2.23-2.69-.42-5.99-.62-9.91-.62h-14.61c-1.09,0-2.06.7-2.4,1.74l-8.11,24.75c-.53,1.63.68,3.31,2.4,3.31h11.93c4.79,0,8.95-.31,12.48-.93,3.52-.62,6.73-1.71,9.61-3.27,3.23-1.73,5.72-3.89,7.49-6.49,1.81-2.63,2.72-5.42,2.72-8.36h0Zm1.62,49.75l-23.11-13.14c-.26-.15-.5-.34-.69-.58l-6.63-7.93c-.48-.57-1.19-.91-1.94-.91h-17.88c-1.03,0-1.96.63-2.35,1.59l-3.19,8.02c-.13.32-.32.61-.56.85l-12.89,12.94c-1.88,1.88-5.01-.04-4.19-2.56L21.9,2.24c.37-1.14,1.49-1.86,2.68-1.73l13.52,1.51c6.56.73,26.3-1.43,30.46-.8,4.16.59,7.78,1.68,10.86,3.27,2.74,1.42,4.89,3.13,6.46,5.14,1.57,2.01,2.35,4.52,2.35,7.53,0,6.44-2.86,12.1-8.59,16.98-4.8,4.1-10.88,7.14-18.23,9.14-1.83.5-2.46,2.78-1.15,4.16l16.89,17.88c1.99,2.11-.56,5.36-3.08,3.93Z"/>
          </g>
        </g>
      </g>
    </g>
  </g>
</svg>