<svg width="421" height="425" viewBox="0 0 421 425" fill="none" xmlns="http://www.w3.org/2000/svg">
    <path
        d="M362 340.083C362 431.922 293.276 414.723 208.5 414.723C123.724 414.723 55 431.922 55 340.083C55 248.245 123.724 56 208.5 56C293.276 56 362 248.245 362 340.083Z"
        fill="#303030" />
    <path
        d="M128.75 261.965C94.6464 261.965 67 234.319 67 200.215C67 166.111 94.6464 138.465 128.75 138.465C162.854 138.465 190.5 166.111 190.5 200.215C190.5 234.319 162.854 261.965 128.75 261.965Z"
        fill="#FF8989" />
    <path
        d="M128.75 251.75C95.9581 251.75 69.375 225.167 69.375 192.375C69.375 159.583 95.9581 133 128.75 133C161.542 133 188.125 159.583 188.125 192.375C188.125 225.167 161.542 251.75 128.75 251.75Z"
        fill="white" />
    <path
        d="M128.75 235.84C109.075 235.84 93.125 219.89 93.125 200.215C93.125 180.54 109.075 164.59 128.75 164.59C148.425 164.59 164.375 180.54 164.375 200.215C164.375 219.89 148.425 235.84 128.75 235.84Z"
        fill="#0000FF" />
    <path
        d="M128.75 212.09C122.192 212.09 116.875 206.773 116.875 200.215C116.875 193.657 122.192 188.34 128.75 188.34C135.308 188.34 140.625 193.657 140.625 200.215C140.625 206.773 135.308 212.09 128.75 212.09Z"
        fill="black" />
    <path
        d="M116.875 204.965C114.252 204.965 112.125 202.838 112.125 200.215C112.125 197.592 114.252 195.465 116.875 195.465C119.498 195.465 121.625 197.592 121.625 200.215C121.625 202.838 119.498 204.965 116.875 204.965Z"
        fill="white" />
    <path
        d="M121.625 212.09C120.313 212.09 119.25 211.027 119.25 209.715C119.25 208.403 120.313 207.34 121.625 207.34C122.937 207.34 124 208.403 124 209.715C124 211.027 122.937 212.09 121.625 212.09Z"
        fill="white" />
    <path
        d="M128.75 261.965C94.6464 261.965 67 234.319 67 200.215C67 166.111 94.6464 138.465 128.75 138.465C162.854 138.465 190.5 166.111 190.5 200.215C190.5 234.319 162.854 261.965 128.75 261.965Z"
        fill="#FF8989" />
    <path
        d="M128.75 251.75C95.9581 251.75 69.375 225.167 69.375 192.375C69.375 159.583 95.9581 133 128.75 133C161.542 133 188.125 159.583 188.125 192.375C188.125 225.167 161.542 251.75 128.75 251.75Z"
        fill="white" />
    <path
        d="M128.75 235.84C109.075 235.84 93.125 219.89 93.125 200.215C93.125 180.54 109.075 164.59 128.75 164.59C148.425 164.59 164.375 180.54 164.375 200.215C164.375 219.89 148.425 235.84 128.75 235.84Z"
        fill="#0000FF" />
    <path
        d="M128.75 212.09C122.192 212.09 116.875 206.773 116.875 200.215C116.875 193.657 122.192 188.34 128.75 188.34C135.308 188.34 140.625 193.657 140.625 200.215C140.625 206.773 135.308 212.09 128.75 212.09Z"
        fill="black" />
    <path
        d="M116.875 204.965C114.252 204.965 112.125 202.838 112.125 200.215C112.125 197.592 114.252 195.465 116.875 195.465C119.498 195.465 121.625 197.592 121.625 200.215C121.625 202.838 119.498 204.965 116.875 204.965Z"
        fill="white" />
    <path
        d="M121.625 212.09C120.313 212.09 119.25 211.027 119.25 209.715C119.25 208.403 120.313 207.34 121.625 207.34C122.937 207.34 124 208.403 124 209.715C124 211.027 122.937 212.09 121.625 212.09Z"
        fill="white" />
    <path
        d="M270.941 266C305.045 266 332.691 238.354 332.691 204.25C332.691 170.146 305.045 142.5 270.941 142.5C236.838 142.5 209.191 170.146 209.191 204.25C209.191 238.354 236.838 266 270.941 266Z"
        fill="#FF8989" />
    <path
        d="M270.941 239.875C290.616 239.875 306.566 223.925 306.566 204.25C306.566 184.575 290.616 168.625 270.941 168.625C251.266 168.625 235.316 184.575 235.316 204.25C235.316 223.925 251.266 239.875 270.941 239.875Z"
        fill="#0000FF" />
    <path
        d="M270.941 216.125C277.5 216.125 282.816 210.808 282.816 204.25C282.816 197.692 277.5 192.375 270.941 192.375C264.383 192.375 259.066 197.692 259.066 204.25C259.066 210.808 264.383 216.125 270.941 216.125Z"
        fill="black" />
    <path
        d="M282.816 209C285.44 209 287.566 206.873 287.566 204.25C287.566 201.627 285.44 199.5 282.816 199.5C280.193 199.5 278.066 201.627 278.066 204.25C278.066 206.873 280.193 209 282.816 209Z"
        fill="white" />
    <path
        d="M278.066 216.125C279.378 216.125 280.441 215.062 280.441 213.75C280.441 212.438 279.378 211.375 278.066 211.375C276.755 211.375 275.691 212.438 275.691 213.75C275.691 215.062 276.755 216.125 278.066 216.125Z"
        fill="white" />
    <path
        d="M270.941 266C305.045 266 332.691 238.354 332.691 204.25C332.691 170.146 305.045 142.5 270.941 142.5C236.838 142.5 209.191 170.146 209.191 204.25C209.191 238.354 236.838 266 270.941 266Z"
        fill="#FF8989" />
    <path
        d="M270.941 255.783C303.733 255.783 330.316 229.2 330.316 196.408C330.316 163.616 303.733 137.033 270.941 137.033C238.149 137.033 211.566 163.616 211.566 196.408C211.566 229.2 238.149 255.783 270.941 255.783Z"
        fill="white" />
    <path
        d="M270.941 239.875C290.616 239.875 306.566 223.925 306.566 204.25C306.566 184.575 290.616 168.625 270.941 168.625C251.266 168.625 235.316 184.575 235.316 204.25C235.316 223.925 251.266 239.875 270.941 239.875Z"
        fill="#0000FF" />
    <path
        d="M270.941 216.125C277.5 216.125 282.816 210.808 282.816 204.25C282.816 197.692 277.5 192.375 270.941 192.375C264.383 192.375 259.066 197.692 259.066 204.25C259.066 210.808 264.383 216.125 270.941 216.125Z"
        fill="black" />
    <path
        d="M282.816 209C285.44 209 287.566 206.873 287.566 204.25C287.566 201.627 285.44 199.5 282.816 199.5C280.193 199.5 278.066 201.627 278.066 204.25C278.066 206.873 280.193 209 282.816 209Z"
        fill="white" />
    <path
        d="M278.066 216.125C279.378 216.125 280.441 215.062 280.441 213.75C280.441 212.438 279.378 211.375 278.066 211.375C276.755 211.375 275.691 212.438 275.691 213.75C275.691 215.062 276.755 216.125 278.066 216.125Z"
        fill="white" />
    <path d="M165.931 252.66L199.385 236L229.43 252.66L255 280H141L165.931 252.66Z" fill="#DAD202" />
    <path d="M242.545 320.772L196.083 340.6L156.818 315.817L124.425 277L278.331 285.895L242.545 320.772Z"
        fill="#85822E" />
    <path
        d="M177.462 264.671C178.466 265.301 172.129 277.554 177.776 268.563C183.422 259.572 187.186 251.772 186.182 251.141C185.179 250.511 179.787 257.289 174.141 266.28C168.494 275.271 176.459 264.04 177.462 264.671Z"
        fill="black" />
    <path
        d="M215.538 265.671C214.534 266.301 220.871 278.554 215.224 269.563C209.578 260.572 205.814 252.772 206.818 252.141C207.821 251.511 213.213 258.289 218.859 267.28C224.506 276.271 216.541 265.04 215.538 265.671Z"
        fill="black" />
    <path fill-rule="evenodd" clip-rule="evenodd"
        d="M288.502 391.869C288.787 391.335 289.089 390.797 289.407 390.256C293.213 383.79 297.905 379.495 299.888 380.662C301.871 381.829 300.393 388.017 296.588 394.482C296.473 394.677 296.357 394.87 296.241 395.062C297.912 394.305 299.664 393.324 301.266 392.427C306.568 389.458 310.234 387.406 303.938 397.43C292.924 414.969 279.634 426.448 274.256 423.071C268.877 419.693 273.446 402.736 284.461 385.198C290.454 375.654 290.001 378.679 289.209 383.964C288.835 386.456 288.386 389.452 288.502 391.869Z"
        fill="#FFC700" />
    <path fill-rule="evenodd" clip-rule="evenodd"
        d="M126.309 391.7C126.064 391.146 125.827 390.576 125.598 389.993C122.856 383.009 122.37 376.666 124.512 375.826C126.654 374.985 130.612 379.965 133.353 386.948C133.436 387.159 133.516 387.369 133.595 387.579C134.031 385.797 134.339 383.813 134.622 381.998C135.556 375.994 136.202 371.843 140.208 382.981C147.217 402.47 148.054 420.011 142.077 422.161C136.101 424.31 125.574 410.254 118.565 390.765C114.751 380.161 116.852 382.383 120.522 386.267C122.254 388.099 124.335 390.301 126.309 391.7Z"
        fill="#FFC700" />
    <path
        d="M418.5 302.5C415.076 307.849 396.444 308.164 379 297C361.556 285.836 344.491 280.135 347.914 274.785C351.338 269.436 374.056 271.336 391.5 282.5C408.944 293.664 421.924 297.15 418.5 302.5Z"
        fill="#222E21" />
    <path
        d="M210.686 75.1307C204.338 75.3393 193.525 60.1621 192.844 39.4626C192.164 18.7631 187.196 1.47065 193.544 1.262C199.892 1.05335 211.194 20.8512 211.874 41.5507C212.555 62.2502 217.034 74.922 210.686 75.1307Z"
        fill="#222E21" />
    <path
        d="M1.92407 299.107C5.34772 304.457 23.9803 304.771 41.4243 293.607C58.8684 282.443 75.9333 276.742 72.5096 271.393C69.086 266.043 46.3684 267.943 28.9244 279.107C11.4803 290.271 -1.49958 293.758 1.92407 299.107Z"
        fill="#222E21" />
    <path
        d="M211.018 75.3291C205.223 77.9302 189.461 67.9893 180.979 49.0951C172.498 30.2008 161.341 16.0855 167.135 13.4844C172.929 10.8834 190.897 24.914 199.379 43.8082C207.861 62.7024 216.812 72.728 211.018 75.3291Z"
        fill="#222E21" />
    <path
        d="M206.696 75.5605C200.851 73.0758 197.438 54.7559 205.54 35.6959C213.642 16.6359 216.421 -1.1402 222.266 1.34452C228.111 3.82925 230.022 26.5459 221.92 45.6059C213.817 64.6659 212.542 78.0452 206.696 75.5605Z"
        fill="#222E21" />
</svg>