<?xml version="1.0" standalone="no"?>
<!DOCTYPE svg PUBLIC "-//W3C//DTD SVG 20010904//EN"
 "http://www.w3.org/TR/2001/REC-SVG-20010904/DTD/svg10.dtd">
<svg version="1.0" xmlns="http://www.w3.org/2000/svg"
 width="1280.000000pt" height="640.000000pt" viewBox="0 0 1280.000000 640.000000"
 preserveAspectRatio="xMidYMid meet">
<metadata>
Created by potrace 1.15, written by Peter Selinger 2001-2017
</metadata>
<g transform="translate(0.000000,640.000000) scale(0.100000,-0.100000)"
fill="#000000" stroke="none">
<path d="M3195 3200 l-3200 -3200 6405 0 6405 0 -3200 3200 c-1760 1760 -3202
3200 -3205 3200 -3 0 -1445 -1440 -3205 -3200z m3197 2560 c-1 -415 1 -620 8
-620 7 0 10 206 10 617 l0 618 101 -100 100 -100 -4 -155 c-4 -105 -3 -131 3
-80 4 41 8 109 9 150 l1 74 46 -44 46 -45 -5 -155 c-4 -104 -3 -131 3 -80 4
41 8 109 9 150 l1 74 46 -44 46 -45 -7 -105 c-3 -58 -8 -125 -10 -150 -4 -36
-3 -40 4 -20 5 14 13 78 16 144 l7 119 44 -44 43 -44 -14 -160 c-8 -88 -17
-179 -20 -203 -2 -24 -1 -41 4 -38 4 3 14 81 21 173 7 92 16 177 19 190 6 23
7 23 45 -16 l38 -39 -11 -113 c-7 -63 -14 -127 -17 -143 -4 -19 -3 -26 5 -22
6 4 11 20 11 36 0 16 5 75 12 130 l11 102 40 -40 40 -41 -17 -137 c-9 -75 -15
-138 -13 -141 6 -5 13 40 27 162 7 55 13 101 14 102 1 2 19 -15 40 -36 l38
-39 -17 -118 c-8 -66 -17 -127 -19 -136 -2 -10 -1 -18 3 -18 5 0 13 44 20 98
7 53 15 112 19 130 l7 33 37 -38 36 -38 -19 -120 c-11 -65 -18 -126 -16 -135
2 -8 11 39 22 105 10 66 21 123 25 128 3 4 21 -8 39 -27 l33 -34 -116 -656
c-64 -362 -116 -662 -116 -668 0 -45 23 77 125 652 64 360 117 655 118 657 2
1 19 -13 37 -32 l34 -35 -25 -130 c-14 -72 -23 -130 -19 -130 4 0 17 57 30
126 l23 126 35 -36 36 -35 -23 -108 c-34 -166 -33 -160 -23 -143 5 8 19 66 32
128 l23 113 35 -34 34 -35 -27 -116 c-14 -64 -25 -121 -23 -127 2 -6 16 44 32
111 l28 123 34 -34 33 -34 -30 -119 c-16 -65 -28 -123 -26 -129 2 -7 16 40 32
103 15 63 31 118 34 123 4 4 20 -6 36 -23 l28 -29 -42 -161 c-23 -88 -44 -168
-48 -178 -4 -11 -3 -14 4 -7 6 6 30 83 53 173 l43 163 33 -32 c18 -17 31 -36
29 -43 -22 -65 -65 -229 -62 -233 5 -4 11 16 53 165 9 31 18 60 21 64 2 4 17
-7 33 -25 l29 -34 -35 -117 c-20 -65 -34 -120 -31 -122 2 -2 19 44 36 103 18
60 36 111 40 116 4 4 19 -6 35 -22 l27 -28 -36 -112 c-20 -62 -35 -115 -32
-117 2 -3 19 42 37 98 17 57 35 106 39 111 4 4 19 -6 34 -21 l27 -28 -34 -100
c-19 -54 -37 -108 -41 -119 -5 -13 -5 -17 2 -10 5 6 25 53 43 105 18 52 36 98
40 103 3 4 18 -5 32 -20 l26 -28 -132 -365 c-137 -375 -155 -427 -137 -400 5
9 67 173 137 365 69 193 130 360 135 372 8 21 12 18 70 -42 l62 -65 -45 -110
c-25 -60 -42 -110 -38 -110 3 0 24 44 45 98 21 53 41 100 44 105 4 4 19 -5 33
-20 l26 -28 -45 -103 c-24 -57 -42 -106 -40 -109 3 -2 24 43 48 101 24 58 46
105 49 105 3 0 15 -13 28 -29 l23 -30 -45 -102 c-25 -56 -44 -104 -41 -106 2
-3 13 15 24 39 10 24 31 71 45 103 l27 60 59 -59 59 -58 -50 -100 c-28 -54
-48 -101 -45 -104 3 -3 27 40 53 95 26 56 50 101 53 101 3 0 15 -13 28 -29
l22 -29 -51 -96 c-28 -53 -49 -99 -46 -102 3 -3 27 37 53 88 25 52 48 96 50
98 3 3 16 -7 30 -21 l26 -26 -52 -96 c-29 -53 -50 -99 -48 -102 3 -2 27 39 54
91 27 52 52 95 55 95 3 0 16 -11 29 -24 l23 -25 -25 -43 c-72 -125 -89 -158
-81 -158 4 0 30 41 56 90 26 49 51 92 56 94 4 3 18 -5 30 -18 l23 -24 -128
-221 c-70 -122 -125 -223 -123 -225 2 -3 60 92 128 210 67 118 126 216 130
219 5 2 18 -6 30 -19 l22 -23 -56 -93 c-31 -51 -54 -94 -52 -97 3 -2 29 35 58
84 29 48 54 90 56 92 2 3 15 -6 28 -20 l25 -25 -59 -94 c-33 -52 -58 -97 -55
-99 5 -5 0 -12 68 97 l58 92 21 -27 c12 -15 21 -31 19 -36 -1 -4 -28 -46 -59
-92 -31 -47 -54 -87 -51 -90 2 -3 31 37 63 88 32 50 60 93 61 95 6 10 103
-105 99 -117 -3 -8 -42 -65 -86 -128 -45 -63 -79 -116 -77 -118 2 -3 44 52 92
121 l88 126 25 -25 25 -25 -57 -78 c-32 -44 -62 -85 -68 -91 -5 -7 -6 -13 -1
-13 5 0 36 39 69 85 33 47 62 85 65 84 3 0 16 -9 29 -19 l23 -20 -43 -58 c-23
-31 -54 -72 -67 -89 -13 -18 -22 -33 -19 -33 4 0 34 37 68 83 34 45 64 84 65
86 4 5 43 -41 44 -51 0 -4 -26 -40 -58 -80 -62 -79 -76 -98 -68 -98 2 0 35 38
72 85 l68 86 24 -25 25 -24 -68 -82 c-37 -44 -65 -83 -63 -85 3 -3 33 31 69
75 35 44 66 80 69 80 3 -1 15 -9 28 -20 l24 -19 -103 -123 c-56 -68 -111 -133
-122 -145 -11 -13 -16 -23 -11 -23 5 1 61 64 124 140 63 77 117 139 120 139 3
0 13 -11 23 -25 l19 -25 -70 -82 c-39 -45 -68 -84 -66 -86 2 -2 5 -2 7 0 1 2
33 39 71 81 68 78 68 78 91 60 14 -9 25 -19 25 -22 0 -3 -31 -40 -70 -83 -38
-43 -70 -81 -70 -85 0 -4 35 30 78 74 l77 82 22 -24 21 -23 -74 -79 c-41 -44
-74 -84 -74 -88 0 -5 35 30 79 76 l78 85 21 -25 21 -25 -27 -30 c-15 -16 -49
-54 -76 -82 -28 -29 -48 -53 -44 -53 3 0 40 36 83 79 l76 79 24 -24 24 -24
-109 -107 c-61 -58 -108 -109 -105 -112 3 -3 55 44 115 104 60 60 111 107 112
104 2 -2 12 -14 22 -26 l19 -22 -77 -72 c-42 -39 -74 -74 -71 -77 3 -3 38 26
78 66 40 40 75 72 78 72 3 0 16 -9 29 -20 l23 -20 -80 -77 c-44 -43 -68 -69
-54 -58 14 11 52 44 83 74 l57 55 21 -24 c11 -13 20 -26 20 -29 0 -3 -33 -35
-74 -71 -41 -36 -75 -69 -75 -74 -1 -4 31 21 70 55 95 86 92 85 117 63 12 -10
22 -21 22 -25 0 -3 -36 -36 -80 -74 -44 -38 -78 -70 -75 -73 2 -3 37 24 77 60
93 83 91 82 117 54 l22 -23 -145 -123 c-80 -67 -146 -124 -146 -127 0 -7 13 3
156 122 76 63 141 115 145 115 3 0 14 -10 25 -21 19 -21 19 -22 -30 -63 -59
-48 -128 -113 -106 -99 8 5 46 35 84 66 39 32 74 57 80 57 11 0 46 -30 46 -39
0 -4 -38 -35 -85 -71 -46 -35 -82 -66 -80 -68 2 -3 43 26 91 63 l86 68 25 -25
24 -25 -91 -68 c-50 -37 -89 -70 -86 -72 3 -3 40 22 83 54 43 33 84 63 91 67
13 8 52 -19 52 -35 0 -4 -38 -36 -85 -70 -47 -34 -84 -64 -81 -66 2 -2 41 23
87 56 45 34 88 61 94 61 18 0 50 -39 39 -49 -5 -4 -60 -43 -122 -86 -62 -43
-116 -83 -119 -88 -8 -14 2 -7 141 91 l119 84 24 -25 25 -25 -91 -62 c-51 -34
-90 -64 -88 -66 2 -3 45 24 96 58 l91 62 26 -25 26 -26 -96 -61 c-53 -34 -96
-65 -96 -68 0 -6 50 23 132 78 31 21 61 38 66 38 15 0 44 -38 38 -49 -4 -5
-45 -33 -91 -62 -47 -28 -83 -54 -81 -56 2 -2 41 19 86 47 45 28 88 54 96 57
15 5 54 -23 54 -38 0 -4 -43 -34 -95 -65 -53 -31 -93 -59 -91 -61 3 -3 43 18
89 46 46 28 91 53 101 57 16 6 56 -20 56 -37 0 -4 -99 -64 -220 -134 -122 -70
-219 -129 -217 -131 2 -3 102 52 221 121 120 69 222 125 228 125 13 0 48 -30
48 -41 0 -4 -43 -31 -96 -59 -52 -29 -93 -54 -90 -57 2 -3 49 20 103 50 l98
56 23 -21 c12 -12 22 -25 22 -29 0 -4 -43 -30 -95 -58 -52 -29 -95 -54 -95
-57 0 -3 43 17 96 45 53 28 101 51 107 51 13 0 47 -30 47 -41 0 -5 -45 -32
-101 -60 -56 -27 -99 -52 -96 -55 2 -3 52 19 111 48 l106 53 26 -26 26 -26
-108 -52 c-59 -28 -105 -54 -102 -57 3 -3 53 19 112 48 l106 53 27 -27 c15
-15 25 -29 22 -31 -2 -1 -68 -32 -146 -67 -78 -36 -143 -69 -143 -73 0 -5 3
-6 8 -4 4 3 72 35 151 71 l144 67 23 -22 c13 -12 24 -26 24 -30 0 -3 -21 -16
-47 -27 -127 -55 -165 -73 -161 -78 3 -2 51 16 107 41 56 25 107 45 114 45 8
0 24 -11 37 -25 l23 -24 -26 -10 c-72 -28 -173 -73 -182 -83 -10 -10 -3 -7
138 52 l78 33 24 -23 c14 -13 25 -26 25 -30 0 -4 -33 -20 -72 -35 -120 -47
-140 -56 -135 -61 2 -3 53 15 113 40 l109 45 27 -26 c15 -15 25 -29 22 -32 -3
-3 -54 -25 -112 -48 -59 -23 -101 -42 -95 -42 7 -1 61 17 120 40 l106 40 29
-29 29 -29 -378 -137 c-208 -76 -382 -142 -388 -147 -5 -6 33 6 85 25 52 19
226 82 386 140 160 58 295 106 300 106 10 0 54 -41 54 -51 0 -3 -49 -24 -110
-45 -60 -21 -108 -40 -105 -42 2 -2 55 13 119 34 l115 38 26 -24 c14 -13 25
-27 25 -31 0 -5 -46 -22 -102 -40 -57 -17 -107 -35 -112 -40 -15 -13 -9 -12
104 26 57 19 111 35 120 35 18 0 67 -47 58 -56 -3 -3 -50 -19 -105 -35 -120
-36 -127 -38 -121 -44 2 -2 53 11 114 30 60 19 116 35 125 35 8 0 28 -13 43
-29 l28 -29 -56 -16 c-31 -9 -82 -23 -113 -32 -32 -9 -62 -20 -67 -25 -5 -5
22 0 60 11 38 11 95 28 127 37 l58 16 30 -28 c16 -16 26 -32 22 -36 -5 -3 -82
-26 -172 -50 -90 -24 -159 -45 -154 -46 6 -2 87 16 179 41 l168 46 28 -27 c15
-15 28 -30 28 -34 0 -4 -51 -19 -112 -34 -62 -15 -117 -32 -123 -38 -7 -7 -5
-8 5 -5 8 3 68 18 132 34 l118 28 30 -29 c16 -16 30 -31 30 -34 0 -4 -37 -14
-82 -24 -120 -27 -161 -38 -155 -43 2 -2 60 9 128 25 l124 30 33 -32 c17 -17
29 -34 25 -38 -5 -3 -61 -17 -125 -30 -65 -13 -118 -26 -118 -30 0 -3 60 6
133 22 l132 28 33 -31 c17 -18 29 -35 25 -38 -5 -4 -53 -15 -108 -25 -92 -16
-154 -33 -130 -34 6 -1 66 10 135 24 l125 24 35 -34 c18 -19 32 -36 30 -38 -3
-2 -295 -54 -650 -116 -355 -62 -654 -116 -665 -121 -27 -13 -50 -17 690 114
l640 114 38 -38 39 -37 -119 -18 c-65 -10 -125 -22 -133 -27 -10 -6 -5 -7 15
-4 17 3 79 13 138 22 l108 17 34 -33 c19 -19 35 -37 35 -40 0 -3 -48 -12 -106
-19 -58 -7 -117 -17 -132 -21 -47 -14 4 -11 133 9 l120 19 38 -36 c26 -25 33
-38 25 -43 -7 -4 -66 -12 -131 -19 -65 -8 -120 -17 -123 -21 -2 -4 10 -6 28
-3 18 3 83 11 143 19 l110 13 37 -36 c20 -19 35 -38 33 -42 -3 -4 -46 -11 -97
-15 -107 -8 -193 -22 -143 -23 17 -1 82 5 145 12 l115 13 40 -38 c21 -21 37
-40 35 -42 -3 -3 -90 -12 -195 -21 -104 -9 -191 -19 -194 -21 -7 -8 23 -6 222
11 l188 17 40 -39 c39 -38 39 -39 17 -46 -13 -3 -77 -10 -143 -15 -66 -4 -104
-9 -85 -10 19 -2 87 0 150 5 l115 9 43 -41 43 -41 -38 -7 c-21 -4 -74 -8 -118
-9 -44 -1 -93 -5 -110 -9 -30 -8 151 -4 235 5 41 5 47 2 87 -37 40 -40 53 -60
36 -57 -32 5 -283 -3 -283 -8 0 -5 71 -7 157 -5 l158 3 45 -45 44 -46 -137 -1
c-156 -2 -153 -1 -163 -11 -4 -4 65 -5 152 -2 l159 6 50 -51 49 -51 -392 0
-392 0 -2 128 -2 127 -3 -127 -4 -128 -34 0 -35 0 -2 78 -2 77 -3 -77 -4 -78
-34 0 -35 0 -2 78 -2 77 -3 -77 -4 -78 -34 0 -35 0 -2 78 -2 77 -3 -77 -4 -78
-34 0 -35 0 -2 78 -2 77 -3 -77 -4 -78 -34 0 -35 0 -2 118 -2 117 -3 -117 -4
-118 -34 0 -35 0 -2 78 -2 77 -3 -77 -4 -78 -34 0 -35 0 -2 78 -2 77 -3 -77
-4 -78 -34 0 -35 0 -2 78 -2 77 -3 -77 -4 -78 -34 0 -35 0 -2 78 -2 77 -3 -77
-4 -78 -34 0 -35 0 -2 128 -2 127 -3 -128 -4 -127 -34 0 -35 0 -2 78 -2 77 -3
-77 -4 -78 -34 0 -35 0 -2 78 -2 77 -3 -77 -4 -78 -34 0 -35 0 -2 78 -2 77 -3
-77 -4 -78 -34 0 -35 0 -2 78 -2 77 -3 -77 -4 -78 -34 0 -35 0 -2 118 -2 117
-3 -117 -4 -118 -34 0 -35 0 -2 78 -2 77 -3 -77 -4 -78 -34 0 -35 0 -2 78 -2
77 -3 -78 -4 -77 -34 0 -35 0 -2 78 -2 77 -3 -77 -4 -78 -34 0 -35 0 -2 78 -2
77 -3 -77 -4 -78 -34 0 -35 0 -2 128 -2 127 -3 -128 -4 -127 -34 0 -35 0 -2
78 -2 77 -3 -77 -4 -78 -34 0 -35 0 -2 78 -2 77 -3 -77 -4 -78 -34 0 -35 0 -2
78 -2 77 -3 -77 -4 -78 -34 0 -35 0 -2 78 -2 77 -3 -77 -4 -78 -34 0 -35 0 -2
118 -2 117 -3 -117 -4 -118 -34 0 -35 0 -2 78 -2 77 -3 -77 -4 -78 -34 0 -35
0 -2 78 -2 77 -3 -77 -4 -78 -34 0 -35 0 -2 78 -2 77 -3 -77 -4 -78 -34 0 -35
0 -2 78 -2 77 -3 -77 -4 -78 -34 0 -35 0 -2 128 -2 127 -3 -128 -4 -127 -34 0
-35 0 -2 78 -2 77 -3 -77 -4 -78 -34 0 -35 0 -2 78 -2 77 -3 -77 -4 -78 -34 0
-35 0 -2 78 -2 77 -3 -77 -4 -78 -34 0 -35 0 -2 78 -2 77 -3 -77 -4 -78 -34 0
-35 0 -2 118 -2 117 -3 -118 -4 -117 -34 0 -35 0 -2 78 -2 77 -3 -77 -4 -78
-34 0 -35 0 -2 78 -2 77 -3 -77 -4 -78 -34 0 -35 0 -2 78 -2 77 -3 -77 -4 -78
-34 0 -35 0 -2 78 -2 77 -3 -77 -4 -78 -34 0 -35 0 -2 128 -2 127 -3 -127 -4
-128 -34 0 -35 0 -2 78 -2 77 -3 -77 -4 -78 -34 0 -35 0 -2 78 -2 77 -3 -77
-4 -78 -34 0 -35 0 -2 78 -2 77 -3 -77 -4 -78 -34 0 -35 0 -2 78 -2 77 -3 -77
-4 -78 -34 0 -35 0 -2 118 -2 117 -3 -117 -4 -118 -34 0 -35 0 -2 78 -2 77 -3
-77 -4 -78 -34 0 -35 0 -2 78 -2 77 -3 -77 -4 -78 -34 0 -35 0 -2 78 -2 77 -3
-77 -4 -78 -34 0 -35 0 -2 78 -2 77 -3 -77 -4 -78 -34 0 -35 0 -2 128 -2 127
-3 -127 -4 -128 -34 0 -35 0 -2 78 -2 77 -3 -77 -4 -78 -34 0 -35 0 -2 78 -2
77 -3 -77 -4 -78 -34 0 -35 0 -2 78 -2 77 -3 -77 -4 -78 -34 0 -35 0 -2 78 -2
77 -3 -78 -4 -77 -34 0 -35 0 -2 118 -2 117 -3 -117 -4 -118 -34 0 -35 0 -2
78 -2 77 -3 -77 -4 -78 -34 0 -35 0 -2 78 -2 77 -3 -77 -4 -78 -34 0 -35 0 -2
78 -2 77 -3 -77 -4 -78 -34 0 -35 0 -2 78 -2 77 -3 -77 -4 -78 -34 0 -35 0 -2
128 -2 127 -3 -128 -4 -127 -34 0 -35 0 -2 78 -2 77 -3 -77 -4 -78 -34 0 -35
0 -2 78 -2 77 -3 -77 -4 -78 -34 0 -35 0 -2 78 -2 77 -3 -77 -4 -78 -34 0 -35
0 -2 78 -2 77 -3 -77 -4 -78 -34 0 -35 0 -2 118 -2 117 -3 -117 -4 -118 -34 0
-35 0 -2 78 -2 77 -3 -77 -4 -78 -34 0 -35 0 -2 78 -2 77 -3 -77 -4 -78 -34 0
-35 0 -2 78 -2 77 -3 -77 -4 -78 -34 0 -35 0 -2 78 -2 77 -3 -77 -4 -78 -34 0
-35 0 -2 128 -2 127 -3 -127 -4 -128 -34 0 -35 0 -2 78 -2 77 -3 -77 -4 -78
-34 0 -35 0 -2 78 -2 77 -3 -77 -4 -78 -34 0 -35 0 -2 78 -2 77 -3 -77 -4 -78
-34 0 -35 0 -2 78 -2 77 -3 -77 -4 -78 -34 0 -35 0 -2 118 -2 117 -3 -117 -4
-118 -34 0 -35 0 -2 78 -2 77 -3 -77 -4 -78 -34 0 -35 0 -2 78 -2 77 -3 -77
-4 -78 -34 0 -35 0 -2 78 -2 77 -3 -77 -4 -78 -34 0 -35 0 -2 78 -2 77 -3 -77
-4 -78 -34 0 -35 0 -2 128 -2 127 -3 -128 -4 -127 -34 0 -35 0 -2 78 -2 77 -3
-77 -4 -78 -34 0 -35 0 -2 78 -2 77 -3 -78 -4 -77 -34 0 -35 0 -2 78 -2 77 -3
-77 -4 -78 -34 0 -35 0 -2 78 -2 77 -3 -77 -4 -78 -34 0 -35 0 -2 118 -2 117
-3 -117 -4 -118 -34 0 -35 0 -2 78 -2 77 -3 -77 -4 -78 -35 0 -36 0 4 75 c2
41 0 75 -4 75 -5 0 -8 -34 -8 -75 l0 -75 -36 0 -36 0 4 75 c2 41 0 75 -4 75
-5 0 -8 -34 -8 -75 l0 -75 -36 0 -36 0 4 75 c2 41 0 75 -4 75 -5 0 -8 -34 -8
-75 l0 -75 -36 0 -35 0 2 121 c1 66 -1 123 -5 126 -3 4 -6 -51 -6 -120 l0
-127 -34 0 -35 0 2 75 c1 41 -1 75 -5 75 -5 0 -8 -34 -8 -75 l0 -75 -34 0 -35
0 2 75 c1 41 -1 75 -5 75 -5 0 -8 -34 -8 -75 l0 -75 -34 0 -35 0 2 75 c1 41
-1 75 -5 75 -5 0 -8 -34 -8 -75 l0 -75 -30 0 -30 0 0 75 c0 43 -4 75 -10 75
-6 0 -10 -32 -10 -75 l0 -75 -30 0 -30 0 0 115 c0 70 -4 115 -10 115 -6 0 -10
-45 -10 -115 l0 -115 -30 0 -30 0 0 75 c0 43 -4 75 -10 75 -6 0 -10 -32 -10
-75 l0 -75 -30 0 -30 0 0 75 c0 43 -4 75 -10 75 -6 0 -10 -32 -10 -75 l0 -75
-30 0 -30 0 0 75 c0 43 -4 75 -10 75 -6 0 -10 -32 -10 -75 l0 -75 -30 0 -30 0
0 75 c0 43 -4 75 -10 75 -6 0 -10 -32 -10 -75 l0 -75 -30 0 -30 0 0 125 c0 77
-4 125 -10 125 -6 0 -10 -48 -10 -125 l0 -125 -30 0 -30 0 0 75 c0 43 -4 75
-10 75 -6 0 -10 -32 -10 -75 l0 -75 -30 0 -30 0 0 75 c0 43 -4 75 -10 75 -6 0
-10 -32 -10 -75 l0 -75 -30 0 -30 0 0 75 c0 43 -4 75 -10 75 -6 0 -10 -32 -10
-75 l0 -75 -30 0 -30 0 0 75 c0 43 -4 75 -10 75 -6 0 -10 -32 -10 -75 l0 -75
-30 0 -30 0 0 115 c0 70 -4 115 -10 115 -6 0 -10 -45 -10 -115 l0 -115 -30 0
-30 0 0 75 c0 43 -4 75 -10 75 -6 0 -10 -32 -10 -75 l0 -75 -30 0 -30 0 0 75
c0 43 -4 75 -10 75 -6 0 -10 -32 -10 -75 l0 -75 -30 0 -30 0 0 75 c0 43 -4 75
-10 75 -6 0 -10 -32 -10 -75 l0 -75 -30 0 -30 0 0 75 c0 43 -4 75 -10 75 -6 0
-10 -32 -10 -75 l0 -75 -30 0 -30 0 0 125 c0 77 -4 125 -10 125 -6 0 -10 -48
-10 -125 l0 -125 -30 0 -30 0 0 75 c0 43 -4 75 -10 75 -6 0 -10 -32 -10 -75
l0 -75 -30 0 -30 0 0 75 c0 43 -4 75 -10 75 -6 0 -10 -32 -10 -75 l0 -75 -30
0 -30 0 0 75 c0 43 -4 75 -10 75 -6 0 -10 -32 -10 -75 l0 -75 -30 0 -30 0 0
75 c0 43 -4 75 -10 75 -6 0 -10 -32 -10 -75 l0 -75 -30 0 -30 0 0 115 c0 70
-4 115 -10 115 -6 0 -10 -45 -10 -115 l0 -115 -30 0 -30 0 0 75 c0 43 -4 75
-10 75 -6 0 -10 -32 -10 -75 l0 -75 -30 0 -30 0 0 75 c0 43 -4 75 -10 75 -6 0
-10 -32 -10 -75 l0 -75 -30 0 -30 0 0 75 c0 43 -4 75 -10 75 -6 0 -10 -32 -10
-75 l0 -75 -30 0 -30 0 0 75 c0 43 -4 75 -10 75 -6 0 -10 -32 -10 -75 l0 -75
-30 0 -30 0 0 125 c0 77 -4 125 -10 125 -6 0 -10 -48 -10 -125 l0 -125 -30 0
-30 0 0 75 c0 43 -4 75 -10 75 -6 0 -10 -32 -10 -75 l0 -75 -30 0 -30 0 0 75
c0 43 -4 75 -10 75 -6 0 -10 -32 -10 -75 l0 -75 -30 0 -30 0 0 75 c0 41 -3 75
-7 75 -5 0 -7 -34 -6 -75 l2 -75 -35 0 -34 0 0 75 c0 41 -3 75 -7 75 -5 0 -7
-34 -6 -75 l2 -75 -35 0 -34 0 0 115 c0 63 -3 115 -7 115 -5 0 -7 -52 -6 -115
l2 -115 -35 0 -34 0 0 75 c0 41 -3 75 -7 75 -5 0 -7 -34 -6 -75 l2 -75 -35 0
-34 0 0 75 c0 41 -3 75 -7 75 -5 0 -7 -34 -5 -75 l4 -75 -36 0 -36 0 0 75 c0
41 -3 75 -7 75 -5 0 -7 -34 -5 -75 l4 -75 -36 0 -36 0 0 75 c0 41 -3 75 -7 75
-5 0 -7 -34 -5 -75 l4 -75 -36 0 -36 0 0 125 c0 69 -3 125 -7 125 -5 0 -7 -56
-5 -125 l3 -125 -35 0 -36 0 -2 78 -2 77 -3 -77 -4 -78 -34 0 -35 0 -2 78 -2
77 -3 -77 -4 -78 -34 0 -35 0 -2 78 -2 77 -3 -77 -4 -78 -34 0 -35 0 -2 78 -2
77 -3 -77 -4 -78 -34 0 -35 0 -2 118 -2 117 -3 -118 -4 -117 -34 0 -35 0 -2
78 -2 77 -3 -77 -4 -78 -34 0 -35 0 -2 78 -2 77 -3 -77 -4 -78 -34 0 -35 0 -2
78 -2 77 -3 -77 -4 -78 -34 0 -35 0 -2 78 -2 77 -3 -77 -4 -78 -34 0 -35 0 -2
128 -2 127 -3 -128 -4 -127 -391 0 -392 0 49 51 50 51 159 -6 c87 -3 156 -2
152 2 -10 10 -7 9 -163 11 l-137 1 44 46 45 45 157 -3 c86 -2 154 0 150 4 -4
4 -69 8 -145 9 -75 0 -137 4 -137 8 0 4 19 26 43 49 40 39 46 42 87 37 84 -9
265 -13 235 -5 -16 4 -66 8 -110 9 -44 1 -97 5 -118 9 l-38 7 43 41 43 41 115
-9 c63 -5 131 -7 150 -5 19 1 -19 6 -85 10 -66 5 -130 12 -143 15 -22 7 -22 8
17 46 l40 39 188 -17 c199 -17 229 -19 222 -11 -3 2 -90 12 -194 21 -105 9
-192 18 -195 21 -2 2 14 21 35 42 l40 38 115 -13 c63 -7 129 -13 145 -12 50 1
-36 15 -143 23 -51 4 -94 11 -97 15 -2 4 13 23 33 42 l37 36 110 -13 c61 -8
125 -16 143 -19 18 -3 30 -1 28 3 -3 4 -58 13 -123 21 -65 7 -124 15 -131 19
-8 5 -1 18 25 43 l38 36 120 -19 c129 -20 180 -23 133 -9 -15 4 -74 14 -132
21 -58 7 -106 16 -106 19 0 3 16 21 35 40 l34 33 108 -17 c59 -9 122 -19 138
-22 20 -3 25 -2 15 4 -8 5 -68 17 -133 27 l-119 18 39 37 38 38 640 -114 c740
-131 717 -127 690 -114 -11 5 -310 59 -665 121 -355 62 -647 114 -649 116 -3
2 11 19 30 38 l34 34 125 -24 c69 -14 130 -25 135 -24 24 1 -38 18 -130 34
-55 10 -103 21 -108 25 -4 3 8 20 25 38 l33 31 133 -28 c72 -16 132 -25 132
-22 0 4 -53 17 -118 30 -64 13 -120 27 -125 30 -4 4 8 21 25 38 l33 32 124
-30 c68 -16 126 -27 128 -25 6 5 -35 16 -154 43 -46 10 -83 20 -83 24 0 3 14
18 30 34 l30 29 118 -28 c64 -16 124 -31 132 -34 10 -3 12 -2 5 5 -5 6 -61 23
-122 38 -62 15 -113 30 -113 34 0 4 13 19 28 34 l28 27 168 -46 c92 -25 173
-43 179 -41 5 1 -64 22 -154 46 -90 24 -167 47 -172 50 -4 4 6 20 22 36 l30
28 58 -16 c32 -9 89 -26 127 -37 38 -11 65 -16 60 -11 -5 5 -35 16 -66 25 -32
9 -83 23 -114 32 l-56 16 28 29 c15 16 35 29 43 29 9 0 65 -16 125 -35 61 -19
112 -32 114 -30 6 6 -1 8 -121 44 -55 16 -102 32 -105 35 -9 9 40 56 58 56 9
0 63 -16 120 -35 113 -38 119 -39 104 -26 -5 5 -55 23 -111 40 -57 18 -103 35
-103 40 0 4 11 18 25 31 l26 24 115 -38 c64 -21 117 -36 119 -34 3 2 -45 21
-105 42 -61 21 -110 41 -110 44 0 10 43 52 53 52 5 0 141 -48 301 -106 160
-58 334 -121 386 -140 52 -19 90 -31 85 -25 -6 5 -180 71 -388 147 l-378 137
29 29 29 29 108 -40 c59 -23 113 -41 119 -40 6 0 -37 19 -96 42 -58 23 -109
45 -112 48 -3 3 7 17 22 32 l27 26 109 -45 c60 -25 111 -43 113 -40 5 5 -15
14 -135 61 -39 15 -72 31 -72 35 0 4 11 17 25 30 l24 23 78 -33 c141 -59 148
-62 138 -52 -9 10 -110 55 -182 83 l-26 10 23 24 c13 14 29 25 37 25 7 0 58
-20 114 -45 56 -25 104 -43 107 -41 4 5 -34 23 -160 78 -27 11 -48 24 -48 27
0 4 11 18 24 30 l23 22 144 -67 c79 -36 147 -68 151 -71 5 -2 8 -1 8 4 0 4
-66 37 -145 73 -79 36 -145 68 -145 71 0 3 11 16 25 29 l26 24 106 -52 c58
-29 108 -51 111 -48 3 3 -43 29 -102 57 l-108 52 26 26 26 26 106 -53 c59 -29
109 -51 111 -48 3 3 -40 28 -96 55 -56 28 -101 54 -101 58 0 12 33 43 45 43 7
0 56 -23 109 -51 53 -28 96 -48 96 -45 0 3 -43 28 -95 57 -52 28 -95 54 -95
58 0 4 10 17 23 29 l22 21 98 -56 c54 -30 101 -53 103 -50 3 3 -38 28 -90 57
-53 28 -96 54 -96 57 0 12 33 43 46 43 7 0 110 -56 230 -125 119 -69 219 -124
221 -121 2 2 -95 61 -217 131 -121 70 -220 130 -220 134 0 17 40 43 56 37 10
-4 55 -29 101 -57 46 -28 86 -49 89 -46 2 2 -38 30 -91 61 -52 31 -95 61 -95
65 0 15 39 43 54 38 8 -3 51 -29 96 -57 45 -28 84 -49 86 -47 2 2 -34 28 -81
56 -46 29 -87 57 -91 62 -6 11 23 49 38 49 5 0 35 -17 66 -38 82 -55 132 -84
132 -78 0 3 -43 34 -96 68 l-96 61 26 26 26 25 91 -62 c51 -34 94 -61 96 -58
2 2 -37 32 -88 66 l-91 62 25 25 24 25 119 -84 c139 -98 149 -105 141 -91 -3
5 -57 45 -119 88 -62 43 -117 82 -122 86 -11 10 21 49 39 49 6 0 49 -27 94
-61 46 -33 85 -58 87 -56 3 2 -34 32 -81 66 -47 34 -85 66 -85 70 0 16 39 43
52 35 7 -4 48 -34 91 -67 43 -32 80 -57 83 -54 3 2 -36 35 -86 72 l-91 68 24
25 25 25 86 -68 c48 -37 89 -66 91 -63 2 2 -28 28 -66 58 -39 30 -78 61 -87
67 -14 11 -14 15 3 33 10 11 23 20 30 20 6 0 42 -25 81 -57 38 -31 76 -61 84
-66 22 -14 -47 51 -106 99 -49 41 -49 42 -30 63 11 11 22 21 26 21 3 0 71 -54
150 -120 78 -66 144 -120 146 -120 11 0 -9 19 -142 130 l-145 123 22 23 c26
28 24 29 117 -54 40 -36 75 -63 77 -60 3 3 -31 35 -75 73 -44 38 -80 71 -80
74 0 4 10 15 22 25 25 22 22 23 117 -63 39 -34 71 -59 70 -55 0 5 -34 38 -75
74 -41 36 -74 68 -74 71 0 3 9 16 20 29 l21 24 57 -55 c31 -30 69 -63 83 -74
14 -11 -10 15 -54 58 l-80 77 23 20 c13 11 26 20 29 20 3 0 38 -32 78 -72 40
-40 75 -69 78 -66 3 3 -29 38 -71 77 l-77 72 19 22 c10 12 20 24 22 26 1 3 52
-44 112 -104 60 -60 112 -107 115 -104 3 3 -44 54 -105 112 l-109 107 24 24
24 24 76 -79 c43 -43 80 -79 83 -79 4 0 -16 24 -44 53 -27 28 -61 66 -76 82
l-27 30 21 25 21 25 78 -85 c44 -46 79 -81 79 -76 0 4 -33 44 -74 88 l-74 79
21 23 22 24 77 -82 c43 -44 78 -78 78 -74 0 4 -31 42 -70 85 -38 43 -70 80
-70 83 0 3 11 13 25 22 23 18 23 18 91 -60 38 -42 70 -79 71 -81 2 -2 5 -2 7
0 2 2 -27 41 -66 86 l-70 82 19 25 c10 14 20 25 23 25 3 0 57 -62 120 -139 63
-76 119 -139 124 -139 5 -1 0 9 -11 22 -11 12 -66 77 -122 145 l-103 123 24
19 c13 11 25 19 28 20 3 0 34 -36 69 -80 36 -44 66 -78 69 -75 2 2 -26 41 -63
85 l-68 82 25 24 24 25 68 -86 c37 -47 70 -85 72 -85 8 0 -6 19 -68 98 -32 40
-58 76 -58 80 1 10 40 56 44 51 1 -2 31 -41 65 -86 34 -46 64 -83 68 -83 3 0
-6 15 -19 33 -13 17 -44 58 -67 89 l-43 58 23 20 c13 10 26 19 29 19 3 1 32
-37 65 -84 33 -46 64 -85 69 -85 5 0 4 6 -1 13 -6 6 -36 47 -68 91 l-57 78 25
25 25 25 88 -126 c48 -69 90 -124 92 -121 2 2 -32 55 -77 118 -44 63 -83 120
-86 128 -4 12 93 127 99 117 1 -2 29 -45 61 -95 32 -51 61 -91 63 -88 3 3 -20
43 -51 90 -31 46 -58 88 -59 92 -2 5 7 21 19 36 l21 27 58 -92 c68 -109 63
-102 68 -97 3 2 -22 47 -55 99 l-59 94 25 25 c13 14 26 23 28 20 2 -2 27 -44
56 -92 29 -49 55 -86 58 -84 2 3 -21 46 -52 97 l-56 93 22 23 c12 13 25 21 30
19 4 -3 63 -101 130 -219 68 -118 126 -213 128 -210 2 2 -53 103 -123 225
l-128 221 23 24 c12 13 26 21 30 18 5 -2 30 -45 56 -94 26 -49 52 -90 56 -90
5 0 -2 19 -15 43 -14 23 -40 68 -58 100 l-32 58 23 25 c12 13 25 24 28 24 3 0
28 -43 55 -95 27 -52 51 -93 54 -91 2 3 -19 49 -48 102 l-52 96 26 26 c14 14
27 24 30 21 2 -2 25 -46 50 -98 26 -51 50 -91 53 -88 3 3 -18 49 -46 102 l-51
96 22 29 c13 16 25 29 28 29 3 0 27 -45 53 -101 26 -55 50 -98 53 -95 3 3 -17
50 -45 104 l-50 100 59 58 59 59 27 -60 c14 -32 35 -79 45 -103 11 -24 22 -42
24 -39 3 2 -16 50 -41 106 l-45 102 23 30 c13 16 25 29 28 29 3 0 25 -47 49
-105 24 -58 45 -103 48 -101 2 3 -16 52 -40 109 l-45 103 26 28 c14 15 29 24
33 20 3 -5 23 -52 44 -105 21 -54 42 -98 45 -98 4 0 -13 50 -38 110 l-45 110
62 65 c58 60 62 63 70 42 5 -12 66 -179 135 -372 70 -192 132 -356 137 -365
18 -27 0 25 -137 400 l-132 365 26 28 c14 15 29 24 32 20 4 -5 22 -51 40 -103
18 -52 38 -99 43 -105 7 -7 7 -3 2 10 -4 11 -22 65 -41 119 l-34 100 27 28
c15 15 30 25 34 21 4 -5 22 -54 39 -111 18 -56 35 -101 37 -98 3 2 -12 55 -32
117 l-36 112 27 28 c16 16 31 26 35 22 4 -5 22 -56 40 -116 17 -59 34 -105 36
-103 3 2 -11 57 -31 122 l-35 117 29 34 c16 18 31 29 33 25 3 -4 12 -33 21
-64 42 -149 48 -169 53 -165 3 4 -40 168 -62 233 -2 7 11 26 29 43 l33 32 43
-163 c23 -90 47 -167 53 -173 7 -7 8 -4 4 7 -4 10 -25 90 -48 178 l-42 161 28
29 c16 17 32 27 36 23 3 -5 19 -60 34 -123 16 -63 30 -110 32 -103 2 6 -10 64
-26 129 l-30 119 33 34 34 34 28 -123 c16 -67 30 -117 32 -111 2 6 -9 63 -23
127 l-27 116 34 35 35 34 23 -113 c13 -62 27 -120 32 -128 10 -17 11 -23 -23
143 l-23 108 36 35 35 36 23 -126 c13 -69 26 -126 30 -126 4 0 -5 58 -19 130
l-25 130 34 35 c18 19 35 33 37 32 1 -2 54 -297 118 -657 102 -575 125 -697
125 -652 0 6 -52 306 -116 668 l-116 656 33 34 c18 19 36 31 39 27 4 -5 15
-62 25 -128 11 -66 20 -113 22 -105 2 9 -5 70 -16 135 l-19 120 36 38 37 38 7
-33 c4 -18 12 -77 19 -130 7 -54 15 -98 20 -98 4 0 5 8 3 18 -2 9 -11 70 -19
136 l-17 118 38 39 c21 21 39 38 40 36 1 -1 7 -47 14 -102 13 -122 21 -167 27
-162 2 2 -4 66 -13 142 l-16 137 39 40 40 40 11 -102 c7 -55 12 -114 12 -130
0 -16 5 -32 11 -36 8 -4 9 3 5 22 -3 16 -10 80 -17 143 l-11 113 38 39 c38 39
39 39 45 16 3 -13 12 -98 19 -190 7 -92 17 -170 21 -173 5 -3 6 14 4 38 -3 24
-12 115 -20 203 l-14 160 43 44 44 44 7 -119 c3 -66 11 -130 16 -144 7 -20 8
-16 4 20 -2 25 -7 92 -10 150 l-7 105 46 45 46 44 1 -74 c1 -41 5 -109 9 -150
6 -51 7 -24 3 80 l-5 155 46 45 46 44 1 -74 c1 -41 5 -109 9 -150 6 -50 6 -24
3 79 l-5 154 103 103 c57 57 104 104 104 104 0 0 -1 -279 -3 -620z"/>
<path d="M6294 6120 c0 -85 2 -120 3 -77 2 42 2 112 0 155 -1 42 -3 7 -3 -78z"/>
<path d="M6504 6120 c0 -85 2 -120 3 -77 2 42 2 112 0 155 -1 42 -3 7 -3 -78z"/>
<path d="M6320 5038 c-57 -39 -75 -72 -75 -138 0 -97 58 -155 155 -155 92 0
150 54 158 147 3 44 0 59 -20 88 -54 79 -149 105 -218 58z m150 -21 c19 -12
43 -38 54 -57 11 -19 16 -32 12 -28 -5 4 -18 3 -31 -2 -17 -6 -44 -1 -101 20
-59 22 -81 27 -91 18 -11 -9 -12 -13 -1 -19 9 -6 4 -9 -14 -9 -32 0 -34 7 -12
39 43 60 126 78 184 38z m-154 -96 c16 -5 55 -17 87 -26 31 -9 57 -21 57 -26
0 -5 7 -9 15 -9 8 0 15 -9 15 -20 0 -11 5 -20 11 -20 7 0 9 8 4 23 -18 58 -17
65 5 72 29 9 34 2 25 -42 -8 -46 -62 -100 -110 -109 -84 -15 -165 54 -165 142
0 26 11 29 56 15z"/>
<path d="M6310 4847 c0 -32 1 -33 40 -32 38 0 40 2 40 30 0 28 -3 30 -40 33
-39 2 -40 2 -40 -31z m17 -9 c-3 -8 -6 -5 -6 6 -1 11 2 17 5 13 3 -3 4 -12 1
-19z m20 0 c-3 -8 -6 -5 -6 6 -1 11 2 17 5 13 3 -3 4 -12 1 -19z"/>
<path d="M6404 4845 c0 -24 4 -35 13 -35 8 0 11 4 8 10 -3 5 -1 18 4 27 9 16
10 16 11 -4 0 -12 5 -25 10 -28 6 -3 10 5 10 19 0 23 -24 46 -47 46 -4 0 -8
-16 -9 -35z"/>
<path d="M6390 4460 c0 -127 4 -200 10 -200 6 0 10 73 10 200 0 127 -4 200
-10 200 -6 0 -10 -73 -10 -200z"/>
<path d="M4630 4604 c0 -5 15 -47 33 -94 18 -47 36 -94 40 -104 4 -10 10 -17
12 -14 5 4 -71 207 -81 217 -2 2 -4 0 -4 -5z"/>
<path d="M8127 4518 c-51 -134 -51 -134 -40 -123 13 13 86 205 80 211 -2 2
-20 -37 -40 -88z"/>
<path d="M4370 4347 c0 -3 23 -55 51 -114 28 -59 58 -123 66 -142 8 -18 16
-31 19 -28 3 2 -24 66 -59 141 -60 128 -77 159 -77 143z"/>
<path d="M8407 4319 c-8 -19 -38 -83 -66 -143 -29 -60 -50 -111 -47 -113 3 -3
11 10 19 28 8 19 38 83 66 143 29 60 50 111 47 113 -3 3 -11 -10 -19 -28z"/>
<path d="M6317 4196 c-48 -18 -106 -62 -125 -96 -15 -26 -20 -28 -151 -39
-577 -48 -1156 -228 -1661 -516 -492 -280 -967 -710 -1302 -1178 -324 -452
-564 -1002 -673 -1542 -24 -118 -56 -318 -51 -322 2 -3 230 -31 233 -29 1 1 9
48 18 104 107 713 415 1381 892 1935 98 113 313 326 426 421 598 504 1355 821
2118 887 l134 11 50 -49 c54 -52 104 -73 176 -73 74 0 117 18 172 72 l52 50
80 -7 c587 -46 1163 -231 1665 -533 288 -173 496 -337 746 -586 493 -494 838
-1103 1003 -1774 38 -153 81 -381 81 -428 0 -12 3 -25 8 -27 6 -4 52 0 190 19
l44 5 -7 62 c-41 369 -194 863 -385 1249 -202 407 -449 748 -780 1078 -687
687 -1587 1100 -2562 1176 -49 4 -88 10 -88 15 0 18 -65 81 -104 101 -51 26
-148 33 -199 14z"/>
<path d="M3832 3802 c8 -22 114 -171 121 -172 4 0 -20 41 -53 90 -33 50 -63
90 -66 90 -3 0 -4 -4 -2 -8z"/>
<path d="M8901 3720 c-34 -49 -58 -90 -54 -90 10 1 126 171 120 176 -2 3 -32
-36 -66 -86z"/>
<path d="M6901 3711 c-23 -23 -36 -79 -26 -111 4 -12 18 -26 31 -32 35 -16 65
15 71 75 4 36 1 49 -16 66 -26 26 -36 26 -60 2z m57 -31 c2 -13 -1 -41 -8 -63
-9 -31 -15 -38 -33 -35 -19 3 -22 9 -21 50 0 50 18 81 43 76 9 -2 18 -14 19
-28z"/>
<path d="M5788 3709 c-21 -12 -24 -67 -5 -75 8 -3 12 -16 9 -33 -7 -51 54 -65
79 -19 8 15 7 24 -6 38 -11 12 -13 20 -6 25 17 10 13 40 -7 58 -21 19 -39 21
-64 6z m50 -18 c23 -14 10 -46 -21 -49 -23 -3 -27 0 -27 21 0 36 19 47 48 28z
m15 -83 c7 -21 -4 -38 -23 -38 -10 0 -20 6 -23 13 -7 20 4 37 23 37 10 0 20
-6 23 -12z"/>
<path d="M7015 3677 c-18 -29 -22 -101 -6 -120 11 -14 9 -32 -15 -145 -3 -15
-1 -21 6 -17 5 3 10 15 10 25 0 11 5 41 11 69 8 38 15 50 33 55 12 3 28 17 34
31 15 34 15 98 0 113 -20 20 -56 14 -73 -11z m63 -35 c5 -67 -33 -109 -57 -64
-12 22 2 91 21 103 23 15 33 4 36 -39z"/>
<path d="M5656 3674 c-10 -25 -7 -81 6 -108 13 -31 40 -41 68 -26 16 8 20 21
20 58 0 59 -21 92 -59 92 -17 0 -31 -7 -35 -16z m64 -13 c5 -11 10 -38 10 -61
0 -47 -24 -65 -46 -35 -14 19 -19 96 -7 108 12 13 32 7 43 -12z"/>
<path d="M7151 3611 c-6 -39 -11 -75 -11 -81 0 -12 22 -2 55 25 20 16 19 16
-6 11 -26 -6 -26 -5 -18 37 11 55 11 77 0 77 -4 0 -13 -31 -20 -69z"/>
<path d="M6390 3520 c0 -47 4 -80 10 -80 6 0 10 33 10 80 0 47 -4 80 -10 80
-6 0 -10 -33 -10 -80z"/>
<path d="M6084 3551 c3 -18 6 -53 6 -77 0 -24 4 -44 8 -44 10 0 -2 138 -13
148 -4 4 -5 -8 -1 -27z"/>
<path d="M6706 3549 c-9 -58 -12 -119 -5 -119 6 0 20 142 14 149 -2 1 -6 -12
-9 -30z"/>
<path d="M7545 3557 c-22 -18 -29 -34 -33 -75 -4 -47 -3 -52 19 -61 33 -12 58
3 75 46 19 45 15 82 -12 100 -20 13 -25 12 -49 -10z m49 -46 c-1 -29 -8 -49
-22 -64 -20 -20 -23 -20 -38 -5 -14 13 -14 21 -4 52 24 75 66 86 64 17z"/>
<path d="M5177 3477 c-3 -45 -4 -83 -3 -84 7 -7 95 30 90 38 -3 5 -20 3 -38
-5 l-33 -14 5 68 c2 39 0 70 -5 73 -6 4 -12 -26 -16 -76z"/>
<path d="M5774 3518 c4 -18 9 -52 13 -76 3 -23 10 -45 15 -48 5 -3 7 5 4 18
-3 12 -10 49 -16 81 -6 31 -14 57 -17 57 -3 0 -3 -15 1 -32z"/>
<path d="M7666 3473 c-10 -32 -25 -69 -33 -81 -8 -13 -23 -47 -33 -75 -10 -29
-21 -61 -26 -71 -4 -11 -4 -17 2 -14 5 4 20 38 33 76 23 65 27 71 63 83 21 7
38 16 38 21 0 5 -9 6 -20 3 -25 -8 -25 2 -1 65 14 36 16 50 7 50 -7 0 -20 -26
-30 -57z"/>
<path d="M5038 3509 c-25 -14 -23 -75 2 -116 15 -25 27 -33 49 -33 31 0 41 14
41 56 0 33 -25 81 -49 94 -23 12 -22 12 -43 -1z m57 -39 c17 -34 20 -86 4 -95
-15 -10 -48 24 -58 59 -16 61 26 90 54 36z"/>
<path d="M6270 3482 c0 -23 5 -42 10 -42 7 0 8 14 4 38 -9 51 -14 53 -14 4z"/>
<path d="M6330 3481 c0 -23 5 -41 10 -41 12 0 10 69 -2 76 -4 3 -8 -13 -8 -35z"/>
<path d="M6458 3513 c-10 -19 -8 -73 1 -73 6 0 11 18 11 40 0 38 -4 49 -12 33z"/>
<path d="M6518 3486 c-7 -39 -4 -55 8 -44 3 3 4 23 2 44 l-3 39 -7 -39z"/>
<path d="M6150 3472 c0 -23 4 -42 9 -42 6 0 7 17 4 38 -8 51 -13 53 -13 4z"/>
<path d="M6210 3475 c0 -19 4 -35 8 -35 4 0 6 16 4 35 -2 19 -6 35 -8 35 -2 0
-4 -16 -4 -35z"/>
<path d="M6578 3475 c-2 -19 0 -35 4 -35 4 0 8 16 8 35 0 19 -2 35 -4 35 -2 0
-6 -16 -8 -35z"/>
<path d="M6639 3475 c-6 -40 -4 -53 7 -43 3 3 4 23 2 44 l-3 39 -6 -40z"/>
<path d="M6030 3462 c0 -23 4 -42 9 -42 6 0 7 17 4 38 -8 51 -13 53 -13 4z"/>
<path d="M6759 3465 c-6 -40 -4 -53 7 -43 3 3 4 23 2 44 l-3 39 -6 -40z"/>
<path d="M7771 3446 c-11 -31 -23 -66 -26 -79 -6 -24 -6 -24 29 -13 37 11 51
32 16 23 -25 -6 -25 -4 0 60 11 29 16 55 11 58 -5 3 -19 -19 -30 -49z"/>
<path d="M5970 3455 c0 -19 4 -35 8 -35 4 0 6 16 4 35 -2 19 -6 35 -8 35 -2 0
-4 -16 -4 -35z"/>
<path d="M6818 3455 c-2 -19 0 -35 4 -35 4 0 8 16 8 35 0 19 -2 35 -4 35 -2 0
-6 -16 -8 -35z"/>
<path d="M5910 3445 c0 -19 4 -35 8 -35 4 0 6 16 4 35 -2 19 -6 35 -8 35 -2 0
-4 -16 -4 -35z"/>
<path d="M6878 3445 c-2 -19 0 -35 4 -35 4 0 8 16 8 35 0 19 -2 35 -4 35 -2 0
-6 -16 -8 -35z"/>
<path d="M5471 3460 c0 -8 8 -44 19 -80 10 -36 19 -56 19 -45 0 11 -8 47 -18
80 -11 33 -19 53 -20 45z"/>
<path d="M5850 3437 c0 -20 4 -37 10 -37 5 0 7 14 3 33 -8 45 -13 47 -13 4z"/>
<path d="M6939 3440 c-7 -35 -4 -48 7 -38 3 4 4 21 2 40 l-3 33 -6 -35z"/>
<path d="M7307 3412 c-9 -34 -17 -70 -16 -79 0 -10 9 13 20 51 11 38 18 73 16
79 -1 5 -11 -18 -20 -51z"/>
<path d="M5728 3420 c2 -17 9 -33 15 -37 7 -4 8 0 4 11 -4 10 -7 26 -7 37 0
10 -4 19 -8 19 -5 0 -7 -14 -4 -30z"/>
<path d="M7060 3431 c0 -11 -3 -27 -7 -37 -4 -11 -3 -15 4 -11 13 8 23 67 11
67 -4 0 -8 -9 -8 -19z"/>
<path d="M5670 3404 c5 -19 12 -39 16 -42 4 -4 4 4 1 18 -4 14 -7 33 -7 43 0
9 -4 17 -9 17 -5 0 -5 -15 -1 -36z"/>
<path d="M7120 3423 c0 -10 -3 -29 -7 -43 -3 -14 -3 -22 1 -18 12 11 25 78 15
78 -5 0 -9 -8 -9 -17z"/>
<path d="M5612 3390 c6 -23 13 -39 15 -36 7 7 -8 76 -17 76 -4 0 -3 -18 2 -40z"/>
<path d="M7175 3394 c-9 -50 0 -53 13 -4 5 22 6 40 2 40 -4 0 -11 -16 -15 -36z"/>
<path d="M5551 3395 c0 -11 4 -29 9 -40 l9 -20 0 20 c0 11 -4 29 -9 40 l-9 20
0 -20z"/>
<path d="M7235 3380 c-4 -17 -5 -34 -2 -36 3 -3 8 9 12 26 4 17 5 34 2 36 -3
3 -8 -9 -12 -26z"/>
<path d="M5170 3372 c0 -6 8 -33 18 -59 11 -26 22 -57 26 -67 3 -10 8 -17 11
-15 4 5 -42 139 -51 148 -2 2 -4 -1 -4 -7z"/>
<path d="M5436 3350 c6 -36 11 -46 18 -39 2 2 -3 20 -10 39 l-14 35 6 -35z"/>
<path d="M7353 3345 c-6 -19 -8 -35 -3 -35 8 0 23 60 17 67 -2 1 -8 -13 -14
-32z"/>
<path d="M5371 3358 c-1 -21 18 -72 24 -66 3 3 -1 22 -9 44 -8 21 -15 31 -15
22z"/>
<path d="M7413 3335 c-7 -21 -10 -41 -8 -43 7 -7 26 50 23 67 -2 9 -9 -2 -15
-24z"/>
<path d="M6390 1920 c0 -953 3 -1440 10 -1440 7 0 10 487 10 1440 0 953 -3
1440 -10 1440 -7 0 -10 -487 -10 -1440z"/>
<path d="M5311 3340 c0 -8 6 -28 14 -45 7 -16 14 -23 14 -15 0 8 -6 29 -14 45
-7 17 -14 23 -14 15z"/>
<path d="M7470 3315 c-7 -20 -10 -39 -7 -41 3 -3 10 11 17 31 7 20 10 39 7 41
-3 3 -10 -11 -17 -31z"/>
<path d="M5251 3325 c0 -6 7 -26 15 -45 l14 -35 -5 35 c-5 30 -26 70 -24 45z"/>
<path d="M7530 3306 c-5 -15 -10 -35 -9 -44 0 -9 7 1 15 22 8 22 12 41 9 44
-2 3 -9 -7 -15 -22z"/>
<path d="M8125 3304 c-8 -9 -22 -29 -31 -46 -45 -86 46 -125 94 -39 26 46 27
64 6 85 -20 20 -48 20 -69 0z m61 -18 c8 -20 -24 -84 -48 -97 -41 -22 -51 22
-17 77 21 35 55 45 65 20z"/>
<path d="M4580 3293 c-34 -13 -41 -60 -12 -86 25 -23 48 -21 66 5 13 18 16 19
21 5 13 -31 1 -52 -29 -50 -17 1 -26 -2 -23 -10 6 -20 42 -19 62 3 16 18 17
25 6 59 -6 22 -23 49 -38 60 -27 22 -29 23 -53 14z m40 -28 c6 -8 10 -22 8
-32 -5 -25 -51 -25 -56 0 -8 42 23 63 48 32z"/>
<path d="M5141 3280 c0 -18 27 -79 28 -64 1 7 -6 27 -14 45 -8 19 -14 27 -14
19z"/>
<path d="M7641 3254 c-7 -20 -11 -38 -8 -40 3 -3 10 11 17 31 16 47 8 55 -9 9z"/>
<path d="M8240 3261 c0 -5 14 -14 30 -21 41 -17 38 -26 -10 -34 -49 -8 -84
-39 -75 -67 4 -13 -6 -42 -30 -85 -20 -36 -35 -67 -33 -69 2 -3 21 25 41 60
34 59 39 64 65 59 20 -4 32 0 42 11 13 16 12 17 -16 11 -22 -5 -35 -2 -44 9
-18 22 -2 36 62 55 28 9 53 21 55 27 3 7 -14 21 -36 32 -45 23 -51 25 -51 12z"/>
<path d="M4880 3257 c0 -15 60 -140 66 -135 3 3 -11 37 -30 74 -19 38 -35 66
-36 61z"/>
<path d="M5085 3245 c4 -11 10 -28 12 -37 3 -10 9 -18 14 -18 5 0 3 12 -3 28
-14 33 -35 57 -23 27z"/>
<path d="M7700 3235 c-6 -15 -13 -32 -16 -36 -3 -5 -1 -9 3 -9 10 0 35 61 28
68 -2 3 -9 -8 -15 -23z"/>
<path d="M7882 3194 c-18 -37 -31 -69 -28 -72 3 -3 20 25 37 63 39 87 33 94
-9 9z"/>
<path d="M4458 3218 c-24 -24 -18 -57 18 -105 26 -35 43 -40 75 -23 26 15 24
58 -5 101 -31 45 -61 54 -88 27z m70 -38 c26 -39 28 -68 5 -77 -34 -13 -92 89
-62 108 20 13 31 7 57 -31z"/>
<path d="M5032 3210 c9 -27 28 -50 28 -35 0 9 -30 65 -35 65 -2 0 1 -14 7 -30z"/>
<path d="M7755 3210 c-17 -33 -19 -44 -6 -36 10 6 33 66 26 66 -3 0 -11 -13
-20 -30z"/>
<path d="M4971 3205 c0 -5 6 -21 14 -35 8 -14 14 -20 14 -15 0 6 -6 21 -14 35
-8 14 -14 21 -14 15z"/>
<path d="M5380 3200 c0 -7 162 -10 465 -10 303 0 465 3 465 10 0 7 -162 10
-465 10 -303 0 -465 -3 -465 -10z"/>
<path d="M6480 3200 c0 -7 163 -10 470 -10 307 0 470 3 470 10 0 7 -163 10
-470 10 -307 0 -470 -3 -470 -10z"/>
<path d="M7812 3185 c-17 -37 -14 -45 4 -12 9 16 14 31 11 33 -2 2 -9 -7 -15
-21z"/>
<path d="M8343 3133 c-21 -38 -39 -71 -41 -75 -5 -10 60 2 73 13 5 5 0 9 -13
9 -23 0 -28 9 -14 26 24 26 52 83 43 88 -5 3 -27 -24 -48 -61z"/>
<path d="M4860 3156 c0 -11 30 -66 36 -66 2 0 -3 15 -12 33 -19 36 -24 44 -24
33z"/>
<path d="M7917 3125 c-9 -19 -15 -35 -12 -35 7 0 37 61 33 66 -3 2 -12 -12
-21 -31z"/>
<path d="M4800 3135 c0 -13 32 -66 36 -62 6 6 -23 67 -31 67 -3 0 -5 -2 -5 -5z"/>
<path d="M7975 3110 c-9 -18 -14 -34 -11 -37 2 -3 12 9 21 27 9 18 14 34 11
37 -2 3 -12 -9 -21 -27z"/>
<path d="M4600 3115 c0 -11 74 -134 78 -130 2 2 -13 33 -33 69 -33 60 -45 76
-45 61z"/>
<path d="M4750 3099 c0 -8 10 -25 21 -39 l20 -25 -17 35 c-20 43 -24 47 -24
29z"/>
<path d="M8027 3073 l-18 -38 20 25 c18 22 28 50 18 50 -2 0 -11 -17 -20 -37z"/>
<path d="M4707 3048 c9 -21 21 -38 25 -38 10 0 -2 25 -26 55 -14 17 -14 14 1
-17z"/>
<path d="M8094 3068 c-4 -7 -14 -23 -22 -35 -8 -13 -10 -23 -5 -23 5 0 17 16
26 35 16 33 16 49 1 23z"/>
<path d="M4590 3017 c0 -14 31 -69 36 -64 3 3 -4 20 -15 38 -12 19 -21 30 -21
26z"/>
<path d="M8187 2988 c-10 -17 -16 -33 -13 -35 2 -3 12 9 21 27 21 41 15 48 -8
8z"/>
<path d="M4544 2962 c9 -17 21 -34 27 -37 6 -4 4 7 -5 23 -9 17 -21 34 -27 37
-6 4 -4 -7 5 -23z"/>
<path d="M8253 2978 c-19 -25 -35 -61 -24 -54 6 4 18 20 26 37 16 30 15 38 -2
17z"/>
<path d="M8641 2925 c-45 -52 -38 -105 14 -105 30 0 60 24 79 65 36 75 -35
106 -93 40z m78 11 c16 -19 -9 -69 -44 -92 -52 -34 -62 22 -13 73 36 37 41 39
57 19z"/>
<path d="M4371 2889 c43 -61 80 -98 44 -43 -59 88 -71 104 -78 104 -5 0 11
-27 34 -61z"/>
<path d="M4502 2915 c11 -20 23 -34 25 -31 6 6 -29 66 -39 66 -4 0 2 -16 14
-35z"/>
<path d="M8286 2919 c-10 -17 -16 -33 -13 -35 2 -3 14 11 25 31 12 19 18 35
14 35 -4 0 -16 -14 -26 -31z"/>
<path d="M8430 2913 c-57 -86 -64 -97 -54 -91 16 10 96 128 87 128 -4 0 -19
-17 -33 -37z"/>
<path d="M4032 2924 c-24 -17 -29 -52 -9 -76 20 -25 44 -28 70 -8 23 18 26 18
31 3 4 -10 -2 -25 -15 -40 -31 -32 -20 -37 16 -9 l30 24 -17 36 c-18 36 -38
48 -38 21 0 -21 -31 -35 -52 -24 -38 20 -13 78 27 63 8 -4 15 -2 15 4 0 5 -7
13 -16 16 -20 8 -16 9 -42 -10z"/>
<path d="M4439 2905 c14 -30 40 -61 41 -50 0 6 -12 24 -26 40 -14 17 -21 21
-15 10z"/>
<path d="M8341 2891 c-24 -33 -28 -56 -5 -26 20 26 36 55 30 55 -3 0 -14 -13
-25 -29z"/>
<path d="M8774 2880 c-23 -9 -38 -36 -28 -51 3 -5 -2 -9 -10 -9 -17 0 -39 -34
-29 -43 3 -4 -6 -21 -20 -39 -67 -86 -74 -98 -25 -46 42 46 56 55 70 48 18
-11 48 -3 48 12 0 5 -8 7 -19 3 -21 -6 -46 18 -36 36 4 6 18 9 31 6 28 -5 28
-4 12 23 -11 16 -10 23 5 37 22 22 53 6 50 -26 -3 -22 11 -29 22 -11 8 13 -11
47 -33 59 -9 5 -26 5 -38 1z"/>
<path d="M3925 2834 c-42 -43 53 -149 104 -117 29 18 25 58 -9 97 -35 39 -68
46 -95 20z m70 -25 c53 -47 45 -111 -10 -75 -35 23 -60 73 -44 92 15 18 13 19
54 -17z"/>
<path d="M4331 2845 c0 -5 11 -23 24 -40 14 -16 25 -25 25 -20 0 6 -11 24 -25
40 -13 17 -24 26 -24 20z"/>
<path d="M8440 2820 c-29 -41 -20 -49 9 -9 13 17 21 33 18 35 -3 3 -15 -9 -27
-26z"/>
<path d="M4300 2779 c12 -16 24 -28 27 -25 6 6 -29 55 -40 56 -5 0 1 -14 13
-31z"/>
<path d="M4800 2800 c0 -7 258 -10 754 -10 493 0 757 3 761 10 4 7 -250 10
-754 10 -501 0 -761 -3 -761 -10z"/>
<path d="M6480 2800 c0 -7 258 -10 755 -10 497 0 755 3 755 10 0 7 -258 10
-755 10 -497 0 -755 -3 -755 -10z"/>
<path d="M8487 2784 c-11 -14 -17 -28 -14 -30 3 -3 15 9 27 25 12 17 18 31 13
31 -4 0 -16 -12 -26 -26z"/>
<path d="M8851 2741 c-28 -32 -51 -61 -51 -63 0 -7 70 -2 77 6 3 3 -3 6 -15 6
-28 0 -28 12 -1 36 30 27 62 74 51 74 -6 0 -33 -26 -61 -59z"/>
<path d="M4231 2775 c0 -12 48 -69 54 -64 2 2 -10 20 -26 39 -15 19 -28 31
-28 25z"/>
<path d="M8536 2745 c-15 -19 -23 -35 -19 -34 11 0 56 59 51 65 -3 2 -17 -11
-32 -31z"/>
<path d="M4090 2755 c0 -5 23 -35 51 -65 42 -45 45 -47 17 -11 -57 74 -68 86
-68 76z"/>
<path d="M4199 2713 c23 -35 41 -50 41 -35 0 4 -14 21 -32 38 l-31 29 22 -32z"/>
<path d="M8587 2712 c-26 -27 -36 -49 -17 -37 10 6 53 65 48 65 -3 0 -16 -13
-31 -28z"/>
<path d="M4320 2723 c0 -5 26 -7 57 -5 101 5 111 9 26 11 -46 0 -83 -2 -83 -6z"/>
<path d="M8320 2723 c0 -5 34 -8 75 -8 41 0 75 3 75 8 0 4 -34 7 -75 7 -41 0
-75 -3 -75 -7z"/>
<path d="M4098 2644 c13 -24 40 -49 47 -42 3 2 -9 18 -26 34 -24 22 -29 24
-21 8z"/>
<path d="M8675 2630 c-16 -16 -24 -30 -18 -30 10 0 34 24 47 48 12 20 2 14
-29 -18z"/>
<path d="M4358 2643 c23 -2 61 -2 85 0 23 2 4 4 -43 4 -47 0 -66 -2 -42 -4z"/>
<path d="M8320 2643 c0 -5 34 -8 75 -8 41 0 75 3 75 8 0 4 -34 7 -75 7 -41 0
-75 -3 -75 -7z"/>
<path d="M4040 2617 c0 -2 14 -16 32 -33 l32 -29 -25 32 c-20 27 -39 41 -39
30z"/>
<path d="M8721 2587 l-25 -32 32 29 c33 31 37 36 25 35 -5 0 -19 -14 -32 -32z"/>
<path d="M4000 2574 c0 -13 48 -59 55 -52 3 2 -9 17 -25 33 -17 16 -30 24 -30
19z"/>
<path d="M8765 2550 c-16 -17 -24 -30 -19 -30 13 0 59 48 52 55 -2 3 -17 -9
-33 -25z"/>
<path d="M4358 2563 c23 -2 61 -2 85 0 23 2 4 4 -43 4 -47 0 -66 -2 -42 -4z"/>
<path d="M8340 2564 c60 -8 130 -8 130 -1 0 4 -35 6 -77 6 -43 -1 -67 -3 -53
-5z"/>
<path d="M3905 2490 c32 -33 61 -57 64 -54 6 6 -100 114 -113 114 -6 0 16 -27
49 -60z"/>
<path d="M8880 2495 c-29 -30 -52 -57 -49 -59 3 -3 32 21 64 54 33 33 55 60
49 60 -5 0 -34 -25 -64 -55z"/>
<path d="M3980 2505 c13 -14 26 -25 28 -25 3 0 -5 11 -18 25 -13 14 -26 25
-28 25 -3 0 5 -11 18 -25z"/>
<path d="M8809 2503 l-24 -28 28 24 c15 14 27 26 27 28 0 8 -8 1 -31 -24z"/>
<path d="M9103 2485 c-38 -38 -41 -69 -8 -91 18 -12 26 -11 55 5 75 40 87 121
19 121 -22 0 -41 -10 -66 -35z m87 10 c16 -20 -8 -58 -50 -80 -59 -31 -70 16
-15 64 40 35 48 37 65 16z"/>
<path d="M4358 2483 c23 -2 61 -2 85 0 23 2 4 4 -43 4 -47 0 -66 -2 -42 -4z"/>
<path d="M8340 2484 c60 -8 130 -8 130 -1 0 4 -35 6 -77 6 -43 -1 -67 -3 -53
-5z"/>
<path d="M3613 2458 c-18 -17 -25 -19 -37 -9 -8 7 -17 8 -20 3 -3 -6 1 -15 9
-22 7 -6 11 -19 8 -27 -5 -13 -2 -15 11 -10 12 5 30 -3 56 -23 20 -16 39 -27
42 -25 8 8 -27 128 -38 132 -5 2 -19 -7 -31 -19z m37 -20 c0 -7 3 -24 7 -38
l6 -25 -26 24 c-21 19 -24 27 -16 38 14 16 29 17 29 1z"/>
<path d="M4642 2468 c-16 -16 -15 -65 1 -71 9 -3 9 -7 -1 -20 -10 -12 -11 -21
-2 -36 14 -28 65 -28 80 -1 13 24 3 26 -22 3 -17 -16 -20 -16 -36 1 -16 16
-16 18 7 35 23 18 23 18 2 24 -14 3 -21 13 -21 30 0 32 27 43 52 21 21 -20 37
-11 18 11 -15 18 -61 20 -78 3z"/>
<path d="M8066 2464 c-18 -17 -21 -50 -6 -59 6 -3 7 -17 4 -31 -12 -45 46 -75
76 -39 18 21 5 31 -15 12 -8 -9 -22 -14 -30 -11 -23 9 -18 41 8 48 l22 6 -25
13 c-32 16 -37 43 -11 56 16 9 24 7 41 -11 14 -16 20 -18 20 -7 0 37 -55 52
-84 23z"/>
<path d="M3870 2444 c0 -13 48 -59 55 -52 3 2 -9 17 -25 33 -17 16 -30 24 -30
19z"/>
<path d="M8895 2420 c-16 -17 -24 -30 -19 -30 13 0 59 48 52 55 -2 3 -17 -9
-33 -25z"/>
<path d="M9245 2420 c-3 -5 -13 -6 -22 -3 -12 5 -15 2 -10 -9 4 -11 -8 -26
-34 -47 -21 -18 -38 -35 -36 -40 1 -5 -24 -30 -56 -56 -32 -26 -55 -50 -53
-53 3 -2 33 20 68 50 57 50 68 56 122 61 32 3 61 8 64 11 3 4 -5 17 -18 31
-18 20 -21 28 -12 37 7 7 12 16 12 20 0 11 -18 10 -25 -2z m15 -71 c0 -5 -17
-9 -37 -9 l-38 1 24 19 c18 16 27 18 37 9 8 -6 14 -15 14 -20z"/>
<path d="M4098 2403 c29 -2 74 -2 100 0 26 2 2 3 -53 3 -55 0 -76 -1 -47 -3z"/>
<path d="M4355 2403 c95 -7 215 -7 215 0 0 4 -57 6 -127 5 -71 -1 -110 -3 -88
-5z"/>
<path d="M5178 2403 c210 -2 554 -2 765 0 210 1 38 2 -383 2 -421 0 -593 -1
-382 -2z"/>
<path d="M6852 2403 c207 -2 549 -2 760 0 211 1 41 2 -377 2 -418 0 -590 -1
-383 -2z"/>
<path d="M8283 2403 c37 -2 96 -2 130 0 34 2 4 3 -68 3 -71 0 -99 -1 -62 -3z"/>
<path d="M8608 2403 c29 -2 74 -2 100 0 26 2 2 3 -53 3 -55 0 -76 -1 -47 -3z"/>
<path d="M3852 2374 c15 -15 30 -26 33 -23 2 3 -10 16 -28 29 l-32 23 27 -29z"/>
<path d="M8935 2375 c-16 -14 -25 -25 -19 -25 6 0 21 11 34 25 30 32 24 31
-15 0z"/>
<path d="M3498 2379 c-27 -15 -22 -57 11 -89 40 -41 77 -48 104 -21 20 20 21
23 7 48 -16 28 -74 73 -94 73 -6 0 -19 -5 -28 -11z m79 -42 c38 -35 41 -67 7
-67 -25 0 -84 48 -84 69 0 42 29 41 77 -2z"/>
<path d="M3805 2330 c16 -16 33 -30 39 -30 5 0 -3 14 -19 30 -16 17 -33 30
-39 30 -5 0 3 -13 19 -30z"/>
<path d="M8975 2330 c-16 -16 -24 -30 -19 -30 6 0 23 14 39 30 16 17 24 30 19
30 -6 0 -23 -13 -39 -30z"/>
<path d="M4358 2323 c23 -2 61 -2 85 0 23 2 4 4 -43 4 -47 0 -66 -2 -42 -4z"/>
<path d="M8358 2323 c23 -2 59 -2 80 0 20 2 1 4 -43 4 -44 0 -61 -2 -37 -4z"/>
<path d="M9285 2276 l-59 -53 38 -7 c43 -8 60 -1 27 12 -22 8 -21 10 23 46 42
34 57 56 39 56 -5 0 -35 -24 -68 -54z"/>
<path d="M3695 2266 c33 -30 65 -55 70 -55 12 0 -82 85 -110 100 -11 6 7 -14
40 -45z"/>
<path d="M4155 2240 c44 -44 82 -80 85 -80 2 0 -31 36 -75 80 -44 44 -82 80
-85 80 -2 0 31 -36 75 -80z"/>
<path d="M8625 2240 c-44 -44 -75 -80 -70 -80 6 0 46 36 90 80 44 44 75 80 70
80 -6 0 -46 -36 -90 -80z"/>
<path d="M3765 2285 c17 -13 34 -24 38 -25 5 0 -5 11 -21 25 -17 14 -34 25
-38 25 -5 0 5 -11 21 -25z"/>
<path d="M9017 2285 c-37 -33 -24 -32 15 0 16 14 26 25 21 25 -4 0 -21 -12
-36 -25z"/>
<path d="M4358 2243 c23 -2 61 -2 85 0 23 2 4 4 -43 4 -47 0 -66 -2 -42 -4z"/>
<path d="M8358 2243 c23 -2 59 -2 80 0 20 2 1 4 -43 4 -44 0 -61 -2 -37 -4z"/>
<path d="M3670 2213 c0 -5 14 -19 30 -31 17 -13 30 -19 29 -15 0 11 -59 56
-59 46z"/>
<path d="M9096 2194 c-37 -32 -30 -39 9 -9 16 13 27 26 25 29 -3 2 -18 -7 -34
-20z"/>
<path d="M3639 2157 c14 -18 51 -42 51 -33 0 3 -15 15 -32 27 -24 17 -29 18
-19 6z"/>
<path d="M4358 2163 c23 -2 61 -2 85 0 23 2 4 4 -43 4 -47 0 -66 -2 -42 -4z"/>
<path d="M8358 2163 c23 -2 59 -2 80 0 20 2 1 4 -43 4 -44 0 -61 -2 -37 -4z"/>
<path d="M9135 2144 c-19 -15 -22 -21 -9 -15 18 9 52 41 43 41 -2 0 -17 -12
-34 -26z"/>
<path d="M3615 2095 c17 -13 35 -24 40 -25 6 0 -3 11 -20 25 -16 13 -34 24
-40 25 -5 0 4 -11 20 -25z"/>
<path d="M9165 2095 c-16 -14 -25 -25 -20 -25 6 0 24 11 40 25 17 13 26 24 20
24 -5 0 -23 -11 -40 -24z"/>
<path d="M4358 2083 c23 -2 61 -2 85 0 23 2 4 4 -43 4 -47 0 -66 -2 -42 -4z"/>
<path d="M8358 2083 c23 -2 59 -2 80 0 20 2 1 4 -43 4 -44 0 -61 -2 -37 -4z"/>
<path d="M3450 2067 c0 -3 29 -26 65 -51 36 -25 65 -42 65 -37 0 4 -26 26 -57
47 -64 43 -73 48 -73 41z"/>
<path d="M3580 2045 c19 -14 36 -25 39 -25 11 1 -50 50 -62 50 -6 0 4 -11 23
-25z"/>
<path d="M9203 2045 c-36 -32 -26 -32 17 0 19 14 29 25 23 25 -7 0 -25 -11
-40 -25z"/>
<path d="M9280 2029 c-30 -22 -57 -44 -58 -50 -2 -5 26 11 62 36 36 26 66 48
66 51 0 10 -18 0 -70 -37z"/>
<path d="M3833 2003 c75 -2 199 -2 275 0 75 1 13 3 -138 3 -151 0 -213 -2
-137 -3z"/>
<path d="M4378 2003 c34 -2 90 -2 125 0 34 2 6 3 -63 3 -69 0 -97 -1 -62 -3z"/>
<path d="M5178 2003 c210 -2 554 -2 765 0 210 1 38 2 -383 2 -421 0 -593 -1
-382 -2z"/>
<path d="M6858 2003 c210 -2 554 -2 765 0 210 1 38 2 -383 2 -421 0 -593 -1
-382 -2z"/>
<path d="M8298 2003 c34 -2 88 -2 120 0 31 2 3 3 -63 3 -66 0 -92 -1 -57 -3z"/>
<path d="M8693 2003 c75 -2 199 -2 275 0 75 1 13 3 -138 3 -151 0 -213 -2
-137 -3z"/>
<path d="M9515 1999 c-58 -33 -81 -79 -53 -107 18 -18 46 -15 89 10 42 23 59
60 42 87 -12 20 -51 25 -78 10z m68 -21 c11 -31 -45 -78 -93 -78 -15 0 -20 6
-20 25 0 38 101 86 113 53z"/>
<path d="M3481 1967 c32 -26 69 -47 69 -40 0 9 -52 43 -66 43 -4 0 -5 -1 -3
-3z"/>
<path d="M9278 1952 c-16 -9 -28 -20 -28 -25 0 -7 37 15 69 40 15 11 -19 -1
-41 -15z"/>
<path d="M3182 1948 c-30 -30 -4 -94 35 -86 10 2 25 -5 34 -16 20 -24 57 -14
65 20 7 29 -2 58 -16 49 -7 -4 -7 -12 0 -24 10 -20 -4 -41 -27 -41 -13 0 -17
12 -14 38 2 15 -4 15 -29 0 -16 -10 -23 -10 -35 3 -19 19 -10 49 15 49 11 0
22 5 25 10 9 14 -39 12 -53 -2z"/>
<path d="M4358 1923 c23 -2 61 -2 85 0 23 2 4 4 -43 4 -47 0 -66 -2 -42 -4z"/>
<path d="M8358 1923 c23 -2 59 -2 80 0 20 2 1 4 -43 4 -44 0 -61 -2 -37 -4z"/>
<path d="M3465 1904 c36 -28 61 -36 30 -10 -16 14 -34 26 -40 26 -5 -1 -1 -8
10 -16z"/>
<path d="M9305 1894 c-16 -14 -21 -21 -10 -15 30 14 61 40 50 41 -5 0 -23 -12
-40 -26z"/>
<path d="M9572 1888 c-15 -15 -16 -65 -1 -74 8 -5 6 -10 -5 -16 -13 -7 -21 -5
-31 9 -8 10 -15 21 -15 26 0 4 -5 7 -11 7 -6 0 -8 -8 -5 -18 4 -13 -6 -24 -42
-44 -72 -41 -95 -64 -27 -27 33 18 65 36 72 41 7 6 15 3 21 -8 8 -14 14 -15
46 -4 39 13 45 24 20 38 -9 5 -14 18 -12 33 2 19 9 24 33 24 28 0 30 -2 27
-34 -2 -29 0 -32 13 -21 8 7 15 20 15 30 0 39 -70 66 -98 38z"/>
<path d="M3445 1846 c17 -14 35 -26 40 -26 11 1 -20 27 -50 41 -11 6 -6 -1 10
-15z"/>
<path d="M9342 1849 c-18 -12 -31 -24 -28 -26 5 -5 66 35 66 43 0 6 -3 5 -38
-17z"/>
<path d="M3115 1830 c-26 -29 -7 -65 50 -92 48 -24 67 -20 89 15 14 22 0 44
-44 75 -41 27 -71 28 -95 2z m86 -17 c32 -19 46 -50 31 -65 -24 -24 -121 34
-109 65 8 22 41 22 78 0z"/>
<path d="M4358 1843 c23 -2 61 -2 85 0 23 2 4 4 -43 4 -47 0 -66 -2 -42 -4z"/>
<path d="M8358 1843 c23 -2 61 -2 85 0 23 2 4 4 -43 4 -47 0 -66 -2 -42 -4z"/>
<path d="M3395 1805 c30 -25 55 -37 55 -27 0 5 -12 15 -27 23 -43 21 -50 22
-28 4z"/>
<path d="M9378 1802 c-30 -18 -39 -39 -10 -23 28 16 58 40 47 40 -5 -1 -22 -8
-37 -17z"/>
<path d="M3296 1792 c15 -14 124 -74 124 -68 0 6 -115 76 -126 76 -4 0 -4 -4
2 -8z"/>
<path d="M9633 1742 c-35 -20 -63 -39 -63 -42 0 -8 69 -28 75 -21 3 3 -4 10
-15 16 -20 11 -18 13 29 39 28 15 53 31 56 36 12 20 -21 8 -82 -28z"/>
<path d="M4358 1763 c23 -2 61 -2 85 0 23 2 4 4 -43 4 -47 0 -66 -2 -42 -4z"/>
<path d="M8358 1763 c23 -2 61 -2 85 0 23 2 4 4 -43 4 -47 0 -66 -2 -42 -4z"/>
<path d="M3349 1689 c18 -11 35 -18 38 -15 5 5 -50 36 -64 36 -4 0 7 -9 26
-21z"/>
<path d="M9437 1694 c-16 -9 -26 -18 -23 -21 3 -3 20 4 38 16 38 24 27 28 -15
5z"/>
<path d="M4358 1683 c23 -2 61 -2 85 0 23 2 4 4 -43 4 -47 0 -66 -2 -42 -4z"/>
<path d="M8358 1683 c23 -2 61 -2 85 0 23 2 4 4 -43 4 -47 0 -66 -2 -42 -4z"/>
<path d="M4640 1670 c0 -5 19 -10 42 -10 l41 0 -41 -38 c-42 -39 -52 -68 -30
-90 17 -17 63 -15 78 3 18 22 4 31 -16 11 -19 -19 -33 -17 -48 6 -8 13 0 27
37 67 26 28 47 53 47 56 0 3 -25 5 -55 5 -30 0 -55 -4 -55 -10z"/>
<path d="M8060 1670 c0 -5 19 -10 41 -10 l42 0 -42 -45 c-34 -36 -39 -48 -32
-67 11 -31 75 -38 90 -10 15 28 0 37 -20 11 -10 -14 -22 -20 -33 -16 -28 11
-18 46 24 86 22 21 40 43 40 49 0 8 -20 12 -55 12 -30 0 -55 -4 -55 -10z"/>
<path d="M3290 1655 c0 -6 56 -35 67 -35 4 0 -7 9 -25 20 -33 20 -42 24 -42
15z"/>
<path d="M9465 1639 c-16 -10 -26 -19 -22 -19 11 0 67 29 67 35 0 9 -15 4 -45
-16z"/>
<path d="M3642 1603 c108 -2 288 -2 400 0 112 1 23 2 -197 2 -220 0 -311 -1
-203 -2z"/>
<path d="M4383 1603 c37 -2 96 -2 130 0 34 2 4 3 -68 3 -71 0 -99 -1 -62 -3z"/>
<path d="M5178 1603 c210 -2 554 -2 765 0 210 1 38 2 -383 2 -421 0 -593 -1
-382 -2z"/>
<path d="M6858 1603 c210 -2 554 -2 765 0 210 1 38 2 -383 2 -421 0 -593 -1
-382 -2z"/>
<path d="M8283 1603 c37 -2 97 -2 135 0 37 2 6 3 -68 3 -74 0 -105 -1 -67 -3z"/>
<path d="M8752 1603 c108 -2 288 -2 400 0 112 1 23 2 -197 2 -220 0 -311 -1
-203 -2z"/>
<path d="M3270 1595 c0 -8 61 -37 67 -31 3 2 -9 12 -26 20 -31 17 -41 19 -41
11z"/>
<path d="M9487 1584 c-16 -9 -27 -18 -24 -21 6 -5 67 24 67 32 0 8 -14 5 -43
-11z"/>
<path d="M3240 1545 c0 -7 61 -37 66 -33 2 3 -12 12 -31 21 -19 9 -35 15 -35
12z"/>
<path d="M9520 1530 c-19 -11 -31 -19 -27 -20 11 0 67 29 67 35 0 7 -1 7 -40
-15z"/>
<path d="M3140 1522 c1 -10 140 -73 140 -63 0 4 -31 22 -70 39 -38 17 -70 28
-70 24z"/>
<path d="M4358 1523 c23 -2 61 -2 85 0 23 2 4 4 -43 4 -47 0 -66 -2 -42 -4z"/>
<path d="M8358 1523 c23 -2 61 -2 85 0 23 2 4 4 -43 4 -47 0 -66 -2 -42 -4z"/>
<path d="M9588 1497 c-38 -16 -68 -34 -68 -38 0 -5 30 6 68 23 79 39 76 37 71
42 -2 2 -34 -10 -71 -27z"/>
<path d="M4995 1400 c66 -66 122 -120 125 -120 2 0 -49 54 -115 120 -66 66
-122 120 -125 120 -2 0 49 -54 115 -120z"/>
<path d="M7790 1405 c-63 -63 -112 -117 -109 -119 3 -3 59 49 124 114 66 66
115 120 110 120 -6 0 -62 -52 -125 -115z"/>
<path d="M4358 1443 c23 -2 61 -2 85 0 23 2 4 4 -43 4 -47 0 -66 -2 -42 -4z"/>
<path d="M8358 1443 c23 -2 61 -2 85 0 23 2 4 4 -43 4 -47 0 -66 -2 -42 -4z"/>
<path d="M3190 1432 c0 -8 61 -34 67 -29 1 2 -13 11 -32 20 -19 9 -35 13 -35
9z"/>
<path d="M9570 1419 c-19 -11 -26 -17 -15 -13 11 3 28 9 38 11 9 3 17 9 17 14
0 11 1 12 -40 -12z"/>
<path d="M9774 1411 c-35 -21 -43 -36 -36 -64 10 -38 72 -39 128 -2 28 18 33
69 8 79 -29 11 -69 6 -100 -13z m103 -17 c11 -33 -90 -75 -116 -49 -12 12 -12
16 0 31 7 9 22 20 34 25 27 11 78 7 82 -7z"/>
<path d="M2888 1340 c-18 -55 -6 -69 15 -18 l13 32 25 -50 c25 -52 56 -67 85
-44 16 14 19 66 3 75 -16 10 -23 -3 -10 -18 17 -21 3 -49 -23 -45 -14 2 -29
21 -48 61 -15 31 -31 57 -36 57 -4 0 -15 -22 -24 -50z"/>
<path d="M3161 1376 c15 -13 69 -35 69 -27 0 5 -14 14 -31 20 -33 11 -45 14
-38 7z"/>
<path d="M9598 1368 c-16 -5 -28 -14 -28 -19 0 -8 54 14 69 27 7 7 -13 3 -41
-8z"/>
<path d="M4358 1363 c23 -2 61 -2 85 0 23 2 4 4 -43 4 -47 0 -66 -2 -42 -4z"/>
<path d="M8358 1363 c23 -2 61 -2 85 0 23 2 4 4 -43 4 -47 0 -66 -2 -42 -4z"/>
<path d="M3140 1321 c0 -9 60 -34 66 -28 2 2 -12 11 -31 20 -19 9 -35 13 -35
8z"/>
<path d="M9620 1310 c-40 -22 -37 -25 9 -9 17 6 31 15 31 20 0 11 2 12 -40
-11z"/>
<path d="M9852 1304 c-26 -18 -28 -46 -6 -68 14 -15 13 -16 -14 -16 -33 0 -49
24 -32 45 8 9 8 15 0 20 -5 3 -12 -1 -15 -9 -3 -9 -7 -22 -9 -28 -2 -7 -36
-24 -76 -38 -40 -13 -68 -26 -63 -27 6 -2 40 7 76 21 56 21 67 23 78 10 25
-30 107 -12 135 31 15 23 15 27 0 50 -19 29 -42 32 -74 9z m66 -31 c4 -28 -32
-50 -54 -32 -17 14 -18 31 -2 47 19 19 53 10 56 -15z"/>
<path d="M4358 1283 c23 -2 61 -2 85 0 23 2 4 4 -43 4 -47 0 -66 -2 -42 -4z"/>
<path d="M8358 1283 c23 -2 61 -2 85 0 23 2 4 4 -43 4 -47 0 -66 -2 -42 -4z"/>
<path d="M3120 1261 c0 -4 16 -12 35 -18 19 -6 33 -7 30 -3 -7 12 -65 30 -65
21z"/>
<path d="M9643 1255 c-43 -19 -42 -26 2 -12 19 6 35 14 35 19 0 10 2 10 -37
-7z"/>
<path d="M2852 1238 c-38 -38 17 -98 89 -98 43 0 64 20 55 54 -10 42 -114 74
-144 44z m98 -23 c32 -16 40 -49 15 -59 -15 -6 -72 10 -92 27 -7 5 -13 18 -13
28 0 24 48 26 90 4z"/>
<path d="M3025 1232 c14 -13 134 -56 140 -50 3 2 -30 17 -73 32 -42 15 -72 23
-67 18z"/>
<path d="M3503 1203 c136 -2 358 -2 495 0 136 1 24 2 -248 2 -272 0 -384 -1
-247 -2z"/>
<path d="M4378 1203 c34 -2 90 -2 125 0 34 2 6 3 -63 3 -69 0 -97 -1 -62 -3z"/>
<path d="M5178 1203 c210 -2 554 -2 765 0 210 1 38 2 -383 2 -421 0 -593 -1
-382 -2z"/>
<path d="M6858 1203 c210 -2 554 -2 765 0 210 1 38 2 -383 2 -421 0 -593 -1
-382 -2z"/>
<path d="M8298 1203 c34 -2 90 -2 125 0 34 2 6 3 -63 3 -69 0 -97 -1 -62 -3z"/>
<path d="M8803 1203 c136 -2 358 -2 495 0 136 1 24 2 -248 2 -272 0 -384 -1
-247 -2z"/>
<path d="M9890 1159 c-72 -26 -79 -34 -42 -53 41 -21 49 -20 28 2 -15 18 -13
20 39 37 30 11 55 23 55 27 0 12 -19 9 -80 -13z"/>
<path d="M3100 1135 c46 -18 64 -17 25 0 -16 8 -37 14 -45 14 -8 0 1 -7 20
-14z"/>
<path d="M9675 1135 c-39 -17 -21 -18 25 0 19 7 28 14 20 14 -8 0 -28 -6 -45
-14z"/>
<path d="M4358 1123 c23 -2 61 -2 85 0 23 2 4 4 -43 4 -47 0 -66 -2 -42 -4z"/>
<path d="M8358 1123 c23 -2 61 -2 85 0 23 2 4 4 -43 4 -47 0 -66 -2 -42 -4z"/>
<path d="M5395 1003 c65 -67 121 -120 124 -118 2 3 2 6 0 8 -3 1 -59 54 -124
117 l-120 115 120 -122z"/>
<path d="M7390 1005 c-63 -63 -112 -117 -109 -119 3 -3 59 49 124 114 66 66
115 120 110 120 -6 0 -62 -52 -125 -115z"/>
<path d="M3061 1086 c4 -4 21 -11 39 -16 20 -6 30 -6 24 -1 -10 11 -72 27 -63
17z"/>
<path d="M9693 1080 c-13 -5 -23 -11 -23 -14 0 -6 60 11 68 19 8 8 -20 5 -45
-5z"/>
<path d="M4358 1043 c23 -2 61 -2 85 0 23 2 4 4 -43 4 -47 0 -66 -2 -42 -4z"/>
<path d="M8358 1043 c23 -2 61 -2 85 0 23 2 4 4 -43 4 -47 0 -66 -2 -42 -4z"/>
<path d="M3040 1030 c0 -9 59 -25 66 -18 2 3 -12 9 -31 15 -19 6 -35 7 -35 3z"/>
<path d="M9720 1024 l-35 -14 34 5 c34 5 48 12 40 19 -2 2 -20 -3 -39 -10z"/>
<path d="M3026 971 c10 -11 72 -27 63 -17 -4 4 -21 11 -39 16 -20 6 -30 6 -24
1z"/>
<path d="M9743 969 c-18 -5 -33 -12 -33 -15 0 -9 53 5 65 17 10 10 11 10 -32
-2z"/>
<path d="M4358 963 c23 -2 61 -2 85 0 23 2 4 4 -43 4 -47 0 -66 -2 -42 -4z"/>
<path d="M8358 963 c23 -2 61 -2 85 0 23 2 4 4 -43 4 -47 0 -66 -2 -42 -4z"/>
<path d="M2921 936 c9 -9 151 -48 156 -42 2 2 -19 11 -49 19 -79 23 -114 31
-107 23z"/>
<path d="M9845 935 c-5 -2 -36 -11 -68 -20 -32 -9 -56 -19 -54 -21 5 -5 147
32 155 41 6 6 -17 6 -33 0z"/>
<path d="M4358 883 c23 -2 61 -2 85 0 23 2 4 4 -43 4 -47 0 -66 -2 -42 -4z"/>
<path d="M4660 804 l0 -87 28 24 c15 13 29 25 31 27 2 1 1 5 -2 8 -4 4 -13 1
-22 -6 -13 -11 -15 -5 -15 48 0 34 -4 64 -10 67 -6 4 -10 -25 -10 -81z"/>
<path d="M8088 884 c-8 -8 -11 -164 -4 -164 8 0 56 47 56 54 0 4 -9 2 -20 -4
-18 -10 -19 -6 -22 56 -2 36 -6 62 -10 58z"/>
<path d="M8358 883 c23 -2 61 -2 85 0 23 2 4 4 -43 4 -47 0 -66 -2 -42 -4z"/>
<path d="M2995 852 c6 -5 24 -13 40 -16 19 -5 26 -4 20 2 -5 5 -23 13 -40 16
-19 5 -26 4 -20 -2z"/>
<path d="M9775 853 c-11 -3 -24 -9 -30 -15 -13 -12 46 1 60 13 10 10 4 10 -30
2z"/>
<path d="M9988 810 c-46 -8 -68 -26 -68 -55 0 -35 24 -48 80 -43 57 6 80 21
80 53 0 38 -34 55 -92 45z m76 -36 c8 -21 -34 -44 -80 -44 -47 0 -63 19 -36
43 30 27 106 28 116 1z"/>
<path d="M3412 803 c153 -2 403 -2 555 0 153 1 28 2 -277 2 -305 0 -430 -1
-278 -2z"/>
<path d="M4383 803 c37 -2 96 -2 130 0 34 2 4 3 -68 3 -71 0 -99 -1 -62 -3z"/>
<path d="M5178 803 c210 -2 554 -2 765 0 210 1 38 2 -383 2 -421 0 -593 -1
-382 -2z"/>
<path d="M6858 803 c210 -2 554 -2 765 0 210 1 38 2 -383 2 -421 0 -593 -1
-382 -2z"/>
<path d="M8283 803 c37 -2 97 -2 135 0 37 2 6 3 -68 3 -74 0 -105 -1 -67 -3z"/>
<path d="M8833 803 c152 -2 402 -2 555 0 152 1 27 2 -278 2 -305 0 -430 -1
-277 -2z"/>
<path d="M2980 792 c23 -14 77 -25 65 -14 -5 6 -26 13 -45 16 -23 5 -30 4 -20
-2z"/>
<path d="M9785 793 c-11 -3 -24 -9 -30 -15 -11 -11 40 -1 65 13 13 7 13 8 0 8
-8 -1 -24 -3 -35 -6z"/>
<path d="M2970 730 c8 -5 26 -9 40 -9 l25 1 -25 8 c-14 4 -32 8 -40 9 -13 1
-13 0 0 -9z"/>
<path d="M9790 730 l-25 -8 25 -1 c14 0 32 4 40 9 13 9 13 10 0 9 -8 -1 -26
-5 -40 -9z"/>
<path d="M2823 713 c6 -26 -2 -27 -71 -14 -30 6 -42 5 -39 -3 2 -6 23 -14 48
-18 24 -4 59 -10 77 -13 38 -7 40 0 6 40 -23 27 -26 28 -21 8z"/>
<path d="M4358 723 c23 -2 61 -2 85 0 23 2 4 4 -43 4 -47 0 -66 -2 -42 -4z"/>
<path d="M6995 610 c-65 -66 -117 -122 -114 -124 3 -3 59 48 124 114 65 66
117 122 114 124 -3 3 -59 -48 -124 -114z"/>
<path d="M8358 723 c23 -2 61 -2 85 0 23 2 4 4 -43 4 -47 0 -66 -2 -42 -4z"/>
<path d="M5795 603 c65 -67 121 -120 123 -118 2 2 -7 14 -20 27 -14 13 -69 66
-124 118 -90 86 -88 84 21 -27z"/>
<path d="M2960 670 c8 -5 26 -9 40 -9 l25 1 -25 8 c-14 4 -32 8 -40 9 -13 1
-13 0 0 -9z"/>
<path d="M9800 670 l-25 -8 25 -1 c14 0 32 4 40 9 13 9 13 10 0 9 -8 -1 -26
-5 -40 -9z"/>
<path d="M9940 657 c0 -23 -5 -25 -77 -37 -43 -7 -73 -15 -66 -17 6 -2 38 1
69 6 80 15 84 14 84 -14 0 -14 5 -25 11 -25 7 0 8 14 4 42 -7 37 -6 40 11 33
56 -22 124 -31 124 -15 0 6 -12 10 -27 10 -25 1 -61 12 -115 35 -14 6 -18 2
-18 -18z"/>
<path d="M4358 643 c23 -2 61 -2 85 0 23 2 4 4 -43 4 -47 0 -66 -2 -42 -4z"/>
<path d="M8358 643 c23 -2 61 -2 85 0 23 2 4 4 -43 4 -47 0 -66 -2 -42 -4z"/>
<path d="M2713 620 c-27 -11 -32 -60 -9 -79 19 -16 79 -25 110 -17 44 11 43
77 -1 90 -45 12 -80 14 -100 6z m100 -32 c10 -5 17 -17 15 -26 -5 -26 -78 -28
-108 -4 -52 42 25 67 93 30z"/>
<path d="M2882 621 c15 -5 51 -12 80 -15 37 -4 45 -3 26 3 -15 5 -51 12 -80
15 -37 4 -45 3 -26 -3z"/>
<path d="M4358 563 c23 -2 61 -2 85 0 23 2 4 4 -43 4 -47 0 -66 -2 -42 -4z"/>
<path d="M8358 563 c23 -2 61 -2 85 0 23 2 4 4 -43 4 -47 0 -66 -2 -42 -4z"/>
<path d="M2940 550 c8 -5 26 -9 40 -9 l25 1 -25 8 c-14 4 -32 8 -40 9 -13 1
-13 0 0 -9z"/>
<path d="M9820 550 l-25 -8 25 -1 c14 0 32 4 40 9 13 9 13 10 0 9 -8 -1 -26
-5 -40 -9z"/>
<path d="M10032 535 c-34 -7 -65 -14 -67 -17 -3 -3 6 -15 20 -28 26 -24 47
-21 26 3 -9 12 -1 16 49 26 33 7 60 16 60 22 0 11 -6 10 -88 -6z"/>
<path d="M2930 491 c8 -6 28 -11 44 -11 39 0 31 6 -19 14 -29 5 -36 4 -25 -3z"/>
<path d="M9825 490 l-30 -8 30 -1 c17 0 37 4 45 9 13 9 13 10 0 9 -8 -1 -28
-5 -45 -9z"/>
<path d="M4358 483 c23 -2 61 -2 85 0 23 2 4 4 -43 4 -47 0 -66 -2 -42 -4z"/>
<path d="M8358 483 c23 -2 61 -2 85 0 23 2 4 4 -43 4 -47 0 -66 -2 -42 -4z"/>
<path d="M1572 424 c-42 -29 -16 -101 35 -91 24 4 27 -1 17 -27 -7 -19 -35
-21 -52 -4 -6 6 -14 9 -17 6 -8 -8 24 -38 41 -38 52 0 78 122 32 154 -12 9
-25 16 -28 16 -3 0 -16 -7 -28 -16z m54 -30 c8 -30 -6 -47 -32 -42 -35 6 -30
68 5 68 14 0 23 -9 27 -26z"/>
<path d="M2378 426 c-26 -13 -36 -59 -17 -82 6 -8 24 -14 39 -14 23 0 27 -4
23 -20 -4 -15 -14 -20 -41 -20 -26 0 -33 -3 -25 -11 6 -6 25 -9 44 -7 30 3 34
7 41 42 10 46 7 51 -22 36 -43 -23 -69 38 -27 64 15 9 21 7 32 -8 16 -22 29
-17 20 7 -9 21 -39 27 -67 13z"/>
<path d="M2920 431 c8 -6 28 -11 44 -11 39 0 31 6 -19 14 -29 5 -36 4 -25 -3z"/>
<path d="M3170 424 c0 -9 -8 -23 -17 -30 -17 -12 -17 -13 -1 -14 14 0 18 -11
20 -57 l3 -58 42 59 c24 32 40 63 37 67 -3 5 -18 9 -35 9 -19 0 -29 5 -29 14
0 8 -4 18 -10 21 -5 3 -10 -1 -10 -11z m60 -51 c0 -5 -9 -19 -20 -33 l-20 -25
0 33 c0 25 4 32 20 32 11 0 20 -3 20 -7z"/>
<path d="M3972 424 c-22 -15 -30 -58 -13 -68 4 -3 6 -18 3 -32 -5 -27 17 -54
44 -54 18 0 45 30 38 42 -4 7 -10 4 -16 -6 -13 -24 -48 -21 -48 4 0 11 7 23
15 26 17 7 21 25 4 22 -16 -4 -33 27 -26 46 8 21 43 21 56 -1 5 -10 13 -14 18
-10 7 8 -31 47 -46 47 -4 0 -17 -7 -29 -16z"/>
<path d="M5570 354 l0 -87 28 24 c15 13 29 25 31 27 2 1 1 5 -2 8 -4 4 -13 1
-22 -6 -13 -11 -15 -5 -15 48 0 34 -4 64 -10 67 -6 4 -10 -25 -10 -81z"/>
<path d="M6367 422 c-24 -26 -23 -113 1 -135 24 -22 38 -21 62 3 41 41 16 150
-33 150 -8 0 -21 -8 -30 -18z m51 -14 c17 -17 15 -93 -3 -108 -29 -24 -45 -4
-45 53 0 30 3 57 7 60 10 11 28 8 41 -5z"/>
<path d="M7170 354 l0 -87 28 24 c15 13 29 25 31 27 2 1 1 5 -2 8 -4 4 -13 1
-22 -6 -13 -11 -15 -5 -15 48 0 34 -4 64 -10 67 -6 4 -10 -25 -10 -81z"/>
<path d="M9565 425 c-5 -11 -13 -24 -19 -28 -8 -6 -7 -10 2 -14 7 -3 12 -25
12 -59 0 -30 4 -54 9 -54 10 0 81 105 81 120 0 5 -15 10 -34 10 -28 0 -35 4
-39 23 -3 21 -4 21 -12 2z m65 -48 c0 -2 -11 -18 -25 -37 l-25 -34 0 37 c0 33
3 37 25 37 14 0 25 -1 25 -3z"/>
<path d="M9835 430 l-30 -8 30 -1 c17 0 37 4 45 9 13 9 13 10 0 9 -8 -1 -28
-5 -45 -9z"/>
<path d="M10372 427 c-50 -22 -35 -97 19 -97 44 0 36 -34 -9 -38 -45 -5 -40
-22 7 -22 38 0 39 1 46 41 8 47 4 54 -23 40 -16 -9 -24 -7 -37 5 -33 34 8 83
43 51 25 -22 35 -22 23 2 -13 24 -40 31 -69 18z"/>
<path d="M11160 420 c-24 -24 -26 -53 -4 -74 18 -19 45 -21 62 -4 16 16 17 -5
2 -33 -12 -21 -46 -26 -53 -6 -2 6 -8 9 -13 4 -4 -4 0 -15 9 -24 13 -14 21
-15 42 -5 50 23 58 115 12 147 -28 19 -33 19 -57 -5z m55 -35 c0 -23 -5 -31
-22 -33 -26 -4 -41 31 -22 54 20 24 44 13 44 -21z"/>
<path d="M800 388 c-7 -24 -21 -56 -32 -71 -11 -16 -18 -31 -14 -34 8 -9 96
-9 96 0 0 4 -16 7 -36 7 -20 0 -34 3 -32 8 24 46 48 107 48 118 0 29 -17 12
-30 -28z"/>
<path d="M4750 420 c0 -5 19 -10 42 -10 l41 0 -41 -38 c-45 -42 -51 -62 -26
-86 29 -30 84 -14 84 23 -1 13 -3 13 -15 -2 -15 -20 -56 -20 -62 0 -3 7 16 34
41 61 25 27 46 52 46 56 0 3 -25 6 -55 6 -30 0 -55 -4 -55 -10z"/>
<path d="M7950 420 c0 -5 16 -10 36 -10 l36 0 -36 -40 c-38 -43 -45 -70 -22
-89 30 -25 109 10 82 36 -4 4 -12 0 -17 -10 -12 -21 -48 -22 -55 -2 -4 10 11
34 40 65 25 27 46 52 46 55 0 3 -25 5 -55 5 -30 0 -55 -4 -55 -10z"/>
<path d="M8772 418 c-15 -15 -15 -51 0 -66 8 -8 8 -15 0 -25 -15 -18 11 -57
38 -57 20 0 55 29 45 38 -3 3 -11 0 -17 -6 -15 -15 -45 -15 -54 0 -4 6 2 19
15 29 21 17 21 18 1 24 -25 8 -27 50 -4 59 10 4 25 -1 36 -10 21 -20 37 -11
18 11 -15 18 -61 20 -78 3z"/>
<path d="M11996 396 c-4 -19 -18 -51 -32 -71 -14 -21 -23 -40 -20 -43 8 -7 95
-6 103 2 3 3 -12 6 -35 6 -23 0 -42 1 -42 3 0 1 11 24 25 51 25 50 32 86 16
86 -5 0 -12 -15 -15 -34z"/>
<path d="M3083 403 c9 -2 23 -2 30 0 6 3 -1 5 -18 5 -16 0 -22 -2 -12 -5z"/>
<path d="M3438 403 c89 -2 235 -2 325 0 89 1 16 3 -163 3 -179 0 -252 -2 -162
-3z"/>
<path d="M4118 403 c23 -2 61 -2 85 0 23 2 4 4 -43 4 -47 0 -66 -2 -42 -4z"/>
<path d="M4378 403 c34 -2 90 -2 125 0 34 2 6 3 -63 3 -69 0 -97 -1 -62 -3z"/>
<path d="M5038 403 c89 -2 235 -2 325 0 89 1 16 3 -163 3 -179 0 -252 -2 -162
-3z"/>
<path d="M5838 403 c89 -2 235 -2 325 0 89 1 16 3 -163 3 -179 0 -252 -2 -162
-3z"/>
<path d="M6638 403 c89 -2 235 -2 325 0 89 1 16 3 -163 3 -179 0 -252 -2 -162
-3z"/>
<path d="M7438 403 c89 -2 235 -2 325 0 89 1 16 3 -163 3 -179 0 -252 -2 -162
-3z"/>
<path d="M8298 403 c34 -2 90 -2 125 0 34 2 6 3 -63 3 -69 0 -97 -1 -62 -3z"/>
<path d="M8598 403 c23 -2 61 -2 85 0 23 2 4 4 -43 4 -47 0 -66 -2 -42 -4z"/>
<path d="M9038 403 c89 -2 235 -2 325 0 89 1 16 3 -163 3 -179 0 -252 -2 -162
-3z"/>
<path d="M9693 403 c9 -2 23 -2 30 0 6 3 -1 5 -18 5 -16 0 -22 -2 -12 -5z"/>
<path d="M2910 371 c8 -6 28 -11 44 -11 39 0 31 6 -19 14 -29 5 -36 4 -25 -3z"/>
<path d="M9845 370 l-30 -8 30 -1 c17 0 37 4 45 9 13 9 13 10 0 9 -8 -1 -28
-5 -45 -9z"/>
<path d="M2865 310 c28 -5 66 -8 85 -8 l35 0 -40 9 c-22 4 -60 8 -85 7 l-45
-1 50 -7z"/>
<path d="M9850 310 l-35 -7 35 -1 c19 0 58 3 85 8 l50 7 -50 0 c-27 0 -66 -3
-85 -7z"/>
</g>
</svg>
