<?xml version="1.0" encoding="UTF-8" standalone="no"?>
<svg
   version="1.0"
   width="564.000000pt"
   height="564.000000pt"
   viewBox="0 0 564.000000 564.000000"
   preserveAspectRatio="xMidYMid meet"
   id="svg27"
   sodipodi:docname="4f0ed.svg"
   xml:space="preserve"
   inkscape:version="1.3.2 (091e20e, 2023-11-25, custom)"
   xmlns:inkscape="http://www.inkscape.org/namespaces/inkscape"
   xmlns:sodipodi="http://sodipodi.sourceforge.net/DTD/sodipodi-0.dtd"
   xmlns="http://www.w3.org/2000/svg"
   xmlns:svg="http://www.w3.org/2000/svg"><defs
     id="defs27" /><sodipodi:namedview
     id="namedview27"
     pagecolor="#ffffff"
     bordercolor="#000000"
     borderopacity="0.25"
     inkscape:showpageshadow="2"
     inkscape:pageopacity="0.0"
     inkscape:pagecheckerboard="0"
     inkscape:deskcolor="#d1d1d1"
     inkscape:document-units="pt"
     inkscape:zoom="1.6236702"
     inkscape:cx="398.78788"
     inkscape:cy="470.23096"
     inkscape:window-width="2560"
     inkscape:window-height="1417"
     inkscape:window-x="1072"
     inkscape:window-y="-8"
     inkscape:window-maximized="1"
     inkscape:current-layer="g295" /><metadata
     id="metadata1">
Created by potrace 1.16, written by Peter Selinger 2001-2019
</metadata><g
     transform="matrix(0.02720962,0,0,-0.02680003,138.93383,505.84284)"
     fill="#000000"
     stroke="none"
     id="g295"><path
       d="m 7636,15333 c -1294.4741,-14.357 -2593.3607,17.582 -3885,-23 -950.4595,-659.416 -1883.1912,-1356.196 -2831,-2020 -1.14233,-1119.574 51.33225,-2243.144 0,-3360 C 791.30661,9467.799 561.31304,9020.3594 509,8547 653.46149,8060.4097 887.9908,7593.0948 957.5625,7091.5469 987.47417,6530.507 885.8698,5943.1937 1140,5421 1349.408,4826.1873 1522.4429,4208.8812 1764,3631 2198.2899,3057.6092 2592.0313,2448.0442 3066.0156,1910.7812 3676.306,1456.6546 4273.75,983.61201 4876,520 h 2378 c 661.5141,505.1551 1282.2487,870.7058 1903.976,1421.3129 387.04,564.944 888.161,1214.472 1252.024,1793.6871 224.591,738.8234 463.403,1474.4883 674.516,2216 34.04,603.502 -84.273,1234.4522 170.484,1803 79.275,301.3368 222.051,603.9852 271,901 -158.928,435.6832 -300.85,879.6936 -445,1321 -43.259,1097.614 1.889,2197.454 -40,3295 -920.725,705.988 -1887.5854,1362.783 -2818,2059 -195.6597,1.721 -391.3304,5.224 -587,3 z m 612,-96 c 27.5671,-169.517 292.7761,-624.503 205.826,-343.688 342.2585,-17.753 1760.82,-1206.977 1447.299,-1048.811 342.509,-196.676 952.521,-581.268 709.871,-495.125 275.469,-131.568 223.709,-417.787 300.978,-105.48 -7.796,-925.827 97.795,-2220.891 60.026,-3143.896 -493.898,401.861 234.414,-242.9065 -664,470 -385.2683,446.413 -946.7361,215.699 -787,250 -738.0799,-256.032 -1481.3094,-490.095 -2219.5,-745.5 C 7099.7543,10042.96 6536.0776,9181.6365 6725,9378 6321.588,9009.394 6451.4359,7487.3861 6472.7129,7974.6445 6510.1459,7356.3247 6372.7368,6703.4907 6650,6126 c 249.7449,-482.3591 -365.9775,-506.8881 -314,-446 -333.5777,-152.6792 -679.6628,48.1071 -1000,137.125 113.8545,436.085 343.6434,851.6887 272,1316.875 -15.3449,629.974 -26.185,1260.155 -30,1891 -281.5699,322.5356 -484.9896,735.8691 -785,1025 194.4721,34.806 -1280.7817,414.587 -423,135 -726.1565,248.13 -1454.7742,484.816 -2180,733 -345.7522,-243.07 -711.1792,-524.085 -1049.125,-735.875 8.3659,152.114 -170.19751,-242.9407 -119.9605,164.074 C 975.87533,11317.874 993.14112,12291.228 990,13264 c 186.9599,178.103 708.8019,576.151 600,436 727.1658,513.578 1448.5423,1036.931 2170,1560 1486.672,-0.991 2973.3503,0.991 4460,4 l 26.5427,-25.595 z m 1627,-4417 c 314.321,-244.683 661.025,-465.079 961,-717 -353.134,89.439 -704,268.796 -1060,302 -764.7697,-235.376 -1516.9817,-522.2818 -2290,-729 -332.3378,289.0832 610.9567,530.62 249,484 686.1936,232.629 1376.402,457.201 2063.25,690 l 43.75,-12 z m -7610,10 c 831.8206,-290.028 1676.7154,-542.269 2501.75,-846.625 C 4666.4432,9664.5084 3912.8894,9952.8987 4184,9780 c -674.9891,205.6385 -1339.5283,456.848 -2020.75,640.375 -326.1586,-79.122 -638.5637,-197.364 -959.375,-297.25 292.3527,243.12 646.511,484.397 976.125,706.875 l 39,10 z m -55,-470 c 312.9878,-110.129 652.0142,-185.578 946.375,-327.5 30.6231,-62.7174 713.6433,-536.24 577.625,-307.5 337.8251,-288.0917 764.104,-499.116 1032,-852 396.7791,-355.7691 -609.4928,-228.7807 -46,-293 395.7411,-99.1019 -188.0496,611.9251 -56,508 -181.9674,229.8274 -653.951,927.907 -784,722 308.3317,-108.7023 695.7319,-136.5181 848,-471 90.7796,-258.9314 242.2424,-1028.3497 420.125,-804.25 C 4634.0996,8130.449 4079.3222,7772.4703 3580,7352 c 329.6454,115.7249 1222.922,824.646 915,631 201.9579,118.7887 883.6099,729.03 466,213 -172.5349,-305.7921 -481.7941,-564.663 -581,-891 68.7002,-288.578 242.0267,-588.1349 233,-873 -395.1382,-563.3696 -787.4131,-1123.0535 -1174,-1692 -233.1609,288.9736 -860.7021,1208.4562 -653.5,903.125 -83.5134,156.0185 -688.4355,992.4705 -543.5,736.875 -270.2266,722.4893 -506.5681,1455.924 -750,2189 155.465,343.4337 657.3512,4.2979 553,71 -297.6816,259.3378 157.1952,414.9134 -249,342 -129.1752,250.6788 -458.6407,995.7156 -506,783 372.5889,-247.723 734.1997,-516.5094 1101.875,-768.25 204.6018,-302.6213 -28.262,353.2725 53.125,113.25 122.9811,255.6251 874.3301,526.4406 601,468 -200.4567,-257.5532 373.2129,-763.473 138,-768 175.4187,-192.0448 381.7178,-94.3572 501.603,-79.062 181.1158,502.2283 612.245,83.7156 442.375,190.625 305.0193,-171.0077 -75.194,-65.5474 101.772,-92.438 C 4349.0715,8744.4205 3434.6278,8512.318 3684,8580 c -333.9112,-202.4342 -677.4963,80.3106 -1011,150 -195.4448,93.267 11.0887,-123.0809 -328,26 84.6458,-132.8647 855.3882,-348.9926 631,-187 579.8128,-190.8568 557.4878,-124.2463 835,-9 353.3285,147.8468 814.8636,228.446 679,202 27.7928,297.7329 -1306.6063,1224.5097 -1003.2344,944.5781 C 3129.7043,9728.1769 2553.1813,9468.9265 2752,9530 c -272.2794,-235.1443 -435.4886,-587.6235 -767,-180 -303.9972,212.8734 -607.8484,427.2267 -915,635 310.2729,172.578 705.5694,245.418 1055,375 l 46,10 z m 7670,-10 c 296.015,-107.17 599.649,-190.022 898.875,-287.25 -24.647,-122.9181 300.724,-18.804 -28.875,-222.75 -349.308,-242.1256 -686.058,-506.1893 -1039.25,-738.75 -185.7658,254.7269 -1055.9288,573.5239 -721.75,528.75 -404.8264,373.623 -1182.4528,-556.577 -874,-280 -150.1874,-172.6608 -948.7405,-521.7292 -439,-590 58.3669,-239.5603 734.9583,-361.529 448,-150 263.0668,-73.2505 530.5245,-257.1235 796,-100 234.2916,78.7249 468.1237,163.1394 703,241 17.6411,-167.4412 422.47,274.6401 3,59 -336.4605,-90.0748 -618.7609,-285.7102 -958.5595,-327.2357 -311.8253,103.4013 -669.0959,223.122 -975.8155,337.9857 223.3753,64.2474 -342.3372,12.1355 78.375,202.25 240.7904,188.3563 411.2679,-447.7578 444.8033,1.7163 135.7728,-297.1296 1720.0946,32.4351 1453.4281,-111.3158 C 9769.7322,9060.6462 8813.4616,9697.9242 9035,9510 c 150.5456,95.4482 477.8671,-810.4393 565,-531 -273.6678,-498.782 869.088,884.1382 452,291 270.863,180.9566 1084.547,700.3569 818,565 -223.226,-301.4343 -417.345,-630.251 -670,-905 l 421.857,-271.5541 C 10368.713,7952.3332 10082.016,6999.2568 9799,6306 9534.1624,5925.5678 9272.2182,5588.5081 9020,5205 c -170.4837,-220.048 -357.4017,-702.9595 -530,-200 -366.3849,521.9136 -693.6364,927.7535 -600,840 -131.4448,300.9723 -181.4056,1346.2127 -412.4405,983.9427 37.7061,247.7901 -104.0699,905.9107 112.4405,687.0573 -216.4463,314.2416 -464.5149,611.6138 -661,937 516.1606,-370.1717 1023.4914,-753.209 1542.75,-1118 -837.4135,742.895 -313.1859,265.5623 -1019.75,805 -513.6672,108.2783 -472.6433,1036.4882 -548,641 260.4682,252.8763 384.1708,644.2088 681,849 273.5132,80.1993 559.2252,197.0116 825,260 -369.9459,-346.457 -853.9701,-589.0476 -1175,-974 -181.1262,-411.3127 157.8653,-438.4768 266.75,-289.375 -644.0951,-61.7595 174.8716,670.8906 89.25,553.375 391.4891,257.8863 719.951,625.5954 1144,820 237.9903,-6.8094 930.4606,263.256 620,210 177.0072,37.889 342.1761,142.317 525,140 z M 4870,9895 c 207.557,-299.5892 432.3774,-588.1678 639.75,-887.7031 C 5535.1217,8179.148 5556.6544,7340.1115 5500,6515 5423.0441,6245.0733 5267.5227,5774.1942 5315.2031,6370.6094 5307.7499,7121.3823 5310.5771,7872.2022 5310,8623 c -238.5534,329.8279 -486.1821,658.9716 -704.5,1003.75 72.1631,48.0487 188.464,440.464 264.5,268.25 z m 2385,8 C 7621.2104,9637.8117 6909.4693,8842.4141 7075,9100 6724.0515,8159.5139 6269.6742,9101.5177 6749.7251,7931.7808 6779.6962,6979.4557 6686.897,5760.0109 6722,6086 6600.2921,6429.6307 6478.1761,6769.8997 6531.5098,7142.9497 6537.3032,7770.909 6509.9061,8404.5917 6550,9029 c 210.0026,312.8942 435.7609,615.7127 657,921 z M 1040,9890 C 1286.126,9555.4682 1551.764,9232.8855 1781.125,8888.25 1436.5095,8770.2558 1443.7247,8443.7527 1462,8356 c 96.0648,-112.1684 267.1508,-672.0949 238,-591 132.9572,-397.6229 263.2802,-795.8734 408.25,-1187.5 -74.8931,-110.6621 255.4625,-932.4478 235.75,-696.5 163.941,-493.583 339.928,-983.1981 504.75,-1476.5 -411.5258,351.4554 -878.5833,1058.3725 -718.75,857.5 -260.6198,411.4012 -633.1648,758.5058 -840,1198 -224.3843,648.0639 -454.83007,1294.6519 -667,1946 308.29535,-348.4536 560.5194,-768.1631 871,-1116 -2.9289,344.3234 -150.5301,149.3994 -374,569 -147.57445,295.3034 -513.96803,1197.4791 -538,873 140.90479,394.5115 251.40287,800.1915 407.625,1188.125 z m 9996,0 c 154.21,-412.2712 182.392,-795.8794 330.143,-1210.5287 C 11107.273,8275.7774 10922.531,7846.8706 10627,7469 c -24.25,295.7169 -148.102,-503.2503 93,7 213.681,309.6547 434.772,614.7558 663,914 -192.524,-692.6977 -431.617,-1391.2434 -663,-2078 -470.277,-644.5301 -917.0913,-1313.6227 -1404,-1945.375 -35.046,210.856 215.792,929.5778 178,699.375 143.7513,460.1733 281.591,923.2479 442.25,1377.5 115.236,127.0495 323.999,871.0712 203.75,651.5 136.976,428.1877 281.73,856.6657 414.375,1284.375 -18.316,-119.3141 396.587,1036.9622 -211.375,440.625 -90.966,251.4277 598.732,1115.283 472,840 68.287,48.9131 145.187,302.6522 221,230 z M 3480,9638 c 149.2833,-42.5386 -212.4328,-927.8473 798.0428,-575.6446 309.6562,107.9311 -58.9721,-351.4871 214.8457,-302.2248 -80.3944,17.4934 -878.0883,-257.3222 -1256.6879,-164.1845 C 2868.1416,8686.4908 2915.7401,9147.2616 3055,9014 c -205.6412,269.562 100.0958,781.2974 425,624 z m 5230,27 c 427.6295,-9.1968 458.6157,-713.6277 902.8109,-759.1465 C 9406.6425,8825.0945 8085.3378,8808.9717 8240,9222 c -50.1602,221.7408 310.5585,403.7872 470,443 z M 5260,7890 c 52.2643,-415.2164 -49.201,-805.1805 -200,-1186 -96.3864,-357.8936 -244.9683,-686.646 -220,-650 -144.0839,420.1935 -274.5481,848.9222 -400.125,1276.5 237.526,408.2044 549.9085,781.9097 812.125,1179.5 9.7603,-206.4186 6.4275,-413.3956 8,-620 z m 1569,594 c 251.777,-397.717 580.5297,-751.4349 806,-1162 -136.6538,-411.4742 -250.5736,-836.5091 -400,-1242 -137.564,435.0325 -303.2467,867.5067 -423.1406,1304.5 4.5688,346.8122 -41.4322,842.1393 17.1406,1099.5 z m -1,-1350 c 306.5158,-347.2535 -238.3751,-794.5719 -6,-643 13.1119,184.7047 -43.7549,572.7876 6,643 z M 5260,6780 c 116.9098,-500.8496 -317.3251,-201.1568 -86,69 77.7683,446.5214 125.6699,-459.82 85.3125,51.5781 z m -4212,214 c 115.3377,-396.5552 244.6491,-790.1579 542,-1092 409.7393,-576.0568 856.9543,-1129.7776 1257,-1708 -77.5643,-40.1908 -849.5772,239.0386 -592,136 -260.5354,85.5653 -1020.0907,399.2444 -779,272 -33.6971,220.5643 -86.0698,870.5593 -162,668 -179.8003,186.0929 -366.30761,944.075 -289.1621,705.9004 C 1021.9493,6282.0103 1000.5134,6841.2957 1048,6994 Z m 9972,-551 c 21.326,-405.8814 -469.852,-1532.7358 -247.875,-1185.625 58.172,-177.6289 -214.57,-915.4046 -170.125,-695 -413.53,-144.8812 -836.6556,-287.5389 -1260.5,-393 72.2749,339.0543 921.553,1419.7224 548.5,890.625 310.389,447.7648 673.377,873.268 930,1350 100.147,296.6058 241.48,859.8335 199.889,194.3164 l 0.09,-76.0718 z m -5930,67 c 281.6871,-82.5152 135.772,-398.6019 173.7957,-611.3554 2.675,-285.4539 760.5225,-741.2067 596.2043,-538.6446 363.6134,-230.5603 1024.7768,439.3699 787,290 366.9442,121.9885 481.7159,987.4176 250,792 288.0517,126.2698 338.5047,-816.864 323,-619.125 C 7425.103,5486.7671 6660.6116,5171.8276 6909,5635 6804.3631,5806.2102 5787.5288,5001.2406 6045.125,5111 5758.7201,5315.2908 4889.6185,5927.3419 5183,5730 c 113.5968,-318.1981 -608.2717,-61.2708 -291.5,-234.25 -71.3401,333.9127 43.4933,758.0762 198.5,1014.25 z M 7446,6377 C 7835.8522,5804.8184 8264.2472,5253.951 8638.75,4672.625 8420.9379,4367.0079 8219.8779,4014.6593 7970,3750 c -218.6059,746.4239 -472.5401,1484.2671 -699.125,2228.25 74.6652,90.7448 70.3411,431.7581 175.125,398.75 z m -2756,-61 c 134.8219,-263.4056 -113.5431,-1061.6963 0,-796 -186.3544,-590.1136 -364.7014,-1184.3513 -551,-1774.375 -227.9317,306.1272 -446.8043,622.4417 -664.5,936.25 380.3694,570.9136 770.6059,1140.1498 1177.375,1691.125 L 4672,6360 Z M 2359,6125 C 2701.1711,5641.0259 3054.3742,5167.6136 3400,4686 3254.5906,4595.9708 2926.991,4372.3081 3020.1727,4084.879 2804.8175,4718.2777 2533.6587,5506.3513 2310,6136 l 22.625,12.5 z m 7421,16 c -226.1235,-657.9679 -428.0538,-1327.5205 -629,-1995 -208.4422,243.7903 -617.4712,551.4521 -221,831 282.7163,386.529 531.8451,803.3481 850,1164 z M 7298,5704 c 173.6313,-566.5442 356.9366,-1134.519 542,-1695 -227.4544,95.8191 -645.8064,758.5451 -438.2616,521.0828 C 7303.2756,4746.1249 6606.7371,5357.1183 7098,5393 c 242.925,-40.683 147.6639,364.0544 200,311 z m -1736,-24 c 264.8576,-72.3441 934.556,188.6288 671.5471,41.6071 C 6476.2655,5739.934 5681.0866,5845.539 5824,5460 c -36.137,40.108 -488.1838,285.0406 -262,220 z m -751,-78 c -26.5431,-307.7686 703.5679,-167.8865 284,-522 -271.6954,-398.9662 -549.7088,-795.0508 -827.125,-1189 72.5639,378.5461 222.9734,825.2391 202.125,740 121.5578,352.3694 214.5423,713.4247 332,1067 z m 479,-12 C 5835.7136,5197.8513 5489.6922,3540.0459 5536.3594,4145.9688 5096.6678,4013.3124 4662.8291,3858.4108 4223.75,3723.875 4577.8389,4270.202 5001.6046,4804.4762 5327,5348 c -1.3211,61.1505 -112.1799,233.4154 -37,242 z m 1526,-35 c -136.1258,-320.5389 510.1644,-1083.9553 365,-822 230.5379,-340.2204 490.5415,-660.8229 704,-1011 -436.1864,154.9164 -881.8475,277.4642 -1317,435 -76.8321,331.7076 -282.3522,1030.2485 -143.5309,1159.0187 347.1226,321.9897 428.2894,363.456 227.5309,163.9813 48.4422,8.756 126.6826,140.5945 164,75 z m -659.5482,-377.707 c -34.5343,-206.7866 73.4555,-427.1874 -112.0237,126.9554 -59.3396,160.5445 454.094,122.3105 534.1643,268.0343 C 6631.6133,5668.7781 6618.4891,5403.4916 6471,5355 Z M 5641,5334 c 370.4232,-103.5086 8.8369,-912.4486 89,-665 -193.9717,-682.8352 -120.3787,698.4872 -114.5156,641.5312 L 5619,5350 Z m 361,-261 c 222.8599,269.6241 535.7162,-1224.4515 328,-474 181.9162,-444.467 171.9681,-436.8072 -75,-519 -169.1857,-102.9449 -586.4969,188.0548 -669.8811,-44.9172 104.9606,269.0282 240.9251,821.6075 370.1311,1073.0422 z M 3450,4615 C 3648.5751,4317.7313 4225.3782,3420.1251 4061.25,3720.875 3731.6599,3856.7701 3383.0697,3946.7804 3050,4075 c 127.6511,166.8574 261.5579,452.7934 400,540 z m 5281,-34 c 186.4603,-256.103 578.397,-580.2849 50,-611 -235.2776,-68.8367 -504.3378,-198.136 -719.75,-230.625 211.3393,285.1724 397.6258,603.2163 621.75,870.625 z m -7191,-81 c 473.6067,-178.0263 979.7197,-291.4689 1442.5,-488.25 263.6772,-847.6208 525.4059,-1695.7145 785.6562,-2544.6875 C 3350.187,1733.4838 2941.4611,2049.3517 2680,2483 c -309.4553,449.7874 -698.1493,859.0351 -940,1346 -142.4573,386.018 -219.7116,729.5577 -215,681 z m 9030,-42 C 10445.024,4081.2926 9852.794,3084.9257 9565.822,2788.002 9220.6386,2322.5859 9392.1577,2471.3086 9010.98,2037.031 8840.0079,1961.9411 8572.1821,2001.063 8425,1610 c 260.4681,806.9791 481.7892,1626.4624 761.375,2426.875 449.1355,170.1624 926.163,281.5909 1374.375,452.125 z M 5535,4080 C 5397.1474,3591.1045 4826.3446,3647.3805 4880.8438,3691.3594 4405.8867,3659.8945 4252.0817,3726.0243 4769,3840 c 250.8412,84.3497 519.8538,180.6723 766,240 z m 140,0 c 261.6031,-138.6605 1062.557,128.5382 801,10 162.5186,-246.3311 -69.6382,-397.1527 261.134,-386.8752 C 6496.698,3557.3693 5376.5853,3768.7116 5619,3690 c -210.1015,-16.5215 -53.2915,400.5808 56,390 z m 940,0 c 381.0181,-123.732 760.7365,-253.1314 1143,-372 -364.3014,-111.4346 -1409.3409,-29.5704 -1075.75,34.625 14.3384,52.9813 -199.0086,378.7855 -67.25,337.375 z m -3497,-90 c 324.0022,-109.4979 645.0418,-225.6909 970.875,-330 C 3883.7895,3440.5876 3298.881,3272.4401 3710,2960 3809.1784,2709.2762 3811.9254,2171.5421 4068.0298,2427.494 3804.8301,2202.0507 4080.7697,1122.9073 4044,1394 c 6.5699,-420.10786 -351.0073,442.2839 -309,386 -218.6129,745.4984 -489.1985,1490.0338 -672.75,2237.5 L 3078,4006 Z m 5986,21 c -273.6116,-873.2266 -532.7218,-1755.5854 -816,-2623 -373.1484,-422.09193 -3.6666,643.8232 -48,435 196.0986,253.9791 54.0194,886.1703 -150,664 371.5957,352.4354 368.8,893.9496 414,813 -301.3359,201.4437 -627.5798,405.9216 -109,480 235.2942,70.8355 479.1828,177.6989 709,231 z M 6825,3730 c 245.3394,-226.2319 1376.2961,92.4927 841,-260 -510.8103,-492.6774 -1196.8501,-552.1569 -1036,-541 237.1752,221.3201 -18.1534,1021.1722 78.125,760.625 28.4721,7.6985 86.6031,64.1496 116.875,40.375 z m -1417,-62 c -217.3352,-176.508 80.7818,-1417.1393 85.25,-745.75 -351.243,-88.0599 -1104.3852,566.9963 -835.25,407.75 -629.7434,374.9348 83.8133,333.8525 1,310 225.9452,-87.1694 604.3685,154.2292 749,28 z m 146,-13 c 250.0326,-60.3689 993.3213,59.8204 742,-100 271.8356,189.5801 493.6189,-558.6069 463,-255 13.7788,-445.2151 -818.2974,-412.4533 -482.1092,-379.5599 -163.0596,-3.1965 -505.7821,-103.3518 -692.4254,36.4732 C 5354.0765,3129.5106 5298.6403,3530.5406 5358,3284 c 62.8538,99.2635 29.732,426.7054 196,371 z m -1335,-70 c 324.4466,-249.8252 657.7514,-488.3688 988.125,-730.125 C 5405.1885,2805.7739 4706.0076,2616.6967 4736,2630 c -466.9411,-241.9483 -737.7931,-0.4759 -713,-18 -281.1344,346.5312 -603.6953,710.6396 -4,922 63.5465,20.0218 137.0458,166.4636 200,51 z m 3831,-7 c 426.1055,-207.1639 529.1531,-484.5516 167,-815 -140.8414,-400.3423 -1070.0527,0.6809 -756,-163 -221.8443,86.9144 -883.2611,357.2221 -671,250 448.2859,112.7364 1436.9175,986.2707 1005,650 84.4688,25.7841 163.8668,190.5483 255,78 z M 6628,2838 c 387.3712,-142.3679 777.23,-277.1439 1162,-423 -1135.6009,-18.3192 -2278.7202,6.2579 -3418,25 555.7672,162.8587 1088.1971,478.7909 1686.0293,413.8262 C 6247.854,2849.3617 6439.1186,2860.8168 6628,2838 Z M 4988,2345 c -427.4409,-520.1696 -574.2215,-1079.5364 -548,-944 85.2534,-278.1341 309.4518,-834.89093 -121.25,-371.5 -258.5072,191.5953 -231.3297,576.291 -363.75,854.5 -46.183,217.3559 706.9662,385.8722 445.2342,469.8993 195.9327,-1.3347 391.9694,-0.6171 587.7658,-8.8993 z m 2124,-26 c 187.5189,-282.8174 427.5218,-565.8352 568,-859 -141.8703,-288.7033 -94.8005,-719.25816 -429.625,-866.125 -371.911,-67.26508 -10.0404,774.0854 -0.375,587.125 129.4526,308.5633 -509.7905,1068.7919 -400,797 -209.354,153.0888 -511.5221,196.2944 -765,272 -478.494,-95.5502 -926.7844,-345.5989 -825,-287 -353.985,-386.4956 -326.632,-933.2485 -350,-812 19.9396,-192.64242 364.7052,-641.87455 -24.625,-558 -307.8762,150.53231 -260.3893,554.9862 -395.375,832 255.7451,618.9473 237.4886,342.0012 475,795 303.4567,290.889 1694.6743,199.8614 1283.3641,130 280.728,-20.9283 605.5912,41.6715 863.6359,-31 z m 881,-3 c 385.2218,-378.5145 82.733,-971.2043 97,-808 20.8492,-357.9298 -391.962,-571.91261 -520,-602 46.338,267.8783 -221.0931,1027.6169 35,801 -158.8033,285.6049 -721.5914,786.9005 -37,643 133.9523,-21.8021 319.0196,44.2821 425,-34 z M 6184.02,2182.8125 c 288.0248,-126.173 482.2174,-240.4202 694.96,-451.1874 C 7222.1948,1317.0101 6945.042,771.27718 7150,1051 7427.6053,136.87994 5273.3844,1265.2473 6404,750 5950.9691,1210.9857 5188.8534,455.30746 5514.375,593 5183.0431,475.37376 4970.9277,1264.038 5025,990 c -246.8406,444.6157 229.9215,902.6945 155,741 103.2154,307.0724 441.0776,318.8168 705,409 81.294,-0.9424 429.0589,148.748 299.02,42.8125 z M 6100,875 c 494.0903,-360.80524 -501.3242,-418.68098 -70,-37 0.8427,24.8335 49.3781,78.31289 70,37 z m -170,-93 c -137.7733,-336.99664 -445.9608,-171.56548 0,0 z m 370,-27 c 516.0864,-356.01936 -244.876,-6.61859 0,0 z"
       id="path1-1"
       sodipodi:nodetypes="cccccccccccccccccccccccccccccccccccccccccccccccccccccccccccccccccccccccccccccccccccccccccccccccccccccccccccccccccccccccccccccccccccccccccccccccccccccccccccccccccccccccccccccccccccccccccccccscsccccccccccccccccccccccccccccccccccccccccccccccccccccccccccccccccccccccccccccccccccccccccccccccccccsccccscccccccccccccccccccccccccccccccccccccccccccccccccccccccccccccccccccccccccccccccscccccccccccccccccccccccccccccccccccccccccccccccccccccccccccc" /><path
       d="m 2993,14663 c -7,-2 -13,-13 -13,-23 0,-23 74,-63 101,-55 26,9 26,55 0,55 -10,0 -24,7 -31,15 -12,15 -34,18 -57,8 z"
       id="path2-1" /><path
       d="m 8806,14617 c -17,-14 -26,-29 -22,-35 8,-14 76,-16 76,-3 0,5 10,11 23,13 14,2 22,10 22,23 0,31 -62,32 -99,2 z"
       id="path3-8" /><path
       d="m 3130,14595 c 0,-9 11,-21 25,-27 14,-6 25,-15 25,-20 0,-4 21,-8 46,-8 41,0 45,2 42,23 -2,15 -11,23 -28,25 -14,2 -29,8 -34,13 -17,16 -76,11 -76,-6 z"
       id="path4-3" /><path
       d="m 8665,14580 c -70,-40 -72,-60 -6,-60 28,0 51,5 51,10 0,6 9,10 20,10 28,0 36,27 15,50 -22,24 -19,25 -80,-10 z"
       id="path5-6" /><path
       d="m 2860,14580 c 0,-5 5,-10 11,-10 5,0 7,5 4,10 -3,6 -8,10 -11,10 -2,0 -4,-4 -4,-10 z"
       id="path6-3" /><path
       d="m 3306,14554 c -21,-21 -20,-31 4,-39 11,-3 20,-11 20,-16 0,-5 20,-9 45,-9 41,0 45,2 45,25 0,19 -5,25 -22,25 -13,0 -32,7 -42,15 -25,19 -31,19 -50,-1 z"
       id="path7-1" /><path
       d="m 8525,14531 c -6,-5 -21,-11 -35,-13 -17,-2 -26,-10 -28,-25 -3,-21 1,-23 40,-23 51,0 92,27 82,53 -7,18 -44,23 -59,8 z"
       id="path8-9" /><path
       d="m 3475,14499 c -4,-5 -4,-21 -1,-35 5,-19 13,-24 40,-24 19,0 36,-6 39,-12 7,-19 42,5 42,28 0,12 -11,22 -30,27 -16,5 -38,13 -47,18 -23,12 -35,11 -43,-2 z"
       id="path9-5" /><path
       d="m 8338,14469 c -47,-24 -54,-36 -32,-60 15,-17 19,-18 34,-4 9,8 26,15 37,15 11,0 27,8 36,18 13,14 13,20 3,35 -16,21 -30,20 -78,-4 z"
       id="path10-1" /><path
       d="m 3637,14442 c -18,-19 -15,-23 58,-63 33,-18 75,-10 75,14 0,22 -34,47 -63,47 -14,0 -29,5 -32,10 -9,15 -20,12 -38,-8 z"
       id="path11-1" /><path
       d="m 8215,14430 c -3,-6 -19,-10 -34,-10 -15,0 -36,-9 -46,-20 -18,-20 -18,-21 2,-41 18,-18 23,-19 44,-8 13,7 30,14 36,15 15,3 43,29 43,41 0,14 -38,34 -45,23 z"
       id="path12-1" /><path
       d="m 3803,14382 c -17,-17 -1,-42 28,-42 10,0 21,-4 24,-10 11,-18 60,-11 73,10 10,16 10,20 -2,20 -7,0 -19,6 -25,14 -17,20 -80,25 -98,8 z"
       id="path13-4" /><path
       d="m 7980,14345 c -39,-42 7,-75 54,-40 11,8 28,15 39,15 13,0 18,6 15,23 -4,32 -78,34 -108,2 z"
       id="path14-6" /><path
       d="m 3972,14318 c 2,-15 11,-24 26,-26 12,-2 22,-8 22,-13 0,-12 67,-12 74,0 10,16 -5,41 -24,41 -11,0 -22,5 -25,10 -3,6 -22,10 -41,10 -31,0 -35,-3 -32,-22 z"
       id="path15-0" /><path
       d="m 7822,14299 c -43,-28 -39,-53 8,-57 44,-3 95,33 85,61 -10,23 -52,22 -93,-4 z"
       id="path16-1" /><path
       d="m 4143,14274 c -3,-9 -2,-24 4,-33 13,-20 81,-32 106,-19 28,14 17,42 -18,46 -17,2 -34,8 -39,13 -16,15 -46,10 -53,-7 z"
       id="path17-9" /><path
       d="m 7690,14255 c -7,-8 -18,-15 -25,-15 -16,0 -47,-35 -38,-43 3,-4 27,-7 53,-7 36,0 52,5 69,23 13,15 19,30 15,40 -8,21 -57,22 -74,2 z"
       id="path18-9" /><path
       d="m 4306,14222 c -15,-18 -15,-20 2,-35 10,-10 24,-17 31,-17 6,0 23,-7 37,-16 24,-16 26,-16 46,6 26,28 14,53 -28,58 -16,2 -33,8 -38,13 -15,14 -31,11 -50,-9 z"
       id="path19-0" /><path
       d="m 7540,14205 c -7,-8 -25,-15 -40,-15 -34,0 -47,-26 -25,-50 14,-15 21,-16 51,-5 19,6 40,17 46,23 7,7 18,12 25,12 18,0 16,14 -5,33 -23,21 -36,21 -52,2 z"
       id="path20-7" /><path
       d="m 4457,14164 c -13,-14 14,-44 40,-44 15,0 34,-7 44,-16 22,-20 49,-12 49,14 0,31 -32,52 -82,52 -24,0 -48,-3 -51,-6 z"
       id="path21-5" /><path
       d="m 7390,14156 c -7,-9 -25,-16 -40,-16 -32,0 -53,-21 -48,-47 3,-19 48,-32 48,-14 0,6 12,11 28,11 16,0 35,9 46,21 17,21 17,22 -1,41 -18,17 -21,17 -33,4 z"
       id="path22-8" /><path
       d="m 4640,14095 c 0,-18 5,-25 19,-25 10,0 24,-7 31,-15 16,-19 54,-19 70,0 13,16 6,35 -14,35 -8,0 -19,7 -26,15 -7,8 -28,15 -46,15 -30,0 -34,-3 -34,-25 z"
       id="path23-1" /><path
       d="m 7215,14100 c -3,-5 -15,-10 -26,-10 -10,0 -19,-4 -19,-10 0,-5 -9,-10 -19,-10 -30,0 -36,-20 -13,-42 19,-19 22,-19 48,-5 16,9 41,18 57,22 32,7 37,39 8,55 -24,12 -28,13 -36,0 z"
       id="path24-3" /><path
       d="m 4797,14063 c -16,-15 -5,-32 33,-52 47,-25 83,-27 100,-6 16,19 5,35 -24,35 -13,0 -29,7 -36,15 -13,15 -61,21 -73,8 z"
       id="path25-1" /><path
       d="m 7025,14031 c -3,-6 -14,-11 -24,-11 -10,0 -24,-7 -31,-15 -8,-9 -29,-15 -56,-15 -23,0 -46,-4 -49,-10 -3,-5 -20,-10 -36,-10 -26,0 -30,-3 -27,-22 2,-19 10,-24 44,-26 27,-2 45,2 54,13 7,8 25,15 41,15 15,0 31,5 34,10 3,6 19,10 35,10 37,0 91,31 88,50 -4,18 -63,26 -73,11 z"
       id="path26-1" /><path
       d="m 4970,14005 c -10,-13 -9,-19 6,-36 17,-18 17,-22 2,-47 -21,-35 -10,-55 28,-50 25,3 30,8 34,38 4,27 10,36 28,38 27,4 31,42 5,42 -10,0 -27,7 -37,15 -25,19 -50,19 -66,0 z"
       id="path27-4" /><path
       d="m 5140,13947 c 0,-33 30,-57 71,-57 49,0 64,12 50,39 -8,14 -21,21 -41,21 -16,0 -32,5 -35,10 -3,6 -15,10 -26,10 -13,0 -19,-7 -19,-23 z"
       id="path28" /><path
       d="m 6690,13935 c -14,-7 -33,-16 -42,-19 -10,-3 -18,-15 -18,-26 0,-18 6,-20 53,-20 41,0 58,5 72,20 17,19 17,21 0,40 -21,23 -31,24 -65,5 z"
       id="path29" /><path
       d="m 5310,13899 c -16,-29 12,-48 73,-49 40,0 47,3 47,20 0,15 -7,20 -29,20 -16,0 -34,7 -41,15 -17,21 -37,19 -50,-6 z"
       id="path30" /><path
       d="m 6967,13902 c -10,-10 -17,-23 -17,-29 0,-13 19,-49 42,-83 17,-24 18,-24 33,-5 17,24 18,32 5,40 -5,3 -10,19 -10,34 0,15 -8,35 -18,45 -18,15 -20,15 -35,-2 z"
       id="path31" /><path
       d="m 6525,13881 c -6,-5 -21,-11 -35,-13 -17,-2 -25,-9 -25,-23 0,-17 8,-20 49,-23 53,-3 86,16 86,50 0,14 -8,18 -33,18 -18,0 -37,-4 -42,-9 z"
       id="path32" /><path
       d="m 5465,13849 c -5,-15 -1,-25 16,-37 31,-22 89,-32 112,-20 18,9 18,11 -4,34 -12,13 -33,24 -45,24 -13,0 -26,5 -29,10 -11,18 -43,11 -50,-11 z"
       id="path33" /><path
       d="m 6380,13835 c -7,-8 -26,-15 -42,-15 -36,0 -49,-27 -23,-46 20,-15 38,-12 93,12 37,17 39,24 14,47 -23,21 -26,21 -42,2 z"
       id="path34" /><path
       d="m 4940,13789 c 0,-18 -7,-37 -16,-44 -15,-10 -15,-13 1,-28 26,-26 54,-21 60,11 4,15 10,35 16,44 18,35 11,48 -26,48 -33,0 -35,-2 -35,-31 z"
       id="path35" /><path
       d="m 5633,13805 c -8,-22 25,-55 54,-55 13,0 32,-4 42,-10 13,-6 24,-5 37,4 15,12 16,16 5,30 -7,9 -26,16 -42,16 -15,0 -34,7 -43,15 -19,19 -45,19 -53,0 z"
       id="path36" /><path
       d="m 6205,13781 c -6,-5 -23,-11 -40,-13 -36,-4 -49,-42 -17,-50 28,-8 84,5 112,24 24,17 24,18 5,33 -23,17 -47,19 -60,6 z"
       id="path37" /><path
       d="m 5806,13754 c -9,-36 9,-54 55,-54 21,0 41,-4 44,-10 13,-21 26,-9 23,23 -3,27 -7,32 -33,35 -16,2 -38,10 -49,18 -28,19 -33,18 -40,-12 z"
       id="path38" /><path
       d="m 6008,13722 c -72,-38 -61,-66 20,-55 23,3 49,14 58,24 16,18 16,20 -1,39 -22,24 -18,24 -77,-8 z"
       id="path39" /><path
       d="m 7013,13744 c -31.2707,-30.175 16.0245,-66.815 10.8699,-101.902 7.235,-39.447 60.8285,-45.156 71.9977,-5.87 3.6515,33.475 -33.8637,56.295 -31.2183,91.68 -8.0576,20.547 -33.218,28.048 -51.6493,16.092 z"
       id="path40" /><path
       d="m 4904,13658 c -5,-7 -18,-30 -28,-51 -20,-38 -20,-38 2,-60 22,-21 22,-21 41,-2 26,26 33,118 10,123 -9,2 -20,-3 -25,-10 z"
       id="path41" /><path
       d="m 7060,13573 c -10,-12 -11,-18 -2,-21 7,-2 12,-16 12,-30 0,-15 9,-38 20,-52 16,-20 22,-23 37,-14 24,14 28,47 8,64 -8,7 -15,20 -15,29 0,19 -19,41 -34,41 -6,-1 -18,-8 -26,-17 z"
       id="path42" /><path
       d="m 1546,13553 c -14,-14 -5,-89 14,-113 16,-20 22,-23 37,-14 24,14 28,47 8,64 -8,7 -15,21 -15,31 0,19 -33,43 -44,32 z"
       id="path43" /><path
       d="m 10387,13502 c -10,-10 -17,-30 -17,-45 0,-14 -4,-29 -10,-32 -26,-16 8,-40 41,-30 13,5 19,16 19,37 0,17 7,36 17,43 20,15 11,45 -15,45 -10,0 -26,-8 -35,-18 z"
       id="path44" /><path
       d="m 4844,13483 c -3,-10 -13,-32 -22,-50 -13,-26 -13,-34 -3,-47 8,-9 19,-16 25,-16 19,1 44,45 48,86 3,34 0,39 -20,42 -14,2 -24,-3 -28,-15 z"
       id="path45" /><path
       d="m 7120,13384 c 0,-43 33,-94 61,-94 15,0 19,7 19,34 0,18 -7,39 -15,46 -8,7 -15,21 -15,31 0,14 -7,19 -25,19 -22,0 -25,-4 -25,-36 z"
       id="path46" /><path
       d="m 7200,13410 c 0,-5 5,-10 10,-10 6,0 10,5 10,10 0,6 -4,10 -10,10 -5,0 -10,-4 -10,-10 z"
       id="path47" /><path
       d="m 1597,13393 c -11,-10 -8,-61 3,-68 6,-3 10,-15 10,-26 0,-14 7,-19 25,-19 22,0 25,4 25,35 0,55 -39,103 -63,78 z"
       id="path48" /><path
       d="m 10332,13338 c -7,-7 -12,-20 -12,-30 0,-10 -5,-27 -12,-37 -9,-15 -9,-23 2,-36 22,-26 54,-15 58,20 2,17 11,38 19,47 9,10 13,24 10,33 -7,18 -48,20 -65,3 z"
       id="path49" /><path
       d="m 4797,13324 c -4,-4 -7,-14 -7,-22 0,-9 -7,-23 -15,-32 -19,-21 -5,-70 19,-70 20,0 43,45 48,90 2,29 -1,36 -17,38 -12,2 -24,0 -28,-4 z"
       id="path50" /><path
       d="m 7177,13243 c -13,-12 -7,-61 8,-67 8,-3 15,-15 15,-26 0,-16 5,-21 23,-18 16,2 23,11 25,34 5,47 -46,102 -71,77 z"
       id="path51" /><path
       d="m 1640,13195 c 0,-14 4,-33 9,-43 5,-9 12,-25 15,-35 9,-27 62,-20 58,8 -13,85 -16,90 -50,93 -29,3 -32,1 -32,-23 z"
       id="path52" /><path
       d="m 10287,13182 c -10,-10 -17,-24 -17,-31 0,-6 -7,-23 -17,-37 -15,-24 -15,-26 5,-47 21,-20 22,-20 42,-2 11,10 20,25 20,34 0,9 7,27 16,39 15,21 15,25 -2,43 -21,24 -27,24 -47,1 z"
       id="path53" /><path
       d="m 4747,13173 c -4,-3 -7,-14 -7,-23 0,-10 -7,-23 -16,-30 -19,-17 -14,-64 8,-68 9,-2 26,6 37,17 26,26 29,96 5,105 -19,7 -19,7 -27,-1 z"
       id="path54" /><path
       d="m 7232,13088 c -16,-16 -15,-43 3,-58 8,-7 15,-20 15,-30 0,-22 25,-44 40,-35 14,8 5,87 -12,115 -15,23 -29,25 -46,8 z"
       id="path55" /><path
       d="m 1706,13046 c -14,-9 -14,-16 -2,-49 7,-21 20,-46 29,-55 16,-15 19,-15 39,5 20,21 20,23 5,47 -10,14 -17,32 -17,39 0,19 -35,28 -54,13 z"
       id="path56" /><path
       d="m 10231,13017 c -6,-8 -9,-21 -6,-29 4,-9 -1,-23 -10,-32 -21,-21 -15,-50 11,-54 31,-4 46,21 42,74 -3,49 -17,65 -37,41 z"
       id="path57" /><path
       d="m 4687,12983 c -8,-10 -17,-36 -19,-58 -3,-34 0,-40 18,-43 16,-2 23,4 28,22 3,15 11,26 16,26 6,0 10,16 10,35 0,27 -4,35 -18,35 -11,0 -26,-8 -35,-17 z"
       id="path58" /><path
       d="m 7282,12918 c -17,-17 -15,-35 3,-42 10,-3 15,-15 13,-32 -4,-32 19,-49 55,-40 l 27,6 -17,38 c -17,37 -51,82 -63,82 -3,0 -11,-5 -18,-12 z"
       id="path59" /><path
       d="m 1760,12858 c 1,-56 30,-94 60,-78 24,13 25,25 5,64 -8,15 -15,35 -15,42 0,8 -10,14 -25,14 -23,0 -25,-4 -25,-42 z"
       id="path60" /><path
       d="m 4641,12827 c -5,-14 -15,-28 -20,-32 -16,-9 -13,-71 4,-85 21,-18 45,4 45,41 0,16 5,29 10,29 17,0 11,36 -10,55 -19,17 -20,17 -29,-8 z"
       id="path61" /><path
       d="m 10177,12844 c -4,-4 -7,-16 -7,-26 0,-10 -4,-18 -10,-18 -5,0 -10,-16 -10,-35 0,-29 4,-35 20,-35 11,0 23,8 27,18 3,9 12,25 20,34 20,23 13,62 -12,66 -12,2 -24,0 -28,-4 z"
       id="path62" /><path
       d="m 7340,12755 c -10,-12 -10,-19 -2,-27 7,-7 12,-23 12,-37 0,-15 7,-35 15,-45 14,-19 15,-19 35,-1 24,21 26,50 5,59 -8,3 -15,14 -15,24 0,18 -18,42 -31,42 -4,0 -12,-7 -19,-15 z"
       id="path63" /><path
       d="m 1817,12723 c -13,-12 -7,-60 8,-73 8,-7 15,-19 15,-27 0,-19 30,-29 41,-12 29,46 -29,148 -64,112 z"
       id="path64" /><path
       d="m 10130,12686 c 0,-7 -7,-19 -15,-26 -22,-18 -16,-94 7,-98 21,-4 48,55 48,104 0,27 -4,34 -20,34 -11,0 -20,-6 -20,-14 z"
       id="path65" /><path
       d="m 4587,12662 c -10,-10 -17,-29 -17,-41 0,-12 -4,-31 -10,-41 -7,-13 -6,-21 5,-30 18,-15 54,3 53,28 0,9 6,32 13,50 12,28 12,34 -1,42 -21,13 -25,13 -43,-8 z"
       id="path66" /><path
       d="m 7397,12593 c -4,-3 -7,-21 -7,-38 0,-37 40,-81 64,-72 20,8 21,51 1,67 -8,7 -15,21 -15,31 0,19 -29,27 -43,12 z"
       id="path67" /><path
       d="m 1877,12562 c -20,-22 -22,-43 -6,-59 6,-6 16,-21 23,-34 20,-40 34,-33 38,20 2,36 -2,56 -14,71 -20,24 -21,25 -41,2 z"
       id="path68" /><path
       d="m 10067,12509 c -24,-28 -20,-102 6,-107 10,-2 19,4 23,15 3,10 12,30 20,46 29,53 -11,91 -49,46 z"
       id="path69" /><path
       d="m 4520,12473 c 0,-14 -7,-35 -16,-45 -14,-14 -14,-20 -4,-33 27,-33 70,-13 70,32 0,8 9,28 21,44 l 20,29 h -45 c -43,0 -46,-2 -46,-27 z"
       id="path70" /><path
       d="m 7442,12418 c -17,-17 -15,-32 8,-53 11,-10 20,-26 20,-37 0,-13 7,-18 25,-18 21,0 25,5 25,29 0,37 -30,91 -50,91 -9,0 -21,-5 -28,-12 z"
       id="path71" /><path
       d="m 1937,12394 c -13,-13 -7,-69 9,-92 10,-15 24,-22 37,-20 25,3 35,37 15,49 -7,5 -13,21 -13,36 0,21 -5,29 -20,31 -12,2 -24,0 -28,-4 z"
       id="path72" /><path
       d="m 10018,12347 c -26,-50 -31,-92 -14,-107 23,-18 46,-5 46,26 0,15 8,36 17,46 16,18 15,20 -8,43 l -24,25 z"
       id="path73" /><path
       d="m 4483,12335 c -7,-8 -13,-22 -13,-32 0,-10 -7,-28 -15,-40 -18,-25 -10,-53 15,-53 23,0 52,34 48,58 -2,10 3,27 11,36 12,14 11,18 -5,31 -23,18 -26,18 -41,0 z"
       id="path74" /><path
       d="m 7508,12259 c -22,-12 -23,-32 -3,-49 8,-7 15,-23 15,-35 0,-30 26,-53 42,-37 14,14 12,87 -3,114 -11,20 -26,22 -51,7 z"
       id="path75" /><path
       d="m 1987,12223 c -8,-13 -3,-46 13,-81 11,-23 21,-32 35,-30 24,4 34,56 13,69 -7,5 -13,16 -13,26 0,18 -39,31 -48,16 z"
       id="path76" /><path
       d="m 9967,12190 c -9,-11 -17,-27 -17,-35 0,-9 -6,-24 -12,-35 -11,-16 -10,-23 5,-37 23,-23 51,-7 55,33 2,16 9,35 15,42 8,10 5,18 -9,33 -19,19 -20,19 -37,-1 z"
       id="path77" /><path
       d="m 4420,12165 c 0,-8 -8,-30 -17,-50 -16,-34 -16,-36 4,-57 20,-20 23,-20 38,-4 24,24 39,94 24,112 -15,18 -49,18 -49,-1 z"
       id="path78" /><path
       d="m 7550,12095 c -10,-13 -10,-19 4,-33 9,-10 16,-30 16,-44 0,-20 6,-27 28,-31 32,-6 51,8 34,25 -7,7 -12,23 -12,36 0,53 -41,81 -70,47 z"
       id="path79" /><path
       d="m 2037,12074 c -12,-13 -8,-51 8,-64 8,-7 15,-21 15,-31 0,-14 7,-19 25,-19 22,0 25,4 25,34 0,21 -6,36 -15,40 -9,3 -15,14 -13,23 3,18 -31,31 -45,17 z"
       id="path80" /><path
       d="m 9907,12033 c -4,-3 -7,-21 -7,-40 0,-18 -4,-33 -10,-33 -5,0 -10,-12 -10,-26 0,-23 3,-25 32,-22 29,3 34,7 39,38 3,19 10,43 14,52 5,13 0,20 -20,28 -31,12 -30,12 -38,3 z"
       id="path81" /><path
       d="m 4370,11993 c 0,-11 -7,-28 -15,-39 -23,-31 -19,-64 8,-64 36,0 59,32 55,77 -2,31 -7,39 -25,41 -17,3 -23,-2 -23,-15 z"
       id="path82" /><path
       d="m 7603,11927 c -3,-5 0,-14 6,-20 6,-6 11,-23 11,-37 0,-32 33,-65 55,-57 17,7 21,52 5,62 -5,3 -10,17 -10,29 0,19 -7,25 -30,28 -17,3 -33,1 -37,-5 z"
       id="path83" /><path
       d="m 2084,11895 c -4,-9 1,-24 10,-34 9,-10 16,-29 16,-43 0,-34 23,-42 51,-18 16,15 19,23 11,32 -6,7 -12,27 -14,43 -3,26 -8,30 -36,33 -22,2 -34,-2 -38,-13 z"
       id="path84" /><path
       d="m 9867,11862 c -10,-10 -17,-24 -17,-30 0,-7 -9,-21 -20,-32 -26,-26 -25,-34 5,-50 22,-12 27,-11 45,5 15,14 20,31 20,72 0,57 -7,64 -33,35 z"
       id="path85" /><path
       d="m 4315,11823 c -36,-54 -31,-113 10,-113 6,0 42,66 48,89 6,25 -7,61 -23,61 -5,0 -21,-17 -35,-37 z"
       id="path86" /><path
       d="m 7683,11783 c -8,-3 -13,-22 -13,-44 0,-22 6,-49 13,-62 6,-12 13,-24 14,-25 1,-2 11,-1 22,3 15,4 21,15 21,35 0,16 -4,32 -10,35 -5,3 -10,17 -10,30 0,24 -16,35 -37,28 z"
       id="path87" /><path
       d="m 2147,11741 c -16,-16 -16,-20 -2,-31 25,-20 19,-83 -10,-110 -26,-24 -33,-64 -14,-76 12,-7 89,71 89,91 0,7 7,18 15,25 14,12 14,15 0,36 -8,13 -15,30 -15,37 0,13 -31,48 -41,46 -2,0 -12,-8 -22,-18 z"
       id="path88" /><path
       d="m 9781,11676 c -39,-40 -36,-66 7,-66 30,0 62,-26 62,-51 0,-8 9,-20 21,-27 18,-11 24,-11 40,4 10,9 19,20 19,24 0,4 -18,25 -40,46 -30,30 -40,47 -40,72 0,43 -26,43 -69,-2 z"
       id="path89" /><path
       d="m 4270,11661 c 0,-10 -7,-22 -16,-25 -22,-8 -15,-70 8,-74 22,-4 58,52 58,91 0,22 -4,27 -25,27 -18,0 -25,-5 -25,-19 z"
       id="path90" /><path
       d="m 2267,11633 c -14,-13 -7,-43 11,-43 9,0 26,-7 36,-15 36,-27 76,-15 76,24 0,24 -104,54 -123,34 z"
       id="path91" /><path
       d="m 9630,11626 c -7,-9 -21,-16 -31,-16 -24,0 -26,-38 -2,-55 12,-9 22,-9 37,-1 47,25 68,45 64,63 -4,23 -50,29 -68,9 z"
       id="path92" /><path
       d="m 7720,11575 c 0,-43 25,-85 51,-85 24,0 26,44 3,88 -22,46 -54,44 -54,-3 z"
       id="path93" /><path
       d="m 2428,11579 c -27,-15 -22,-25 25,-48 52,-25 93,-27 101,-5 7,19 -1,34 -18,34 -8,0 -19,7 -26,15 -14,17 -57,19 -82,4 z"
       id="path94" /><path
       d="m 9480,11575 c -7,-8 -20,-15 -29,-15 -33,0 -55,-42 -28,-53 22,-8 98,9 115,27 14,14 14,17 -3,36 -22,24 -38,25 -55,5 z"
       id="path95" /><path
       d="m 2593,11528 c -21,-33 -31,-58 -23,-58 4,0 10,5 12,12 3,8 11,7 28,-5 29,-21 110,-23 110,-4 0,17 -20,37 -38,37 -7,0 -20,7 -28,15 -19,18 -50,20 -61,3 z"
       id="path96" /><path
       d="m 9331,11526 c -7,-8 -27,-16 -44,-18 -27,-2 -32,-7 -32,-28 0,-23 3,-25 45,-22 51,4 82,27 78,56 -4,25 -30,32 -47,12 z"
       id="path97" /><path
       d="m 2038,11475 c -36,-42 -38,-85 -5,-85 16,0 28,9 37,28 8,15 21,35 28,44 8,10 12,24 9,33 -10,24 -40,16 -69,-20 z"
       id="path98" /><path
       d="m 4207,11478 c -22,-47 -17,-82 11,-86 16,-3 22,2 22,17 0,11 4,22 9,26 14,8 40,63 33,69 -3,3 -18,6 -33,6 -20,0 -30,-8 -42,-32 z"
       id="path99" /><path
       d="m 9928,11481 c -4,-24 2,-37 28,-62 31,-30 63,-36 71,-13 2,7 -2,18 -9,26 -7,7 -21,27 -30,43 -23,42 -54,45 -60,6 z"
       id="path100" /><path
       d="m 2756,11473 c -4,-10 2,-25 15,-40 18,-18 33,-23 70,-23 26,0 51,5 54,11 8,12 -23,38 -46,39 -9,0 -22,7 -29,15 -17,20 -56,19 -64,-2 z"
       id="path101" /><path
       d="m 9175,11471 c -3,-6 -22,-11 -40,-11 -43,0 -66,-33 -41,-58 12,-13 20,-13 38,-4 13,6 34,12 48,14 20,2 25,8 25,32 0,30 -18,46 -30,27 z"
       id="path102" /><path
       d="m 7781,11441 c -24,-18 -24,-20 -8,-45 9,-14 17,-34 17,-44 0,-11 7,-26 16,-33 14,-11 18,-11 29,4 17,23 8,96 -14,119 -15,16 -17,16 -40,-1 z"
       id="path103" /><path
       d="m 2937,11433 c -18,-17 -6,-54 21,-64 15,-7 37,-16 50,-22 28,-13 45,1 40,34 -2,17 -10,25 -30,27 -14,2 -32,10 -38,18 -13,15 -32,18 -43,7 z"
       id="path104" /><path
       d="m 9005,11420 c -3,-5 -18,-10 -33,-10 -40,-1 -69,-26 -56,-48 13,-20 52,-28 67,-13 6,6 18,11 27,11 9,0 25,6 35,14 19,14 19,15 1,35 -21,23 -32,26 -41,11 z"
       id="path105" /><path
       d="m 1935,11346 c -31,-31 -35,-86 -7,-86 10,0 33,16 52,35 28,29 32,39 24,53 -17,26 -41,26 -69,-2 z"
       id="path106" /><path
       d="m 3085,11360 c -11,-17 25,-50 55,-50 14,0 31,-5 37,-11 7,-7 19,-9 27,-6 19,8 21,41 4,54 -20,16 -115,25 -123,13 z"
       id="path107" /><path
       d="m 8815,11363 c -55,-14 -77,-73 -27,-73 64,0 122,56 76,74 -17,6 -18,6 -49,-1 z"
       id="path108" /><path
       d="m 2040,11349 c 0,-5 5,-7 10,-4 6,3 10,8 10,11 0,2 -4,4 -10,4 -5,0 -10,-5 -10,-11 z"
       id="path109" /><path
       d="m 4156,11336 c -18,-28 -22,-91 -6,-101 14,-8 52,14 44,26 -3,6 2,19 11,29 22,25 16,64 -11,68 -14,2 -27,-6 -38,-22 z"
       id="path110" /><path
       d="m 10030,11342 c 0,-10 9,-28 20,-40 11,-12 20,-28 20,-36 0,-24 20,-29 41,-10 26,24 24,35 -14,72 -37,36 -67,42 -67,14 z"
       id="path111" /><path
       d="m 3252,11288 c 2,-17 11,-24 33,-26 17,-2 34,-8 40,-13 15,-14 55,-10 62,6 11,31 -26,55 -84,55 -51,0 -54,-2 -51,-22 z"
       id="path112" /><path
       d="m 8635,11300 c -3,-5 -14,-10 -25,-10 -25,0 -33,-26 -13,-45 19,-19 53,-13 94,16 36,25 28,49 -16,49 -19,0 -37,-4 -40,-10 z"
       id="path113" /><path
       d="m 7832,11287 c -22,-10 -23,-38 -1,-61 5,-6 9,-20 9,-33 0,-20 5,-23 36,-23 33,0 36,2 29,23 -4,12 -9,34 -12,49 -7,39 -33,58 -61,45 z"
       id="path114" /><path
       d="m 3424,11245 c -8,-19 3,-35 25,-35 9,0 22,-5 28,-11 6,-6 23,-9 39,-7 37,4 42,41 7,46 -13,2 -23,8 -23,13 0,15 -70,11 -76,-6 z"
       id="path115" /><path
       d="m 8485,11250 c -3,-5 -13,-10 -20,-10 -19,0 -55,-31 -49,-42 3,-4 29,-8 58,-8 57,0 94,25 83,55 -7,17 -62,21 -72,5 z"
       id="path116" /><path
       d="m 1827,11196 c -40,-48 -46,-73 -21,-83 10,-4 30,10 60,42 41,46 43,49 27,67 -9,10 -19,18 -22,18 -4,0 -23,-20 -44,-44 z"
       id="path117" /><path
       d="m 10136,11214 -19,-26 42,-41 c 38,-39 42,-40 58,-25 13,14 14,20 3,33 -7,8 -20,30 -30,47 -22,41 -31,43 -54,12 z"
       id="path118" /><path
       d="m 3593,11213 c -7,-2 -13,-13 -13,-24 0,-25 49,-49 100,-49 37,0 41,2 38,22 -2,14 -11,24 -23,26 -11,2 -34,10 -52,18 -17,8 -33,14 -35,13 -1,0 -9,-3 -15,-6 z"
       id="path119" /><path
       d="m 8325,11206 c -16,-8 -38,-17 -48,-20 -26,-8 -32,-35 -13,-54 13,-14 20,-14 36,-4 11,6 27,12 35,12 25,0 57,39 50,61 -7,22 -19,23 -60,5 z"
       id="path120" /><path
       d="m 4101,11144 c -17,-36 -19,-49 -10,-60 7,-9 9,-29 5,-56 -6,-37 -4,-44 26,-75 32,-33 61,-42 74,-22 3,6 -8,26 -26,44 -22,23 -28,35 -20,40 7,4 16,1 21,-6 13,-21 44,2 44,32 0,21 -5,24 -37,27 -43,4 -48,18 -22,62 20,32 13,60 -15,60 -13,0 -26,-15 -40,-46 z"
       id="path121" /><path
       d="m 3763,11163 c -19,-7 -15,-36 7,-56 21,-18 120,-25 120,-9 0,12 -34,42 -47,42 -6,0 -16,7 -23,15 -12,15 -34,18 -57,8 z"
       id="path122" /><path
       d="m 8170,11155 c -7,-8 -20,-15 -30,-15 -9,0 -25,-9 -35,-20 -18,-19 -18,-22 -2,-38 14,-14 21,-14 37,-4 11,6 30,12 42,12 24,0 53,34 43,50 -14,22 -43,30 -55,15 z"
       id="path123" /><path
       d="m 3925,11100 c -13,-20 7,-51 36,-57 16,-3 32,-10 35,-14 12,-20 42,-8 47,18 7,35 2,43 -28,43 -13,0 -27,5 -30,10 -8,13 -52,13 -60,0 z"
       id="path124" /><path
       d="m 7883,11088 c 2,-21 -1,-23 -48,-20 -62,3 -78,-6 -69,-41 6,-28 18,-34 29,-17 10,16 77,12 96,-6 18,-16 26,-15 59,5 25,14 64,30 85,33 26,4 31,33 10,54 -12,13 -19,14 -28,5 -14,-14 -77,-15 -77,-1 0,6 -13,10 -30,10 -25,0 -29,-4 -27,-22 z"
       id="path125" /><path
       d="m 10227,11078 c -4,-13 0,-32 8,-43 37,-53 53,-67 71,-63 30,6 18,57 -23,95 -41,39 -49,40 -56,11 z"
       id="path126" /><path
       d="m 1733,11078 c -5,-7 -18,-28 -27,-47 -15,-31 -15,-37 -1,-50 13,-13 19,-11 50,19 26,25 35,42 33,60 -3,28 -38,40 -55,18 z"
       id="path127" /><path
       d="m 4277,11064 c -10,-11 -9,-64 2,-64 6,0 12,4 15,9 4,5 18,5 35,-2 40,-15 63,-3 59,30 -3,26 -7,28 -53,31 -28,2 -54,0 -58,-4 z"
       id="path128" /><path
       d="m 4452,11061 c -8,-5 -12,-17 -10,-27 3,-16 12,-19 63,-19 51,0 60,3 63,19 5,25 -14,36 -63,36 -22,0 -46,-4 -53,-9 z"
       id="path129" /><path
       d="m 4621,11056 c -9,-11 -9,-20 -2,-35 10,-18 31,-21 101,-11 23,3 31,19 21,39 -10,17 -21,21 -60,21 -30,0 -53,-5 -60,-14 z"
       id="path130" /><path
       d="m 4797,11063 c -13,-12 -7,-38 11,-49 26,-16 83,-11 95,7 20,31 1,49 -51,49 -27,0 -52,-3 -55,-7 z"
       id="path131" /><path
       d="m 4970,11060 c -12,-7 -12,-13 -4,-27 12,-19 86,-38 110,-29 19,7 18,52 -2,60 -24,9 -87,7 -104,-4 z"
       id="path132" /><path
       d="m 5147,11063 c -4,-3 -7,-17 -7,-30 0,-26 26,-41 42,-25 7,7 17,8 29,2 19,-11 69,3 69,18 0,22 -39,42 -82,42 -24,0 -48,-3 -51,-7 z"
       id="path133" /><path
       d="m 5322,11061 c -25,-15 -9,-46 23,-47 17,0 40,-4 52,-8 12,-4 32,-2 44,4 l 21,12 -23,24 c -17,18 -33,24 -63,24 -23,0 -47,-4 -54,-9 z"
       id="path134" /><path
       d="m 5497,11063 c -12,-11 -8,-40 8,-53 12,-10 18,-10 30,0 12,10 22,10 39,2 18,-8 28,-8 40,1 15,11 15,14 1,35 -13,17 -26,22 -64,22 -26,0 -51,-3 -54,-7 z"
       id="path135" /><path
       d="m 5673,11063 c -16,-6 -17,-40 -1,-49 23,-14 107,-13 119,2 20,24 -16,54 -65,53 -23,0 -47,-3 -53,-6 z"
       id="path136" /><path
       d="m 5837,11063 c -15,-15 -6,-43 16,-47 67,-14 96,-14 108,0 21,26 -16,54 -71,54 -26,0 -50,-3 -53,-7 z"
       id="path137" /><path
       d="m 6010,11055 c -11,-13 -9,-20 10,-40 21,-22 25,-23 40,-10 11,10 27,13 47,9 41,-8 54,13 23,38 -28,23 -102,25 -120,3 z"
       id="path138" /><path
       d="m 6193,11063 c -14,-5 -18,-42 -5,-44 9,-2 64,-8 77,-9 49,-4 77,42 33,54 -27,7 -87,7 -105,-1 z"
       id="path139" /><path
       d="m 6380,11063 c -41,-16 -28,-49 17,-47 15,0 45,2 66,2 29,2 37,6 37,21 0,10 -7,22 -16,25 -19,7 -83,7 -104,-1 z"
       id="path140" /><path
       d="m 6546,11057 c -34,-25 -14,-39 54,-40 56,-2 65,1 68,17 2,10 -2,22 -10,27 -20,13 -92,11 -112,-4 z"
       id="path141" /><path
       d="m 6713,11064 c -14,-6 -18,-43 -5,-45 4,-1 32,-3 63,-4 67,-3 89,6 73,32 -8,13 -26,19 -65,20 -30,1 -60,-1 -66,-3 z"
       id="path142" /><path
       d="m 6887,11063 c -12,-11 -8,-41 6,-45 6,-3 37,-3 67,-2 43,2 56,6 58,19 2,10 -2,21 -10,26 -15,10 -112,12 -121,2 z"
       id="path143" /><path
       d="m 7065,11050 c -24,-27 -16,-33 52,-35 67,-3 88,8 72,36 -14,28 -99,27 -124,-1 z"
       id="path144" /><path
       d="m 7235,11054 c -29,-29 -1,-44 73,-37 57,5 63,8 60,27 -3,18 -11,21 -59,24 -43,2 -61,-1 -74,-14 z"
       id="path145" /><path
       d="m 7422,11058 c -24,-24 -12,-35 46,-41 42,-5 61,-2 71,8 12,11 12,17 1,29 -15,19 -100,22 -118,4 z"
       id="path146" /><path
       d="m 7596,11055 c -20,-20 -20,-29 -1,-45 12,-10 19,-10 27,-2 7,7 32,12 56,12 39,0 43,2 40,23 -3,19 -10,22 -54,25 -37,2 -56,-2 -68,-13 z"
       id="path147" /><path
       d="m 1565,11000 c 4,-6 11,-8 16,-5 14,9 11,15 -7,15 -8,0 -12,-5 -9,-10 z"
       id="path148" /><path
       d="m 1641,10957 c -5,-7 -14,-25 -20,-40 -6,-15 -15,-27 -21,-27 -16,0 -11,-40 6,-47 10,-4 28,7 51,30 28,28 34,40 29,60 -7,29 -30,41 -45,24 z"
       id="path149" /><path
       d="m 7822,10937 c -31,-32 -43,-79 -23,-91 15,-10 92,76 89,99 -5,31 -31,28 -66,-8 z"
       id="path150" /><path
       d="m 10330,10920 c 0,-12 18,-40 39,-63 34,-36 41,-39 55,-28 20,17 20,35 0,52 -9,7 -20,23 -25,36 -12,31 -69,34 -69,3 z"
       id="path151" /><path
       d="m 4197,10883 c -26,-26 43,-123 77,-110 22,9 20,19 -11,72 -26,41 -49,55 -66,38 z"
       id="path152" /><path
       d="m 7737,10822 c -9,-10 -17,-24 -17,-32 0,-7 -7,-18 -17,-25 -21,-15 -10,-45 16,-45 27,0 73,62 69,92 -4,29 -29,34 -51,10 z"
       id="path153" /><path
       d="m 1516,10781 c -39,-40 -44,-66 -14,-85 20,-12 58,16 58,45 0,10 7,22 16,27 19,11 15,46 -6,50 -9,1 -33,-15 -54,-37 z"
       id="path154" /><path
       d="m 10442,10799 c -12,-18 -11,-24 7,-43 12,-12 21,-29 21,-38 0,-29 63,-39 74,-12 4,10 -10,34 -37,65 -23,27 -44,49 -47,49 -3,0 -11,-9 -18,-21 z"
       id="path155" /><path
       d="m 1915,10780 c 3,-5 8,-10 11,-10 2,0 4,5 4,10 0,6 -5,10 -11,10 -5,0 -7,-4 -4,-10 z"
       id="path156" /><path
       d="m 4293,10725 c -3,-9 2,-24 11,-34 9,-10 16,-22 16,-28 0,-5 8,-17 18,-27 18,-15 20,-15 35,2 23,25 21,35 -9,71 -28,33 -61,41 -71,16 z"
       id="path157" /><path
       d="m 7621,10653 c -18,-26 -30,-54 -29,-63 8,-37 78,-10 78,31 0,10 5,21 10,24 23,14 4,55 -25,55 -2,0 -17,-21 -34,-47 z"
       id="path158" /><path
       d="m 1420,10651 c 0,-10 -7,-24 -15,-31 -18,-15 -20,-60 -2,-60 22,0 90,77 84,94 -9,24 -67,21 -67,-3 z"
       id="path159" /><path
       d="m 10549,10658 c -3,-34 5,-56 34,-85 23,-25 34,-30 44,-22 19,16 16,43 -7,64 -11,10 -22,26 -25,36 -7,21 -44,26 -46,7 z"
       id="path160" /><path
       d="m 1665,10630 c 3,-5 10,-10 16,-10 5,0 9,5 9,10 0,6 -7,10 -16,10 -8,0 -12,-4 -9,-10 z"
       id="path161" /><path
       d="m 4397,10614 c -16,-17 -6,-62 21,-86 35,-34 66,-40 70,-13 3,22 -79,111 -91,99 z"
       id="path162" /><path
       d="m 1307,10522 c -10,-10 -17,-26 -17,-35 0,-9 -4,-17 -10,-17 -16,0 -11,-37 6,-44 29,-11 44,-6 55,17 5,12 16,33 24,46 7,13 11,30 8,37 -7,20 -47,17 -66,-4 z"
       id="path163" /><path
       d="m 7521,10506 c -39,-40 -41,-81 -3,-81 18,0 30,11 48,43 13,23 24,49 24,57 0,26 -35,16 -69,-19 z"
       id="path164" /><path
       d="m 10660,10520 c -21,-16 -23,-22 -12,-37 6,-10 16,-28 22,-40 7,-17 18,-23 40,-23 25,0 30,4 30,25 0,14 -4,25 -10,25 -5,0 -10,8 -10,18 0,11 -8,26 -18,35 -16,14 -19,14 -42,-3 z"
       id="path165" /><path
       d="m 4490,10456 c -13,-17 -8,-27 32,-75 28,-32 68,-42 68,-16 0,31 -54,105 -76,105 -6,0 -17,-7 -24,-14 z"
       id="path166" /><path
       d="m 7421,10364 c -33,-48 -38,-69 -20,-80 14,-8 89,65 89,88 0,9 -9,22 -19,28 -17,8 -24,4 -50,-36 z"
       id="path167" /><path
       d="m 1190,10355 -34,-35 21,-21 c 17,-17 24,-19 42,-10 11,7 21,20 21,30 0,10 7,24 15,31 22,19 18,40 -8,40 -13,0 -38,-15 -57,-35 z"
       id="path168" /><path
       d="m 10747,10383 c -15,-14 -6,-41 24,-76 69,-81 97,-18 30,66 -14,17 -42,23 -54,10 z"
       id="path169" /><path
       d="m 4594,10325 c -4,-9 0,-30 10,-45 9,-16 16,-33 16,-40 0,-23 31,-44 49,-33 35,22 15,67 -52,122 -14,11 -18,11 -23,-4 z"
       id="path170" /><path
       d="m 10720,10310 c 0,-5 5,-10 10,-10 6,0 10,5 10,10 0,6 -4,10 -10,10 -5,0 -10,-4 -10,-10 z"
       id="path171" /><path
       d="m 7337,10252 c -10,-10 -17,-25 -17,-32 0,-7 -7,-21 -16,-31 -18,-20 -11,-39 15,-39 23,0 71,51 71,76 0,19 -17,44 -30,44 -4,0 -14,-8 -23,-18 z"
       id="path172" /><path
       d="m 7100,9959 c 0,-5 5,-7 10,-4 6,3 10,8 10,11 0,2 -4,4 -10,4 -5,0 -10,-5 -10,-11 z"
       id="path173" /><path
       d="m 1217,10032 c -9,-10 -17,-22 -17,-25 0,-4 32,-7 71,-7 67,0 70,1 67,23 -3,19 -10,22 -54,25 -39,2 -54,-1 -67,-16 z"
       id="path174" /><path
       d="m 1390,10035 c -20,-24 -2,-35 60,-35 59,0 81,15 57,39 -16,16 -102,14 -117,-4 z"
       id="path175" /><path
       d="m 1564,10035 c -14,-35 3,-46 58,-39 60,7 73,16 65,38 -9,22 -115,23 -123,1 z"
       id="path176" /><path
       d="m 1737,10037 c -3,-8 1,-24 9,-36 28,-40 121,-19 112,25 -3,16 -13,20 -59,22 -42,2 -58,-1 -62,-11 z"
       id="path177" /><path
       d="m 1911,10031 c -22,-40 4,-62 67,-57 41,3 55,17 50,47 -3,21 -9,24 -55,27 -43,3 -54,0 -62,-17 z"
       id="path178" /><path
       d="m 2087,10044 c -11,-12 -8,-51 6,-60 6,-5 35,-9 62,-9 h 50 v 35 35 l -55,3 c -31,2 -59,0 -63,-4 z"
       id="path179" /><path
       d="m 2264,10036 c -3,-8 -4,-25 -2,-38 3,-21 8,-23 58,-23 h 55 v 35 35 l -53,3 c -39,2 -54,-1 -58,-12 z"
       id="path180" /><path
       d="m 2430,10030 c -8,-14 -8,-26 0,-40 21,-40 130,-20 130,24 0,24 -25,36 -72,36 -37,0 -50,-4 -58,-20 z"
       id="path181" /><path
       d="m 2614,10035 c -3,-8 -4,-24 -2,-37 2,-19 10,-24 40,-26 64,-5 99,28 62,59 -22,18 -94,21 -100,4 z"
       id="path182" /><path
       d="m 2856,10043 c -3,-3 -20,-6 -38,-7 -30,-1 -33,-4 -33,-31 0,-29 2,-30 51,-33 59,-3 83,13 65,46 -11,21 -35,34 -45,25 z"
       id="path183" /><path
       d="m 2965,10029 c -31,-33 -9,-54 56,-54 47,0 54,2 54,20 0,15 -8,21 -30,23 -16,2 -37,10 -46,18 -14,12 -18,12 -34,-7 z"
       id="path184" /><path
       d="m 2656,8871 c -4,-5 -3,-17 0,-26 5,-13 18,-15 63,-13 49,3 56,6 59,26 3,21 0,22 -57,22 -33,0 -62,-4 -65,-9 z"
       id="path185" /><path
       d="m 2832,8858 c 3,-20 10,-23 61,-26 55,-3 57,-2 57,23 0,24 -2,25 -61,25 -57,0 -60,-1 -57,-22 z"
       id="path186" /><path
       d="m 3873,8864 c -8,-21 24,-46 48,-39 10,3 20,1 24,-5 20,-33 72,8 54,42 -13,25 -117,26 -126,2 z"
       id="path187" /><path
       d="m 4062,8868 c -29,-29 -2,-53 66,-56 55,-2 58,1 42,42 -8,22 -16,26 -53,26 -24,0 -48,-5 -55,-12 z"
       id="path188" /><path
       d="m 4340,8715 c -7,-8 -19,-15 -26,-15 -15,0 -29,-43 -19,-59 10,-18 28,-12 63,19 36,33 43,70 13,70 -10,0 -24,-7 -31,-15 z"
       id="path189" /><path
       d="m 2483,8644 c -7,-19 53,-84 79,-84 30,0 25,58 -6,70 -13,5 -27,14 -31,19 -9,16 -35,13 -42,-5 z"
       id="path190" /><path
       d="m 4171,8596 c -34,-35 -37,-66 -6,-66 17,0 90,43 99,59 12,18 -6,41 -33,41 -18,0 -39,-12 -60,-34 z"
       id="path191" /><path
       d="m 2610,8535 c 0,-18 5,-25 18,-25 10,0 29,-11 42,-25 27,-29 48,-32 57,-9 9,24 -55,84 -89,84 -23,0 -28,-4 -28,-25 z"
       id="path192" /><path
       d="m 4043,8494 c -18,-20 -33,-40 -33,-45 0,-22 33,-19 71,5 30,20 39,33 37,49 -5,35 -39,31 -75,-9 z"
       id="path193" /><path
       d="m 2753,8444 c -11,-31 76,-94 112,-80 24,9 17,32 -20,65 -38,33 -82,41 -92,15 z"
       id="path194" /><path
       d="m 3910,8394 c -37,-20 -51,-43 -39,-65 5,-11 14,-19 20,-19 17,0 109,82 103,91 -8,13 -55,9 -84,-7 z"
       id="path195" /><path
       d="m 2903,8344 c -9,-24 55,-84 89,-84 39,0 35,19 -11,63 -42,40 -68,47 -78,21 z"
       id="path196" /><path
       d="m 3779,8294 c -14,-7 -33,-22 -44,-33 -14,-17 -15,-23 -5,-36 20,-24 54,-17 89,19 51,53 26,85 -40,50 z"
       id="path197" /><path
       d="m 3037,8253 c -23,-22 16,-71 41,-51 9,8 16,8 24,0 17,-17 34,-15 57,5 15,12 18,21 10,35 -8,14 -22,18 -68,18 -32,0 -61,-3 -64,-7 z"
       id="path198" /><path
       d="m 3211,8241 c -24,-44 86,-73 123,-33 15,18 15,20 -2,35 -27,25 -108,23 -121,-2 z"
       id="path199" /><path
       d="m 3398,8246 c -22,-16 -22,-23 -3,-42 21,-21 104,-15 119,8 23,37 -75,66 -116,34 z"
       id="path200" /><path
       d="m 3570,8240 c -25,-19 -25,-19 -5,-34 25,-19 109,-21 123,-3 9,10 7,19 -4,35 -20,28 -79,29 -114,2 z"
       id="path201" /><path
       d="m 2872,5718 c -30,-30 4,-66 60,-62 42,2 71,25 66,52 -2,13 -15,18 -58,20 -34,2 -60,-2 -68,-10 z"
       id="path202" /><path
       d="m 3046,5711 c -17,-19 -17,-21 -2,-36 24,-25 92,-26 113,-3 26,29 6,52 -49,56 -34,2 -48,-2 -62,-17 z"
       id="path203" /><path
       d="m 3222,5718 c -31,-31 3,-67 55,-59 57,9 81,26 67,48 -14,22 -102,31 -122,11 z"
       id="path204" /><path
       d="m 3392,5718 c -16,-16 -15,-28 4,-49 12,-13 25,-16 57,-11 47,6 70,24 65,50 -2,13 -15,18 -58,20 -34,2 -60,-2 -68,-10 z"
       id="path205" /><path
       d="m 3566,5712 c -15,-18 -15,-20 2,-35 43,-39 157,-4 122,38 -18,22 -102,20 -124,-3 z"
       id="path206" /><path
       d="m 3743,5712 c -19,-32 1,-51 50,-48 55,4 77,14 77,36 0,22 -19,30 -73,30 -30,0 -46,-5 -54,-18 z"
       id="path207" /><path
       d="m 3924,5716 c -14,-35 0,-51 47,-54 50,-3 85,21 73,52 -8,22 -112,23 -120,2 z"
       id="path208" /><path
       d="m 8997,10044 c -4,-4 -7,-16 -7,-26 0,-16 9,-18 71,-18 67,0 70,1 67,23 -3,20 -9,22 -63,25 -34,2 -64,0 -68,-4 z"
       id="path209" /><path
       d="m 9182,10038 c -27,-27 -13,-38 52,-38 63,0 79,8 69,38 -6,16 -105,16 -121,0 z"
       id="path210" /><path
       d="m 9347,10032 c -9,-10 -17,-22 -17,-25 0,-4 34,-7 76,-7 72,0 75,1 72,23 -3,19 -10,22 -59,25 -44,2 -59,-1 -72,-16 z"
       id="path211" /><path
       d="m 9527,10032 c -10,-10 -17,-22 -17,-25 0,-4 31,-7 69,-7 70,0 94,13 68,39 -18,18 -102,14 -120,-7 z"
       id="path212" /><path
       d="m 9702,10038 c -6,-6 -12,-17 -12,-24 0,-18 25,-35 36,-24 5,5 29,10 54,12 37,2 45,6 45,23 0,17 -8,20 -55,23 -34,2 -60,-2 -68,-10 z"
       id="path213" /><path
       d="m 9874,10035 c -10,-25 6,-33 66,-36 52,-3 55,-2 55,21 0,23 -4,25 -58,28 -45,2 -59,0 -63,-13 z"
       id="path214" /><path
       d="m 10047,10032 c -16,-18 -16,-20 2,-36 11,-10 28,-15 42,-12 81,16 80,16 77,39 -3,19 -10,22 -54,25 -39,2 -54,-1 -67,-16 z"
       id="path215" /><path
       d="m 10221,10031 c -15,-28 -14,-31 14,-31 14,0 34,-5 45,-12 26,-17 72,7 68,36 -3,18 -11,21 -60,24 -48,3 -58,0 -67,-17 z"
       id="path216" /><path
       d="m 10400,10015 c 0,-35 0,-35 43,-35 48,1 80,20 75,47 -3,14 -14,19 -61,21 l -57,3 z"
       id="path217" /><path
       d="m 10570,10030 c -17,-31 4,-60 43,-60 49,0 76,10 82,32 11,31 -13,48 -66,48 -38,0 -51,-4 -59,-20 z"
       id="path218" /><path
       d="m 7840,8865 c -20,-24 -2,-35 61,-35 56,0 59,1 59,25 0,24 -3,25 -54,25 -35,0 -58,-5 -66,-15 z"
       id="path219" /><path
       d="m 8014,8865 c -11,-26 10,-36 67,-33 46,3 54,6 54,23 0,17 -8,20 -58,23 -45,2 -59,0 -63,-13 z"
       id="path220" /><path
       d="m 8192,8858 c 3,-21 9,-23 58,-23 49,0 55,2 58,23 3,21 0,22 -58,22 -58,0 -61,-1 -58,-22 z"
       id="path221" /><path
       d="m 9052,8860 c -16,-27 -3,-32 69,-28 46,3 54,6 54,23 0,17 -8,20 -55,23 -47,2 -57,0 -68,-18 z"
       id="path222" /><path
       d="m 9223,8869 c -25,-25 -2,-39 63,-39 62,0 64,1 64,25 0,24 -3,25 -58,25 -32,0 -63,-5 -69,-11 z"
       id="path223" /><path
       d="m 9404,8865 c -11,-26 10,-36 67,-33 46,3 54,6 54,23 0,17 -8,20 -58,23 -45,2 -59,0 -63,-13 z"
       id="path224" /><path
       d="m 9535,8650 c -10,-11 -26,-20 -36,-20 -19,0 -28,-23 -21,-52 6,-26 22,-22 65,13 26,21 37,38 35,52 -4,28 -21,31 -43,7 z"
       id="path225" /><path
       d="m 7820,8595 c 0,-28 4,-35 19,-35 10,0 24,-7 31,-15 13,-15 51,-20 64,-8 10,10 -75,93 -96,93 -14,0 -18,-8 -18,-35 z"
       id="path226" /><path
       d="m 9369,8533 c -21,-19 -39,-44 -39,-54 0,-28 38,-24 62,6 11,14 28,25 39,25 27,0 26,46 -2,53 -14,4 -32,-5 -60,-30 z"
       id="path227" /><path
       d="m 7956,8512 c -15,-18 -14,-21 31,-60 58,-52 73,-53 73,-7 0,21 -5,35 -13,35 -7,0 -24,11 -39,25 -32,30 -31,30 -52,7 z"
       id="path228" /><path
       d="m 9221,8421 c -25,-22 -41,-44 -37,-50 12,-19 62,-12 82,10 10,12 29,25 42,30 21,8 21,9 5,29 -25,28 -42,25 -92,-19 z"
       id="path229" /><path
       d="m 8103,8413 c -26,-10 -12,-40 33,-72 75,-52 105,-17 38,45 -35,33 -46,38 -71,27 z"
       id="path230" /><path
       d="m 9096,8330 c -21,-16 -41,-32 -44,-34 -7,-8 28,-58 37,-54 5,2 28,20 51,41 40,37 41,39 24,58 -22,24 -21,24 -68,-11 z"
       id="path231" /><path
       d="m 8235,8290 c -7,-21 9,-50 27,-50 5,0 21,-9 35,-20 24,-19 26,-19 39,-3 17,23 18,43 1,43 -8,0 -24,11 -37,25 -28,30 -56,32 -65,5 z"
       id="path232" /><path
       d="m 8950,8247 c -24,-8 -36,-19 -38,-35 -3,-22 -1,-23 55,-20 48,2 58,6 61,22 3,11 -4,26 -14,33 -21,15 -19,15 -64,0 z"
       id="path233" /><path
       d="m 8564,8241 c -2,-2 -4,-15 -4,-28 0,-21 4,-23 59,-23 61,0 75,7 65,33 -4,10 -23,16 -61,19 -30,1 -57,1 -59,-1 z"
       id="path234" /><path
       d="m 8775,8241 c -31,-5 -40,-10 -40,-26 0,-18 8,-20 63,-23 55,-3 62,-1 62,16 0,20 -19,43 -34,41 -6,-1 -29,-5 -51,-8 z"
       id="path235" /><path
       d="m 8384,8225 c -10,-26 6,-35 66,-35 45,0 59,4 64,17 9,23 -11,33 -72,33 -37,0 -54,-4 -58,-15 z"
       id="path236" /><path
       d="m 8131,5711 c -31,-31 -17,-49 41,-53 61,-4 70,1 66,38 -3,26 -7,29 -45,32 -32,2 -47,-2 -62,-17 z"
       id="path237" /><path
       d="m 8302,5718 c -29,-29 -3,-57 57,-63 33,-3 43,0 55,17 14,20 14,24 -1,40 -19,21 -92,25 -111,6 z"
       id="path238" /><path
       d="m 8476,5711 c -19,-21 -12,-50 13,-52 56,-5 83,0 101,16 19,17 19,19 4,37 -23,25 -95,25 -118,-1 z"
       id="path239" /><path
       d="m 8653,5723 c -20,-7 -15,-51 6,-63 11,-5 36,-10 56,-10 28,0 38,5 47,25 16,36 -4,55 -56,54 -22,0 -47,-3 -53,-6 z"
       id="path240" /><path
       d="m 8817,5723 c -4,-3 -7,-17 -7,-30 0,-43 92,-60 125,-23 17,19 17,21 0,40 -13,15 -31,20 -65,20 -26,0 -50,-3 -53,-7 z"
       id="path241" /><path
       d="m 8992,5718 c -7,-7 -12,-20 -12,-29 0,-28 25,-40 72,-35 24,2 46,5 51,5 9,1 9,33 1,55 -7,19 -94,22 -112,4 z"
       id="path242" /><path
       d="m 9164,5716 c -3,-8 -4,-25 -2,-38 3,-21 7,-23 62,-21 32,1 60,3 62,5 2,2 0,17 -5,34 -7,27 -11,29 -59,32 -39,2 -54,-1 -58,-12 z"
       id="path243" /><path
       d="m 1370,9390 c 0,-5 5,-10 10,-10 6,0 10,5 10,10 0,6 -4,10 -10,10 -5,0 -10,-4 -10,-10 z"
       id="path244" /><path
       d="m 1570,9039 c 0,-5 5,-7 10,-4 6,3 10,8 10,11 0,2 -4,4 -10,4 -5,0 -10,-5 -10,-11 z"
       id="path245" /><path
       d="m 1418,8253 c -2,-5 -3,-30 -3,-58 1,-44 3,-50 23,-53 21,-3 22,0 22,57 0,54 -2,61 -19,61 -11,0 -21,-3 -23,-7 z"
       id="path246" /><path
       d="m 1424,8084 c -12,-5 -7,-103 6,-117 20,-22 59,25 40,48 -7,9 -6,16 5,25 35,29 -4,63 -51,44 z"
       id="path247" /><path
       d="m 1428,7913 c -20,-25 -13,-123 10,-123 33,0 50,29 45,73 -9,64 -28,82 -55,50 z"
       id="path248" /><path
       d="m 1435,7744 c -26,-19 -28,-88 -3,-111 17,-15 19,-15 38,2 26,23 27,86 3,108 -16,13 -20,14 -38,1 z"
       id="path249" /><path
       d="m 1195,7600 c 3,-5 8,-10 11,-10 2,0 4,5 4,10 0,6 -5,10 -11,10 -5,0 -7,-4 -4,-10 z"
       id="path250" /><path
       d="m 1535,7251 c -7,-23 -4,-29 33,-79 24,-31 26,-32 43,-16 23,21 23,25 2,50 -10,11 -23,29 -29,40 -15,27 -41,29 -49,5 z"
       id="path251" /><path
       d="m 1644,7105 c -7,-18 19,-76 41,-95 13,-11 19,-10 35,5 27,25 25,36 -13,73 -36,35 -55,40 -63,17 z"
       id="path252" /><path
       d="m 1747,6993 c -4,-3 -7,-19 -7,-35 0,-31 49,-88 76,-88 22,0 28,28 10,49 -9,10 -16,23 -16,30 0,12 -38,50 -51,51 -3,0 -9,-3 -12,-7 z"
       id="path253" /><path
       d="m 1841,6836 c -10,-12 -5,-23 25,-55 39,-44 58,-51 68,-25 8,22 10,18 -29,58 -38,40 -47,43 -64,22 z"
       id="path254" /><path
       d="m 1945,6700 c -16,-18 -16,-20 -1,-26 9,-3 16,-13 16,-22 0,-9 10,-26 21,-38 17,-18 26,-21 40,-13 28,14 23,43 -12,84 -36,41 -40,42 -64,15 z"
       id="path255" /><path
       d="m 10577,8253 c -4,-3 -7,-30 -7,-60 0,-50 1,-53 25,-53 24,0 25,3 25,60 0,52 -3,60 -18,60 -10,0 -22,-3 -25,-7 z"
       id="path256" /><path
       d="m 10574,8075 c -3,-7 -4,-34 -2,-61 3,-41 6,-49 23,-49 16,0 21,8 25,48 3,26 3,53 -1,59 -10,17 -39,19 -45,3 z"
       id="path257" /><path
       d="m 10582,7911 c -9,-5 -12,-25 -10,-62 2,-43 7,-55 21,-57 22,-4 50,29 36,43 -5,5 -9,26 -9,47 0,38 -11,47 -38,29 z"
       id="path258" /><path
       d="m 10577,7734 c -14,-15 -7,-101 9,-115 24,-20 40,8 39,67 -1,41 -4,49 -21,52 -11,2 -23,0 -27,-4 z"
       id="path259" /><path
       d="m 10479,7241 c -30,-33 -42,-76 -24,-91 19,-16 38,-3 62,41 18,33 20,44 10,60 -15,24 -17,24 -48,-10 z"
       id="path260" /><path
       d="m 10377,7113 c -4,-3 -7,-14 -7,-22 0,-9 -9,-22 -20,-29 -24,-15 -26,-35 -4,-52 13,-11 20,-9 44,16 15,16 31,44 35,62 6,29 4,32 -18,32 -13,0 -27,-3 -30,-7 z"
       id="path261" /><path
       d="m 10256,6940 c -30,-36 -34,-65 -10,-74 17,-6 54,19 54,36 0,5 7,16 15,25 20,19 15,37 -12,41 -13,2 -30,-8 -47,-28 z"
       id="path262" /><path
       d="m 10179,6827 c -48,-43 -63,-107 -26,-107 20,0 69,58 72,86 4,38 -18,48 -46,21 z"
       id="path263" /><path
       d="m 10057,6660 c -28,-39 -33,-80 -11,-87 14,-5 84,67 84,87 0,18 -19,40 -34,40 -6,0 -24,-18 -39,-40 z"
       id="path264" /><path
       d="m 9585,4800 c -3,-5 -1,-10 4,-10 6,0 11,5 11,10 0,6 -2,10 -4,10 -3,0 -8,-4 -11,-10 z"
       id="path265" /><path
       d="m 3350,9390 c 0,-5 -8,-10 -18,-10 -20,0 -82,-59 -82,-79 0,-7 -7,-20 -16,-28 -11,-12 -14,-26 -9,-52 4,-20 11,-37 16,-39 5,-2 9,-11 9,-21 0,-18 48,-67 87,-88 30,-17 128,-16 161,1 32,17 72,61 72,80 0,7 7,19 15,26 8,7 15,29 15,50 0,21 -7,43 -15,50 -8,7 -15,18 -15,24 0,18 -57,76 -74,76 -8,0 -18,5 -21,10 -3,6 -33,10 -66,10 -33,0 -59,-4 -59,-10 z m 138,-69 c 30,-26 34,-35 37,-88 2,-47 -1,-62 -18,-80 -11,-13 -26,-23 -33,-23 -6,0 -17,-7 -24,-15 -7,-8 -23,-15 -35,-15 -12,0 -28,7 -35,15 -7,8 -19,15 -28,15 -36,0 -52,31 -52,99 0,54 4,70 20,84 11,9 27,17 35,17 7,0 17,5 20,10 13,21 79,10 113,-19 z"
       id="path266" /><path
       d="m 8545,9372 c -46,-43 -55,-66 -55,-140 0,-67 1,-68 43,-107 23,-22 52,-46 64,-53 29,-15 84,-16 120,0 39,16 93,68 93,89 0,9 7,19 15,23 10,4 15,20 15,51 0,41 -5,52 -40,88 -22,23 -48,50 -57,60 -13,13 -33,17 -93,17 -69,0 -78,-2 -105,-28 z m 185,-49 c 17,-14 30,-33 30,-41 0,-9 7,-24 17,-34 15,-17 15,-19 0,-36 -10,-10 -17,-25 -17,-34 0,-31 -36,-49 -100,-50 -57,-1 -65,2 -91,30 -33,35 -39,91 -15,137 31,59 124,74 176,28 z"
       id="path267" /><path
       d="m 8540,8855 c 0,-25 2,-26 58,-23 50,3 57,6 60,26 3,21 0,22 -57,22 -59,0 -61,-1 -61,-25 z"
       id="path268" /><path
       d="m 1342,5208 c 2,-13 11,-24 22,-26 10,-2 28,-13 39,-23 25,-23 31,-23 47,-4 20,24 -33,75 -78,75 -29,0 -33,-3 -30,-22 z"
       id="path269" /><path
       d="m 1494,5125 c -11,-28 2,-49 43,-71 41,-21 42,-21 59,-3 16,18 16,20 -1,39 -10,11 -26,20 -37,20 -10,0 -18,4 -18,9 0,15 -41,20 -46,6 z"
       id="path270" /><path
       d="m 1626,5031 c -18,-20 -14,-41 7,-41 6,0 25,-14 42,-30 32,-31 65,-33 65,-3 0,15 -75,93 -89,93 -4,0 -16,-9 -25,-19 z"
       id="path271" /><path
       d="m 1773,4933 c -26,-10 -11,-39 37,-72 41,-28 52,-32 65,-21 22,18 19,26 -22,65 -37,33 -54,39 -80,28 z"
       id="path272" /><path
       d="m 1910,4812 c 0,-24 54,-72 80,-72 28,0 25,28 -7,62 -31,32 -73,38 -73,10 z"
       id="path273" /><path
       d="m 2040,4720 c -9,-17 -7,-22 12,-29 13,-5 32,-18 42,-30 24,-26 66,-28 66,-3 0,25 -61,82 -88,82 -12,0 -26,-9 -32,-20 z"
       id="path274" /><path
       d="m 2183,4625 c -11,-30 77,-95 112,-81 26,10 16,35 -27,66 -45,33 -75,38 -85,15 z"
       id="path275" /><path
       d="m 2360,4600 c 0,-5 5,-10 10,-10 6,0 10,5 10,10 0,6 -4,10 -10,10 -5,0 -10,-4 -10,-10 z"
       id="path276" /><path
       d="m 2333,4524 c -8,-21 54,-84 84,-84 13,0 26,7 30,15 6,17 -23,55 -42,55 -7,0 -18,7 -25,15 -16,19 -39,19 -47,-1 z"
       id="path277" /><path
       d="m 2487,4433 c -14,-14 -6,-34 26,-63 63,-58 96,-22 34,38 -33,32 -48,38 -60,25 z"
       id="path278" /><path
       d="m 2613,4324 c -8,-22 7,-44 43,-65 40,-24 74,-24 74,-1 0,19 -43,66 -52,57 -3,-3 -11,1 -18,10 -16,20 -39,19 -47,-1 z"
       id="path279" /><path
       d="m 10695,5220 c -3,-5 -13,-10 -21,-10 -19,0 -54,-36 -54,-55 0,-22 28,-30 48,-13 9,7 29,20 45,28 29,14 34,29 15,48 -15,15 -25,15 -33,2 z"
       id="path280" /><path
       d="m 10513,5091 c -24,-26 -40,-51 -36,-54 16,-17 55,-4 88,28 38,39 41,45 23,63 -19,19 -30,13 -75,-37 z"
       id="path281" /><path
       d="m 10420,5020 c 0,-5 -8,-10 -18,-10 -10,0 -28,-10 -40,-23 -45,-48 -17,-70 47,-37 34,18 41,27 41,51 0,19 -5,29 -15,29 -8,0 -15,-4 -15,-10 z"
       id="path282" /><path
       d="m 10258,4907 c -7,-8 -23,-19 -36,-26 -23,-12 -31,-54 -12,-66 12,-7 88,42 104,68 19,30 -29,50 -56,24 z"
       id="path283" /><path
       d="m 10086,4779 c -20,-24 -24,-34 -16,-49 10,-18 12,-18 48,5 55,37 62,44 56,60 -11,27 -60,18 -88,-16 z"
       id="path284" /><path
       d="m 9951,4675 c -33,-38 -37,-50 -21,-60 19,-12 104,57 97,79 -8,25 -45,16 -76,-19 z"
       id="path285" /><path
       d="m 9807,4582 c -49,-52 -21,-97 31,-50 15,14 35,28 45,31 9,4 17,16 17,27 0,32 -59,27 -93,-8 z"
       id="path286" /><path
       d="m 9693,4496 c -53,-29 -82,-74 -50,-77 32,-3 54,5 80,29 49,46 28,80 -30,48 z"
       id="path287" /><path
       d="m 9537,4382 c -41,-42 -47,-62 -19,-62 55,0 116,69 80,91 -19,13 -21,12 -61,-29 z"
       id="path288" /><path
       d="m 9433,4307 c -4,-8 -22,-22 -40,-31 -39,-20 -48,-33 -34,-50 17,-21 57,-11 93,23 27,25 31,34 22,48 -14,23 -31,27 -41,10 z"
       id="path289" /><path
       d="m 9630,5940 c 0,-5 5,-10 10,-10 6,0 10,5 10,10 0,6 -4,10 -10,10 -5,0 -10,-4 -10,-10 z"
       id="path290" /><path
       d="m 2090,3379 c 0,-5 5,-7 10,-4 6,3 10,8 10,11 0,2 -4,4 -10,4 -5,0 -10,-5 -10,-11 z"
       id="path291" /><path
       d="m 9830,3060 c 0,-5 5,-10 11,-10 5,0 7,5 4,10 -3,6 -8,10 -11,10 -2,0 -4,-4 -4,-10 z"
       id="path292" /><path
       d="m 4125,3580 c 3,-5 8,-10 11,-10 2,0 4,5 4,10 0,6 -5,10 -11,10 -5,0 -7,-4 -4,-10 z"
       id="path293" /><path
       d="m 7525,1870 c -3,-5 -1,-10 4,-10 6,0 11,5 11,10 0,6 -2,10 -4,10 -3,0 -8,-4 -11,-10 z"
       id="path294" /><path
       d="m 975,13360 c 3,-5 8,-10 11,-10 2,0 4,5 4,10 0,6 -5,10 -11,10 -5,0 -7,-4 -4,-10 z"
       id="path295" /><ellipse
       style="fill:#000000;stroke-width:27.7736"
       id="path27"
       cx="8710.5479"
       cy="-9051.6201"
       transform="scale(1,-1)"
       rx="543.23877"
       ry="499.83417" /><ellipse
       style="fill:#000000;stroke-width:27.7736"
       id="path27-2"
       cx="3406.1914"
       cy="-9132.1592"
       transform="scale(1,-1)"
       rx="543.23877"
       ry="499.83417" /><ellipse
       style="fill:#ffffff;fill-opacity:1;stroke-width:8.74841"
       id="path27-2-9"
       cx="3459.1262"
       cy="-9095.1357"
       transform="scale(1,-1)"
       rx="171.11479"
       ry="157.44276" /><ellipse
       style="fill:#ffffff;fill-opacity:1;stroke-width:8.74841"
       id="path27-2-9-0"
       cx="8674.0273"
       cy="-9069.2158"
       transform="scale(1,-1)"
       rx="171.11479"
       ry="157.44276" /></g></svg>
